<?xml version="1.0" encoding="utf-8" standalone="no"?>
<!DOCTYPE svg PUBLIC "-//W3C//DTD SVG 1.1//EN"
  "http://www.w3.org/Graphics/SVG/1.1/DTD/svg11.dtd">
<svg height="345.6pt" version="1.1" viewBox="0 0 460.8 345.6" width="460.8pt" xmlns="http://www.w3.org/2000/svg" xmlns:xlink="http://www.w3.org/1999/xlink">
 <metadata>
  <rdf:RDF xmlns:cc="http://creativecommons.org/ns#" xmlns:dc="http://purl.org/dc/elements/1.1/" xmlns:rdf="http://www.w3.org/1999/02/22-rdf-syntax-ns#">
   <cc:Work>
    <dc:type rdf:resource="http://purl.org/dc/dcmitype/StillImage"/>
    <dc:date>2021-07-19T20:41:05.265563</dc:date>
    <dc:format>image/svg+xml</dc:format>
    <dc:creator>
     <cc:Agent>
      <dc:title>Matplotlib v3.4.2, https://matplotlib.org/</dc:title>
     </cc:Agent>
    </dc:creator>
   </cc:Work>
  </rdf:RDF>
 </metadata>
 <defs>
  <style type="text/css">*{stroke-linecap:butt;stroke-linejoin:round;}</style>
 </defs>
 <g id="figure_1">
  <g id="patch_1">
   <path d="M 0 345.6 
L 460.8 345.6 
L 460.8 0 
L 0 0 
z
" style="fill:#ffffff;"/>
  </g>
  <g id="axes_1">
   <g id="patch_2">
    <path d="M 57.6 307.584 
L 414.72 307.584 
L 414.72 41.472 
L 57.6 41.472 
z
" style="fill:#ffffff;"/>
   </g>
   <g id="matplotlib.axis_1">
    <g id="xtick_1">
     <g id="line2d_1">
      <defs>
       <path d="M 0 0 
L 0 3.5 
" id="m250ba95d95" style="stroke:#000000;stroke-width:0.8;"/>
      </defs>
      <g>
       <use style="stroke:#000000;stroke-width:0.8;" x="73.832727" xlink:href="#m250ba95d95" y="307.584"/>
      </g>
     </g>
     <g id="text_1">
      <!-- 0 -->
      <g transform="translate(70.651477 322.182437)scale(0.1 -0.1)">
       <defs>
        <path d="M 2034 4250 
Q 1547 4250 1301 3770 
Q 1056 3291 1056 2328 
Q 1056 1369 1301 889 
Q 1547 409 2034 409 
Q 2525 409 2770 889 
Q 3016 1369 3016 2328 
Q 3016 3291 2770 3770 
Q 2525 4250 2034 4250 
z
M 2034 4750 
Q 2819 4750 3233 4129 
Q 3647 3509 3647 2328 
Q 3647 1150 3233 529 
Q 2819 -91 2034 -91 
Q 1250 -91 836 529 
Q 422 1150 422 2328 
Q 422 3509 836 4129 
Q 1250 4750 2034 4750 
z
" id="DejaVuSans-30" transform="scale(0.015625)"/>
       </defs>
       <use xlink:href="#DejaVuSans-30"/>
      </g>
     </g>
    </g>
    <g id="xtick_2">
     <g id="line2d_2">
      <g>
       <use style="stroke:#000000;stroke-width:0.8;" x="77.890909" xlink:href="#m250ba95d95" y="307.584"/>
      </g>
     </g>
     <g id="text_2">
      <!-- 1 -->
      <g transform="translate(74.709659 322.182437)scale(0.1 -0.1)">
       <defs>
        <path d="M 794 531 
L 1825 531 
L 1825 4091 
L 703 3866 
L 703 4441 
L 1819 4666 
L 2450 4666 
L 2450 531 
L 3481 531 
L 3481 0 
L 794 0 
L 794 531 
z
" id="DejaVuSans-31" transform="scale(0.015625)"/>
       </defs>
       <use xlink:href="#DejaVuSans-31"/>
      </g>
     </g>
    </g>
    <g id="xtick_3">
     <g id="line2d_3">
      <g>
       <use style="stroke:#000000;stroke-width:0.8;" x="81.949091" xlink:href="#m250ba95d95" y="307.584"/>
      </g>
     </g>
     <g id="text_3">
      <!-- 2 -->
      <g transform="translate(78.767841 322.182437)scale(0.1 -0.1)">
       <defs>
        <path d="M 1228 531 
L 3431 531 
L 3431 0 
L 469 0 
L 469 531 
Q 828 903 1448 1529 
Q 2069 2156 2228 2338 
Q 2531 2678 2651 2914 
Q 2772 3150 2772 3378 
Q 2772 3750 2511 3984 
Q 2250 4219 1831 4219 
Q 1534 4219 1204 4116 
Q 875 4013 500 3803 
L 500 4441 
Q 881 4594 1212 4672 
Q 1544 4750 1819 4750 
Q 2544 4750 2975 4387 
Q 3406 4025 3406 3419 
Q 3406 3131 3298 2873 
Q 3191 2616 2906 2266 
Q 2828 2175 2409 1742 
Q 1991 1309 1228 531 
z
" id="DejaVuSans-32" transform="scale(0.015625)"/>
       </defs>
       <use xlink:href="#DejaVuSans-32"/>
      </g>
     </g>
    </g>
    <g id="xtick_4">
     <g id="line2d_4">
      <g>
       <use style="stroke:#000000;stroke-width:0.8;" x="86.007273" xlink:href="#m250ba95d95" y="307.584"/>
      </g>
     </g>
     <g id="text_4">
      <!-- 3 -->
      <g transform="translate(82.826023 322.182437)scale(0.1 -0.1)">
       <defs>
        <path d="M 2597 2516 
Q 3050 2419 3304 2112 
Q 3559 1806 3559 1356 
Q 3559 666 3084 287 
Q 2609 -91 1734 -91 
Q 1441 -91 1130 -33 
Q 819 25 488 141 
L 488 750 
Q 750 597 1062 519 
Q 1375 441 1716 441 
Q 2309 441 2620 675 
Q 2931 909 2931 1356 
Q 2931 1769 2642 2001 
Q 2353 2234 1838 2234 
L 1294 2234 
L 1294 2753 
L 1863 2753 
Q 2328 2753 2575 2939 
Q 2822 3125 2822 3475 
Q 2822 3834 2567 4026 
Q 2313 4219 1838 4219 
Q 1578 4219 1281 4162 
Q 984 4106 628 3988 
L 628 4550 
Q 988 4650 1302 4700 
Q 1616 4750 1894 4750 
Q 2613 4750 3031 4423 
Q 3450 4097 3450 3541 
Q 3450 3153 3228 2886 
Q 3006 2619 2597 2516 
z
" id="DejaVuSans-33" transform="scale(0.015625)"/>
       </defs>
       <use xlink:href="#DejaVuSans-33"/>
      </g>
     </g>
    </g>
    <g id="xtick_5">
     <g id="line2d_5">
      <g>
       <use style="stroke:#000000;stroke-width:0.8;" x="90.065455" xlink:href="#m250ba95d95" y="307.584"/>
      </g>
     </g>
     <g id="text_5">
      <!-- 4 -->
      <g transform="translate(86.884205 322.182437)scale(0.1 -0.1)">
       <defs>
        <path d="M 2419 4116 
L 825 1625 
L 2419 1625 
L 2419 4116 
z
M 2253 4666 
L 3047 4666 
L 3047 1625 
L 3713 1625 
L 3713 1100 
L 3047 1100 
L 3047 0 
L 2419 0 
L 2419 1100 
L 313 1100 
L 313 1709 
L 2253 4666 
z
" id="DejaVuSans-34" transform="scale(0.015625)"/>
       </defs>
       <use xlink:href="#DejaVuSans-34"/>
      </g>
     </g>
    </g>
    <g id="xtick_6">
     <g id="line2d_6">
      <g>
       <use style="stroke:#000000;stroke-width:0.8;" x="94.123636" xlink:href="#m250ba95d95" y="307.584"/>
      </g>
     </g>
     <g id="text_6">
      <!-- 5 -->
      <g transform="translate(90.942386 322.182437)scale(0.1 -0.1)">
       <defs>
        <path d="M 691 4666 
L 3169 4666 
L 3169 4134 
L 1269 4134 
L 1269 2991 
Q 1406 3038 1543 3061 
Q 1681 3084 1819 3084 
Q 2600 3084 3056 2656 
Q 3513 2228 3513 1497 
Q 3513 744 3044 326 
Q 2575 -91 1722 -91 
Q 1428 -91 1123 -41 
Q 819 9 494 109 
L 494 744 
Q 775 591 1075 516 
Q 1375 441 1709 441 
Q 2250 441 2565 725 
Q 2881 1009 2881 1497 
Q 2881 1984 2565 2268 
Q 2250 2553 1709 2553 
Q 1456 2553 1204 2497 
Q 953 2441 691 2322 
L 691 4666 
z
" id="DejaVuSans-35" transform="scale(0.015625)"/>
       </defs>
       <use xlink:href="#DejaVuSans-35"/>
      </g>
     </g>
    </g>
    <g id="xtick_7">
     <g id="line2d_7">
      <g>
       <use style="stroke:#000000;stroke-width:0.8;" x="98.181818" xlink:href="#m250ba95d95" y="307.584"/>
      </g>
     </g>
     <g id="text_7">
      <!-- 6 -->
      <g transform="translate(95.000568 322.182437)scale(0.1 -0.1)">
       <defs>
        <path d="M 2113 2584 
Q 1688 2584 1439 2293 
Q 1191 2003 1191 1497 
Q 1191 994 1439 701 
Q 1688 409 2113 409 
Q 2538 409 2786 701 
Q 3034 994 3034 1497 
Q 3034 2003 2786 2293 
Q 2538 2584 2113 2584 
z
M 3366 4563 
L 3366 3988 
Q 3128 4100 2886 4159 
Q 2644 4219 2406 4219 
Q 1781 4219 1451 3797 
Q 1122 3375 1075 2522 
Q 1259 2794 1537 2939 
Q 1816 3084 2150 3084 
Q 2853 3084 3261 2657 
Q 3669 2231 3669 1497 
Q 3669 778 3244 343 
Q 2819 -91 2113 -91 
Q 1303 -91 875 529 
Q 447 1150 447 2328 
Q 447 3434 972 4092 
Q 1497 4750 2381 4750 
Q 2619 4750 2861 4703 
Q 3103 4656 3366 4563 
z
" id="DejaVuSans-36" transform="scale(0.015625)"/>
       </defs>
       <use xlink:href="#DejaVuSans-36"/>
      </g>
     </g>
    </g>
    <g id="xtick_8">
     <g id="line2d_8">
      <g>
       <use style="stroke:#000000;stroke-width:0.8;" x="102.24" xlink:href="#m250ba95d95" y="307.584"/>
      </g>
     </g>
     <g id="text_8">
      <!-- 7 -->
      <g transform="translate(99.05875 322.182437)scale(0.1 -0.1)">
       <defs>
        <path d="M 525 4666 
L 3525 4666 
L 3525 4397 
L 1831 0 
L 1172 0 
L 2766 4134 
L 525 4134 
L 525 4666 
z
" id="DejaVuSans-37" transform="scale(0.015625)"/>
       </defs>
       <use xlink:href="#DejaVuSans-37"/>
      </g>
     </g>
    </g>
    <g id="xtick_9">
     <g id="line2d_9">
      <g>
       <use style="stroke:#000000;stroke-width:0.8;" x="106.298182" xlink:href="#m250ba95d95" y="307.584"/>
      </g>
     </g>
     <g id="text_9">
      <!-- 8 -->
      <g transform="translate(103.116932 322.182437)scale(0.1 -0.1)">
       <defs>
        <path d="M 2034 2216 
Q 1584 2216 1326 1975 
Q 1069 1734 1069 1313 
Q 1069 891 1326 650 
Q 1584 409 2034 409 
Q 2484 409 2743 651 
Q 3003 894 3003 1313 
Q 3003 1734 2745 1975 
Q 2488 2216 2034 2216 
z
M 1403 2484 
Q 997 2584 770 2862 
Q 544 3141 544 3541 
Q 544 4100 942 4425 
Q 1341 4750 2034 4750 
Q 2731 4750 3128 4425 
Q 3525 4100 3525 3541 
Q 3525 3141 3298 2862 
Q 3072 2584 2669 2484 
Q 3125 2378 3379 2068 
Q 3634 1759 3634 1313 
Q 3634 634 3220 271 
Q 2806 -91 2034 -91 
Q 1263 -91 848 271 
Q 434 634 434 1313 
Q 434 1759 690 2068 
Q 947 2378 1403 2484 
z
M 1172 3481 
Q 1172 3119 1398 2916 
Q 1625 2713 2034 2713 
Q 2441 2713 2670 2916 
Q 2900 3119 2900 3481 
Q 2900 3844 2670 4047 
Q 2441 4250 2034 4250 
Q 1625 4250 1398 4047 
Q 1172 3844 1172 3481 
z
" id="DejaVuSans-38" transform="scale(0.015625)"/>
       </defs>
       <use xlink:href="#DejaVuSans-38"/>
      </g>
     </g>
    </g>
    <g id="xtick_10">
     <g id="line2d_10">
      <g>
       <use style="stroke:#000000;stroke-width:0.8;" x="110.356364" xlink:href="#m250ba95d95" y="307.584"/>
      </g>
     </g>
     <g id="text_10">
      <!-- 9 -->
      <g transform="translate(107.175114 322.182437)scale(0.1 -0.1)">
       <defs>
        <path d="M 703 97 
L 703 672 
Q 941 559 1184 500 
Q 1428 441 1663 441 
Q 2288 441 2617 861 
Q 2947 1281 2994 2138 
Q 2813 1869 2534 1725 
Q 2256 1581 1919 1581 
Q 1219 1581 811 2004 
Q 403 2428 403 3163 
Q 403 3881 828 4315 
Q 1253 4750 1959 4750 
Q 2769 4750 3195 4129 
Q 3622 3509 3622 2328 
Q 3622 1225 3098 567 
Q 2575 -91 1691 -91 
Q 1453 -91 1209 -44 
Q 966 3 703 97 
z
M 1959 2075 
Q 2384 2075 2632 2365 
Q 2881 2656 2881 3163 
Q 2881 3666 2632 3958 
Q 2384 4250 1959 4250 
Q 1534 4250 1286 3958 
Q 1038 3666 1038 3163 
Q 1038 2656 1286 2365 
Q 1534 2075 1959 2075 
z
" id="DejaVuSans-39" transform="scale(0.015625)"/>
       </defs>
       <use xlink:href="#DejaVuSans-39"/>
      </g>
     </g>
    </g>
    <g id="xtick_11">
     <g id="line2d_11">
      <g>
       <use style="stroke:#000000;stroke-width:0.8;" x="114.414545" xlink:href="#m250ba95d95" y="307.584"/>
      </g>
     </g>
     <g id="text_11">
      <!-- 10 -->
      <g transform="translate(108.052045 322.182437)scale(0.1 -0.1)">
       <use xlink:href="#DejaVuSans-31"/>
       <use x="63.623047" xlink:href="#DejaVuSans-30"/>
      </g>
     </g>
    </g>
    <g id="xtick_12">
     <g id="line2d_12">
      <g>
       <use style="stroke:#000000;stroke-width:0.8;" x="118.472727" xlink:href="#m250ba95d95" y="307.584"/>
      </g>
     </g>
     <g id="text_12">
      <!-- 11 -->
      <g transform="translate(112.110227 322.182437)scale(0.1 -0.1)">
       <use xlink:href="#DejaVuSans-31"/>
       <use x="63.623047" xlink:href="#DejaVuSans-31"/>
      </g>
     </g>
    </g>
    <g id="xtick_13">
     <g id="line2d_13">
      <g>
       <use style="stroke:#000000;stroke-width:0.8;" x="122.530909" xlink:href="#m250ba95d95" y="307.584"/>
      </g>
     </g>
     <g id="text_13">
      <!-- 12 -->
      <g transform="translate(116.168409 322.182437)scale(0.1 -0.1)">
       <use xlink:href="#DejaVuSans-31"/>
       <use x="63.623047" xlink:href="#DejaVuSans-32"/>
      </g>
     </g>
    </g>
    <g id="xtick_14">
     <g id="line2d_14">
      <g>
       <use style="stroke:#000000;stroke-width:0.8;" x="126.589091" xlink:href="#m250ba95d95" y="307.584"/>
      </g>
     </g>
     <g id="text_14">
      <!-- 13 -->
      <g transform="translate(120.226591 322.182437)scale(0.1 -0.1)">
       <use xlink:href="#DejaVuSans-31"/>
       <use x="63.623047" xlink:href="#DejaVuSans-33"/>
      </g>
     </g>
    </g>
    <g id="xtick_15">
     <g id="line2d_15">
      <g>
       <use style="stroke:#000000;stroke-width:0.8;" x="130.647273" xlink:href="#m250ba95d95" y="307.584"/>
      </g>
     </g>
     <g id="text_15">
      <!-- 14 -->
      <g transform="translate(124.284773 322.182437)scale(0.1 -0.1)">
       <use xlink:href="#DejaVuSans-31"/>
       <use x="63.623047" xlink:href="#DejaVuSans-34"/>
      </g>
     </g>
    </g>
    <g id="xtick_16">
     <g id="line2d_16">
      <g>
       <use style="stroke:#000000;stroke-width:0.8;" x="134.705455" xlink:href="#m250ba95d95" y="307.584"/>
      </g>
     </g>
     <g id="text_16">
      <!-- 15 -->
      <g transform="translate(128.342955 322.182437)scale(0.1 -0.1)">
       <use xlink:href="#DejaVuSans-31"/>
       <use x="63.623047" xlink:href="#DejaVuSans-35"/>
      </g>
     </g>
    </g>
    <g id="xtick_17">
     <g id="line2d_17">
      <g>
       <use style="stroke:#000000;stroke-width:0.8;" x="138.763636" xlink:href="#m250ba95d95" y="307.584"/>
      </g>
     </g>
     <g id="text_17">
      <!-- 16 -->
      <g transform="translate(132.401136 322.182437)scale(0.1 -0.1)">
       <use xlink:href="#DejaVuSans-31"/>
       <use x="63.623047" xlink:href="#DejaVuSans-36"/>
      </g>
     </g>
    </g>
    <g id="xtick_18">
     <g id="line2d_18">
      <g>
       <use style="stroke:#000000;stroke-width:0.8;" x="142.821818" xlink:href="#m250ba95d95" y="307.584"/>
      </g>
     </g>
     <g id="text_18">
      <!-- 17 -->
      <g transform="translate(136.459318 322.182437)scale(0.1 -0.1)">
       <use xlink:href="#DejaVuSans-31"/>
       <use x="63.623047" xlink:href="#DejaVuSans-37"/>
      </g>
     </g>
    </g>
    <g id="xtick_19">
     <g id="line2d_19">
      <g>
       <use style="stroke:#000000;stroke-width:0.8;" x="146.88" xlink:href="#m250ba95d95" y="307.584"/>
      </g>
     </g>
     <g id="text_19">
      <!-- 18 -->
      <g transform="translate(140.5175 322.182437)scale(0.1 -0.1)">
       <use xlink:href="#DejaVuSans-31"/>
       <use x="63.623047" xlink:href="#DejaVuSans-38"/>
      </g>
     </g>
    </g>
    <g id="xtick_20">
     <g id="line2d_20">
      <g>
       <use style="stroke:#000000;stroke-width:0.8;" x="150.938182" xlink:href="#m250ba95d95" y="307.584"/>
      </g>
     </g>
     <g id="text_20">
      <!-- 19 -->
      <g transform="translate(144.575682 322.182437)scale(0.1 -0.1)">
       <use xlink:href="#DejaVuSans-31"/>
       <use x="63.623047" xlink:href="#DejaVuSans-39"/>
      </g>
     </g>
    </g>
    <g id="xtick_21">
     <g id="line2d_21">
      <g>
       <use style="stroke:#000000;stroke-width:0.8;" x="154.996364" xlink:href="#m250ba95d95" y="307.584"/>
      </g>
     </g>
     <g id="text_21">
      <!-- 20 -->
      <g transform="translate(148.633864 322.182437)scale(0.1 -0.1)">
       <use xlink:href="#DejaVuSans-32"/>
       <use x="63.623047" xlink:href="#DejaVuSans-30"/>
      </g>
     </g>
    </g>
    <g id="xtick_22">
     <g id="line2d_22">
      <g>
       <use style="stroke:#000000;stroke-width:0.8;" x="159.054545" xlink:href="#m250ba95d95" y="307.584"/>
      </g>
     </g>
     <g id="text_22">
      <!-- 21 -->
      <g transform="translate(152.692045 322.182437)scale(0.1 -0.1)">
       <use xlink:href="#DejaVuSans-32"/>
       <use x="63.623047" xlink:href="#DejaVuSans-31"/>
      </g>
     </g>
    </g>
    <g id="xtick_23">
     <g id="line2d_23">
      <g>
       <use style="stroke:#000000;stroke-width:0.8;" x="163.112727" xlink:href="#m250ba95d95" y="307.584"/>
      </g>
     </g>
     <g id="text_23">
      <!-- 22 -->
      <g transform="translate(156.750227 322.182437)scale(0.1 -0.1)">
       <use xlink:href="#DejaVuSans-32"/>
       <use x="63.623047" xlink:href="#DejaVuSans-32"/>
      </g>
     </g>
    </g>
    <g id="xtick_24">
     <g id="line2d_24">
      <g>
       <use style="stroke:#000000;stroke-width:0.8;" x="167.170909" xlink:href="#m250ba95d95" y="307.584"/>
      </g>
     </g>
     <g id="text_24">
      <!-- 23 -->
      <g transform="translate(160.808409 322.182437)scale(0.1 -0.1)">
       <use xlink:href="#DejaVuSans-32"/>
       <use x="63.623047" xlink:href="#DejaVuSans-33"/>
      </g>
     </g>
    </g>
    <g id="xtick_25">
     <g id="line2d_25">
      <g>
       <use style="stroke:#000000;stroke-width:0.8;" x="171.229091" xlink:href="#m250ba95d95" y="307.584"/>
      </g>
     </g>
     <g id="text_25">
      <!-- 24 -->
      <g transform="translate(164.866591 322.182437)scale(0.1 -0.1)">
       <use xlink:href="#DejaVuSans-32"/>
       <use x="63.623047" xlink:href="#DejaVuSans-34"/>
      </g>
     </g>
    </g>
    <g id="xtick_26">
     <g id="line2d_26">
      <g>
       <use style="stroke:#000000;stroke-width:0.8;" x="175.287273" xlink:href="#m250ba95d95" y="307.584"/>
      </g>
     </g>
     <g id="text_26">
      <!-- 25 -->
      <g transform="translate(168.924773 322.182437)scale(0.1 -0.1)">
       <use xlink:href="#DejaVuSans-32"/>
       <use x="63.623047" xlink:href="#DejaVuSans-35"/>
      </g>
     </g>
    </g>
    <g id="xtick_27">
     <g id="line2d_27">
      <g>
       <use style="stroke:#000000;stroke-width:0.8;" x="179.345455" xlink:href="#m250ba95d95" y="307.584"/>
      </g>
     </g>
     <g id="text_27">
      <!-- 26 -->
      <g transform="translate(172.982955 322.182437)scale(0.1 -0.1)">
       <use xlink:href="#DejaVuSans-32"/>
       <use x="63.623047" xlink:href="#DejaVuSans-36"/>
      </g>
     </g>
    </g>
    <g id="xtick_28">
     <g id="line2d_28">
      <g>
       <use style="stroke:#000000;stroke-width:0.8;" x="183.403636" xlink:href="#m250ba95d95" y="307.584"/>
      </g>
     </g>
     <g id="text_28">
      <!-- 27 -->
      <g transform="translate(177.041136 322.182437)scale(0.1 -0.1)">
       <use xlink:href="#DejaVuSans-32"/>
       <use x="63.623047" xlink:href="#DejaVuSans-37"/>
      </g>
     </g>
    </g>
    <g id="xtick_29">
     <g id="line2d_29">
      <g>
       <use style="stroke:#000000;stroke-width:0.8;" x="187.461818" xlink:href="#m250ba95d95" y="307.584"/>
      </g>
     </g>
     <g id="text_29">
      <!-- 28 -->
      <g transform="translate(181.099318 322.182437)scale(0.1 -0.1)">
       <use xlink:href="#DejaVuSans-32"/>
       <use x="63.623047" xlink:href="#DejaVuSans-38"/>
      </g>
     </g>
    </g>
    <g id="xtick_30">
     <g id="line2d_30">
      <g>
       <use style="stroke:#000000;stroke-width:0.8;" x="191.52" xlink:href="#m250ba95d95" y="307.584"/>
      </g>
     </g>
     <g id="text_30">
      <!-- 29 -->
      <g transform="translate(185.1575 322.182437)scale(0.1 -0.1)">
       <use xlink:href="#DejaVuSans-32"/>
       <use x="63.623047" xlink:href="#DejaVuSans-39"/>
      </g>
     </g>
    </g>
    <g id="xtick_31">
     <g id="line2d_31">
      <g>
       <use style="stroke:#000000;stroke-width:0.8;" x="195.578182" xlink:href="#m250ba95d95" y="307.584"/>
      </g>
     </g>
     <g id="text_31">
      <!-- 30 -->
      <g transform="translate(189.215682 322.182437)scale(0.1 -0.1)">
       <use xlink:href="#DejaVuSans-33"/>
       <use x="63.623047" xlink:href="#DejaVuSans-30"/>
      </g>
     </g>
    </g>
    <g id="xtick_32">
     <g id="line2d_32">
      <g>
       <use style="stroke:#000000;stroke-width:0.8;" x="199.636364" xlink:href="#m250ba95d95" y="307.584"/>
      </g>
     </g>
     <g id="text_32">
      <!-- 31 -->
      <g transform="translate(193.273864 322.182437)scale(0.1 -0.1)">
       <use xlink:href="#DejaVuSans-33"/>
       <use x="63.623047" xlink:href="#DejaVuSans-31"/>
      </g>
     </g>
    </g>
    <g id="xtick_33">
     <g id="line2d_33">
      <g>
       <use style="stroke:#000000;stroke-width:0.8;" x="203.694545" xlink:href="#m250ba95d95" y="307.584"/>
      </g>
     </g>
     <g id="text_33">
      <!-- 32 -->
      <g transform="translate(197.332045 322.182437)scale(0.1 -0.1)">
       <use xlink:href="#DejaVuSans-33"/>
       <use x="63.623047" xlink:href="#DejaVuSans-32"/>
      </g>
     </g>
    </g>
    <g id="xtick_34">
     <g id="line2d_34">
      <g>
       <use style="stroke:#000000;stroke-width:0.8;" x="207.752727" xlink:href="#m250ba95d95" y="307.584"/>
      </g>
     </g>
     <g id="text_34">
      <!-- 33 -->
      <g transform="translate(201.390227 322.182437)scale(0.1 -0.1)">
       <use xlink:href="#DejaVuSans-33"/>
       <use x="63.623047" xlink:href="#DejaVuSans-33"/>
      </g>
     </g>
    </g>
    <g id="xtick_35">
     <g id="line2d_35">
      <g>
       <use style="stroke:#000000;stroke-width:0.8;" x="211.810909" xlink:href="#m250ba95d95" y="307.584"/>
      </g>
     </g>
     <g id="text_35">
      <!-- 34 -->
      <g transform="translate(205.448409 322.182437)scale(0.1 -0.1)">
       <use xlink:href="#DejaVuSans-33"/>
       <use x="63.623047" xlink:href="#DejaVuSans-34"/>
      </g>
     </g>
    </g>
    <g id="xtick_36">
     <g id="line2d_36">
      <g>
       <use style="stroke:#000000;stroke-width:0.8;" x="215.869091" xlink:href="#m250ba95d95" y="307.584"/>
      </g>
     </g>
     <g id="text_36">
      <!-- 35 -->
      <g transform="translate(209.506591 322.182437)scale(0.1 -0.1)">
       <use xlink:href="#DejaVuSans-33"/>
       <use x="63.623047" xlink:href="#DejaVuSans-35"/>
      </g>
     </g>
    </g>
    <g id="xtick_37">
     <g id="line2d_37">
      <g>
       <use style="stroke:#000000;stroke-width:0.8;" x="219.927273" xlink:href="#m250ba95d95" y="307.584"/>
      </g>
     </g>
     <g id="text_37">
      <!-- 36 -->
      <g transform="translate(213.564773 322.182437)scale(0.1 -0.1)">
       <use xlink:href="#DejaVuSans-33"/>
       <use x="63.623047" xlink:href="#DejaVuSans-36"/>
      </g>
     </g>
    </g>
    <g id="xtick_38">
     <g id="line2d_38">
      <g>
       <use style="stroke:#000000;stroke-width:0.8;" x="223.985455" xlink:href="#m250ba95d95" y="307.584"/>
      </g>
     </g>
     <g id="text_38">
      <!-- 37 -->
      <g transform="translate(217.622955 322.182437)scale(0.1 -0.1)">
       <use xlink:href="#DejaVuSans-33"/>
       <use x="63.623047" xlink:href="#DejaVuSans-37"/>
      </g>
     </g>
    </g>
    <g id="xtick_39">
     <g id="line2d_39">
      <g>
       <use style="stroke:#000000;stroke-width:0.8;" x="228.043636" xlink:href="#m250ba95d95" y="307.584"/>
      </g>
     </g>
     <g id="text_39">
      <!-- 38 -->
      <g transform="translate(221.681136 322.182437)scale(0.1 -0.1)">
       <use xlink:href="#DejaVuSans-33"/>
       <use x="63.623047" xlink:href="#DejaVuSans-38"/>
      </g>
     </g>
    </g>
    <g id="xtick_40">
     <g id="line2d_40">
      <g>
       <use style="stroke:#000000;stroke-width:0.8;" x="232.101818" xlink:href="#m250ba95d95" y="307.584"/>
      </g>
     </g>
     <g id="text_40">
      <!-- 39 -->
      <g transform="translate(225.739318 322.182437)scale(0.1 -0.1)">
       <use xlink:href="#DejaVuSans-33"/>
       <use x="63.623047" xlink:href="#DejaVuSans-39"/>
      </g>
     </g>
    </g>
    <g id="xtick_41">
     <g id="line2d_41">
      <g>
       <use style="stroke:#000000;stroke-width:0.8;" x="236.16" xlink:href="#m250ba95d95" y="307.584"/>
      </g>
     </g>
     <g id="text_41">
      <!-- 40 -->
      <g transform="translate(229.7975 322.182437)scale(0.1 -0.1)">
       <use xlink:href="#DejaVuSans-34"/>
       <use x="63.623047" xlink:href="#DejaVuSans-30"/>
      </g>
     </g>
    </g>
    <g id="xtick_42">
     <g id="line2d_42">
      <g>
       <use style="stroke:#000000;stroke-width:0.8;" x="240.218182" xlink:href="#m250ba95d95" y="307.584"/>
      </g>
     </g>
     <g id="text_42">
      <!-- 41 -->
      <g transform="translate(233.855682 322.182437)scale(0.1 -0.1)">
       <use xlink:href="#DejaVuSans-34"/>
       <use x="63.623047" xlink:href="#DejaVuSans-31"/>
      </g>
     </g>
    </g>
    <g id="xtick_43">
     <g id="line2d_43">
      <g>
       <use style="stroke:#000000;stroke-width:0.8;" x="244.276364" xlink:href="#m250ba95d95" y="307.584"/>
      </g>
     </g>
     <g id="text_43">
      <!-- 42 -->
      <g transform="translate(237.913864 322.182437)scale(0.1 -0.1)">
       <use xlink:href="#DejaVuSans-34"/>
       <use x="63.623047" xlink:href="#DejaVuSans-32"/>
      </g>
     </g>
    </g>
    <g id="xtick_44">
     <g id="line2d_44">
      <g>
       <use style="stroke:#000000;stroke-width:0.8;" x="248.334545" xlink:href="#m250ba95d95" y="307.584"/>
      </g>
     </g>
     <g id="text_44">
      <!-- 43 -->
      <g transform="translate(241.972045 322.182437)scale(0.1 -0.1)">
       <use xlink:href="#DejaVuSans-34"/>
       <use x="63.623047" xlink:href="#DejaVuSans-33"/>
      </g>
     </g>
    </g>
    <g id="xtick_45">
     <g id="line2d_45">
      <g>
       <use style="stroke:#000000;stroke-width:0.8;" x="252.392727" xlink:href="#m250ba95d95" y="307.584"/>
      </g>
     </g>
     <g id="text_45">
      <!-- 44 -->
      <g transform="translate(246.030227 322.182437)scale(0.1 -0.1)">
       <use xlink:href="#DejaVuSans-34"/>
       <use x="63.623047" xlink:href="#DejaVuSans-34"/>
      </g>
     </g>
    </g>
    <g id="xtick_46">
     <g id="line2d_46">
      <g>
       <use style="stroke:#000000;stroke-width:0.8;" x="256.450909" xlink:href="#m250ba95d95" y="307.584"/>
      </g>
     </g>
     <g id="text_46">
      <!-- 45 -->
      <g transform="translate(250.088409 322.182437)scale(0.1 -0.1)">
       <use xlink:href="#DejaVuSans-34"/>
       <use x="63.623047" xlink:href="#DejaVuSans-35"/>
      </g>
     </g>
    </g>
    <g id="xtick_47">
     <g id="line2d_47">
      <g>
       <use style="stroke:#000000;stroke-width:0.8;" x="260.509091" xlink:href="#m250ba95d95" y="307.584"/>
      </g>
     </g>
     <g id="text_47">
      <!-- 46 -->
      <g transform="translate(254.146591 322.182437)scale(0.1 -0.1)">
       <use xlink:href="#DejaVuSans-34"/>
       <use x="63.623047" xlink:href="#DejaVuSans-36"/>
      </g>
     </g>
    </g>
    <g id="xtick_48">
     <g id="line2d_48">
      <g>
       <use style="stroke:#000000;stroke-width:0.8;" x="264.567273" xlink:href="#m250ba95d95" y="307.584"/>
      </g>
     </g>
     <g id="text_48">
      <!-- 47 -->
      <g transform="translate(258.204773 322.182437)scale(0.1 -0.1)">
       <use xlink:href="#DejaVuSans-34"/>
       <use x="63.623047" xlink:href="#DejaVuSans-37"/>
      </g>
     </g>
    </g>
    <g id="xtick_49">
     <g id="line2d_49">
      <g>
       <use style="stroke:#000000;stroke-width:0.8;" x="268.625455" xlink:href="#m250ba95d95" y="307.584"/>
      </g>
     </g>
     <g id="text_49">
      <!-- 48 -->
      <g transform="translate(262.262955 322.182437)scale(0.1 -0.1)">
       <use xlink:href="#DejaVuSans-34"/>
       <use x="63.623047" xlink:href="#DejaVuSans-38"/>
      </g>
     </g>
    </g>
    <g id="xtick_50">
     <g id="line2d_50">
      <g>
       <use style="stroke:#000000;stroke-width:0.8;" x="272.683636" xlink:href="#m250ba95d95" y="307.584"/>
      </g>
     </g>
     <g id="text_50">
      <!-- 49 -->
      <g transform="translate(266.321136 322.182437)scale(0.1 -0.1)">
       <use xlink:href="#DejaVuSans-34"/>
       <use x="63.623047" xlink:href="#DejaVuSans-39"/>
      </g>
     </g>
    </g>
    <g id="xtick_51">
     <g id="line2d_51">
      <g>
       <use style="stroke:#000000;stroke-width:0.8;" x="276.741818" xlink:href="#m250ba95d95" y="307.584"/>
      </g>
     </g>
     <g id="text_51">
      <!-- 50 -->
      <g transform="translate(270.379318 322.182437)scale(0.1 -0.1)">
       <use xlink:href="#DejaVuSans-35"/>
       <use x="63.623047" xlink:href="#DejaVuSans-30"/>
      </g>
     </g>
    </g>
    <g id="xtick_52">
     <g id="line2d_52">
      <g>
       <use style="stroke:#000000;stroke-width:0.8;" x="280.8" xlink:href="#m250ba95d95" y="307.584"/>
      </g>
     </g>
     <g id="text_52">
      <!-- 51 -->
      <g transform="translate(274.4375 322.182437)scale(0.1 -0.1)">
       <use xlink:href="#DejaVuSans-35"/>
       <use x="63.623047" xlink:href="#DejaVuSans-31"/>
      </g>
     </g>
    </g>
    <g id="xtick_53">
     <g id="line2d_53">
      <g>
       <use style="stroke:#000000;stroke-width:0.8;" x="284.858182" xlink:href="#m250ba95d95" y="307.584"/>
      </g>
     </g>
     <g id="text_53">
      <!-- 52 -->
      <g transform="translate(278.495682 322.182437)scale(0.1 -0.1)">
       <use xlink:href="#DejaVuSans-35"/>
       <use x="63.623047" xlink:href="#DejaVuSans-32"/>
      </g>
     </g>
    </g>
    <g id="xtick_54">
     <g id="line2d_54">
      <g>
       <use style="stroke:#000000;stroke-width:0.8;" x="288.916364" xlink:href="#m250ba95d95" y="307.584"/>
      </g>
     </g>
     <g id="text_54">
      <!-- 53 -->
      <g transform="translate(282.553864 322.182437)scale(0.1 -0.1)">
       <use xlink:href="#DejaVuSans-35"/>
       <use x="63.623047" xlink:href="#DejaVuSans-33"/>
      </g>
     </g>
    </g>
    <g id="xtick_55">
     <g id="line2d_55">
      <g>
       <use style="stroke:#000000;stroke-width:0.8;" x="292.974545" xlink:href="#m250ba95d95" y="307.584"/>
      </g>
     </g>
     <g id="text_55">
      <!-- 54 -->
      <g transform="translate(286.612045 322.182437)scale(0.1 -0.1)">
       <use xlink:href="#DejaVuSans-35"/>
       <use x="63.623047" xlink:href="#DejaVuSans-34"/>
      </g>
     </g>
    </g>
    <g id="xtick_56">
     <g id="line2d_56">
      <g>
       <use style="stroke:#000000;stroke-width:0.8;" x="297.032727" xlink:href="#m250ba95d95" y="307.584"/>
      </g>
     </g>
     <g id="text_56">
      <!-- 55 -->
      <g transform="translate(290.670227 322.182437)scale(0.1 -0.1)">
       <use xlink:href="#DejaVuSans-35"/>
       <use x="63.623047" xlink:href="#DejaVuSans-35"/>
      </g>
     </g>
    </g>
    <g id="xtick_57">
     <g id="line2d_57">
      <g>
       <use style="stroke:#000000;stroke-width:0.8;" x="301.090909" xlink:href="#m250ba95d95" y="307.584"/>
      </g>
     </g>
     <g id="text_57">
      <!-- 56 -->
      <g transform="translate(294.728409 322.182437)scale(0.1 -0.1)">
       <use xlink:href="#DejaVuSans-35"/>
       <use x="63.623047" xlink:href="#DejaVuSans-36"/>
      </g>
     </g>
    </g>
    <g id="xtick_58">
     <g id="line2d_58">
      <g>
       <use style="stroke:#000000;stroke-width:0.8;" x="305.149091" xlink:href="#m250ba95d95" y="307.584"/>
      </g>
     </g>
     <g id="text_58">
      <!-- 57 -->
      <g transform="translate(298.786591 322.182437)scale(0.1 -0.1)">
       <use xlink:href="#DejaVuSans-35"/>
       <use x="63.623047" xlink:href="#DejaVuSans-37"/>
      </g>
     </g>
    </g>
    <g id="xtick_59">
     <g id="line2d_59">
      <g>
       <use style="stroke:#000000;stroke-width:0.8;" x="309.207273" xlink:href="#m250ba95d95" y="307.584"/>
      </g>
     </g>
     <g id="text_59">
      <!-- 58 -->
      <g transform="translate(302.844773 322.182437)scale(0.1 -0.1)">
       <use xlink:href="#DejaVuSans-35"/>
       <use x="63.623047" xlink:href="#DejaVuSans-38"/>
      </g>
     </g>
    </g>
    <g id="xtick_60">
     <g id="line2d_60">
      <g>
       <use style="stroke:#000000;stroke-width:0.8;" x="313.265455" xlink:href="#m250ba95d95" y="307.584"/>
      </g>
     </g>
     <g id="text_60">
      <!-- 59 -->
      <g transform="translate(306.902955 322.182437)scale(0.1 -0.1)">
       <use xlink:href="#DejaVuSans-35"/>
       <use x="63.623047" xlink:href="#DejaVuSans-39"/>
      </g>
     </g>
    </g>
    <g id="xtick_61">
     <g id="line2d_61">
      <g>
       <use style="stroke:#000000;stroke-width:0.8;" x="317.323636" xlink:href="#m250ba95d95" y="307.584"/>
      </g>
     </g>
     <g id="text_61">
      <!-- 60 -->
      <g transform="translate(310.961136 322.182437)scale(0.1 -0.1)">
       <use xlink:href="#DejaVuSans-36"/>
       <use x="63.623047" xlink:href="#DejaVuSans-30"/>
      </g>
     </g>
    </g>
    <g id="xtick_62">
     <g id="line2d_62">
      <g>
       <use style="stroke:#000000;stroke-width:0.8;" x="321.381818" xlink:href="#m250ba95d95" y="307.584"/>
      </g>
     </g>
     <g id="text_62">
      <!-- 61 -->
      <g transform="translate(315.019318 322.182437)scale(0.1 -0.1)">
       <use xlink:href="#DejaVuSans-36"/>
       <use x="63.623047" xlink:href="#DejaVuSans-31"/>
      </g>
     </g>
    </g>
    <g id="xtick_63">
     <g id="line2d_63">
      <g>
       <use style="stroke:#000000;stroke-width:0.8;" x="325.44" xlink:href="#m250ba95d95" y="307.584"/>
      </g>
     </g>
     <g id="text_63">
      <!-- 62 -->
      <g transform="translate(319.0775 322.182437)scale(0.1 -0.1)">
       <use xlink:href="#DejaVuSans-36"/>
       <use x="63.623047" xlink:href="#DejaVuSans-32"/>
      </g>
     </g>
    </g>
    <g id="xtick_64">
     <g id="line2d_64">
      <g>
       <use style="stroke:#000000;stroke-width:0.8;" x="329.498182" xlink:href="#m250ba95d95" y="307.584"/>
      </g>
     </g>
     <g id="text_64">
      <!-- 63 -->
      <g transform="translate(323.135682 322.182437)scale(0.1 -0.1)">
       <use xlink:href="#DejaVuSans-36"/>
       <use x="63.623047" xlink:href="#DejaVuSans-33"/>
      </g>
     </g>
    </g>
    <g id="xtick_65">
     <g id="line2d_65">
      <g>
       <use style="stroke:#000000;stroke-width:0.8;" x="333.556364" xlink:href="#m250ba95d95" y="307.584"/>
      </g>
     </g>
     <g id="text_65">
      <!-- 64 -->
      <g transform="translate(327.193864 322.182437)scale(0.1 -0.1)">
       <use xlink:href="#DejaVuSans-36"/>
       <use x="63.623047" xlink:href="#DejaVuSans-34"/>
      </g>
     </g>
    </g>
    <g id="xtick_66">
     <g id="line2d_66">
      <g>
       <use style="stroke:#000000;stroke-width:0.8;" x="337.614545" xlink:href="#m250ba95d95" y="307.584"/>
      </g>
     </g>
     <g id="text_66">
      <!-- 65 -->
      <g transform="translate(331.252045 322.182437)scale(0.1 -0.1)">
       <use xlink:href="#DejaVuSans-36"/>
       <use x="63.623047" xlink:href="#DejaVuSans-35"/>
      </g>
     </g>
    </g>
    <g id="xtick_67">
     <g id="line2d_67">
      <g>
       <use style="stroke:#000000;stroke-width:0.8;" x="341.672727" xlink:href="#m250ba95d95" y="307.584"/>
      </g>
     </g>
     <g id="text_67">
      <!-- 66 -->
      <g transform="translate(335.310227 322.182437)scale(0.1 -0.1)">
       <use xlink:href="#DejaVuSans-36"/>
       <use x="63.623047" xlink:href="#DejaVuSans-36"/>
      </g>
     </g>
    </g>
    <g id="xtick_68">
     <g id="line2d_68">
      <g>
       <use style="stroke:#000000;stroke-width:0.8;" x="345.730909" xlink:href="#m250ba95d95" y="307.584"/>
      </g>
     </g>
     <g id="text_68">
      <!-- 67 -->
      <g transform="translate(339.368409 322.182437)scale(0.1 -0.1)">
       <use xlink:href="#DejaVuSans-36"/>
       <use x="63.623047" xlink:href="#DejaVuSans-37"/>
      </g>
     </g>
    </g>
    <g id="xtick_69">
     <g id="line2d_69">
      <g>
       <use style="stroke:#000000;stroke-width:0.8;" x="349.789091" xlink:href="#m250ba95d95" y="307.584"/>
      </g>
     </g>
     <g id="text_69">
      <!-- 68 -->
      <g transform="translate(343.426591 322.182437)scale(0.1 -0.1)">
       <use xlink:href="#DejaVuSans-36"/>
       <use x="63.623047" xlink:href="#DejaVuSans-38"/>
      </g>
     </g>
    </g>
    <g id="xtick_70">
     <g id="line2d_70">
      <g>
       <use style="stroke:#000000;stroke-width:0.8;" x="353.847273" xlink:href="#m250ba95d95" y="307.584"/>
      </g>
     </g>
     <g id="text_70">
      <!-- 69 -->
      <g transform="translate(347.484773 322.182437)scale(0.1 -0.1)">
       <use xlink:href="#DejaVuSans-36"/>
       <use x="63.623047" xlink:href="#DejaVuSans-39"/>
      </g>
     </g>
    </g>
    <g id="xtick_71">
     <g id="line2d_71">
      <g>
       <use style="stroke:#000000;stroke-width:0.8;" x="357.905455" xlink:href="#m250ba95d95" y="307.584"/>
      </g>
     </g>
     <g id="text_71">
      <!-- 70 -->
      <g transform="translate(351.542955 322.182437)scale(0.1 -0.1)">
       <use xlink:href="#DejaVuSans-37"/>
       <use x="63.623047" xlink:href="#DejaVuSans-30"/>
      </g>
     </g>
    </g>
    <g id="xtick_72">
     <g id="line2d_72">
      <g>
       <use style="stroke:#000000;stroke-width:0.8;" x="361.963636" xlink:href="#m250ba95d95" y="307.584"/>
      </g>
     </g>
     <g id="text_72">
      <!-- 71 -->
      <g transform="translate(355.601136 322.182437)scale(0.1 -0.1)">
       <use xlink:href="#DejaVuSans-37"/>
       <use x="63.623047" xlink:href="#DejaVuSans-31"/>
      </g>
     </g>
    </g>
    <g id="xtick_73">
     <g id="line2d_73">
      <g>
       <use style="stroke:#000000;stroke-width:0.8;" x="366.021818" xlink:href="#m250ba95d95" y="307.584"/>
      </g>
     </g>
     <g id="text_73">
      <!-- 72 -->
      <g transform="translate(359.659318 322.182437)scale(0.1 -0.1)">
       <use xlink:href="#DejaVuSans-37"/>
       <use x="63.623047" xlink:href="#DejaVuSans-32"/>
      </g>
     </g>
    </g>
    <g id="xtick_74">
     <g id="line2d_74">
      <g>
       <use style="stroke:#000000;stroke-width:0.8;" x="370.08" xlink:href="#m250ba95d95" y="307.584"/>
      </g>
     </g>
     <g id="text_74">
      <!-- 73 -->
      <g transform="translate(363.7175 322.182437)scale(0.1 -0.1)">
       <use xlink:href="#DejaVuSans-37"/>
       <use x="63.623047" xlink:href="#DejaVuSans-33"/>
      </g>
     </g>
    </g>
    <g id="xtick_75">
     <g id="line2d_75">
      <g>
       <use style="stroke:#000000;stroke-width:0.8;" x="374.138182" xlink:href="#m250ba95d95" y="307.584"/>
      </g>
     </g>
     <g id="text_75">
      <!-- 74 -->
      <g transform="translate(367.775682 322.182437)scale(0.1 -0.1)">
       <use xlink:href="#DejaVuSans-37"/>
       <use x="63.623047" xlink:href="#DejaVuSans-34"/>
      </g>
     </g>
    </g>
    <g id="xtick_76">
     <g id="line2d_76">
      <g>
       <use style="stroke:#000000;stroke-width:0.8;" x="378.196364" xlink:href="#m250ba95d95" y="307.584"/>
      </g>
     </g>
     <g id="text_76">
      <!-- 75 -->
      <g transform="translate(371.833864 322.182437)scale(0.1 -0.1)">
       <use xlink:href="#DejaVuSans-37"/>
       <use x="63.623047" xlink:href="#DejaVuSans-35"/>
      </g>
     </g>
    </g>
    <g id="xtick_77">
     <g id="line2d_77">
      <g>
       <use style="stroke:#000000;stroke-width:0.8;" x="382.254545" xlink:href="#m250ba95d95" y="307.584"/>
      </g>
     </g>
     <g id="text_77">
      <!-- 76 -->
      <g transform="translate(375.892045 322.182437)scale(0.1 -0.1)">
       <use xlink:href="#DejaVuSans-37"/>
       <use x="63.623047" xlink:href="#DejaVuSans-36"/>
      </g>
     </g>
    </g>
    <g id="xtick_78">
     <g id="line2d_78">
      <g>
       <use style="stroke:#000000;stroke-width:0.8;" x="386.312727" xlink:href="#m250ba95d95" y="307.584"/>
      </g>
     </g>
     <g id="text_78">
      <!-- 77 -->
      <g transform="translate(379.950227 322.182437)scale(0.1 -0.1)">
       <use xlink:href="#DejaVuSans-37"/>
       <use x="63.623047" xlink:href="#DejaVuSans-37"/>
      </g>
     </g>
    </g>
    <g id="xtick_79">
     <g id="line2d_79">
      <g>
       <use style="stroke:#000000;stroke-width:0.8;" x="390.370909" xlink:href="#m250ba95d95" y="307.584"/>
      </g>
     </g>
     <g id="text_79">
      <!-- 78 -->
      <g transform="translate(384.008409 322.182437)scale(0.1 -0.1)">
       <use xlink:href="#DejaVuSans-37"/>
       <use x="63.623047" xlink:href="#DejaVuSans-38"/>
      </g>
     </g>
    </g>
    <g id="xtick_80">
     <g id="line2d_80">
      <g>
       <use style="stroke:#000000;stroke-width:0.8;" x="394.429091" xlink:href="#m250ba95d95" y="307.584"/>
      </g>
     </g>
     <g id="text_80">
      <!-- 79 -->
      <g transform="translate(388.066591 322.182437)scale(0.1 -0.1)">
       <use xlink:href="#DejaVuSans-37"/>
       <use x="63.623047" xlink:href="#DejaVuSans-39"/>
      </g>
     </g>
    </g>
    <g id="xtick_81">
     <g id="line2d_81">
      <g>
       <use style="stroke:#000000;stroke-width:0.8;" x="398.487273" xlink:href="#m250ba95d95" y="307.584"/>
      </g>
     </g>
     <g id="text_81">
      <!-- 80 -->
      <g transform="translate(392.124773 322.182437)scale(0.1 -0.1)">
       <use xlink:href="#DejaVuSans-38"/>
       <use x="63.623047" xlink:href="#DejaVuSans-30"/>
      </g>
     </g>
    </g>
    <g id="text_82">
     <!-- Time -->
     <g transform="translate(223.926406 335.860562)scale(0.1 -0.1)">
      <defs>
       <path d="M -19 4666 
L 3928 4666 
L 3928 4134 
L 2272 4134 
L 2272 0 
L 1638 0 
L 1638 4134 
L -19 4134 
L -19 4666 
z
" id="DejaVuSans-54" transform="scale(0.015625)"/>
       <path d="M 603 3500 
L 1178 3500 
L 1178 0 
L 603 0 
L 603 3500 
z
M 603 4863 
L 1178 4863 
L 1178 4134 
L 603 4134 
L 603 4863 
z
" id="DejaVuSans-69" transform="scale(0.015625)"/>
       <path d="M 3328 2828 
Q 3544 3216 3844 3400 
Q 4144 3584 4550 3584 
Q 5097 3584 5394 3201 
Q 5691 2819 5691 2113 
L 5691 0 
L 5113 0 
L 5113 2094 
Q 5113 2597 4934 2840 
Q 4756 3084 4391 3084 
Q 3944 3084 3684 2787 
Q 3425 2491 3425 1978 
L 3425 0 
L 2847 0 
L 2847 2094 
Q 2847 2600 2669 2842 
Q 2491 3084 2119 3084 
Q 1678 3084 1418 2786 
Q 1159 2488 1159 1978 
L 1159 0 
L 581 0 
L 581 3500 
L 1159 3500 
L 1159 2956 
Q 1356 3278 1631 3431 
Q 1906 3584 2284 3584 
Q 2666 3584 2933 3390 
Q 3200 3197 3328 2828 
z
" id="DejaVuSans-6d" transform="scale(0.015625)"/>
       <path d="M 3597 1894 
L 3597 1613 
L 953 1613 
Q 991 1019 1311 708 
Q 1631 397 2203 397 
Q 2534 397 2845 478 
Q 3156 559 3463 722 
L 3463 178 
Q 3153 47 2828 -22 
Q 2503 -91 2169 -91 
Q 1331 -91 842 396 
Q 353 884 353 1716 
Q 353 2575 817 3079 
Q 1281 3584 2069 3584 
Q 2775 3584 3186 3129 
Q 3597 2675 3597 1894 
z
M 3022 2063 
Q 3016 2534 2758 2815 
Q 2500 3097 2075 3097 
Q 1594 3097 1305 2825 
Q 1016 2553 972 2059 
L 3022 2063 
z
" id="DejaVuSans-65" transform="scale(0.015625)"/>
      </defs>
      <use xlink:href="#DejaVuSans-54"/>
      <use x="57.958984" xlink:href="#DejaVuSans-69"/>
      <use x="85.742188" xlink:href="#DejaVuSans-6d"/>
      <use x="183.154297" xlink:href="#DejaVuSans-65"/>
     </g>
    </g>
   </g>
   <g id="matplotlib.axis_2">
    <g id="ytick_1">
     <g id="line2d_82">
      <defs>
       <path d="M 0 0 
L -3.5 0 
" id="m831c9cabec" style="stroke:#000000;stroke-width:0.8;"/>
      </defs>
      <g>
       <use style="stroke:#000000;stroke-width:0.8;" x="57.6" xlink:href="#m831c9cabec" y="262.068042"/>
      </g>
     </g>
     <g id="text_83">
      <!-- 0 -->
      <g transform="translate(44.2375 265.867261)scale(0.1 -0.1)">
       <use xlink:href="#DejaVuSans-30"/>
      </g>
     </g>
    </g>
    <g id="ytick_2">
     <g id="line2d_83">
      <g>
       <use style="stroke:#000000;stroke-width:0.8;" x="57.6" xlink:href="#m831c9cabec" y="208.811326"/>
      </g>
     </g>
     <g id="text_84">
      <!-- 1 -->
      <g transform="translate(44.2375 212.610545)scale(0.1 -0.1)">
       <use xlink:href="#DejaVuSans-31"/>
      </g>
     </g>
    </g>
    <g id="ytick_3">
     <g id="line2d_84">
      <g>
       <use style="stroke:#000000;stroke-width:0.8;" x="57.6" xlink:href="#m831c9cabec" y="155.554611"/>
      </g>
     </g>
     <g id="text_85">
      <!-- 2 -->
      <g transform="translate(44.2375 159.353829)scale(0.1 -0.1)">
       <use xlink:href="#DejaVuSans-32"/>
      </g>
     </g>
    </g>
    <g id="ytick_4">
     <g id="line2d_85">
      <g>
       <use style="stroke:#000000;stroke-width:0.8;" x="57.6" xlink:href="#m831c9cabec" y="102.297895"/>
      </g>
     </g>
     <g id="text_86">
      <!-- 3 -->
      <g transform="translate(44.2375 106.097114)scale(0.1 -0.1)">
       <use xlink:href="#DejaVuSans-33"/>
      </g>
     </g>
    </g>
    <g id="ytick_5">
     <g id="line2d_86">
      <g>
       <use style="stroke:#000000;stroke-width:0.8;" x="57.6" xlink:href="#m831c9cabec" y="49.041179"/>
      </g>
     </g>
     <g id="text_87">
      <!-- 4 -->
      <g transform="translate(44.2375 52.840398)scale(0.1 -0.1)">
       <use xlink:href="#DejaVuSans-34"/>
      </g>
     </g>
    </g>
    <g id="text_88">
     <!-- 1e6 -->
     <g transform="translate(57.6 38.472)scale(0.1 -0.1)">
      <use xlink:href="#DejaVuSans-31"/>
      <use x="63.623047" xlink:href="#DejaVuSans-65"/>
      <use x="125.146484" xlink:href="#DejaVuSans-36"/>
     </g>
    </g>
   </g>
   <g id="line2d_87">
    <path clip-path="url(#pe696fbf2da)" d="M 73.832727 261.535475 
L 77.890909 261.696453 
L 81.949091 261.948534 
L 86.007273 262.226488 
L 90.065455 262.488655 
L 94.123636 262.710722 
L 98.181818 262.880803 
L 102.24 262.995586 
L 106.298182 263.057391 
L 110.356364 263.071959 
L 114.414545 263.046837 
L 118.472727 262.990235 
L 122.530909 262.910247 
L 126.589091 262.814353 
L 130.647273 262.709137 
L 134.705455 262.600148 
L 138.763636 262.491871 
L 142.821818 262.387778 
L 146.88 262.290411 
L 150.938182 262.201502 
L 154.996364 262.122092 
L 159.054545 262.052658 
L 163.112727 261.993233 
L 167.170909 261.943506 
L 171.229091 261.902925 
L 175.287273 261.870767 
L 179.345455 261.846212 
L 183.403636 261.82839 
L 187.461818 261.816425 
L 191.52 261.809466 
L 195.578182 261.806708 
L 199.636364 261.807408 
L 203.694545 261.810894 
L 207.752727 261.816568 
L 211.810909 261.823908 
L 215.869091 261.832466 
L 219.927273 261.841865 
L 223.985455 261.851792 
L 228.043636 261.861995 
L 232.101818 261.872277 
L 236.16 261.882489 
L 240.218182 261.892525 
L 244.276364 261.902318 
L 248.334545 261.911834 
L 252.392727 261.92107 
L 256.450909 261.93005 
L 260.509091 261.938819 
L 264.567273 261.947444 
L 268.625455 261.956009 
L 272.683636 261.964614 
L 276.741818 261.973368 
L 280.8 261.982394 
L 284.858182 261.991817 
L 288.916364 262.001762 
L 292.974545 262.012352 
L 297.032727 262.023695 
L 301.090909 262.035879 
L 305.149091 262.048962 
L 309.207273 262.062954 
L 313.265455 262.07781 
L 317.323636 262.093407 
L 321.381818 262.109527 
L 325.44 262.125835 
L 329.498182 262.141861 
L 333.556364 262.156975 
L 337.614545 262.170371 
L 341.672727 262.181051 
L 345.730909 262.18782 
L 349.789091 262.189291 
L 353.847273 262.183908 
L 357.905455 262.170001 
L 361.963636 262.145864 
L 366.021818 262.109888 
L 370.08 262.060751 
L 374.138182 261.997681 
L 378.196364 261.920812 
L 382.254545 261.831662 
L 386.312727 261.733743 
L 390.370909 261.63334 
L 394.429091 261.540481 
L 398.487273 261.470136 
" style="fill:none;stroke:#1f77b4;stroke-linecap:square;stroke-width:1.5;"/>
   </g>
   <g id="line2d_88">
    <path clip-path="url(#pe696fbf2da)" d="M 73.832727 261.535475 
L 77.890909 265.287612 
L 81.949091 267.109653 
L 86.007273 267.627134 
L 90.065455 267.311365 
L 94.123636 266.50939 
L 98.181818 265.469659 
L 102.24 264.363706 
L 106.298182 263.304142 
L 110.356364 262.359401 
L 114.414545 261.565607 
L 118.472727 260.936 
L 122.530909 260.468271 
L 126.589091 260.150175 
L 130.647273 259.963725 
L 134.705455 259.888244 
L 138.763636 259.902506 
L 142.821818 259.986179 
L 146.88 260.120716 
L 150.938182 260.289859 
L 154.996364 260.479838 
L 159.054545 260.67937 
L 163.112727 260.879527 
L 167.170909 261.073516 
L 171.229091 261.256414 
L 175.287273 261.424893 
L 179.345455 261.576939 
L 183.403636 261.711599 
L 187.461818 261.828742 
L 191.52 261.928859 
L 195.578182 262.012883 
L 199.636364 262.082045 
L 203.694545 262.137757 
L 207.752727 262.181518 
L 211.810909 262.214842 
L 215.869091 262.239206 
L 219.927273 262.256017 
L 223.985455 262.266585 
L 228.043636 262.272111 
L 232.101818 262.273683 
L 236.16 262.272276 
L 240.218182 262.268757 
L 244.276364 262.263895 
L 248.334545 262.258368 
L 252.392727 262.252773 
L 256.450909 262.247637 
L 260.509091 262.243425 
L 264.567273 262.240542 
L 268.625455 262.239342 
L 272.683636 262.240126 
L 276.741818 262.243138 
L 280.8 262.248558 
L 284.858182 262.256492 
L 288.916364 262.266952 
L 292.974545 262.279836 
L 297.032727 262.294902 
L 301.090909 262.311729 
L 305.149091 262.329688 
L 309.207273 262.347894 
L 313.265455 262.365165 
L 317.323636 262.379979 
L 321.381818 262.39043 
L 325.44 262.394205 
L 329.498182 262.388558 
L 333.556364 262.370326 
L 337.614545 262.335965 
L 341.672727 262.281648 
L 345.730909 262.203421 
L 349.789091 262.097452 
L 353.847273 261.960395 
L 357.905455 261.7899 
L 361.963636 261.585299 
L 366.021818 261.348528 
L 370.08 261.085302 
L 374.138182 260.806626 
L 378.196364 260.530664 
L 382.254545 260.28505 
L 386.312727 260.109667 
L 390.370909 260.059969 
L 394.429091 260.210859 
L 398.487273 260.661154 
" style="fill:none;stroke:#ff7f0e;stroke-linecap:square;stroke-width:1.5;"/>
   </g>
   <g id="line2d_89">
    <path clip-path="url(#pe696fbf2da)" d="M 73.832727 261.535475 
L 77.890909 261.490781 
L 81.949091 261.459913 
L 86.007273 261.444897 
L 90.065455 261.445596 
L 94.123636 261.460525 
L 98.181818 261.487441 
L 102.24 261.523775 
L 106.298182 261.566926 
L 110.356364 261.61445 
L 114.414545 261.664173 
L 118.472727 261.714257 
L 122.530909 261.763209 
L 126.589091 261.809877 
L 130.647273 261.853424 
L 134.705455 261.893288 
L 138.763636 261.929146 
L 142.821818 261.960866 
L 146.88 261.988473 
L 150.938182 262.012107 
L 154.996364 262.031997 
L 159.054545 262.048425 
L 163.112727 262.061711 
L 167.170909 262.072188 
L 171.229091 262.080194 
L 175.287273 262.086053 
L 179.345455 262.090075 
L 183.403636 262.092546 
L 187.461818 262.093725 
L 191.52 262.093845 
L 195.578182 262.093111 
L 199.636364 262.091702 
L 203.694545 262.089769 
L 207.752727 262.087443 
L 211.810909 262.084832 
L 215.869091 262.082025 
L 219.927273 262.079094 
L 223.985455 262.0761 
L 228.043636 262.073087 
L 232.101818 262.070095 
L 236.16 262.067151 
L 240.218182 262.064279 
L 244.276364 262.061499 
L 248.334545 262.058828 
L 252.392727 262.05628 
L 256.450909 262.053872 
L 260.509091 262.051621 
L 264.567273 262.049545 
L 268.625455 262.047668 
L 272.683636 262.046018 
L 276.741818 262.044628 
L 280.8 262.043536 
L 284.858182 262.042788 
L 288.916364 262.042435 
L 292.974545 262.042537 
L 297.032727 262.043157 
L 301.090909 262.044364 
L 305.149091 262.046233 
L 309.207273 262.048837 
L 313.265455 262.052248 
L 317.323636 262.05653 
L 321.381818 262.061738 
L 325.44 262.067906 
L 329.498182 262.075043 
L 333.556364 262.08312 
L 337.614545 262.092062 
L 341.672727 262.101737 
L 345.730909 262.11194 
L 349.789091 262.122383 
L 353.847273 262.132686 
L 357.905455 262.142362 
L 361.963636 262.15082 
L 366.021818 262.157359 
L 370.08 262.161191 
L 374.138182 262.16146 
L 378.196364 262.157294 
L 382.254545 262.14788 
L 386.312727 262.132573 
L 390.370909 262.111052 
L 394.429091 262.08353 
L 398.487273 262.051038 
" style="fill:none;stroke:#2ca02c;stroke-linecap:square;stroke-width:1.5;"/>
   </g>
   <g id="line2d_90">
    <path clip-path="url(#pe696fbf2da)" d="M 73.832727 261.535475 
L 77.890909 269.262626 
L 81.949091 273.192875 
L 86.007273 274.508776 
L 90.065455 274.11228 
L 94.123636 272.676748 
L 98.181818 270.692161 
L 102.24 268.503739 
L 106.298182 266.344429 
L 110.356364 264.361792 
L 114.414545 262.639931 
L 118.472727 261.21709 
L 122.530909 260.099539 
L 126.589091 259.272339 
L 130.647273 258.707511 
L 134.705455 258.37009 
L 138.763636 258.222484 
L 142.821818 258.227482 
L 146.88 258.350233 
L 150.938182 258.559423 
L 154.996364 258.827883 
L 159.054545 259.132765 
L 163.112727 259.455437 
L 167.170909 259.781189 
L 171.229091 260.098829 
L 175.287273 260.400221 
L 179.345455 260.679822 
L 183.403636 260.934217 
L 187.461818 261.161703 
L 191.52 261.361907 
L 195.578182 261.535457 
L 199.636364 261.683704 
L 203.694545 261.808485 
L 207.752727 261.91194 
L 211.810909 261.996367 
L 215.869091 262.064104 
L 219.927273 262.117452 
L 223.985455 262.158614 
L 228.043636 262.189666 
L 232.101818 262.212526 
L 236.16 262.228955 
L 240.218182 262.240555 
L 244.276364 262.248773 
L 248.334545 262.254916 
L 252.392727 262.260165 
L 256.450909 262.265582 
L 260.509091 262.272124 
L 264.567273 262.280649 
L 268.625455 262.291921 
L 272.683636 262.306603 
L 276.741818 262.325248 
L 280.8 262.34828 
L 284.858182 262.375967 
L 288.916364 262.408378 
L 292.974545 262.445339 
L 297.032727 262.48637 
L 301.090909 262.53061 
L 305.149091 262.576739 
L 309.207273 262.622885 
L 313.265455 262.666528 
L 317.323636 262.704406 
L 321.381818 262.732422 
L 325.44 262.745579 
L 329.498182 262.737936 
L 333.556364 262.702624 
L 337.614545 262.631927 
L 341.672727 262.517478 
L 345.730909 262.350591 
L 349.789091 262.122786 
L 353.847273 261.826556 
L 357.905455 261.456452 
L 361.963636 261.010552 
L 366.021818 260.49241 
L 370.08 259.913586 
L 374.138182 259.296854 
L 378.196364 258.680223 
L 382.254545 258.12187 
L 386.312727 257.706117 
L 390.370909 257.550543 
L 394.429091 257.814322 
L 398.487273 258.707828 
" style="fill:none;stroke:#d62728;stroke-linecap:square;stroke-width:1.5;"/>
   </g>
   <g id="line2d_91">
    <path clip-path="url(#pe696fbf2da)" d="M 73.832727 53.568 
L 77.890909 167.797809 
L 81.949091 188.887051 
L 86.007273 206.008239 
L 90.065455 219.686276 
L 94.123636 230.427563 
L 98.181818 238.704277 
L 102.24 244.944974 
L 106.298182 249.529981 
L 110.356364 252.790269 
L 114.414545 255.008778 
L 118.472727 256.423384 
L 122.530909 257.230855 
L 126.589091 257.591332 
L 130.647273 257.632974 
L 134.705455 257.456514 
L 138.763636 257.139565 
L 142.821818 256.740567 
L 146.88 256.302312 
L 150.938182 255.85504 
L 154.996364 255.419095 
L 159.054545 255.007174 
L 163.112727 254.626196 
L 167.170909 254.278831 
L 171.229091 253.964733 
L 175.287273 253.681516 
L 179.345455 253.425516 
L 183.403636 253.192373 
L 187.461818 252.977473 
L 191.52 252.776268 
L 195.578182 252.584518 
L 199.636364 252.398462 
L 203.694545 252.214941 
L 207.752727 252.031504 
L 211.810909 251.84648 
L 215.869091 251.659057 
L 219.927273 251.469361 
L 223.985455 251.278542 
L 228.043636 251.088879 
L 232.101818 250.903893 
L 236.16 250.728487 
L 240.218182 250.569098 
L 244.276364 250.43386 
L 248.334545 250.332773 
L 252.392727 250.277879 
L 256.450909 250.283412 
L 260.509091 250.365922 
L 264.567273 250.544352 
L 268.625455 250.840034 
L 272.683636 251.276579 
L 276.741818 251.879625 
L 280.8 252.676394 
L 284.858182 253.695026 
L 288.916364 254.963611 
L 292.974545 256.50889 
L 297.032727 258.354546 
L 301.090909 260.519043 
L 305.149091 263.012952 
L 309.207273 265.835744 
L 313.265455 268.972021 
L 317.323636 272.387227 
L 321.381818 276.022895 
L 325.44 279.791588 
L 329.498182 283.571762 
L 333.556364 287.202917 
L 337.614545 290.481554 
L 341.672727 293.15865 
L 345.730909 294.939617 
L 349.789091 295.488 
L 353.847273 294.434541 
L 357.905455 291.393638 
L 361.963636 285.989737 
L 366.021818 277.896729 
L 370.08 266.894063 
L 374.138182 252.943938 
L 378.196364 236.294647 
L 382.254545 217.615875 
L 386.312727 198.172397 
L 390.370909 180.043256 
L 394.429091 166.393887 
L 398.487273 161.808834 
" style="fill:none;stroke:#9467bd;stroke-linecap:square;stroke-width:1.5;"/>
   </g>
   <g id="line2d_92">
    <path clip-path="url(#pe696fbf2da)" d="M 73.832727 262.068042 
L 77.890909 262.068042 
L 81.949091 262.068042 
L 86.007273 262.068042 
L 90.065455 262.068042 
L 94.123636 262.068042 
L 98.181818 262.068042 
L 102.24 262.068042 
L 106.298182 262.068042 
L 110.356364 262.068042 
L 114.414545 262.068042 
L 118.472727 262.068042 
L 122.530909 262.068042 
L 126.589091 262.068042 
L 130.647273 262.068042 
L 134.705455 262.068042 
L 138.763636 262.068042 
L 142.821818 262.068042 
L 146.88 262.068042 
L 150.938182 262.068042 
L 154.996364 262.068042 
L 159.054545 262.068042 
L 163.112727 262.068042 
L 167.170909 262.068042 
L 171.229091 262.068042 
L 175.287273 262.068042 
L 179.345455 262.068042 
L 183.403636 262.068042 
L 187.461818 262.068042 
L 191.52 262.068042 
L 195.578182 262.068042 
L 199.636364 262.068042 
L 203.694545 262.068042 
L 207.752727 262.068042 
L 211.810909 262.068042 
L 215.869091 262.068042 
L 219.927273 262.068042 
L 223.985455 262.068042 
L 228.043636 262.068042 
L 232.101818 262.068042 
L 236.16 262.068042 
L 240.218182 262.068042 
L 244.276364 262.068042 
L 248.334545 262.068042 
L 252.392727 262.068042 
L 256.450909 262.068042 
L 260.509091 262.068042 
L 264.567273 262.068042 
L 268.625455 262.068042 
L 272.683636 262.068042 
L 276.741818 262.068042 
L 280.8 262.068042 
L 284.858182 262.068042 
L 288.916364 262.068042 
L 292.974545 262.068042 
L 297.032727 262.068042 
L 301.090909 262.068042 
L 305.149091 262.068042 
L 309.207273 262.068042 
L 313.265455 262.068042 
L 317.323636 262.068042 
L 321.381818 262.068042 
L 325.44 262.068042 
L 329.498182 262.068042 
L 333.556364 262.068042 
L 337.614545 262.068042 
L 341.672727 262.068042 
L 345.730909 262.068042 
L 349.789091 262.068042 
L 353.847273 262.068042 
L 357.905455 262.068042 
L 361.963636 262.068042 
L 366.021818 262.068042 
L 370.08 262.068042 
L 374.138182 262.068042 
L 378.196364 262.068042 
L 382.254545 262.068042 
L 386.312727 262.068042 
L 390.370909 262.068042 
L 394.429091 262.068042 
L 398.487273 262.068042 
" style="fill:none;stroke:#8c564b;stroke-linecap:square;stroke-width:1.5;"/>
   </g>
   <g id="patch_3">
    <path d="M 57.6 307.584 
L 57.6 41.472 
" style="fill:none;stroke:#000000;stroke-linecap:square;stroke-linejoin:miter;stroke-width:0.8;"/>
   </g>
   <g id="patch_4">
    <path d="M 414.72 307.584 
L 414.72 41.472 
" style="fill:none;stroke:#000000;stroke-linecap:square;stroke-linejoin:miter;stroke-width:0.8;"/>
   </g>
   <g id="patch_5">
    <path d="M 57.6 307.584 
L 414.72 307.584 
" style="fill:none;stroke:#000000;stroke-linecap:square;stroke-linejoin:miter;stroke-width:0.8;"/>
   </g>
   <g id="patch_6">
    <path d="M 57.6 41.472 
L 414.72 41.472 
" style="fill:none;stroke:#000000;stroke-linecap:square;stroke-linejoin:miter;stroke-width:0.8;"/>
   </g>
   <g id="legend_1">
    <g id="patch_7">
     <path d="M 336.85125 138.65325 
L 407.72 138.65325 
Q 409.72 138.65325 409.72 136.65325 
L 409.72 48.472 
Q 409.72 46.472 407.72 46.472 
L 336.85125 46.472 
Q 334.85125 46.472 334.85125 48.472 
L 334.85125 136.65325 
Q 334.85125 138.65325 336.85125 138.65325 
z
" style="fill:#ffffff;opacity:0.8;stroke:#cccccc;stroke-linejoin:miter;"/>
    </g>
    <g id="line2d_93">
     <path d="M 338.85125 54.570438 
L 358.85125 54.570438 
" style="fill:none;stroke:#1f77b4;stroke-linecap:square;stroke-width:1.5;"/>
    </g>
    <g id="line2d_94"/>
    <g id="text_89">
     <!-- mpc_x0 -->
     <g transform="translate(366.85125 58.070438)scale(0.1 -0.1)">
      <defs>
       <path d="M 1159 525 
L 1159 -1331 
L 581 -1331 
L 581 3500 
L 1159 3500 
L 1159 2969 
Q 1341 3281 1617 3432 
Q 1894 3584 2278 3584 
Q 2916 3584 3314 3078 
Q 3713 2572 3713 1747 
Q 3713 922 3314 415 
Q 2916 -91 2278 -91 
Q 1894 -91 1617 61 
Q 1341 213 1159 525 
z
M 3116 1747 
Q 3116 2381 2855 2742 
Q 2594 3103 2138 3103 
Q 1681 3103 1420 2742 
Q 1159 2381 1159 1747 
Q 1159 1113 1420 752 
Q 1681 391 2138 391 
Q 2594 391 2855 752 
Q 3116 1113 3116 1747 
z
" id="DejaVuSans-70" transform="scale(0.015625)"/>
       <path d="M 3122 3366 
L 3122 2828 
Q 2878 2963 2633 3030 
Q 2388 3097 2138 3097 
Q 1578 3097 1268 2742 
Q 959 2388 959 1747 
Q 959 1106 1268 751 
Q 1578 397 2138 397 
Q 2388 397 2633 464 
Q 2878 531 3122 666 
L 3122 134 
Q 2881 22 2623 -34 
Q 2366 -91 2075 -91 
Q 1284 -91 818 406 
Q 353 903 353 1747 
Q 353 2603 823 3093 
Q 1294 3584 2113 3584 
Q 2378 3584 2631 3529 
Q 2884 3475 3122 3366 
z
" id="DejaVuSans-63" transform="scale(0.015625)"/>
       <path d="M 3263 -1063 
L 3263 -1509 
L -63 -1509 
L -63 -1063 
L 3263 -1063 
z
" id="DejaVuSans-5f" transform="scale(0.015625)"/>
       <path d="M 3513 3500 
L 2247 1797 
L 3578 0 
L 2900 0 
L 1881 1375 
L 863 0 
L 184 0 
L 1544 1831 
L 300 3500 
L 978 3500 
L 1906 2253 
L 2834 3500 
L 3513 3500 
z
" id="DejaVuSans-78" transform="scale(0.015625)"/>
      </defs>
      <use xlink:href="#DejaVuSans-6d"/>
      <use x="97.412109" xlink:href="#DejaVuSans-70"/>
      <use x="160.888672" xlink:href="#DejaVuSans-63"/>
      <use x="215.869141" xlink:href="#DejaVuSans-5f"/>
      <use x="265.869141" xlink:href="#DejaVuSans-78"/>
      <use x="325.048828" xlink:href="#DejaVuSans-30"/>
     </g>
    </g>
    <g id="line2d_95">
     <path d="M 338.85125 69.526688 
L 358.85125 69.526688 
" style="fill:none;stroke:#ff7f0e;stroke-linecap:square;stroke-width:1.5;"/>
    </g>
    <g id="line2d_96"/>
    <g id="text_90">
     <!-- mpc_x1 -->
     <g transform="translate(366.85125 73.026688)scale(0.1 -0.1)">
      <use xlink:href="#DejaVuSans-6d"/>
      <use x="97.412109" xlink:href="#DejaVuSans-70"/>
      <use x="160.888672" xlink:href="#DejaVuSans-63"/>
      <use x="215.869141" xlink:href="#DejaVuSans-5f"/>
      <use x="265.869141" xlink:href="#DejaVuSans-78"/>
      <use x="325.048828" xlink:href="#DejaVuSans-31"/>
     </g>
    </g>
    <g id="line2d_97">
     <path d="M 338.85125 84.482938 
L 358.85125 84.482938 
" style="fill:none;stroke:#2ca02c;stroke-linecap:square;stroke-width:1.5;"/>
    </g>
    <g id="line2d_98"/>
    <g id="text_91">
     <!-- mpc_x2 -->
     <g transform="translate(366.85125 87.982938)scale(0.1 -0.1)">
      <use xlink:href="#DejaVuSans-6d"/>
      <use x="97.412109" xlink:href="#DejaVuSans-70"/>
      <use x="160.888672" xlink:href="#DejaVuSans-63"/>
      <use x="215.869141" xlink:href="#DejaVuSans-5f"/>
      <use x="265.869141" xlink:href="#DejaVuSans-78"/>
      <use x="325.048828" xlink:href="#DejaVuSans-32"/>
     </g>
    </g>
    <g id="line2d_99">
     <path d="M 338.85125 99.439188 
L 358.85125 99.439188 
" style="fill:none;stroke:#d62728;stroke-linecap:square;stroke-width:1.5;"/>
    </g>
    <g id="line2d_100"/>
    <g id="text_92">
     <!-- mpc_x3 -->
     <g transform="translate(366.85125 102.939188)scale(0.1 -0.1)">
      <use xlink:href="#DejaVuSans-6d"/>
      <use x="97.412109" xlink:href="#DejaVuSans-70"/>
      <use x="160.888672" xlink:href="#DejaVuSans-63"/>
      <use x="215.869141" xlink:href="#DejaVuSans-5f"/>
      <use x="265.869141" xlink:href="#DejaVuSans-78"/>
      <use x="325.048828" xlink:href="#DejaVuSans-33"/>
     </g>
    </g>
    <g id="line2d_101">
     <path d="M 338.85125 114.395438 
L 358.85125 114.395438 
" style="fill:none;stroke:#9467bd;stroke-linecap:square;stroke-width:1.5;"/>
    </g>
    <g id="line2d_102"/>
    <g id="text_93">
     <!-- u0 -->
     <g transform="translate(366.85125 117.895438)scale(0.1 -0.1)">
      <defs>
       <path d="M 544 1381 
L 544 3500 
L 1119 3500 
L 1119 1403 
Q 1119 906 1312 657 
Q 1506 409 1894 409 
Q 2359 409 2629 706 
Q 2900 1003 2900 1516 
L 2900 3500 
L 3475 3500 
L 3475 0 
L 2900 0 
L 2900 538 
Q 2691 219 2414 64 
Q 2138 -91 1772 -91 
Q 1169 -91 856 284 
Q 544 659 544 1381 
z
M 1991 3584 
L 1991 3584 
z
" id="DejaVuSans-75" transform="scale(0.015625)"/>
      </defs>
      <use xlink:href="#DejaVuSans-75"/>
      <use x="63.378906" xlink:href="#DejaVuSans-30"/>
     </g>
    </g>
    <g id="line2d_103">
     <path d="M 338.85125 129.073563 
L 358.85125 129.073563 
" style="fill:none;stroke:#8c564b;stroke-linecap:square;stroke-width:1.5;"/>
    </g>
    <g id="line2d_104"/>
    <g id="text_94">
     <!-- u1 -->
     <g transform="translate(366.85125 132.573563)scale(0.1 -0.1)">
      <use xlink:href="#DejaVuSans-75"/>
      <use x="63.378906" xlink:href="#DejaVuSans-31"/>
     </g>
    </g>
   </g>
  </g>
 </g>
 <defs>
  <clipPath id="pe696fbf2da">
   <rect height="266.112" width="357.12" x="57.6" y="41.472"/>
  </clipPath>
 </defs>
</svg>
