<?xml version="1.0" encoding="utf-8" standalone="no"?>
<!DOCTYPE svg PUBLIC "-//W3C//DTD SVG 1.1//EN"
  "http://www.w3.org/Graphics/SVG/1.1/DTD/svg11.dtd">
<svg height="345.6pt" version="1.1" viewBox="0 0 460.8 345.6" width="460.8pt" xmlns="http://www.w3.org/2000/svg" xmlns:xlink="http://www.w3.org/1999/xlink">
 <metadata>
  <rdf:RDF xmlns:cc="http://creativecommons.org/ns#" xmlns:dc="http://purl.org/dc/elements/1.1/" xmlns:rdf="http://www.w3.org/1999/02/22-rdf-syntax-ns#">
   <cc:Work>
    <dc:type rdf:resource="http://purl.org/dc/dcmitype/StillImage"/>
    <dc:date>2021-07-05T18:38:14.754775</dc:date>
    <dc:format>image/svg+xml</dc:format>
    <dc:creator>
     <cc:Agent>
      <dc:title>Matplotlib v3.4.2, https://matplotlib.org/</dc:title>
     </cc:Agent>
    </dc:creator>
   </cc:Work>
  </rdf:RDF>
 </metadata>
 <defs>
  <style type="text/css">*{stroke-linecap:butt;stroke-linejoin:round;}</style>
 </defs>
 <g id="figure_1">
  <g id="patch_1">
   <path d="M 0 345.6 
L 460.8 345.6 
L 460.8 0 
L 0 0 
z
" style="fill:#ffffff;"/>
  </g>
  <g id="axes_1">
   <g id="patch_2">
    <path d="M 57.6 307.584 
L 414.72 307.584 
L 414.72 41.472 
L 57.6 41.472 
z
" style="fill:#ffffff;"/>
   </g>
   <g id="matplotlib.axis_1">
    <g id="xtick_1">
     <g id="line2d_1">
      <defs>
       <path d="M 0 0 
L 0 3.5 
" id="m0345ccf279" style="stroke:#000000;stroke-width:0.8;"/>
      </defs>
      <g>
       <use style="stroke:#000000;stroke-width:0.8;" x="73.832727" xlink:href="#m0345ccf279" y="307.584"/>
      </g>
     </g>
     <g id="text_1">
      <!-- 0 -->
      <g transform="translate(70.651477 322.182437)scale(0.1 -0.1)">
       <defs>
        <path d="M 2034 4250 
Q 1547 4250 1301 3770 
Q 1056 3291 1056 2328 
Q 1056 1369 1301 889 
Q 1547 409 2034 409 
Q 2525 409 2770 889 
Q 3016 1369 3016 2328 
Q 3016 3291 2770 3770 
Q 2525 4250 2034 4250 
z
M 2034 4750 
Q 2819 4750 3233 4129 
Q 3647 3509 3647 2328 
Q 3647 1150 3233 529 
Q 2819 -91 2034 -91 
Q 1250 -91 836 529 
Q 422 1150 422 2328 
Q 422 3509 836 4129 
Q 1250 4750 2034 4750 
z
" id="DejaVuSans-30" transform="scale(0.015625)"/>
       </defs>
       <use xlink:href="#DejaVuSans-30"/>
      </g>
     </g>
    </g>
    <g id="xtick_2">
     <g id="line2d_2">
      <g>
       <use style="stroke:#000000;stroke-width:0.8;" x="127.054784" xlink:href="#m0345ccf279" y="307.584"/>
      </g>
     </g>
     <g id="text_2">
      <!-- 10 -->
      <g transform="translate(120.692284 322.182437)scale(0.1 -0.1)">
       <defs>
        <path d="M 794 531 
L 1825 531 
L 1825 4091 
L 703 3866 
L 703 4441 
L 1819 4666 
L 2450 4666 
L 2450 531 
L 3481 531 
L 3481 0 
L 794 0 
L 794 531 
z
" id="DejaVuSans-31" transform="scale(0.015625)"/>
       </defs>
       <use xlink:href="#DejaVuSans-31"/>
       <use x="63.623047" xlink:href="#DejaVuSans-30"/>
      </g>
     </g>
    </g>
    <g id="xtick_3">
     <g id="line2d_3">
      <g>
       <use style="stroke:#000000;stroke-width:0.8;" x="180.276841" xlink:href="#m0345ccf279" y="307.584"/>
      </g>
     </g>
     <g id="text_3">
      <!-- 20 -->
      <g transform="translate(173.914341 322.182437)scale(0.1 -0.1)">
       <defs>
        <path d="M 1228 531 
L 3431 531 
L 3431 0 
L 469 0 
L 469 531 
Q 828 903 1448 1529 
Q 2069 2156 2228 2338 
Q 2531 2678 2651 2914 
Q 2772 3150 2772 3378 
Q 2772 3750 2511 3984 
Q 2250 4219 1831 4219 
Q 1534 4219 1204 4116 
Q 875 4013 500 3803 
L 500 4441 
Q 881 4594 1212 4672 
Q 1544 4750 1819 4750 
Q 2544 4750 2975 4387 
Q 3406 4025 3406 3419 
Q 3406 3131 3298 2873 
Q 3191 2616 2906 2266 
Q 2828 2175 2409 1742 
Q 1991 1309 1228 531 
z
" id="DejaVuSans-32" transform="scale(0.015625)"/>
       </defs>
       <use xlink:href="#DejaVuSans-32"/>
       <use x="63.623047" xlink:href="#DejaVuSans-30"/>
      </g>
     </g>
    </g>
    <g id="xtick_4">
     <g id="line2d_4">
      <g>
       <use style="stroke:#000000;stroke-width:0.8;" x="233.498897" xlink:href="#m0345ccf279" y="307.584"/>
      </g>
     </g>
     <g id="text_4">
      <!-- 30 -->
      <g transform="translate(227.136397 322.182437)scale(0.1 -0.1)">
       <defs>
        <path d="M 2597 2516 
Q 3050 2419 3304 2112 
Q 3559 1806 3559 1356 
Q 3559 666 3084 287 
Q 2609 -91 1734 -91 
Q 1441 -91 1130 -33 
Q 819 25 488 141 
L 488 750 
Q 750 597 1062 519 
Q 1375 441 1716 441 
Q 2309 441 2620 675 
Q 2931 909 2931 1356 
Q 2931 1769 2642 2001 
Q 2353 2234 1838 2234 
L 1294 2234 
L 1294 2753 
L 1863 2753 
Q 2328 2753 2575 2939 
Q 2822 3125 2822 3475 
Q 2822 3834 2567 4026 
Q 2313 4219 1838 4219 
Q 1578 4219 1281 4162 
Q 984 4106 628 3988 
L 628 4550 
Q 988 4650 1302 4700 
Q 1616 4750 1894 4750 
Q 2613 4750 3031 4423 
Q 3450 4097 3450 3541 
Q 3450 3153 3228 2886 
Q 3006 2619 2597 2516 
z
" id="DejaVuSans-33" transform="scale(0.015625)"/>
       </defs>
       <use xlink:href="#DejaVuSans-33"/>
       <use x="63.623047" xlink:href="#DejaVuSans-30"/>
      </g>
     </g>
    </g>
    <g id="xtick_5">
     <g id="line2d_5">
      <g>
       <use style="stroke:#000000;stroke-width:0.8;" x="286.720954" xlink:href="#m0345ccf279" y="307.584"/>
      </g>
     </g>
     <g id="text_5">
      <!-- 40 -->
      <g transform="translate(280.358454 322.182437)scale(0.1 -0.1)">
       <defs>
        <path d="M 2419 4116 
L 825 1625 
L 2419 1625 
L 2419 4116 
z
M 2253 4666 
L 3047 4666 
L 3047 1625 
L 3713 1625 
L 3713 1100 
L 3047 1100 
L 3047 0 
L 2419 0 
L 2419 1100 
L 313 1100 
L 313 1709 
L 2253 4666 
z
" id="DejaVuSans-34" transform="scale(0.015625)"/>
       </defs>
       <use xlink:href="#DejaVuSans-34"/>
       <use x="63.623047" xlink:href="#DejaVuSans-30"/>
      </g>
     </g>
    </g>
    <g id="xtick_6">
     <g id="line2d_6">
      <g>
       <use style="stroke:#000000;stroke-width:0.8;" x="339.94301" xlink:href="#m0345ccf279" y="307.584"/>
      </g>
     </g>
     <g id="text_6">
      <!-- 50 -->
      <g transform="translate(333.58051 322.182437)scale(0.1 -0.1)">
       <defs>
        <path d="M 691 4666 
L 3169 4666 
L 3169 4134 
L 1269 4134 
L 1269 2991 
Q 1406 3038 1543 3061 
Q 1681 3084 1819 3084 
Q 2600 3084 3056 2656 
Q 3513 2228 3513 1497 
Q 3513 744 3044 326 
Q 2575 -91 1722 -91 
Q 1428 -91 1123 -41 
Q 819 9 494 109 
L 494 744 
Q 775 591 1075 516 
Q 1375 441 1709 441 
Q 2250 441 2565 725 
Q 2881 1009 2881 1497 
Q 2881 1984 2565 2268 
Q 2250 2553 1709 2553 
Q 1456 2553 1204 2497 
Q 953 2441 691 2322 
L 691 4666 
z
" id="DejaVuSans-35" transform="scale(0.015625)"/>
       </defs>
       <use xlink:href="#DejaVuSans-35"/>
       <use x="63.623047" xlink:href="#DejaVuSans-30"/>
      </g>
     </g>
    </g>
    <g id="xtick_7">
     <g id="line2d_7">
      <g>
       <use style="stroke:#000000;stroke-width:0.8;" x="393.165067" xlink:href="#m0345ccf279" y="307.584"/>
      </g>
     </g>
     <g id="text_7">
      <!-- 60 -->
      <g transform="translate(386.802567 322.182437)scale(0.1 -0.1)">
       <defs>
        <path d="M 2113 2584 
Q 1688 2584 1439 2293 
Q 1191 2003 1191 1497 
Q 1191 994 1439 701 
Q 1688 409 2113 409 
Q 2538 409 2786 701 
Q 3034 994 3034 1497 
Q 3034 2003 2786 2293 
Q 2538 2584 2113 2584 
z
M 3366 4563 
L 3366 3988 
Q 3128 4100 2886 4159 
Q 2644 4219 2406 4219 
Q 1781 4219 1451 3797 
Q 1122 3375 1075 2522 
Q 1259 2794 1537 2939 
Q 1816 3084 2150 3084 
Q 2853 3084 3261 2657 
Q 3669 2231 3669 1497 
Q 3669 778 3244 343 
Q 2819 -91 2113 -91 
Q 1303 -91 875 529 
Q 447 1150 447 2328 
Q 447 3434 972 4092 
Q 1497 4750 2381 4750 
Q 2619 4750 2861 4703 
Q 3103 4656 3366 4563 
z
" id="DejaVuSans-36" transform="scale(0.015625)"/>
       </defs>
       <use xlink:href="#DejaVuSans-36"/>
       <use x="63.623047" xlink:href="#DejaVuSans-30"/>
      </g>
     </g>
    </g>
    <g id="text_8">
     <!-- Time -->
     <g transform="translate(223.926406 335.860562)scale(0.1 -0.1)">
      <defs>
       <path d="M -19 4666 
L 3928 4666 
L 3928 4134 
L 2272 4134 
L 2272 0 
L 1638 0 
L 1638 4134 
L -19 4134 
L -19 4666 
z
" id="DejaVuSans-54" transform="scale(0.015625)"/>
       <path d="M 603 3500 
L 1178 3500 
L 1178 0 
L 603 0 
L 603 3500 
z
M 603 4863 
L 1178 4863 
L 1178 4134 
L 603 4134 
L 603 4863 
z
" id="DejaVuSans-69" transform="scale(0.015625)"/>
       <path d="M 3328 2828 
Q 3544 3216 3844 3400 
Q 4144 3584 4550 3584 
Q 5097 3584 5394 3201 
Q 5691 2819 5691 2113 
L 5691 0 
L 5113 0 
L 5113 2094 
Q 5113 2597 4934 2840 
Q 4756 3084 4391 3084 
Q 3944 3084 3684 2787 
Q 3425 2491 3425 1978 
L 3425 0 
L 2847 0 
L 2847 2094 
Q 2847 2600 2669 2842 
Q 2491 3084 2119 3084 
Q 1678 3084 1418 2786 
Q 1159 2488 1159 1978 
L 1159 0 
L 581 0 
L 581 3500 
L 1159 3500 
L 1159 2956 
Q 1356 3278 1631 3431 
Q 1906 3584 2284 3584 
Q 2666 3584 2933 3390 
Q 3200 3197 3328 2828 
z
" id="DejaVuSans-6d" transform="scale(0.015625)"/>
       <path d="M 3597 1894 
L 3597 1613 
L 953 1613 
Q 991 1019 1311 708 
Q 1631 397 2203 397 
Q 2534 397 2845 478 
Q 3156 559 3463 722 
L 3463 178 
Q 3153 47 2828 -22 
Q 2503 -91 2169 -91 
Q 1331 -91 842 396 
Q 353 884 353 1716 
Q 353 2575 817 3079 
Q 1281 3584 2069 3584 
Q 2775 3584 3186 3129 
Q 3597 2675 3597 1894 
z
M 3022 2063 
Q 3016 2534 2758 2815 
Q 2500 3097 2075 3097 
Q 1594 3097 1305 2825 
Q 1016 2553 972 2059 
L 3022 2063 
z
" id="DejaVuSans-65" transform="scale(0.015625)"/>
      </defs>
      <use xlink:href="#DejaVuSans-54"/>
      <use x="57.958984" xlink:href="#DejaVuSans-69"/>
      <use x="85.742188" xlink:href="#DejaVuSans-6d"/>
      <use x="183.154297" xlink:href="#DejaVuSans-65"/>
     </g>
    </g>
   </g>
   <g id="matplotlib.axis_2">
    <g id="ytick_1">
     <g id="line2d_8">
      <defs>
       <path d="M 0 0 
L -3.5 0 
" id="mb7ddb111b5" style="stroke:#000000;stroke-width:0.8;"/>
      </defs>
      <g>
       <use style="stroke:#000000;stroke-width:0.8;" x="57.6" xlink:href="#mb7ddb111b5" y="271.360471"/>
      </g>
     </g>
     <g id="text_9">
      <!-- −0.5 -->
      <g transform="translate(26.317187 275.15969)scale(0.1 -0.1)">
       <defs>
        <path d="M 678 2272 
L 4684 2272 
L 4684 1741 
L 678 1741 
L 678 2272 
z
" id="DejaVuSans-2212" transform="scale(0.015625)"/>
        <path d="M 684 794 
L 1344 794 
L 1344 0 
L 684 0 
L 684 794 
z
" id="DejaVuSans-2e" transform="scale(0.015625)"/>
       </defs>
       <use xlink:href="#DejaVuSans-2212"/>
       <use x="83.789062" xlink:href="#DejaVuSans-30"/>
       <use x="147.412109" xlink:href="#DejaVuSans-2e"/>
       <use x="179.199219" xlink:href="#DejaVuSans-35"/>
      </g>
     </g>
    </g>
    <g id="ytick_2">
     <g id="line2d_9">
      <g>
       <use style="stroke:#000000;stroke-width:0.8;" x="57.6" xlink:href="#mb7ddb111b5" y="221.704212"/>
      </g>
     </g>
     <g id="text_10">
      <!-- 0.0 -->
      <g transform="translate(34.696875 225.503431)scale(0.1 -0.1)">
       <use xlink:href="#DejaVuSans-30"/>
       <use x="63.623047" xlink:href="#DejaVuSans-2e"/>
       <use x="95.410156" xlink:href="#DejaVuSans-30"/>
      </g>
     </g>
    </g>
    <g id="ytick_3">
     <g id="line2d_10">
      <g>
       <use style="stroke:#000000;stroke-width:0.8;" x="57.6" xlink:href="#mb7ddb111b5" y="172.047954"/>
      </g>
     </g>
     <g id="text_11">
      <!-- 0.5 -->
      <g transform="translate(34.696875 175.847173)scale(0.1 -0.1)">
       <use xlink:href="#DejaVuSans-30"/>
       <use x="63.623047" xlink:href="#DejaVuSans-2e"/>
       <use x="95.410156" xlink:href="#DejaVuSans-35"/>
      </g>
     </g>
    </g>
    <g id="ytick_4">
     <g id="line2d_11">
      <g>
       <use style="stroke:#000000;stroke-width:0.8;" x="57.6" xlink:href="#mb7ddb111b5" y="122.391696"/>
      </g>
     </g>
     <g id="text_12">
      <!-- 1.0 -->
      <g transform="translate(34.696875 126.190915)scale(0.1 -0.1)">
       <use xlink:href="#DejaVuSans-31"/>
       <use x="63.623047" xlink:href="#DejaVuSans-2e"/>
       <use x="95.410156" xlink:href="#DejaVuSans-30"/>
      </g>
     </g>
    </g>
    <g id="ytick_5">
     <g id="line2d_12">
      <g>
       <use style="stroke:#000000;stroke-width:0.8;" x="57.6" xlink:href="#mb7ddb111b5" y="72.735437"/>
      </g>
     </g>
     <g id="text_13">
      <!-- 1.5 -->
      <g transform="translate(34.696875 76.534656)scale(0.1 -0.1)">
       <use xlink:href="#DejaVuSans-31"/>
       <use x="63.623047" xlink:href="#DejaVuSans-2e"/>
       <use x="95.410156" xlink:href="#DejaVuSans-35"/>
      </g>
     </g>
    </g>
    <g id="text_14">
     <!-- 1e306 -->
     <g transform="translate(57.6 38.472)scale(0.1 -0.1)">
      <use xlink:href="#DejaVuSans-31"/>
      <use x="63.623047" xlink:href="#DejaVuSans-65"/>
      <use x="125.146484" xlink:href="#DejaVuSans-33"/>
      <use x="188.769531" xlink:href="#DejaVuSans-30"/>
      <use x="252.392578" xlink:href="#DejaVuSans-36"/>
     </g>
    </g>
   </g>
   <g id="line2d_13">
    <path clip-path="url(#pfd83e6f833)" d="M 73.832727 221.704212 
L 79.154933 221.704212 
L 84.477139 221.704212 
L 89.799344 221.704212 
L 95.12155 221.704212 
L 100.443756 221.704212 
L 105.765961 221.704212 
L 111.088167 221.704212 
L 116.410373 221.704212 
L 121.732578 221.704212 
L 127.054784 221.704212 
L 132.37699 221.704212 
L 137.699195 221.704212 
L 143.021401 221.704212 
L 148.343607 221.704212 
L 153.665812 221.704212 
L 158.988018 221.704212 
L 164.310224 221.704212 
L 169.632429 221.704212 
L 174.954635 221.704212 
L 180.276841 221.704212 
L 185.599046 221.704212 
L 190.921252 221.704212 
L 196.243458 221.704212 
L 201.565663 221.704212 
L 206.887869 221.704212 
L 212.210075 221.704212 
L 217.53228 221.704212 
L 222.854486 221.704212 
L 228.176692 221.704212 
L 233.498897 221.704212 
L 238.821103 221.704212 
L 244.143308 221.704212 
L 249.465514 221.704212 
L 254.78772 221.704212 
L 260.109925 221.704212 
L 265.432131 221.704212 
L 270.754337 221.704212 
L 276.076542 221.704212 
L 281.398748 221.704212 
L 286.720954 221.704212 
L 292.043159 221.704212 
L 297.365365 221.704212 
L 302.687571 221.704212 
L 308.009776 221.704212 
L 313.331982 221.704212 
L 318.654188 221.704212 
L 323.976393 221.704212 
L 329.298599 221.704212 
L 334.620805 221.704212 
L 339.94301 221.704212 
L 345.265216 221.704212 
L 350.587422 221.704212 
L 355.909627 221.704212 
L 361.231833 221.704212 
L 366.554039 221.704212 
L 371.876244 221.704212 
L 377.19845 221.704212 
L 382.520656 221.704212 
L 387.842861 221.704212 
L 393.165067 221.703136 
L 398.487273 108.694244 
" style="fill:none;stroke:#1f77b4;stroke-linecap:square;stroke-width:1.5;"/>
   </g>
   <g id="line2d_14">
    <path clip-path="url(#pfd83e6f833)" d="M 73.832727 221.704212 
L 79.154933 221.704212 
L 84.477139 221.704212 
L 89.799344 221.704212 
L 95.12155 221.704212 
L 100.443756 221.704212 
L 105.765961 221.704212 
L 111.088167 221.704212 
L 116.410373 221.704212 
L 121.732578 221.704212 
L 127.054784 221.704212 
L 132.37699 221.704212 
L 137.699195 221.704212 
L 143.021401 221.704212 
L 148.343607 221.704212 
L 153.665812 221.704212 
L 158.988018 221.704212 
L 164.310224 221.704212 
L 169.632429 221.704212 
L 174.954635 221.704212 
L 180.276841 221.704212 
L 185.599046 221.704212 
L 190.921252 221.704212 
L 196.243458 221.704212 
L 201.565663 221.704212 
L 206.887869 221.704212 
L 212.210075 221.704212 
L 217.53228 221.704212 
L 222.854486 221.704212 
L 228.176692 221.704212 
L 233.498897 221.704212 
L 238.821103 221.704212 
L 244.143308 221.704212 
L 249.465514 221.704212 
L 254.78772 221.704212 
L 260.109925 221.704212 
L 265.432131 221.704212 
L 270.754337 221.704212 
L 276.076542 221.704212 
L 281.398748 221.704212 
L 286.720954 221.704212 
L 292.043159 221.704212 
L 297.365365 221.704212 
L 302.687571 221.704212 
L 308.009776 221.704212 
L 313.331982 221.704212 
L 318.654188 221.704212 
L 323.976393 221.704212 
L 329.298599 221.704212 
L 334.620805 221.704212 
L 339.94301 221.704212 
L 345.265216 221.704212 
L 350.587422 221.704212 
L 355.909627 221.704212 
L 361.231833 221.704212 
L 366.554039 221.704212 
L 371.876244 221.704212 
L 377.19845 221.704212 
L 382.520656 221.704212 
L 387.842861 221.704212 
L 393.165067 221.704186 
L 398.487273 218.885673 
" style="fill:none;stroke:#ff7f0e;stroke-linecap:square;stroke-width:1.5;"/>
   </g>
   <g id="line2d_15">
    <path clip-path="url(#pfd83e6f833)" d="M 73.832727 221.704212 
L 79.154933 221.704212 
L 84.477139 221.704212 
L 89.799344 221.704212 
L 95.12155 221.704212 
L 100.443756 221.704212 
L 105.765961 221.704212 
L 111.088167 221.704212 
L 116.410373 221.704212 
L 121.732578 221.704212 
L 127.054784 221.704212 
L 132.37699 221.704212 
L 137.699195 221.704212 
L 143.021401 221.704212 
L 148.343607 221.704212 
L 153.665812 221.704212 
L 158.988018 221.704212 
L 164.310224 221.704212 
L 169.632429 221.704212 
L 174.954635 221.704212 
L 180.276841 221.704212 
L 185.599046 221.704212 
L 190.921252 221.704212 
L 196.243458 221.704212 
L 201.565663 221.704212 
L 206.887869 221.704212 
L 212.210075 221.704212 
L 217.53228 221.704212 
L 222.854486 221.704212 
L 228.176692 221.704212 
L 233.498897 221.704212 
L 238.821103 221.704212 
L 244.143308 221.704212 
L 249.465514 221.704212 
L 254.78772 221.704212 
L 260.109925 221.704212 
L 265.432131 221.704212 
L 270.754337 221.704212 
L 276.076542 221.704212 
L 281.398748 221.704212 
L 286.720954 221.704212 
L 292.043159 221.704212 
L 297.365365 221.704212 
L 302.687571 221.704212 
L 308.009776 221.704212 
L 313.331982 221.704212 
L 318.654188 221.704212 
L 323.976393 221.704212 
L 329.298599 221.704212 
L 334.620805 221.704212 
L 339.94301 221.704212 
L 345.265216 221.704212 
L 350.587422 221.704212 
L 355.909627 221.704212 
L 361.231833 221.704212 
L 366.554039 221.704212 
L 371.876244 221.704212 
L 377.19845 221.704212 
L 382.520656 221.704212 
L 387.842861 221.704212 
L 393.165067 221.704892 
L 398.487273 293.078062 
" style="fill:none;stroke:#2ca02c;stroke-linecap:square;stroke-width:1.5;"/>
   </g>
   <g id="line2d_16">
    <path clip-path="url(#pfd83e6f833)" d="M 73.832727 221.704212 
L 79.154933 221.704212 
L 84.477139 221.704212 
L 89.799344 221.704212 
L 95.12155 221.704212 
L 100.443756 221.704212 
L 105.765961 221.704212 
L 111.088167 221.704212 
L 116.410373 221.704212 
L 121.732578 221.704212 
L 127.054784 221.704212 
L 132.37699 221.704212 
L 137.699195 221.704212 
L 143.021401 221.704212 
L 148.343607 221.704212 
L 153.665812 221.704212 
L 158.988018 221.704212 
L 164.310224 221.704212 
L 169.632429 221.704212 
L 174.954635 221.704212 
L 180.276841 221.704212 
L 185.599046 221.704212 
L 190.921252 221.704212 
L 196.243458 221.704212 
L 201.565663 221.704212 
L 206.887869 221.704212 
L 212.210075 221.704212 
L 217.53228 221.704212 
L 222.854486 221.704212 
L 228.176692 221.704212 
L 233.498897 221.704212 
L 238.821103 221.704212 
L 244.143308 221.704212 
L 249.465514 221.704212 
L 254.78772 221.704212 
L 260.109925 221.704212 
L 265.432131 221.704212 
L 270.754337 221.704212 
L 276.076542 221.704212 
L 281.398748 221.704212 
L 286.720954 221.704212 
L 292.043159 221.704212 
L 297.365365 221.704212 
L 302.687571 221.704212 
L 308.009776 221.704212 
L 313.331982 221.704212 
L 318.654188 221.704212 
L 323.976393 221.704212 
L 329.298599 221.704212 
L 334.620805 221.704212 
L 339.94301 221.704212 
L 345.265216 221.704212 
L 350.587422 221.704212 
L 355.909627 221.704212 
L 361.231833 221.704212 
L 366.554039 221.704212 
L 371.876244 221.704212 
L 377.19845 221.704212 
L 382.520656 221.704212 
L 387.842861 221.704212 
L 393.165067 221.702611 
L 398.487273 53.568 
" style="fill:none;stroke:#d62728;stroke-linecap:square;stroke-width:1.5;"/>
   </g>
   <g id="line2d_17">
    <path clip-path="url(#pfd83e6f833)" d="M 73.832727 221.704212 
L 79.154933 221.704212 
L 84.477139 221.704212 
L 89.799344 221.704212 
L 95.12155 221.704212 
L 100.443756 221.704212 
L 105.765961 221.704212 
L 111.088167 221.704212 
L 116.410373 221.704212 
L 121.732578 221.704212 
L 127.054784 221.704212 
L 132.37699 221.704212 
L 137.699195 221.704212 
L 143.021401 221.704212 
L 148.343607 221.704212 
L 153.665812 221.704212 
L 158.988018 221.704212 
L 164.310224 221.704212 
L 169.632429 221.704212 
L 174.954635 221.704212 
L 180.276841 221.704212 
L 185.599046 221.704212 
L 190.921252 221.704212 
L 196.243458 221.704212 
L 201.565663 221.704212 
L 206.887869 221.704212 
L 212.210075 221.704212 
L 217.53228 221.704212 
L 222.854486 221.704212 
L 228.176692 221.704212 
L 233.498897 221.704212 
L 238.821103 221.704212 
L 244.143308 221.704212 
L 249.465514 221.704212 
L 254.78772 221.704212 
L 260.109925 221.704212 
L 265.432131 221.704212 
L 270.754337 221.704212 
L 276.076542 221.704212 
L 281.398748 221.704212 
L 286.720954 221.704212 
L 292.043159 221.704212 
L 297.365365 221.704212 
L 302.687571 221.704212 
L 308.009776 221.704212 
L 313.331982 221.704212 
L 318.654188 221.704212 
L 323.976393 221.704212 
L 329.298599 221.704212 
L 334.620805 221.704212 
L 339.94301 221.704212 
L 345.265216 221.704212 
L 350.587422 221.704212 
L 355.909627 221.704212 
L 361.231833 221.704212 
L 366.554039 221.704212 
L 371.876244 221.704212 
L 377.19845 221.704212 
L 382.520656 221.704212 
L 387.842861 221.704212 
L 393.165067 221.704915 
L 398.487273 295.488 
" style="fill:none;stroke:#9467bd;stroke-linecap:square;stroke-width:1.5;"/>
   </g>
   <g id="patch_3">
    <path d="M 57.6 307.584 
L 57.6 41.472 
" style="fill:none;stroke:#000000;stroke-linecap:square;stroke-linejoin:miter;stroke-width:0.8;"/>
   </g>
   <g id="patch_4">
    <path d="M 414.72 307.584 
L 414.72 41.472 
" style="fill:none;stroke:#000000;stroke-linecap:square;stroke-linejoin:miter;stroke-width:0.8;"/>
   </g>
   <g id="patch_5">
    <path d="M 57.6 307.584 
L 414.72 307.584 
" style="fill:none;stroke:#000000;stroke-linecap:square;stroke-linejoin:miter;stroke-width:0.8;"/>
   </g>
   <g id="patch_6">
    <path d="M 57.6 41.472 
L 414.72 41.472 
" style="fill:none;stroke:#000000;stroke-linecap:square;stroke-linejoin:miter;stroke-width:0.8;"/>
   </g>
   <g id="legend_1">
    <g id="patch_7">
     <path d="M 64.6 122.862625 
L 108.88125 122.862625 
Q 110.88125 122.862625 110.88125 120.862625 
L 110.88125 48.472 
Q 110.88125 46.472 108.88125 46.472 
L 64.6 46.472 
Q 62.6 46.472 62.6 48.472 
L 62.6 120.862625 
Q 62.6 122.862625 64.6 122.862625 
z
" style="fill:#ffffff;opacity:0.8;stroke:#cccccc;stroke-linejoin:miter;"/>
    </g>
    <g id="line2d_18">
     <path d="M 66.6 54.570438 
L 86.6 54.570438 
" style="fill:none;stroke:#1f77b4;stroke-linecap:square;stroke-width:1.5;"/>
    </g>
    <g id="line2d_19"/>
    <g id="text_15">
     <!-- x0 -->
     <g transform="translate(94.6 58.070438)scale(0.1 -0.1)">
      <defs>
       <path d="M 3513 3500 
L 2247 1797 
L 3578 0 
L 2900 0 
L 1881 1375 
L 863 0 
L 184 0 
L 1544 1831 
L 300 3500 
L 978 3500 
L 1906 2253 
L 2834 3500 
L 3513 3500 
z
" id="DejaVuSans-78" transform="scale(0.015625)"/>
      </defs>
      <use xlink:href="#DejaVuSans-78"/>
      <use x="59.179688" xlink:href="#DejaVuSans-30"/>
     </g>
    </g>
    <g id="line2d_20">
     <path d="M 66.6 69.248563 
L 86.6 69.248563 
" style="fill:none;stroke:#ff7f0e;stroke-linecap:square;stroke-width:1.5;"/>
    </g>
    <g id="line2d_21"/>
    <g id="text_16">
     <!-- x1 -->
     <g transform="translate(94.6 72.748563)scale(0.1 -0.1)">
      <use xlink:href="#DejaVuSans-78"/>
      <use x="59.179688" xlink:href="#DejaVuSans-31"/>
     </g>
    </g>
    <g id="line2d_22">
     <path d="M 66.6 83.926688 
L 86.6 83.926688 
" style="fill:none;stroke:#2ca02c;stroke-linecap:square;stroke-width:1.5;"/>
    </g>
    <g id="line2d_23"/>
    <g id="text_17">
     <!-- x2 -->
     <g transform="translate(94.6 87.426688)scale(0.1 -0.1)">
      <use xlink:href="#DejaVuSans-78"/>
      <use x="59.179688" xlink:href="#DejaVuSans-32"/>
     </g>
    </g>
    <g id="line2d_24">
     <path d="M 66.6 98.604813 
L 86.6 98.604813 
" style="fill:none;stroke:#d62728;stroke-linecap:square;stroke-width:1.5;"/>
    </g>
    <g id="line2d_25"/>
    <g id="text_18">
     <!-- x3 -->
     <g transform="translate(94.6 102.104813)scale(0.1 -0.1)">
      <use xlink:href="#DejaVuSans-78"/>
      <use x="59.179688" xlink:href="#DejaVuSans-33"/>
     </g>
    </g>
    <g id="line2d_26">
     <path d="M 66.6 113.282938 
L 86.6 113.282938 
" style="fill:none;stroke:#9467bd;stroke-linecap:square;stroke-width:1.5;"/>
    </g>
    <g id="line2d_27"/>
    <g id="text_19">
     <!-- x4 -->
     <g transform="translate(94.6 116.782938)scale(0.1 -0.1)">
      <use xlink:href="#DejaVuSans-78"/>
      <use x="59.179688" xlink:href="#DejaVuSans-34"/>
     </g>
    </g>
   </g>
  </g>
 </g>
 <defs>
  <clipPath id="pfd83e6f833">
   <rect height="266.112" width="357.12" x="57.6" y="41.472"/>
  </clipPath>
 </defs>
</svg>
