<?xml version="1.0" encoding="utf-8" standalone="no"?>
<!DOCTYPE svg PUBLIC "-//W3C//DTD SVG 1.1//EN"
  "http://www.w3.org/Graphics/SVG/1.1/DTD/svg11.dtd">
<svg height="345.6pt" version="1.1" viewBox="0 0 460.8 345.6" width="460.8pt" xmlns="http://www.w3.org/2000/svg" xmlns:xlink="http://www.w3.org/1999/xlink">
 <metadata>
  <rdf:RDF xmlns:cc="http://creativecommons.org/ns#" xmlns:dc="http://purl.org/dc/elements/1.1/" xmlns:rdf="http://www.w3.org/1999/02/22-rdf-syntax-ns#">
   <cc:Work>
    <dc:type rdf:resource="http://purl.org/dc/dcmitype/StillImage"/>
    <dc:date>2021-06-28T04:58:42.951855</dc:date>
    <dc:format>image/svg+xml</dc:format>
    <dc:creator>
     <cc:Agent>
      <dc:title>Matplotlib v3.4.2, https://matplotlib.org/</dc:title>
     </cc:Agent>
    </dc:creator>
   </cc:Work>
  </rdf:RDF>
 </metadata>
 <defs>
  <style type="text/css">*{stroke-linecap:butt;stroke-linejoin:round;}</style>
 </defs>
 <g id="figure_1">
  <g id="patch_1">
   <path d="M 0 345.6 
L 460.8 345.6 
L 460.8 0 
L 0 0 
z
" style="fill:#ffffff;"/>
  </g>
  <g id="axes_1">
   <g id="patch_2">
    <path d="M 57.6 307.584 
L 414.72 307.584 
L 414.72 41.472 
L 57.6 41.472 
z
" style="fill:#ffffff;"/>
   </g>
   <g id="matplotlib.axis_1">
    <g id="xtick_1">
     <g id="line2d_1">
      <defs>
       <path d="M 0 0 
L 0 3.5 
" id="m6fa879d5b2" style="stroke:#000000;stroke-width:0.8;"/>
      </defs>
      <g>
       <use style="stroke:#000000;stroke-width:0.8;" x="73.832727" xlink:href="#m6fa879d5b2" y="307.584"/>
      </g>
     </g>
     <g id="text_1">
      <!-- 0 -->
      <g transform="translate(70.651477 322.182437)scale(0.1 -0.1)">
       <defs>
        <path d="M 2034 4250 
Q 1547 4250 1301 3770 
Q 1056 3291 1056 2328 
Q 1056 1369 1301 889 
Q 1547 409 2034 409 
Q 2525 409 2770 889 
Q 3016 1369 3016 2328 
Q 3016 3291 2770 3770 
Q 2525 4250 2034 4250 
z
M 2034 4750 
Q 2819 4750 3233 4129 
Q 3647 3509 3647 2328 
Q 3647 1150 3233 529 
Q 2819 -91 2034 -91 
Q 1250 -91 836 529 
Q 422 1150 422 2328 
Q 422 3509 836 4129 
Q 1250 4750 2034 4750 
z
" id="DejaVuSans-30" transform="scale(0.015625)"/>
       </defs>
       <use xlink:href="#DejaVuSans-30"/>
      </g>
     </g>
    </g>
    <g id="xtick_2">
     <g id="line2d_2">
      <g>
       <use style="stroke:#000000;stroke-width:0.8;" x="139.419504" xlink:href="#m6fa879d5b2" y="307.584"/>
      </g>
     </g>
     <g id="text_2">
      <!-- 20 -->
      <g transform="translate(133.057004 322.182437)scale(0.1 -0.1)">
       <defs>
        <path d="M 1228 531 
L 3431 531 
L 3431 0 
L 469 0 
L 469 531 
Q 828 903 1448 1529 
Q 2069 2156 2228 2338 
Q 2531 2678 2651 2914 
Q 2772 3150 2772 3378 
Q 2772 3750 2511 3984 
Q 2250 4219 1831 4219 
Q 1534 4219 1204 4116 
Q 875 4013 500 3803 
L 500 4441 
Q 881 4594 1212 4672 
Q 1544 4750 1819 4750 
Q 2544 4750 2975 4387 
Q 3406 4025 3406 3419 
Q 3406 3131 3298 2873 
Q 3191 2616 2906 2266 
Q 2828 2175 2409 1742 
Q 1991 1309 1228 531 
z
" id="DejaVuSans-32" transform="scale(0.015625)"/>
       </defs>
       <use xlink:href="#DejaVuSans-32"/>
       <use x="63.623047" xlink:href="#DejaVuSans-30"/>
      </g>
     </g>
    </g>
    <g id="xtick_3">
     <g id="line2d_3">
      <g>
       <use style="stroke:#000000;stroke-width:0.8;" x="205.006281" xlink:href="#m6fa879d5b2" y="307.584"/>
      </g>
     </g>
     <g id="text_3">
      <!-- 40 -->
      <g transform="translate(198.643781 322.182437)scale(0.1 -0.1)">
       <defs>
        <path d="M 2419 4116 
L 825 1625 
L 2419 1625 
L 2419 4116 
z
M 2253 4666 
L 3047 4666 
L 3047 1625 
L 3713 1625 
L 3713 1100 
L 3047 1100 
L 3047 0 
L 2419 0 
L 2419 1100 
L 313 1100 
L 313 1709 
L 2253 4666 
z
" id="DejaVuSans-34" transform="scale(0.015625)"/>
       </defs>
       <use xlink:href="#DejaVuSans-34"/>
       <use x="63.623047" xlink:href="#DejaVuSans-30"/>
      </g>
     </g>
    </g>
    <g id="xtick_4">
     <g id="line2d_4">
      <g>
       <use style="stroke:#000000;stroke-width:0.8;" x="270.593058" xlink:href="#m6fa879d5b2" y="307.584"/>
      </g>
     </g>
     <g id="text_4">
      <!-- 60 -->
      <g transform="translate(264.230558 322.182437)scale(0.1 -0.1)">
       <defs>
        <path d="M 2113 2584 
Q 1688 2584 1439 2293 
Q 1191 2003 1191 1497 
Q 1191 994 1439 701 
Q 1688 409 2113 409 
Q 2538 409 2786 701 
Q 3034 994 3034 1497 
Q 3034 2003 2786 2293 
Q 2538 2584 2113 2584 
z
M 3366 4563 
L 3366 3988 
Q 3128 4100 2886 4159 
Q 2644 4219 2406 4219 
Q 1781 4219 1451 3797 
Q 1122 3375 1075 2522 
Q 1259 2794 1537 2939 
Q 1816 3084 2150 3084 
Q 2853 3084 3261 2657 
Q 3669 2231 3669 1497 
Q 3669 778 3244 343 
Q 2819 -91 2113 -91 
Q 1303 -91 875 529 
Q 447 1150 447 2328 
Q 447 3434 972 4092 
Q 1497 4750 2381 4750 
Q 2619 4750 2861 4703 
Q 3103 4656 3366 4563 
z
" id="DejaVuSans-36" transform="scale(0.015625)"/>
       </defs>
       <use xlink:href="#DejaVuSans-36"/>
       <use x="63.623047" xlink:href="#DejaVuSans-30"/>
      </g>
     </g>
    </g>
    <g id="xtick_5">
     <g id="line2d_5">
      <g>
       <use style="stroke:#000000;stroke-width:0.8;" x="336.179835" xlink:href="#m6fa879d5b2" y="307.584"/>
      </g>
     </g>
     <g id="text_5">
      <!-- 80 -->
      <g transform="translate(329.817335 322.182437)scale(0.1 -0.1)">
       <defs>
        <path d="M 2034 2216 
Q 1584 2216 1326 1975 
Q 1069 1734 1069 1313 
Q 1069 891 1326 650 
Q 1584 409 2034 409 
Q 2484 409 2743 651 
Q 3003 894 3003 1313 
Q 3003 1734 2745 1975 
Q 2488 2216 2034 2216 
z
M 1403 2484 
Q 997 2584 770 2862 
Q 544 3141 544 3541 
Q 544 4100 942 4425 
Q 1341 4750 2034 4750 
Q 2731 4750 3128 4425 
Q 3525 4100 3525 3541 
Q 3525 3141 3298 2862 
Q 3072 2584 2669 2484 
Q 3125 2378 3379 2068 
Q 3634 1759 3634 1313 
Q 3634 634 3220 271 
Q 2806 -91 2034 -91 
Q 1263 -91 848 271 
Q 434 634 434 1313 
Q 434 1759 690 2068 
Q 947 2378 1403 2484 
z
M 1172 3481 
Q 1172 3119 1398 2916 
Q 1625 2713 2034 2713 
Q 2441 2713 2670 2916 
Q 2900 3119 2900 3481 
Q 2900 3844 2670 4047 
Q 2441 4250 2034 4250 
Q 1625 4250 1398 4047 
Q 1172 3844 1172 3481 
z
" id="DejaVuSans-38" transform="scale(0.015625)"/>
       </defs>
       <use xlink:href="#DejaVuSans-38"/>
       <use x="63.623047" xlink:href="#DejaVuSans-30"/>
      </g>
     </g>
    </g>
    <g id="xtick_6">
     <g id="line2d_6">
      <g>
       <use style="stroke:#000000;stroke-width:0.8;" x="401.766612" xlink:href="#m6fa879d5b2" y="307.584"/>
      </g>
     </g>
     <g id="text_6">
      <!-- 100 -->
      <g transform="translate(392.222862 322.182437)scale(0.1 -0.1)">
       <defs>
        <path d="M 794 531 
L 1825 531 
L 1825 4091 
L 703 3866 
L 703 4441 
L 1819 4666 
L 2450 4666 
L 2450 531 
L 3481 531 
L 3481 0 
L 794 0 
L 794 531 
z
" id="DejaVuSans-31" transform="scale(0.015625)"/>
       </defs>
       <use xlink:href="#DejaVuSans-31"/>
       <use x="63.623047" xlink:href="#DejaVuSans-30"/>
       <use x="127.246094" xlink:href="#DejaVuSans-30"/>
      </g>
     </g>
    </g>
    <g id="text_7">
     <!-- Time -->
     <g transform="translate(223.926406 335.860562)scale(0.1 -0.1)">
      <defs>
       <path d="M -19 4666 
L 3928 4666 
L 3928 4134 
L 2272 4134 
L 2272 0 
L 1638 0 
L 1638 4134 
L -19 4134 
L -19 4666 
z
" id="DejaVuSans-54" transform="scale(0.015625)"/>
       <path d="M 603 3500 
L 1178 3500 
L 1178 0 
L 603 0 
L 603 3500 
z
M 603 4863 
L 1178 4863 
L 1178 4134 
L 603 4134 
L 603 4863 
z
" id="DejaVuSans-69" transform="scale(0.015625)"/>
       <path d="M 3328 2828 
Q 3544 3216 3844 3400 
Q 4144 3584 4550 3584 
Q 5097 3584 5394 3201 
Q 5691 2819 5691 2113 
L 5691 0 
L 5113 0 
L 5113 2094 
Q 5113 2597 4934 2840 
Q 4756 3084 4391 3084 
Q 3944 3084 3684 2787 
Q 3425 2491 3425 1978 
L 3425 0 
L 2847 0 
L 2847 2094 
Q 2847 2600 2669 2842 
Q 2491 3084 2119 3084 
Q 1678 3084 1418 2786 
Q 1159 2488 1159 1978 
L 1159 0 
L 581 0 
L 581 3500 
L 1159 3500 
L 1159 2956 
Q 1356 3278 1631 3431 
Q 1906 3584 2284 3584 
Q 2666 3584 2933 3390 
Q 3200 3197 3328 2828 
z
" id="DejaVuSans-6d" transform="scale(0.015625)"/>
       <path d="M 3597 1894 
L 3597 1613 
L 953 1613 
Q 991 1019 1311 708 
Q 1631 397 2203 397 
Q 2534 397 2845 478 
Q 3156 559 3463 722 
L 3463 178 
Q 3153 47 2828 -22 
Q 2503 -91 2169 -91 
Q 1331 -91 842 396 
Q 353 884 353 1716 
Q 353 2575 817 3079 
Q 1281 3584 2069 3584 
Q 2775 3584 3186 3129 
Q 3597 2675 3597 1894 
z
M 3022 2063 
Q 3016 2534 2758 2815 
Q 2500 3097 2075 3097 
Q 1594 3097 1305 2825 
Q 1016 2553 972 2059 
L 3022 2063 
z
" id="DejaVuSans-65" transform="scale(0.015625)"/>
      </defs>
      <use xlink:href="#DejaVuSans-54"/>
      <use x="57.958984" xlink:href="#DejaVuSans-69"/>
      <use x="85.742188" xlink:href="#DejaVuSans-6d"/>
      <use x="183.154297" xlink:href="#DejaVuSans-65"/>
     </g>
    </g>
   </g>
   <g id="matplotlib.axis_2">
    <g id="ytick_1">
     <g id="line2d_7">
      <defs>
       <path d="M 0 0 
L -3.5 0 
" id="m0b30f43eca" style="stroke:#000000;stroke-width:0.8;"/>
      </defs>
      <g>
       <use style="stroke:#000000;stroke-width:0.8;" x="57.6" xlink:href="#m0b30f43eca" y="292.121323"/>
      </g>
     </g>
     <g id="text_8">
      <!-- −17.5 -->
      <g transform="translate(19.954687 295.920542)scale(0.1 -0.1)">
       <defs>
        <path d="M 678 2272 
L 4684 2272 
L 4684 1741 
L 678 1741 
L 678 2272 
z
" id="DejaVuSans-2212" transform="scale(0.015625)"/>
        <path d="M 525 4666 
L 3525 4666 
L 3525 4397 
L 1831 0 
L 1172 0 
L 2766 4134 
L 525 4134 
L 525 4666 
z
" id="DejaVuSans-37" transform="scale(0.015625)"/>
        <path d="M 684 794 
L 1344 794 
L 1344 0 
L 684 0 
L 684 794 
z
" id="DejaVuSans-2e" transform="scale(0.015625)"/>
        <path d="M 691 4666 
L 3169 4666 
L 3169 4134 
L 1269 4134 
L 1269 2991 
Q 1406 3038 1543 3061 
Q 1681 3084 1819 3084 
Q 2600 3084 3056 2656 
Q 3513 2228 3513 1497 
Q 3513 744 3044 326 
Q 2575 -91 1722 -91 
Q 1428 -91 1123 -41 
Q 819 9 494 109 
L 494 744 
Q 775 591 1075 516 
Q 1375 441 1709 441 
Q 2250 441 2565 725 
Q 2881 1009 2881 1497 
Q 2881 1984 2565 2268 
Q 2250 2553 1709 2553 
Q 1456 2553 1204 2497 
Q 953 2441 691 2322 
L 691 4666 
z
" id="DejaVuSans-35" transform="scale(0.015625)"/>
       </defs>
       <use xlink:href="#DejaVuSans-2212"/>
       <use x="83.789062" xlink:href="#DejaVuSans-31"/>
       <use x="147.412109" xlink:href="#DejaVuSans-37"/>
       <use x="211.035156" xlink:href="#DejaVuSans-2e"/>
       <use x="242.822266" xlink:href="#DejaVuSans-35"/>
      </g>
     </g>
    </g>
    <g id="ytick_2">
     <g id="line2d_8">
      <g>
       <use style="stroke:#000000;stroke-width:0.8;" x="57.6" xlink:href="#m0b30f43eca" y="259.884388"/>
      </g>
     </g>
     <g id="text_9">
      <!-- −15.0 -->
      <g transform="translate(19.954687 263.683607)scale(0.1 -0.1)">
       <use xlink:href="#DejaVuSans-2212"/>
       <use x="83.789062" xlink:href="#DejaVuSans-31"/>
       <use x="147.412109" xlink:href="#DejaVuSans-35"/>
       <use x="211.035156" xlink:href="#DejaVuSans-2e"/>
       <use x="242.822266" xlink:href="#DejaVuSans-30"/>
      </g>
     </g>
    </g>
    <g id="ytick_3">
     <g id="line2d_9">
      <g>
       <use style="stroke:#000000;stroke-width:0.8;" x="57.6" xlink:href="#m0b30f43eca" y="227.647452"/>
      </g>
     </g>
     <g id="text_10">
      <!-- −12.5 -->
      <g transform="translate(19.954687 231.446671)scale(0.1 -0.1)">
       <use xlink:href="#DejaVuSans-2212"/>
       <use x="83.789062" xlink:href="#DejaVuSans-31"/>
       <use x="147.412109" xlink:href="#DejaVuSans-32"/>
       <use x="211.035156" xlink:href="#DejaVuSans-2e"/>
       <use x="242.822266" xlink:href="#DejaVuSans-35"/>
      </g>
     </g>
    </g>
    <g id="ytick_4">
     <g id="line2d_10">
      <g>
       <use style="stroke:#000000;stroke-width:0.8;" x="57.6" xlink:href="#m0b30f43eca" y="195.410517"/>
      </g>
     </g>
     <g id="text_11">
      <!-- −10.0 -->
      <g transform="translate(19.954687 199.209735)scale(0.1 -0.1)">
       <use xlink:href="#DejaVuSans-2212"/>
       <use x="83.789062" xlink:href="#DejaVuSans-31"/>
       <use x="147.412109" xlink:href="#DejaVuSans-30"/>
       <use x="211.035156" xlink:href="#DejaVuSans-2e"/>
       <use x="242.822266" xlink:href="#DejaVuSans-30"/>
      </g>
     </g>
    </g>
    <g id="ytick_5">
     <g id="line2d_11">
      <g>
       <use style="stroke:#000000;stroke-width:0.8;" x="57.6" xlink:href="#m0b30f43eca" y="163.173581"/>
      </g>
     </g>
     <g id="text_12">
      <!-- −7.5 -->
      <g transform="translate(26.317187 166.9728)scale(0.1 -0.1)">
       <use xlink:href="#DejaVuSans-2212"/>
       <use x="83.789062" xlink:href="#DejaVuSans-37"/>
       <use x="147.412109" xlink:href="#DejaVuSans-2e"/>
       <use x="179.199219" xlink:href="#DejaVuSans-35"/>
      </g>
     </g>
    </g>
    <g id="ytick_6">
     <g id="line2d_12">
      <g>
       <use style="stroke:#000000;stroke-width:0.8;" x="57.6" xlink:href="#m0b30f43eca" y="130.936645"/>
      </g>
     </g>
     <g id="text_13">
      <!-- −5.0 -->
      <g transform="translate(26.317187 134.735864)scale(0.1 -0.1)">
       <use xlink:href="#DejaVuSans-2212"/>
       <use x="83.789062" xlink:href="#DejaVuSans-35"/>
       <use x="147.412109" xlink:href="#DejaVuSans-2e"/>
       <use x="179.199219" xlink:href="#DejaVuSans-30"/>
      </g>
     </g>
    </g>
    <g id="ytick_7">
     <g id="line2d_13">
      <g>
       <use style="stroke:#000000;stroke-width:0.8;" x="57.6" xlink:href="#m0b30f43eca" y="98.69971"/>
      </g>
     </g>
     <g id="text_14">
      <!-- −2.5 -->
      <g transform="translate(26.317187 102.498929)scale(0.1 -0.1)">
       <use xlink:href="#DejaVuSans-2212"/>
       <use x="83.789062" xlink:href="#DejaVuSans-32"/>
       <use x="147.412109" xlink:href="#DejaVuSans-2e"/>
       <use x="179.199219" xlink:href="#DejaVuSans-35"/>
      </g>
     </g>
    </g>
    <g id="ytick_8">
     <g id="line2d_14">
      <g>
       <use style="stroke:#000000;stroke-width:0.8;" x="57.6" xlink:href="#m0b30f43eca" y="66.462774"/>
      </g>
     </g>
     <g id="text_15">
      <!-- 0.0 -->
      <g transform="translate(34.696875 70.261993)scale(0.1 -0.1)">
       <use xlink:href="#DejaVuSans-30"/>
       <use x="63.623047" xlink:href="#DejaVuSans-2e"/>
       <use x="95.410156" xlink:href="#DejaVuSans-30"/>
      </g>
     </g>
    </g>
   </g>
   <g id="line2d_15">
    <path clip-path="url(#pd74c68a484)" d="M 73.832727 53.568 
L 77.112066 59.495703 
L 80.391405 71.828904 
L 83.670744 79.2285 
L 86.950083 74.891347 
L 90.229421 62.804977 
L 93.50876 54.081579 
L 96.788099 56.741406 
L 100.067438 68.339024 
L 103.346777 78.211615 
L 106.626116 77.282371 
L 109.905455 66.405625 
L 113.184793 55.581405 
L 116.464132 54.76149 
L 119.743471 64.699692 
L 123.02281 76.258873 
L 126.302149 78.811551 
L 129.581488 70.010811 
L 132.860826 57.948035 
L 136.140165 53.713674 
L 139.419504 61.200784 
L 142.698843 73.525742 
L 145.978182 79.357031 
L 149.257521 73.333388 
L 152.53686 60.992929 
L 155.816198 53.681433 
L 159.095537 58.121046 
L 162.374876 70.230026 
L 165.654215 78.875398 
L 168.933554 76.108654 
L 172.212893 64.473521 
L 175.492231 54.667313 
L 178.77157 55.705802 
L 182.050909 66.634216 
L 185.330248 77.405001 
L 188.609587 78.115543 
L 191.888926 68.112571 
L 195.168264 56.592784 
L 198.447603 54.147434 
L 201.726942 63.024759 
L 205.006281 75.062971 
L 208.28562 79.194194 
L 211.564959 71.6202 
L 214.844298 59.304492 
L 218.123636 53.570084 
L 221.402975 59.68917 
L 224.682314 72.035886 
L 227.961653 79.258695 
L 231.240992 74.716991 
L 234.520331 62.586385 
L 237.799669 54.019728 
L 241.079008 56.893157 
L 244.358347 68.56486 
L 247.637686 78.3039 
L 250.917025 77.15626 
L 254.196364 66.177063 
L 257.475702 55.460541 
L 260.755041 54.859443 
L 264.03438 64.926407 
L 267.313719 76.405911 
L 270.593058 78.743729 
L 273.872397 69.790484 
L 277.151736 57.777772 
L 280.431074 53.750019 
L 283.710413 61.410322 
L 286.989752 73.715839 
L 290.269091 79.352918 
L 293.54843 73.138843 
L 296.827769 60.786796 
L 300.107107 53.653228 
L 303.386446 58.296695 
L 306.665785 70.448048 
L 309.945124 78.935345 
L 313.224463 75.955412 
L 316.503802 64.247981 
L 319.78314 54.576837 
L 323.062479 55.833561 
L 326.341818 66.862765 
L 329.621157 77.524236 
L 332.900496 78.015826 
L 336.179835 67.885579 
L 339.459174 56.447201 
L 342.738512 54.217104 
L 346.017851 63.245631 
L 349.29719 75.231973 
L 352.576529 79.155948 
L 355.855868 71.40987 
L 359.135207 59.115447 
L 362.414545 53.576131 
L 365.693884 59.884747 
L 368.973223 72.241199 
L 372.252562 79.284983 
L 375.531901 74.540085 
L 378.81124 62.368921 
L 382.090579 53.96164 
L 385.369917 57.047851 
L 388.649256 68.790108 
L 391.928595 78.392609 
L 395.207934 77.026872 
L 398.487273 65.948534 
" style="fill:none;stroke:#1f77b4;stroke-linecap:square;stroke-width:1.5;"/>
   </g>
   <g id="line2d_16">
    <path clip-path="url(#pd74c68a484)" d="M 73.832727 66.462774 
L 77.112066 77.313356 
L 80.391405 78.187953 
L 83.670744 68.282462 
L 86.950083 56.703948 
L 90.229421 54.097667 
L 93.50876 62.85982 
L 96.788099 74.934506 
L 100.067438 79.220315 
L 103.346777 71.776892 
L 106.626116 59.447692 
L 109.905455 53.568136 
L 113.184793 59.543866 
L 116.464132 71.880833 
L 119.743471 79.236451 
L 123.02281 74.848008 
L 126.302149 62.750197 
L 129.581488 54.065726 
L 132.860826 56.77905 
L 136.140165 68.395555 
L 139.419504 78.235052 
L 142.698843 77.25117 
L 145.978182 66.348472 
L 149.257521 55.550872 
L 152.53686 54.785632 
L 155.816198 64.756314 
L 159.095537 76.295913 
L 162.374876 78.794955 
L 165.654215 69.955837 
L 168.933554 57.905223 
L 172.212893 53.722388 
L 175.492231 61.253014 
L 178.77157 73.573471 
L 182.050909 79.356377 
L 185.330248 73.284951 
L 188.609587 60.941241 
L 191.888926 53.674016 
L 195.168264 58.164719 
L 198.447603 70.284632 
L 201.726942 78.890731 
L 205.006281 76.070616 
L 208.28562 64.417085 
L 211.564959 54.644365 
L 214.844298 55.737441 
L 218.123636 66.691353 
L 221.402975 77.435108 
L 224.682314 78.090937 
L 227.961653 68.055875 
L 231.240992 56.556128 
L 234.520331 54.164515 
L 237.799669 63.079875 
L 241.079008 75.105448 
L 244.358347 79.184979 
L 247.637686 71.567765 
L 250.917025 59.257046 
L 254.196364 53.571248 
L 257.475702 59.737876 
L 260.755041 72.087362 
L 264.03438 79.265616 
L 267.313719 74.672997 
L 270.593058 62.53191 
L 273.872397 54.004855 
L 277.151736 56.931565 
L 280.431074 68.62123 
L 283.710413 78.326405 
L 286.989752 77.124223 
L 290.269091 66.119921 
L 293.54843 55.430821 
L 296.827769 54.884473 
L 300.107107 64.983175 
L 303.386446 76.442227 
L 306.665785 78.726206 
L 309.945124 69.735233 
L 313.224463 57.735587 
L 316.503802 53.759683 
L 319.78314 61.462951 
L 323.062479 73.763043 
L 326.341818 79.351297 
L 329.621157 73.089889 
L 332.900496 60.735515 
L 336.179835 53.646768 
L 339.459174 58.340996 
L 342.738512 70.502379 
L 346.017851 78.949754 
L 349.29719 75.916651 
L 352.576529 64.191687 
L 355.855868 54.554767 
L 359.135207 55.86601 
L 362.414545 66.919895 
L 365.693884 77.553523 
L 368.973223 77.990344 
L 372.252562 67.828758 
L 375.531901 56.411284 
L 378.81124 54.235116 
L 382.090579 63.301011 
L 385.369917 75.273805 
L 388.649256 79.145771 
L 391.928595 71.357041 
L 395.207934 59.068542 
L 398.487273 53.578276 
" style="fill:none;stroke:#ff7f0e;stroke-linecap:square;stroke-width:1.5;"/>
   </g>
   <g id="line2d_17">
    <path clip-path="url(#pd74c68a484)" d="M 73.832727 66.462774 
L 77.112066 70.750297 
L 80.391405 82.054914 
L 83.670744 90.316951 
L 86.950083 88.284255 
L 90.229421 78.180039 
L 93.50876 69.65929 
L 96.788099 70.93225 
L 100.067438 81.216331 
L 103.346777 91.455949 
L 106.626116 92.648594 
L 109.905455 84.122026 
L 113.184793 74.152732 
L 116.464132 72.356989 
L 119.743471 80.850024 
L 123.02281 92.301754 
L 126.302149 96.676439 
L 129.581488 90.459969 
L 132.860826 79.891187 
L 136.140165 75.226341 
L 139.419504 81.31007 
L 142.698843 93.121731 
L 145.978182 100.391896 
L 149.257521 97.044538 
L 152.53686 86.783864 
L 155.816198 79.689246 
L 159.095537 82.948843 
L 162.374876 94.251483 
L 165.654215 103.912093 
L 168.933554 103.776828 
L 172.212893 94.720288 
L 175.492231 85.842129 
L 178.77157 86.101518 
L 182.050909 96.080881 
L 185.330248 107.451115 
L 188.609587 110.630135 
L 191.888926 103.593365 
L 195.168264 93.735948 
L 198.447603 91.074506 
L 201.726942 99.038747 
L 205.006281 111.31909 
L 208.28562 117.668612 
L 211.564959 113.324932 
L 214.844298 103.389713 
L 218.123636 98.139198 
L 221.402975 103.577309 
L 224.682314 115.916717 
L 227.961653 125.061982 
L 231.240992 123.892417 
L 234.520331 114.809938 
L 237.799669 107.531989 
L 241.079008 110.158544 
L 244.358347 121.72633 
L 247.637686 133.095725 
L 250.917025 135.355093 
L 254.196364 128.015436 
L 257.475702 119.461442 
L 260.755041 119.244116 
L 264.03438 129.301102 
L 267.313719 142.176813 
L 270.593058 147.878665 
L 273.872397 143.065895 
L 277.151736 134.122772 
L 280.431074 131.290637 
L 283.710413 139.253916 
L 286.989752 152.835141 
L 290.269091 161.757014 
L 293.54843 160.0933 
L 296.827769 151.719433 
L 300.107107 146.75162 
L 303.386446 152.248128 
L 306.665785 165.722281 
L 309.945124 177.430888 
L 313.224463 179.334588 
L 316.503802 172.491601 
L 319.78314 166.087369 
L 323.062479 168.992035 
L 326.341818 181.608061 
L 329.621157 195.502869 
L 332.900496 201.164585 
L 336.179835 196.750217 
L 339.459174 189.783072 
L 342.738512 190.239002 
L 346.017851 201.377836 
L 349.29719 216.749609 
L 352.576529 226.12809 
L 355.855868 224.916214 
L 359.135207 218.376243 
L 362.414545 216.795401 
L 365.693884 226.031678 
L 368.973223 242.132012 
L 372.252562 254.970725 
L 375.531901 257.563335 
L 378.81124 252.492325 
L 382.090579 249.537369 
L 385.369917 256.688462 
L 388.649256 272.804744 
L 391.928595 288.668259 
L 395.207934 295.464006 
L 398.487273 292.889534 
" style="fill:none;stroke:#2ca02c;stroke-linecap:square;stroke-width:1.5;"/>
   </g>
   <g id="line2d_18">
    <path clip-path="url(#pd74c68a484)" d="M 73.832727 66.462774 
L 77.112066 71.853324 
L 80.391405 83.283501 
L 83.670744 90.579308 
L 86.950083 87.37809 
L 90.229421 76.978581 
L 93.50876 69.30848 
L 96.788099 71.797205 
L 100.067438 82.545695 
L 103.346777 92.072727 
L 106.626116 92.032318 
L 109.905455 82.887311 
L 113.184793 73.484246 
L 116.464132 72.92032 
L 119.743471 82.179781 
L 123.02281 93.2295 
L 126.302149 96.404988 
L 129.581488 89.296376 
L 132.860826 78.964487 
L 136.140165 75.449575 
L 139.419504 82.540891 
L 142.698843 94.293339 
L 145.978182 100.493903 
L 149.257521 96.051979 
L 152.53686 85.680208 
L 155.816198 79.562265 
L 159.095537 83.990582 
L 162.374876 95.581764 
L 165.654215 104.387817 
L 168.933554 103.043007 
L 172.212893 93.536495 
L 175.492231 85.384225 
L 178.77157 86.880647 
L 182.050909 97.47361 
L 185.330248 108.272699 
L 188.609587 110.223852 
L 191.888926 102.434394 
L 195.168264 92.994582 
L 198.447603 91.540283 
L 201.726942 100.394649 
L 205.006281 112.433109 
L 208.28562 117.634616 
L 211.564959 112.295868 
L 214.844298 102.437094 
L 218.123636 98.268074 
L 221.402975 104.802341 
L 224.682314 117.24882 
L 227.961653 125.417809 
L 231.240992 123.090512 
L 234.520331 113.737695 
L 237.799669 107.329923 
L 241.079008 111.171842 
L 244.358347 123.187633 
L 247.637686 133.830784 
L 250.917025 134.86252 
L 254.196364 126.927834 
L 257.475702 118.963956 
L 260.755041 119.984982 
L 264.03438 130.79583 
L 267.313719 143.253806 
L 270.593058 147.756558 
L 273.872397 142.072135 
L 277.151736 133.392751 
L 280.431074 131.72402 
L 283.710413 140.687696 
L 286.989752 154.193723 
L 290.269091 162.041324 
L 293.54843 159.29956 
L 296.827769 150.842869 
L 300.107107 146.87169 
L 303.386446 153.536319 
L 306.665785 167.284697 
L 309.945124 178.130359 
L 313.224463 178.836448 
L 316.503802 171.571655 
L 319.78314 165.918908 
L 323.062479 170.067411 
L 326.341818 183.286325 
L 329.621157 196.599369 
L 332.900496 201.040451 
L 336.179835 195.900074 
L 339.459174 189.38062 
L 342.738512 191.058281 
L 346.017851 203.081931 
L 349.29719 218.20079 
L 352.576529 226.434219 
L 355.855868 224.251375 
L 359.135207 217.821095 
L 362.414545 217.344051 
L 365.693884 227.678137 
L 368.973223 243.876147 
L 372.252562 255.738242 
L 375.531901 257.193957 
L 378.81124 251.887642 
L 382.090579 249.832425 
L 385.369917 258.208718 
L 388.649256 274.767392 
L 391.928595 289.902485 
L 395.207934 295.488 
L 398.487273 292.354055 
" style="fill:none;stroke:#d62728;stroke-linecap:square;stroke-width:1.5;"/>
   </g>
   <g id="patch_3">
    <path d="M 57.6 307.584 
L 57.6 41.472 
" style="fill:none;stroke:#000000;stroke-linecap:square;stroke-linejoin:miter;stroke-width:0.8;"/>
   </g>
   <g id="patch_4">
    <path d="M 414.72 307.584 
L 414.72 41.472 
" style="fill:none;stroke:#000000;stroke-linecap:square;stroke-linejoin:miter;stroke-width:0.8;"/>
   </g>
   <g id="patch_5">
    <path d="M 57.6 307.584 
L 414.72 307.584 
" style="fill:none;stroke:#000000;stroke-linecap:square;stroke-linejoin:miter;stroke-width:0.8;"/>
   </g>
   <g id="patch_6">
    <path d="M 57.6 41.472 
L 414.72 41.472 
" style="fill:none;stroke:#000000;stroke-linecap:square;stroke-linejoin:miter;stroke-width:0.8;"/>
   </g>
   <g id="legend_1">
    <g id="patch_7">
     <path d="M 64.6 302.584 
L 130.21875 302.584 
Q 132.21875 302.584 132.21875 300.584 
L 132.21875 241.759 
Q 132.21875 239.759 130.21875 239.759 
L 64.6 239.759 
Q 62.6 239.759 62.6 241.759 
L 62.6 300.584 
Q 62.6 302.584 64.6 302.584 
z
" style="fill:#ffffff;opacity:0.8;stroke:#cccccc;stroke-linejoin:miter;"/>
    </g>
    <g id="line2d_19">
     <path d="M 66.6 247.857437 
L 86.6 247.857437 
" style="fill:none;stroke:#1f77b4;stroke-linecap:square;stroke-width:1.5;"/>
    </g>
    <g id="line2d_20"/>
    <g id="text_16">
     <!-- sys_x1 -->
     <g transform="translate(94.6 251.357437)scale(0.1 -0.1)">
      <defs>
       <path d="M 2834 3397 
L 2834 2853 
Q 2591 2978 2328 3040 
Q 2066 3103 1784 3103 
Q 1356 3103 1142 2972 
Q 928 2841 928 2578 
Q 928 2378 1081 2264 
Q 1234 2150 1697 2047 
L 1894 2003 
Q 2506 1872 2764 1633 
Q 3022 1394 3022 966 
Q 3022 478 2636 193 
Q 2250 -91 1575 -91 
Q 1294 -91 989 -36 
Q 684 19 347 128 
L 347 722 
Q 666 556 975 473 
Q 1284 391 1588 391 
Q 1994 391 2212 530 
Q 2431 669 2431 922 
Q 2431 1156 2273 1281 
Q 2116 1406 1581 1522 
L 1381 1569 
Q 847 1681 609 1914 
Q 372 2147 372 2553 
Q 372 3047 722 3315 
Q 1072 3584 1716 3584 
Q 2034 3584 2315 3537 
Q 2597 3491 2834 3397 
z
" id="DejaVuSans-73" transform="scale(0.015625)"/>
       <path d="M 2059 -325 
Q 1816 -950 1584 -1140 
Q 1353 -1331 966 -1331 
L 506 -1331 
L 506 -850 
L 844 -850 
Q 1081 -850 1212 -737 
Q 1344 -625 1503 -206 
L 1606 56 
L 191 3500 
L 800 3500 
L 1894 763 
L 2988 3500 
L 3597 3500 
L 2059 -325 
z
" id="DejaVuSans-79" transform="scale(0.015625)"/>
       <path d="M 3263 -1063 
L 3263 -1509 
L -63 -1509 
L -63 -1063 
L 3263 -1063 
z
" id="DejaVuSans-5f" transform="scale(0.015625)"/>
       <path d="M 3513 3500 
L 2247 1797 
L 3578 0 
L 2900 0 
L 1881 1375 
L 863 0 
L 184 0 
L 1544 1831 
L 300 3500 
L 978 3500 
L 1906 2253 
L 2834 3500 
L 3513 3500 
z
" id="DejaVuSans-78" transform="scale(0.015625)"/>
      </defs>
      <use xlink:href="#DejaVuSans-73"/>
      <use x="52.099609" xlink:href="#DejaVuSans-79"/>
      <use x="111.279297" xlink:href="#DejaVuSans-73"/>
      <use x="163.378906" xlink:href="#DejaVuSans-5f"/>
      <use x="213.378906" xlink:href="#DejaVuSans-78"/>
      <use x="272.558594" xlink:href="#DejaVuSans-31"/>
     </g>
    </g>
    <g id="line2d_21">
     <path d="M 66.6 262.813687 
L 86.6 262.813687 
" style="fill:none;stroke:#ff7f0e;stroke-linecap:square;stroke-width:1.5;"/>
    </g>
    <g id="line2d_22"/>
    <g id="text_17">
     <!-- sys_x2 -->
     <g transform="translate(94.6 266.313687)scale(0.1 -0.1)">
      <use xlink:href="#DejaVuSans-73"/>
      <use x="52.099609" xlink:href="#DejaVuSans-79"/>
      <use x="111.279297" xlink:href="#DejaVuSans-73"/>
      <use x="163.378906" xlink:href="#DejaVuSans-5f"/>
      <use x="213.378906" xlink:href="#DejaVuSans-78"/>
      <use x="272.558594" xlink:href="#DejaVuSans-32"/>
     </g>
    </g>
    <g id="line2d_23">
     <path d="M 66.6 277.769937 
L 86.6 277.769937 
" style="fill:none;stroke:#2ca02c;stroke-linecap:square;stroke-width:1.5;"/>
    </g>
    <g id="line2d_24"/>
    <g id="text_18">
     <!-- sys_x3 -->
     <g transform="translate(94.6 281.269937)scale(0.1 -0.1)">
      <defs>
       <path d="M 2597 2516 
Q 3050 2419 3304 2112 
Q 3559 1806 3559 1356 
Q 3559 666 3084 287 
Q 2609 -91 1734 -91 
Q 1441 -91 1130 -33 
Q 819 25 488 141 
L 488 750 
Q 750 597 1062 519 
Q 1375 441 1716 441 
Q 2309 441 2620 675 
Q 2931 909 2931 1356 
Q 2931 1769 2642 2001 
Q 2353 2234 1838 2234 
L 1294 2234 
L 1294 2753 
L 1863 2753 
Q 2328 2753 2575 2939 
Q 2822 3125 2822 3475 
Q 2822 3834 2567 4026 
Q 2313 4219 1838 4219 
Q 1578 4219 1281 4162 
Q 984 4106 628 3988 
L 628 4550 
Q 988 4650 1302 4700 
Q 1616 4750 1894 4750 
Q 2613 4750 3031 4423 
Q 3450 4097 3450 3541 
Q 3450 3153 3228 2886 
Q 3006 2619 2597 2516 
z
" id="DejaVuSans-33" transform="scale(0.015625)"/>
      </defs>
      <use xlink:href="#DejaVuSans-73"/>
      <use x="52.099609" xlink:href="#DejaVuSans-79"/>
      <use x="111.279297" xlink:href="#DejaVuSans-73"/>
      <use x="163.378906" xlink:href="#DejaVuSans-5f"/>
      <use x="213.378906" xlink:href="#DejaVuSans-78"/>
      <use x="272.558594" xlink:href="#DejaVuSans-33"/>
     </g>
    </g>
    <g id="line2d_25">
     <path d="M 66.6 292.726187 
L 86.6 292.726187 
" style="fill:none;stroke:#d62728;stroke-linecap:square;stroke-width:1.5;"/>
    </g>
    <g id="line2d_26"/>
    <g id="text_19">
     <!-- sys_x4 -->
     <g transform="translate(94.6 296.226187)scale(0.1 -0.1)">
      <use xlink:href="#DejaVuSans-73"/>
      <use x="52.099609" xlink:href="#DejaVuSans-79"/>
      <use x="111.279297" xlink:href="#DejaVuSans-73"/>
      <use x="163.378906" xlink:href="#DejaVuSans-5f"/>
      <use x="213.378906" xlink:href="#DejaVuSans-78"/>
      <use x="272.558594" xlink:href="#DejaVuSans-34"/>
     </g>
    </g>
   </g>
  </g>
 </g>
 <defs>
  <clipPath id="pd74c68a484">
   <rect height="266.112" width="357.12" x="57.6" y="41.472"/>
  </clipPath>
 </defs>
</svg>
