<?xml version="1.0" encoding="utf-8" standalone="no"?>
<!DOCTYPE svg PUBLIC "-//W3C//DTD SVG 1.1//EN"
  "http://www.w3.org/Graphics/SVG/1.1/DTD/svg11.dtd">
<svg height="345.6pt" version="1.1" viewBox="0 0 460.8 345.6" width="460.8pt" xmlns="http://www.w3.org/2000/svg" xmlns:xlink="http://www.w3.org/1999/xlink">
 <metadata>
  <rdf:RDF xmlns:cc="http://creativecommons.org/ns#" xmlns:dc="http://purl.org/dc/elements/1.1/" xmlns:rdf="http://www.w3.org/1999/02/22-rdf-syntax-ns#">
   <cc:Work>
    <dc:type rdf:resource="http://purl.org/dc/dcmitype/StillImage"/>
    <dc:date>2021-07-30T03:26:42.641346</dc:date>
    <dc:format>image/svg+xml</dc:format>
    <dc:creator>
     <cc:Agent>
      <dc:title>Matplotlib v3.4.2, https://matplotlib.org/</dc:title>
     </cc:Agent>
    </dc:creator>
   </cc:Work>
  </rdf:RDF>
 </metadata>
 <defs>
  <style type="text/css">*{stroke-linecap:butt;stroke-linejoin:round;}</style>
 </defs>
 <g id="figure_1">
  <g id="patch_1">
   <path d="M 0 345.6 
L 460.8 345.6 
L 460.8 0 
L 0 0 
z
" style="fill:#ffffff;"/>
  </g>
  <g id="axes_1">
   <g id="patch_2">
    <path d="M 57.6 307.584 
L 414.72 307.584 
L 414.72 41.472 
L 57.6 41.472 
z
" style="fill:#ffffff;"/>
   </g>
   <g id="matplotlib.axis_1">
    <g id="xtick_1">
     <g id="line2d_1">
      <defs>
       <path d="M 0 0 
L 0 3.5 
" id="me5108d44dd" style="stroke:#000000;stroke-width:0.8;"/>
      </defs>
      <g>
       <use style="stroke:#000000;stroke-width:0.8;" x="73.832727" xlink:href="#me5108d44dd" y="307.584"/>
      </g>
     </g>
     <g id="text_1">
      <!-- 0 -->
      <g transform="translate(70.651477 322.182437)scale(0.1 -0.1)">
       <defs>
        <path d="M 2034 4250 
Q 1547 4250 1301 3770 
Q 1056 3291 1056 2328 
Q 1056 1369 1301 889 
Q 1547 409 2034 409 
Q 2525 409 2770 889 
Q 3016 1369 3016 2328 
Q 3016 3291 2770 3770 
Q 2525 4250 2034 4250 
z
M 2034 4750 
Q 2819 4750 3233 4129 
Q 3647 3509 3647 2328 
Q 3647 1150 3233 529 
Q 2819 -91 2034 -91 
Q 1250 -91 836 529 
Q 422 1150 422 2328 
Q 422 3509 836 4129 
Q 1250 4750 2034 4750 
z
" id="DejaVuSans-30" transform="scale(0.015625)"/>
       </defs>
       <use xlink:href="#DejaVuSans-30"/>
      </g>
     </g>
    </g>
    <g id="xtick_2">
     <g id="line2d_2">
      <g>
       <use style="stroke:#000000;stroke-width:0.8;" x="140.088757" xlink:href="#me5108d44dd" y="307.584"/>
      </g>
     </g>
     <g id="text_2">
      <!-- 10 -->
      <g transform="translate(133.726257 322.182437)scale(0.1 -0.1)">
       <defs>
        <path d="M 794 531 
L 1825 531 
L 1825 4091 
L 703 3866 
L 703 4441 
L 1819 4666 
L 2450 4666 
L 2450 531 
L 3481 531 
L 3481 0 
L 794 0 
L 794 531 
z
" id="DejaVuSans-31" transform="scale(0.015625)"/>
       </defs>
       <use xlink:href="#DejaVuSans-31"/>
       <use x="63.623047" xlink:href="#DejaVuSans-30"/>
      </g>
     </g>
    </g>
    <g id="xtick_3">
     <g id="line2d_3">
      <g>
       <use style="stroke:#000000;stroke-width:0.8;" x="206.344787" xlink:href="#me5108d44dd" y="307.584"/>
      </g>
     </g>
     <g id="text_3">
      <!-- 20 -->
      <g transform="translate(199.982287 322.182437)scale(0.1 -0.1)">
       <defs>
        <path d="M 1228 531 
L 3431 531 
L 3431 0 
L 469 0 
L 469 531 
Q 828 903 1448 1529 
Q 2069 2156 2228 2338 
Q 2531 2678 2651 2914 
Q 2772 3150 2772 3378 
Q 2772 3750 2511 3984 
Q 2250 4219 1831 4219 
Q 1534 4219 1204 4116 
Q 875 4013 500 3803 
L 500 4441 
Q 881 4594 1212 4672 
Q 1544 4750 1819 4750 
Q 2544 4750 2975 4387 
Q 3406 4025 3406 3419 
Q 3406 3131 3298 2873 
Q 3191 2616 2906 2266 
Q 2828 2175 2409 1742 
Q 1991 1309 1228 531 
z
" id="DejaVuSans-32" transform="scale(0.015625)"/>
       </defs>
       <use xlink:href="#DejaVuSans-32"/>
       <use x="63.623047" xlink:href="#DejaVuSans-30"/>
      </g>
     </g>
    </g>
    <g id="xtick_4">
     <g id="line2d_4">
      <g>
       <use style="stroke:#000000;stroke-width:0.8;" x="272.600816" xlink:href="#me5108d44dd" y="307.584"/>
      </g>
     </g>
     <g id="text_4">
      <!-- 30 -->
      <g transform="translate(266.238316 322.182437)scale(0.1 -0.1)">
       <defs>
        <path d="M 2597 2516 
Q 3050 2419 3304 2112 
Q 3559 1806 3559 1356 
Q 3559 666 3084 287 
Q 2609 -91 1734 -91 
Q 1441 -91 1130 -33 
Q 819 25 488 141 
L 488 750 
Q 750 597 1062 519 
Q 1375 441 1716 441 
Q 2309 441 2620 675 
Q 2931 909 2931 1356 
Q 2931 1769 2642 2001 
Q 2353 2234 1838 2234 
L 1294 2234 
L 1294 2753 
L 1863 2753 
Q 2328 2753 2575 2939 
Q 2822 3125 2822 3475 
Q 2822 3834 2567 4026 
Q 2313 4219 1838 4219 
Q 1578 4219 1281 4162 
Q 984 4106 628 3988 
L 628 4550 
Q 988 4650 1302 4700 
Q 1616 4750 1894 4750 
Q 2613 4750 3031 4423 
Q 3450 4097 3450 3541 
Q 3450 3153 3228 2886 
Q 3006 2619 2597 2516 
z
" id="DejaVuSans-33" transform="scale(0.015625)"/>
       </defs>
       <use xlink:href="#DejaVuSans-33"/>
       <use x="63.623047" xlink:href="#DejaVuSans-30"/>
      </g>
     </g>
    </g>
    <g id="xtick_5">
     <g id="line2d_5">
      <g>
       <use style="stroke:#000000;stroke-width:0.8;" x="338.856846" xlink:href="#me5108d44dd" y="307.584"/>
      </g>
     </g>
     <g id="text_5">
      <!-- 40 -->
      <g transform="translate(332.494346 322.182437)scale(0.1 -0.1)">
       <defs>
        <path d="M 2419 4116 
L 825 1625 
L 2419 1625 
L 2419 4116 
z
M 2253 4666 
L 3047 4666 
L 3047 1625 
L 3713 1625 
L 3713 1100 
L 3047 1100 
L 3047 0 
L 2419 0 
L 2419 1100 
L 313 1100 
L 313 1709 
L 2253 4666 
z
" id="DejaVuSans-34" transform="scale(0.015625)"/>
       </defs>
       <use xlink:href="#DejaVuSans-34"/>
       <use x="63.623047" xlink:href="#DejaVuSans-30"/>
      </g>
     </g>
    </g>
    <g id="xtick_6">
     <g id="line2d_6">
      <g>
       <use style="stroke:#000000;stroke-width:0.8;" x="405.112876" xlink:href="#me5108d44dd" y="307.584"/>
      </g>
     </g>
     <g id="text_6">
      <!-- 50 -->
      <g transform="translate(398.750376 322.182437)scale(0.1 -0.1)">
       <defs>
        <path d="M 691 4666 
L 3169 4666 
L 3169 4134 
L 1269 4134 
L 1269 2991 
Q 1406 3038 1543 3061 
Q 1681 3084 1819 3084 
Q 2600 3084 3056 2656 
Q 3513 2228 3513 1497 
Q 3513 744 3044 326 
Q 2575 -91 1722 -91 
Q 1428 -91 1123 -41 
Q 819 9 494 109 
L 494 744 
Q 775 591 1075 516 
Q 1375 441 1709 441 
Q 2250 441 2565 725 
Q 2881 1009 2881 1497 
Q 2881 1984 2565 2268 
Q 2250 2553 1709 2553 
Q 1456 2553 1204 2497 
Q 953 2441 691 2322 
L 691 4666 
z
" id="DejaVuSans-35" transform="scale(0.015625)"/>
       </defs>
       <use xlink:href="#DejaVuSans-35"/>
       <use x="63.623047" xlink:href="#DejaVuSans-30"/>
      </g>
     </g>
    </g>
    <g id="text_7">
     <!-- Time -->
     <g transform="translate(223.926406 335.860562)scale(0.1 -0.1)">
      <defs>
       <path d="M -19 4666 
L 3928 4666 
L 3928 4134 
L 2272 4134 
L 2272 0 
L 1638 0 
L 1638 4134 
L -19 4134 
L -19 4666 
z
" id="DejaVuSans-54" transform="scale(0.015625)"/>
       <path d="M 603 3500 
L 1178 3500 
L 1178 0 
L 603 0 
L 603 3500 
z
M 603 4863 
L 1178 4863 
L 1178 4134 
L 603 4134 
L 603 4863 
z
" id="DejaVuSans-69" transform="scale(0.015625)"/>
       <path d="M 3328 2828 
Q 3544 3216 3844 3400 
Q 4144 3584 4550 3584 
Q 5097 3584 5394 3201 
Q 5691 2819 5691 2113 
L 5691 0 
L 5113 0 
L 5113 2094 
Q 5113 2597 4934 2840 
Q 4756 3084 4391 3084 
Q 3944 3084 3684 2787 
Q 3425 2491 3425 1978 
L 3425 0 
L 2847 0 
L 2847 2094 
Q 2847 2600 2669 2842 
Q 2491 3084 2119 3084 
Q 1678 3084 1418 2786 
Q 1159 2488 1159 1978 
L 1159 0 
L 581 0 
L 581 3500 
L 1159 3500 
L 1159 2956 
Q 1356 3278 1631 3431 
Q 1906 3584 2284 3584 
Q 2666 3584 2933 3390 
Q 3200 3197 3328 2828 
z
" id="DejaVuSans-6d" transform="scale(0.015625)"/>
       <path d="M 3597 1894 
L 3597 1613 
L 953 1613 
Q 991 1019 1311 708 
Q 1631 397 2203 397 
Q 2534 397 2845 478 
Q 3156 559 3463 722 
L 3463 178 
Q 3153 47 2828 -22 
Q 2503 -91 2169 -91 
Q 1331 -91 842 396 
Q 353 884 353 1716 
Q 353 2575 817 3079 
Q 1281 3584 2069 3584 
Q 2775 3584 3186 3129 
Q 3597 2675 3597 1894 
z
M 3022 2063 
Q 3016 2534 2758 2815 
Q 2500 3097 2075 3097 
Q 1594 3097 1305 2825 
Q 1016 2553 972 2059 
L 3022 2063 
z
" id="DejaVuSans-65" transform="scale(0.015625)"/>
      </defs>
      <use xlink:href="#DejaVuSans-54"/>
      <use x="57.958984" xlink:href="#DejaVuSans-69"/>
      <use x="85.742188" xlink:href="#DejaVuSans-6d"/>
      <use x="183.154297" xlink:href="#DejaVuSans-65"/>
     </g>
    </g>
   </g>
   <g id="matplotlib.axis_2">
    <g id="ytick_1">
     <g id="line2d_7">
      <defs>
       <path d="M 0 0 
L -3.5 0 
" id="m615d3b6bd6" style="stroke:#000000;stroke-width:0.8;"/>
      </defs>
      <g>
       <use style="stroke:#000000;stroke-width:0.8;" x="57.6" xlink:href="#m615d3b6bd6" y="276.26664"/>
      </g>
     </g>
     <g id="text_8">
      <!-- 0 -->
      <g transform="translate(44.2375 280.065859)scale(0.1 -0.1)">
       <use xlink:href="#DejaVuSans-30"/>
      </g>
     </g>
    </g>
    <g id="ytick_2">
     <g id="line2d_8">
      <g>
       <use style="stroke:#000000;stroke-width:0.8;" x="57.6" xlink:href="#m615d3b6bd6" y="224.240447"/>
      </g>
     </g>
     <g id="text_9">
      <!-- 10000 -->
      <g transform="translate(18.7875 228.039666)scale(0.1 -0.1)">
       <use xlink:href="#DejaVuSans-31"/>
       <use x="63.623047" xlink:href="#DejaVuSans-30"/>
       <use x="127.246094" xlink:href="#DejaVuSans-30"/>
       <use x="190.869141" xlink:href="#DejaVuSans-30"/>
       <use x="254.492188" xlink:href="#DejaVuSans-30"/>
      </g>
     </g>
    </g>
    <g id="ytick_3">
     <g id="line2d_9">
      <g>
       <use style="stroke:#000000;stroke-width:0.8;" x="57.6" xlink:href="#m615d3b6bd6" y="172.214255"/>
      </g>
     </g>
     <g id="text_10">
      <!-- 20000 -->
      <g transform="translate(18.7875 176.013474)scale(0.1 -0.1)">
       <use xlink:href="#DejaVuSans-32"/>
       <use x="63.623047" xlink:href="#DejaVuSans-30"/>
       <use x="127.246094" xlink:href="#DejaVuSans-30"/>
       <use x="190.869141" xlink:href="#DejaVuSans-30"/>
       <use x="254.492188" xlink:href="#DejaVuSans-30"/>
      </g>
     </g>
    </g>
    <g id="ytick_4">
     <g id="line2d_10">
      <g>
       <use style="stroke:#000000;stroke-width:0.8;" x="57.6" xlink:href="#m615d3b6bd6" y="120.188063"/>
      </g>
     </g>
     <g id="text_11">
      <!-- 30000 -->
      <g transform="translate(18.7875 123.987281)scale(0.1 -0.1)">
       <use xlink:href="#DejaVuSans-33"/>
       <use x="63.623047" xlink:href="#DejaVuSans-30"/>
       <use x="127.246094" xlink:href="#DejaVuSans-30"/>
       <use x="190.869141" xlink:href="#DejaVuSans-30"/>
       <use x="254.492188" xlink:href="#DejaVuSans-30"/>
      </g>
     </g>
    </g>
    <g id="ytick_5">
     <g id="line2d_11">
      <g>
       <use style="stroke:#000000;stroke-width:0.8;" x="57.6" xlink:href="#m615d3b6bd6" y="68.16187"/>
      </g>
     </g>
     <g id="text_12">
      <!-- 40000 -->
      <g transform="translate(18.7875 71.961089)scale(0.1 -0.1)">
       <use xlink:href="#DejaVuSans-34"/>
       <use x="63.623047" xlink:href="#DejaVuSans-30"/>
       <use x="127.246094" xlink:href="#DejaVuSans-30"/>
       <use x="190.869141" xlink:href="#DejaVuSans-30"/>
       <use x="254.492188" xlink:href="#DejaVuSans-30"/>
      </g>
     </g>
    </g>
   </g>
   <g id="line2d_12">
    <path clip-path="url(#pe67f2f7f1c)" d="M 73.832727 224.240447 
L 80.45833 263.573814 
L 87.083933 264.367574 
L 93.709536 274.36612 
L 100.335139 276.0034 
L 106.960742 276.230899 
L 113.586345 276.261795 
L 120.211948 276.265972 
L 126.837551 276.266536 
L 133.463154 276.266611 
L 140.088757 276.266631 
L 146.71436 276.266636 
L 153.339963 276.266639 
L 159.965566 276.266634 
L 166.591169 276.26663 
L 173.216772 276.266631 
L 179.842375 276.266636 
L 186.467978 276.266631 
L 193.093581 276.266638 
L 199.719184 276.266632 
L 206.344787 276.266626 
L 212.97039 276.266633 
L 219.595993 276.266631 
L 226.221596 276.26663 
L 232.847199 276.266628 
L 239.472801 276.266628 
L 246.098404 276.266631 
L 252.724007 276.266627 
L 259.34961 276.266632 
L 265.975213 276.266637 
L 272.600816 276.266634 
L 279.226419 276.266634 
L 285.852022 276.266634 
L 292.477625 276.26663 
L 299.103228 276.266634 
L 305.728831 276.266633 
L 312.354434 276.26663 
L 318.980037 276.266638 
L 325.60564 276.26663 
L 332.231243 276.266636 
L 338.856846 276.266628 
L 345.482449 276.266625 
L 352.108052 276.266626 
L 358.733655 276.266623 
L 365.359258 276.266635 
L 371.984861 276.266627 
L 378.610464 276.266631 
L 385.236067 276.266634 
L 391.86167 276.266637 
L 398.487273 276.26663 
" style="fill:none;stroke:#1f77b4;stroke-linecap:square;stroke-width:1.5;"/>
   </g>
   <g id="line2d_13">
    <path clip-path="url(#pe67f2f7f1c)" d="M 73.832727 224.240447 
L 80.45833 181.653519 
L 87.083933 295.488 
L 93.709536 279.967265 
L 100.335139 276.791155 
L 106.960742 276.338089 
L 113.586345 276.276314 
L 120.211948 276.267946 
L 126.837551 276.266815 
L 133.463154 276.266661 
L 140.088757 276.26665 
L 146.71436 276.266641 
L 153.339963 276.266644 
L 159.965566 276.266636 
L 166.591169 276.266637 
L 173.216772 276.26664 
L 179.842375 276.266645 
L 186.467978 276.266634 
L 193.093581 276.266648 
L 199.719184 276.266634 
L 206.344787 276.266634 
L 212.97039 276.266648 
L 219.595993 276.266636 
L 226.221596 276.26664 
L 232.847199 276.266638 
L 239.472801 276.26664 
L 246.098404 276.266643 
L 252.724007 276.266635 
L 259.34961 276.266644 
L 265.975213 276.266644 
L 272.600816 276.266637 
L 279.226419 276.26664 
L 285.852022 276.266641 
L 292.477625 276.266636 
L 299.103228 276.266645 
L 305.728831 276.266638 
L 312.354434 276.266636 
L 318.980037 276.266649 
L 325.60564 276.266631 
L 332.231243 276.266649 
L 338.856846 276.266632 
L 345.482449 276.266639 
L 352.108052 276.266641 
L 358.733655 276.266634 
L 365.359258 276.266653 
L 371.984861 276.26663 
L 378.610464 276.266644 
L 385.236067 276.266641 
L 391.86167 276.266644 
L 398.487273 276.266634 
" style="fill:none;stroke:#ff7f0e;stroke-linecap:square;stroke-width:1.5;"/>
   </g>
   <g id="line2d_14">
    <path clip-path="url(#pe67f2f7f1c)" d="M 73.832727 224.240447 
L 80.45833 279.463873 
L 87.083933 278.695103 
L 93.709536 276.647884 
L 100.335139 276.31931 
L 106.960742 276.273777 
L 113.586345 276.267591 
L 120.211948 276.266754 
L 126.837551 276.266643 
L 133.463154 276.266642 
L 140.088757 276.266638 
L 146.71436 276.26664 
L 153.339963 276.26663 
L 159.965566 276.266629 
L 166.591169 276.266633 
L 173.216772 276.266638 
L 179.842375 276.266629 
L 186.467978 276.266641 
L 193.093581 276.266626 
L 199.719184 276.266624 
L 206.344787 276.266638 
L 212.97039 276.266628 
L 219.595993 276.266629 
L 226.221596 276.266626 
L 232.847199 276.26663 
L 239.472801 276.266632 
L 246.098404 276.266626 
L 252.724007 276.266637 
L 259.34961 276.266639 
L 265.975213 276.266632 
L 272.600816 276.266633 
L 279.226419 276.266633 
L 285.852022 276.266628 
L 292.477625 276.266637 
L 299.103228 276.266631 
L 305.728831 276.26663 
L 312.354434 276.266641 
L 318.980037 276.266626 
L 325.60564 276.266639 
L 332.231243 276.266621 
L 338.856846 276.266624 
L 345.482449 276.266626 
L 352.108052 276.266623 
L 358.733655 276.266641 
L 365.359258 276.266621 
L 371.984861 276.266635 
L 378.610464 276.266636 
L 385.236067 276.266637 
L 391.86167 276.266625 
L 398.487273 276.26663 
" style="fill:none;stroke:#2ca02c;stroke-linecap:square;stroke-width:1.5;"/>
   </g>
   <g id="line2d_15">
    <path clip-path="url(#pe67f2f7f1c)" d="M 73.832727 224.240447 
L 80.45833 53.568 
L 87.083933 295.226552 
L 93.709536 280.617524 
L 100.335139 276.894303 
L 106.960742 276.352366 
L 113.586345 276.278261 
L 120.211948 276.26821 
L 126.837551 276.266847 
L 133.463154 276.26664 
L 140.088757 276.26665 
L 146.71436 276.266637 
L 153.339963 276.266662 
L 159.965566 276.26664 
L 166.591169 276.266631 
L 173.216772 276.266631 
L 179.842375 276.26666 
L 186.467978 276.266612 
L 193.093581 276.266676 
L 199.719184 276.26664 
L 206.344787 276.266609 
L 212.97039 276.266665 
L 219.595993 276.266635 
L 226.221596 276.266646 
L 232.847199 276.266632 
L 239.472801 276.266635 
L 246.098404 276.266655 
L 252.724007 276.266614 
L 259.34961 276.266637 
L 265.975213 276.266657 
L 272.600816 276.266635 
L 279.226419 276.266641 
L 285.852022 276.26665 
L 292.477625 276.26662 
L 299.103228 276.266655 
L 305.728831 276.26664 
L 312.354434 276.266616 
L 318.980037 276.266676 
L 325.60564 276.266608 
L 332.231243 276.266682 
L 338.856846 276.266629 
L 345.482449 276.266637 
L 352.108052 276.266646 
L 358.733655 276.266601 
L 365.359258 276.266687 
L 371.984861 276.266606 
L 378.610464 276.266641 
L 385.236067 276.266639 
L 391.86167 276.266665 
L 398.487273 276.266626 
" style="fill:none;stroke:#d62728;stroke-linecap:square;stroke-width:1.5;"/>
   </g>
   <g id="line2d_16">
    <path clip-path="url(#pe67f2f7f1c)" d="M 73.832727 276.262516 
L 80.45833 276.263351 
L 87.083933 276.265112 
L 93.709536 276.266348 
L 100.335139 276.263542 
L 106.960742 276.261825 
L 113.586345 276.261465 
L 120.211948 276.26196 
L 126.837551 276.265498 
L 133.463154 276.265641 
L 140.088757 276.266302 
L 146.71436 276.263943 
L 153.339963 276.263415 
L 159.965566 276.264286 
L 166.591169 276.265572 
L 173.216772 276.263588 
L 179.842375 276.266434 
L 186.467978 276.262818 
L 193.093581 276.26203 
L 199.719184 276.265384 
L 206.344787 276.263153 
L 212.97039 276.263341 
L 219.595993 276.262537 
L 226.221596 276.26324 
L 232.847199 276.263913 
L 239.472801 276.262355 
L 246.098404 276.265068 
L 252.724007 276.266034 
L 259.34961 276.264408 
L 265.975213 276.264621 
L 272.600816 276.264521 
L 279.226419 276.263273 
L 285.852022 276.265286 
L 292.477625 276.263964 
L 299.103228 276.263681 
L 305.728831 276.266385 
L 312.354434 276.262813 
L 318.980037 276.265845 
L 325.60564 276.261493 
L 332.231243 276.261852 
L 338.856846 276.262077 
L 345.482449 276.261448 
L 352.108052 276.265963 
L 358.733655 276.261494 
L 365.359258 276.264634 
L 371.984861 276.265145 
L 378.610464 276.26546 
L 385.236067 276.26264 
L 391.86167 276.263566 
L 398.487273 276.261645 
" style="fill:none;stroke:#9467bd;stroke-linecap:square;stroke-width:1.5;"/>
   </g>
   <g id="line2d_17">
    <path clip-path="url(#pe67f2f7f1c)" d="M 73.832727 276.263976 
L 80.45833 276.265701 
L 87.083933 276.26463 
L 93.709536 276.265119 
L 100.335139 276.266153 
L 106.960742 276.262454 
L 113.586345 276.265971 
L 120.211948 276.262416 
L 126.837551 276.26479 
L 133.463154 276.263961 
L 140.088757 276.263956 
L 146.71436 276.266637 
L 153.339963 276.264935 
L 159.965566 276.264838 
L 166.591169 276.262853 
L 173.216772 276.265427 
L 179.842375 276.266174 
L 186.467978 276.263973 
L 193.093581 276.263248 
L 199.719184 276.263472 
L 206.344787 276.264029 
L 212.97039 276.265781 
L 219.595993 276.263409 
L 226.221596 276.266133 
L 232.847199 276.264203 
L 239.472801 276.266064 
L 246.098404 276.262137 
L 252.724007 276.263392 
L 259.34961 276.262693 
L 265.975213 276.262805 
L 272.600816 276.266386 
L 279.226419 276.264546 
L 285.852022 276.266376 
L 292.477625 276.265278 
L 299.103228 276.262711 
L 305.728831 276.263353 
L 312.354434 276.262141 
L 318.980037 276.265261 
L 325.60564 276.26158 
L 332.231243 276.262314 
L 338.856846 276.262523 
L 345.482449 276.265777 
L 352.108052 276.264484 
L 358.733655 276.26483 
L 365.359258 276.261987 
L 371.984861 276.263892 
L 378.610464 276.2622 
L 385.236067 276.262454 
L 391.86167 276.266111 
L 398.487273 276.261697 
" style="fill:none;stroke:#8c564b;stroke-linecap:square;stroke-width:1.5;"/>
   </g>
   <g id="patch_3">
    <path d="M 57.6 307.584 
L 57.6 41.472 
" style="fill:none;stroke:#000000;stroke-linecap:square;stroke-linejoin:miter;stroke-width:0.8;"/>
   </g>
   <g id="patch_4">
    <path d="M 414.72 307.584 
L 414.72 41.472 
" style="fill:none;stroke:#000000;stroke-linecap:square;stroke-linejoin:miter;stroke-width:0.8;"/>
   </g>
   <g id="patch_5">
    <path d="M 57.6 307.584 
L 414.72 307.584 
" style="fill:none;stroke:#000000;stroke-linecap:square;stroke-linejoin:miter;stroke-width:0.8;"/>
   </g>
   <g id="patch_6">
    <path d="M 57.6 41.472 
L 414.72 41.472 
" style="fill:none;stroke:#000000;stroke-linecap:square;stroke-linejoin:miter;stroke-width:0.8;"/>
   </g>
   <g id="legend_1">
    <g id="patch_7">
     <path d="M 363.43875 137.54075 
L 407.72 137.54075 
Q 409.72 137.54075 409.72 135.54075 
L 409.72 48.472 
Q 409.72 46.472 407.72 46.472 
L 363.43875 46.472 
Q 361.43875 46.472 361.43875 48.472 
L 361.43875 135.54075 
Q 361.43875 137.54075 363.43875 137.54075 
z
" style="fill:#ffffff;opacity:0.8;stroke:#cccccc;stroke-linejoin:miter;"/>
    </g>
    <g id="line2d_18">
     <path d="M 365.43875 54.570438 
L 385.43875 54.570438 
" style="fill:none;stroke:#1f77b4;stroke-linecap:square;stroke-width:1.5;"/>
    </g>
    <g id="line2d_19"/>
    <g id="text_13">
     <!-- x0 -->
     <g transform="translate(393.43875 58.070438)scale(0.1 -0.1)">
      <defs>
       <path d="M 3513 3500 
L 2247 1797 
L 3578 0 
L 2900 0 
L 1881 1375 
L 863 0 
L 184 0 
L 1544 1831 
L 300 3500 
L 978 3500 
L 1906 2253 
L 2834 3500 
L 3513 3500 
z
" id="DejaVuSans-78" transform="scale(0.015625)"/>
      </defs>
      <use xlink:href="#DejaVuSans-78"/>
      <use x="59.179688" xlink:href="#DejaVuSans-30"/>
     </g>
    </g>
    <g id="line2d_20">
     <path d="M 365.43875 69.248563 
L 385.43875 69.248563 
" style="fill:none;stroke:#ff7f0e;stroke-linecap:square;stroke-width:1.5;"/>
    </g>
    <g id="line2d_21"/>
    <g id="text_14">
     <!-- x1 -->
     <g transform="translate(393.43875 72.748563)scale(0.1 -0.1)">
      <use xlink:href="#DejaVuSans-78"/>
      <use x="59.179688" xlink:href="#DejaVuSans-31"/>
     </g>
    </g>
    <g id="line2d_22">
     <path d="M 365.43875 83.926688 
L 385.43875 83.926688 
" style="fill:none;stroke:#2ca02c;stroke-linecap:square;stroke-width:1.5;"/>
    </g>
    <g id="line2d_23"/>
    <g id="text_15">
     <!-- x2 -->
     <g transform="translate(393.43875 87.426688)scale(0.1 -0.1)">
      <use xlink:href="#DejaVuSans-78"/>
      <use x="59.179688" xlink:href="#DejaVuSans-32"/>
     </g>
    </g>
    <g id="line2d_24">
     <path d="M 365.43875 98.604813 
L 385.43875 98.604813 
" style="fill:none;stroke:#d62728;stroke-linecap:square;stroke-width:1.5;"/>
    </g>
    <g id="line2d_25"/>
    <g id="text_16">
     <!-- x3 -->
     <g transform="translate(393.43875 102.104813)scale(0.1 -0.1)">
      <use xlink:href="#DejaVuSans-78"/>
      <use x="59.179688" xlink:href="#DejaVuSans-33"/>
     </g>
    </g>
    <g id="line2d_26">
     <path d="M 365.43875 113.282938 
L 385.43875 113.282938 
" style="fill:none;stroke:#9467bd;stroke-linecap:square;stroke-width:1.5;"/>
    </g>
    <g id="line2d_27"/>
    <g id="text_17">
     <!-- x4 -->
     <g transform="translate(393.43875 116.782938)scale(0.1 -0.1)">
      <use xlink:href="#DejaVuSans-78"/>
      <use x="59.179688" xlink:href="#DejaVuSans-34"/>
     </g>
    </g>
    <g id="line2d_28">
     <path d="M 365.43875 127.961063 
L 385.43875 127.961063 
" style="fill:none;stroke:#8c564b;stroke-linecap:square;stroke-width:1.5;"/>
    </g>
    <g id="line2d_29"/>
    <g id="text_18">
     <!-- x5 -->
     <g transform="translate(393.43875 131.461063)scale(0.1 -0.1)">
      <use xlink:href="#DejaVuSans-78"/>
      <use x="59.179688" xlink:href="#DejaVuSans-35"/>
     </g>
    </g>
   </g>
  </g>
 </g>
 <defs>
  <clipPath id="pe67f2f7f1c">
   <rect height="266.112" width="357.12" x="57.6" y="41.472"/>
  </clipPath>
 </defs>
</svg>
