<?xml version="1.0" encoding="utf-8" standalone="no"?>
<!DOCTYPE svg PUBLIC "-//W3C//DTD SVG 1.1//EN"
  "http://www.w3.org/Graphics/SVG/1.1/DTD/svg11.dtd">
<svg height="345.6pt" version="1.1" viewBox="0 0 460.8 345.6" width="460.8pt" xmlns="http://www.w3.org/2000/svg" xmlns:xlink="http://www.w3.org/1999/xlink">
 <metadata>
  <rdf:RDF xmlns:cc="http://creativecommons.org/ns#" xmlns:dc="http://purl.org/dc/elements/1.1/" xmlns:rdf="http://www.w3.org/1999/02/22-rdf-syntax-ns#">
   <cc:Work>
    <dc:type rdf:resource="http://purl.org/dc/dcmitype/StillImage"/>
    <dc:date>2021-07-30T03:34:05.479018</dc:date>
    <dc:format>image/svg+xml</dc:format>
    <dc:creator>
     <cc:Agent>
      <dc:title>Matplotlib v3.4.2, https://matplotlib.org/</dc:title>
     </cc:Agent>
    </dc:creator>
   </cc:Work>
  </rdf:RDF>
 </metadata>
 <defs>
  <style type="text/css">*{stroke-linecap:butt;stroke-linejoin:round;}</style>
 </defs>
 <g id="figure_1">
  <g id="patch_1">
   <path d="M 0 345.6 
L 460.8 345.6 
L 460.8 0 
L 0 0 
z
" style="fill:#ffffff;"/>
  </g>
  <g id="axes_1">
   <g id="patch_2">
    <path d="M 57.6 307.584 
L 414.72 307.584 
L 414.72 41.472 
L 57.6 41.472 
z
" style="fill:#ffffff;"/>
   </g>
   <g id="matplotlib.axis_1">
    <g id="xtick_1">
     <g id="line2d_1">
      <defs>
       <path d="M 0 0 
L 0 3.5 
" id="m7f5f4610c5" style="stroke:#000000;stroke-width:0.8;"/>
      </defs>
      <g>
       <use style="stroke:#000000;stroke-width:0.8;" x="73.832727" xlink:href="#m7f5f4610c5" y="307.584"/>
      </g>
     </g>
     <g id="text_1">
      <!-- 0 -->
      <g transform="translate(70.651477 322.182437)scale(0.1 -0.1)">
       <defs>
        <path d="M 2034 4250 
Q 1547 4250 1301 3770 
Q 1056 3291 1056 2328 
Q 1056 1369 1301 889 
Q 1547 409 2034 409 
Q 2525 409 2770 889 
Q 3016 1369 3016 2328 
Q 3016 3291 2770 3770 
Q 2525 4250 2034 4250 
z
M 2034 4750 
Q 2819 4750 3233 4129 
Q 3647 3509 3647 2328 
Q 3647 1150 3233 529 
Q 2819 -91 2034 -91 
Q 1250 -91 836 529 
Q 422 1150 422 2328 
Q 422 3509 836 4129 
Q 1250 4750 2034 4750 
z
" id="DejaVuSans-30" transform="scale(0.015625)"/>
       </defs>
       <use xlink:href="#DejaVuSans-30"/>
      </g>
     </g>
    </g>
    <g id="xtick_2">
     <g id="line2d_2">
      <g>
       <use style="stroke:#000000;stroke-width:0.8;" x="140.088757" xlink:href="#m7f5f4610c5" y="307.584"/>
      </g>
     </g>
     <g id="text_2">
      <!-- 10 -->
      <g transform="translate(133.726257 322.182437)scale(0.1 -0.1)">
       <defs>
        <path d="M 794 531 
L 1825 531 
L 1825 4091 
L 703 3866 
L 703 4441 
L 1819 4666 
L 2450 4666 
L 2450 531 
L 3481 531 
L 3481 0 
L 794 0 
L 794 531 
z
" id="DejaVuSans-31" transform="scale(0.015625)"/>
       </defs>
       <use xlink:href="#DejaVuSans-31"/>
       <use x="63.623047" xlink:href="#DejaVuSans-30"/>
      </g>
     </g>
    </g>
    <g id="xtick_3">
     <g id="line2d_3">
      <g>
       <use style="stroke:#000000;stroke-width:0.8;" x="206.344787" xlink:href="#m7f5f4610c5" y="307.584"/>
      </g>
     </g>
     <g id="text_3">
      <!-- 20 -->
      <g transform="translate(199.982287 322.182437)scale(0.1 -0.1)">
       <defs>
        <path d="M 1228 531 
L 3431 531 
L 3431 0 
L 469 0 
L 469 531 
Q 828 903 1448 1529 
Q 2069 2156 2228 2338 
Q 2531 2678 2651 2914 
Q 2772 3150 2772 3378 
Q 2772 3750 2511 3984 
Q 2250 4219 1831 4219 
Q 1534 4219 1204 4116 
Q 875 4013 500 3803 
L 500 4441 
Q 881 4594 1212 4672 
Q 1544 4750 1819 4750 
Q 2544 4750 2975 4387 
Q 3406 4025 3406 3419 
Q 3406 3131 3298 2873 
Q 3191 2616 2906 2266 
Q 2828 2175 2409 1742 
Q 1991 1309 1228 531 
z
" id="DejaVuSans-32" transform="scale(0.015625)"/>
       </defs>
       <use xlink:href="#DejaVuSans-32"/>
       <use x="63.623047" xlink:href="#DejaVuSans-30"/>
      </g>
     </g>
    </g>
    <g id="xtick_4">
     <g id="line2d_4">
      <g>
       <use style="stroke:#000000;stroke-width:0.8;" x="272.600816" xlink:href="#m7f5f4610c5" y="307.584"/>
      </g>
     </g>
     <g id="text_4">
      <!-- 30 -->
      <g transform="translate(266.238316 322.182437)scale(0.1 -0.1)">
       <defs>
        <path d="M 2597 2516 
Q 3050 2419 3304 2112 
Q 3559 1806 3559 1356 
Q 3559 666 3084 287 
Q 2609 -91 1734 -91 
Q 1441 -91 1130 -33 
Q 819 25 488 141 
L 488 750 
Q 750 597 1062 519 
Q 1375 441 1716 441 
Q 2309 441 2620 675 
Q 2931 909 2931 1356 
Q 2931 1769 2642 2001 
Q 2353 2234 1838 2234 
L 1294 2234 
L 1294 2753 
L 1863 2753 
Q 2328 2753 2575 2939 
Q 2822 3125 2822 3475 
Q 2822 3834 2567 4026 
Q 2313 4219 1838 4219 
Q 1578 4219 1281 4162 
Q 984 4106 628 3988 
L 628 4550 
Q 988 4650 1302 4700 
Q 1616 4750 1894 4750 
Q 2613 4750 3031 4423 
Q 3450 4097 3450 3541 
Q 3450 3153 3228 2886 
Q 3006 2619 2597 2516 
z
" id="DejaVuSans-33" transform="scale(0.015625)"/>
       </defs>
       <use xlink:href="#DejaVuSans-33"/>
       <use x="63.623047" xlink:href="#DejaVuSans-30"/>
      </g>
     </g>
    </g>
    <g id="xtick_5">
     <g id="line2d_5">
      <g>
       <use style="stroke:#000000;stroke-width:0.8;" x="338.856846" xlink:href="#m7f5f4610c5" y="307.584"/>
      </g>
     </g>
     <g id="text_5">
      <!-- 40 -->
      <g transform="translate(332.494346 322.182437)scale(0.1 -0.1)">
       <defs>
        <path d="M 2419 4116 
L 825 1625 
L 2419 1625 
L 2419 4116 
z
M 2253 4666 
L 3047 4666 
L 3047 1625 
L 3713 1625 
L 3713 1100 
L 3047 1100 
L 3047 0 
L 2419 0 
L 2419 1100 
L 313 1100 
L 313 1709 
L 2253 4666 
z
" id="DejaVuSans-34" transform="scale(0.015625)"/>
       </defs>
       <use xlink:href="#DejaVuSans-34"/>
       <use x="63.623047" xlink:href="#DejaVuSans-30"/>
      </g>
     </g>
    </g>
    <g id="xtick_6">
     <g id="line2d_6">
      <g>
       <use style="stroke:#000000;stroke-width:0.8;" x="405.112876" xlink:href="#m7f5f4610c5" y="307.584"/>
      </g>
     </g>
     <g id="text_6">
      <!-- 50 -->
      <g transform="translate(398.750376 322.182437)scale(0.1 -0.1)">
       <defs>
        <path d="M 691 4666 
L 3169 4666 
L 3169 4134 
L 1269 4134 
L 1269 2991 
Q 1406 3038 1543 3061 
Q 1681 3084 1819 3084 
Q 2600 3084 3056 2656 
Q 3513 2228 3513 1497 
Q 3513 744 3044 326 
Q 2575 -91 1722 -91 
Q 1428 -91 1123 -41 
Q 819 9 494 109 
L 494 744 
Q 775 591 1075 516 
Q 1375 441 1709 441 
Q 2250 441 2565 725 
Q 2881 1009 2881 1497 
Q 2881 1984 2565 2268 
Q 2250 2553 1709 2553 
Q 1456 2553 1204 2497 
Q 953 2441 691 2322 
L 691 4666 
z
" id="DejaVuSans-35" transform="scale(0.015625)"/>
       </defs>
       <use xlink:href="#DejaVuSans-35"/>
       <use x="63.623047" xlink:href="#DejaVuSans-30"/>
      </g>
     </g>
    </g>
    <g id="text_7">
     <!-- Time -->
     <g transform="translate(223.926406 335.860562)scale(0.1 -0.1)">
      <defs>
       <path d="M -19 4666 
L 3928 4666 
L 3928 4134 
L 2272 4134 
L 2272 0 
L 1638 0 
L 1638 4134 
L -19 4134 
L -19 4666 
z
" id="DejaVuSans-54" transform="scale(0.015625)"/>
       <path d="M 603 3500 
L 1178 3500 
L 1178 0 
L 603 0 
L 603 3500 
z
M 603 4863 
L 1178 4863 
L 1178 4134 
L 603 4134 
L 603 4863 
z
" id="DejaVuSans-69" transform="scale(0.015625)"/>
       <path d="M 3328 2828 
Q 3544 3216 3844 3400 
Q 4144 3584 4550 3584 
Q 5097 3584 5394 3201 
Q 5691 2819 5691 2113 
L 5691 0 
L 5113 0 
L 5113 2094 
Q 5113 2597 4934 2840 
Q 4756 3084 4391 3084 
Q 3944 3084 3684 2787 
Q 3425 2491 3425 1978 
L 3425 0 
L 2847 0 
L 2847 2094 
Q 2847 2600 2669 2842 
Q 2491 3084 2119 3084 
Q 1678 3084 1418 2786 
Q 1159 2488 1159 1978 
L 1159 0 
L 581 0 
L 581 3500 
L 1159 3500 
L 1159 2956 
Q 1356 3278 1631 3431 
Q 1906 3584 2284 3584 
Q 2666 3584 2933 3390 
Q 3200 3197 3328 2828 
z
" id="DejaVuSans-6d" transform="scale(0.015625)"/>
       <path d="M 3597 1894 
L 3597 1613 
L 953 1613 
Q 991 1019 1311 708 
Q 1631 397 2203 397 
Q 2534 397 2845 478 
Q 3156 559 3463 722 
L 3463 178 
Q 3153 47 2828 -22 
Q 2503 -91 2169 -91 
Q 1331 -91 842 396 
Q 353 884 353 1716 
Q 353 2575 817 3079 
Q 1281 3584 2069 3584 
Q 2775 3584 3186 3129 
Q 3597 2675 3597 1894 
z
M 3022 2063 
Q 3016 2534 2758 2815 
Q 2500 3097 2075 3097 
Q 1594 3097 1305 2825 
Q 1016 2553 972 2059 
L 3022 2063 
z
" id="DejaVuSans-65" transform="scale(0.015625)"/>
      </defs>
      <use xlink:href="#DejaVuSans-54"/>
      <use x="57.958984" xlink:href="#DejaVuSans-69"/>
      <use x="85.742188" xlink:href="#DejaVuSans-6d"/>
      <use x="183.154297" xlink:href="#DejaVuSans-65"/>
     </g>
    </g>
   </g>
   <g id="matplotlib.axis_2">
    <g id="ytick_1">
     <g id="line2d_7">
      <defs>
       <path d="M 0 0 
L -3.5 0 
" id="me74c71411c" style="stroke:#000000;stroke-width:0.8;"/>
      </defs>
      <g>
       <use style="stroke:#000000;stroke-width:0.8;" x="57.6" xlink:href="#me74c71411c" y="289.899566"/>
      </g>
     </g>
     <g id="text_8">
      <!-- −100000 -->
      <g transform="translate(4.045313 293.698785)scale(0.1 -0.1)">
       <defs>
        <path d="M 678 2272 
L 4684 2272 
L 4684 1741 
L 678 1741 
L 678 2272 
z
" id="DejaVuSans-2212" transform="scale(0.015625)"/>
       </defs>
       <use xlink:href="#DejaVuSans-2212"/>
       <use x="83.789062" xlink:href="#DejaVuSans-31"/>
       <use x="147.412109" xlink:href="#DejaVuSans-30"/>
       <use x="211.035156" xlink:href="#DejaVuSans-30"/>
       <use x="274.658203" xlink:href="#DejaVuSans-30"/>
       <use x="338.28125" xlink:href="#DejaVuSans-30"/>
       <use x="401.904297" xlink:href="#DejaVuSans-30"/>
      </g>
     </g>
    </g>
    <g id="ytick_2">
     <g id="line2d_8">
      <g>
       <use style="stroke:#000000;stroke-width:0.8;" x="57.6" xlink:href="#me74c71411c" y="232.205866"/>
      </g>
     </g>
     <g id="text_9">
      <!-- −50000 -->
      <g transform="translate(10.407812 236.005085)scale(0.1 -0.1)">
       <use xlink:href="#DejaVuSans-2212"/>
       <use x="83.789062" xlink:href="#DejaVuSans-35"/>
       <use x="147.412109" xlink:href="#DejaVuSans-30"/>
       <use x="211.035156" xlink:href="#DejaVuSans-30"/>
       <use x="274.658203" xlink:href="#DejaVuSans-30"/>
       <use x="338.28125" xlink:href="#DejaVuSans-30"/>
      </g>
     </g>
    </g>
    <g id="ytick_3">
     <g id="line2d_9">
      <g>
       <use style="stroke:#000000;stroke-width:0.8;" x="57.6" xlink:href="#me74c71411c" y="174.512165"/>
      </g>
     </g>
     <g id="text_10">
      <!-- 0 -->
      <g transform="translate(44.2375 178.311384)scale(0.1 -0.1)">
       <use xlink:href="#DejaVuSans-30"/>
      </g>
     </g>
    </g>
    <g id="ytick_4">
     <g id="line2d_10">
      <g>
       <use style="stroke:#000000;stroke-width:0.8;" x="57.6" xlink:href="#me74c71411c" y="116.818465"/>
      </g>
     </g>
     <g id="text_11">
      <!-- 50000 -->
      <g transform="translate(18.7875 120.617684)scale(0.1 -0.1)">
       <use xlink:href="#DejaVuSans-35"/>
       <use x="63.623047" xlink:href="#DejaVuSans-30"/>
       <use x="127.246094" xlink:href="#DejaVuSans-30"/>
       <use x="190.869141" xlink:href="#DejaVuSans-30"/>
       <use x="254.492188" xlink:href="#DejaVuSans-30"/>
      </g>
     </g>
    </g>
    <g id="ytick_5">
     <g id="line2d_11">
      <g>
       <use style="stroke:#000000;stroke-width:0.8;" x="57.6" xlink:href="#me74c71411c" y="59.124765"/>
      </g>
     </g>
     <g id="text_12">
      <!-- 100000 -->
      <g transform="translate(12.425 62.923983)scale(0.1 -0.1)">
       <use xlink:href="#DejaVuSans-31"/>
       <use x="63.623047" xlink:href="#DejaVuSans-30"/>
       <use x="127.246094" xlink:href="#DejaVuSans-30"/>
       <use x="190.869141" xlink:href="#DejaVuSans-30"/>
       <use x="254.492188" xlink:href="#DejaVuSans-30"/>
       <use x="318.115234" xlink:href="#DejaVuSans-30"/>
      </g>
     </g>
    </g>
   </g>
   <g id="line2d_12">
    <path clip-path="url(#pca61bca465)" d="M 73.832727 162.973425 
L 80.45833 166.075457 
L 87.083933 175.10671 
L 93.709536 181.469319 
L 100.335139 180.167044 
L 106.960742 173.080865 
L 113.586345 166.887675 
L 120.211948 167.071877 
L 126.837551 173.230959 
L 133.463154 179.782557 
L 140.088757 181.138025 
L 146.71436 176.480942 
L 153.339963 170.225661 
L 159.965566 167.924555 
L 166.591169 171.37437 
L 173.216772 177.259871 
L 179.842375 180.362989 
L 186.467978 178.195603 
L 193.093581 172.942018 
L 199.719184 169.336388 
L 206.344787 170.398807 
L 212.97039 174.934862 
L 219.595993 178.817477 
L 226.221596 178.748076 
L 232.847199 175.005626 
L 239.472801 171.066306 
L 246.098404 170.326525 
L 252.724007 173.235803 
L 259.34961 177.069699 
L 265.975213 178.452066 
L 272.600816 176.340253 
L 279.226419 172.769088 
L 285.852022 170.927167 
L 292.477625 172.29521 
L 299.103228 175.488123 
L 305.728831 177.648141 
L 312.354434 176.98546 
L 318.980037 174.234319 
L 325.60564 171.881293 
L 332.231243 171.951818 
L 338.856846 174.236775 
L 345.482449 176.616528 
L 352.108052 177.036329 
L 358.733655 175.249099 
L 365.359258 172.938495 
L 371.984861 172.117354 
L 378.610464 173.4024 
L 385.236067 175.56608 
L 391.86167 176.691476 
L 398.487273 175.857681 
" style="fill:none;stroke:#1f77b4;stroke-linecap:square;stroke-width:1.5;"/>
   </g>
   <g id="line2d_13">
    <path clip-path="url(#pca61bca465)" d="M 73.832727 162.973425 
L 80.45833 226.438136 
L 87.083933 238.441228 
L 93.709536 194.694861 
L 100.335139 136.543681 
L 106.960742 114.748118 
L 113.586345 146.147911 
L 120.211948 200.406655 
L 126.837551 229.057613 
L 133.463154 209.127767 
L 140.088757 160.481759 
L 146.71436 126.733554 
L 153.339963 136.369266 
L 159.965566 178.60112 
L 166.591169 214.752764 
L 173.216772 213.904668 
L 179.842375 179.247776 
L 186.467978 142.480757 
L 193.093581 135.622762 
L 199.719184 162.759959 
L 206.344787 198.446154 
L 212.97039 211.219365 
L 219.595993 191.714929 
L 226.221596 158.284155 
L 232.847199 141.097959 
L 239.472801 153.664292 
L 246.098404 183.444745 
L 252.724007 203.803293 
L 259.34961 197.53999 
L 265.975213 171.787453 
L 272.600816 149.882388 
L 279.226419 150.711395 
L 285.852022 172.051876 
L 292.477625 194.12663 
L 299.103228 197.96053 
L 305.728831 181.448382 
L 312.354434 159.961392 
L 318.980037 152.159181 
L 325.60564 164.25857 
L 332.231243 184.533345 
L 338.856846 194.805044 
L 345.482449 186.989035 
L 352.108052 168.8165 
L 358.733655 156.755219 
L 365.359258 160.653815 
L 371.984861 176.220263 
L 378.610464 189.40912 
L 385.236067 189.017884 
L 391.86167 176.014005 
L 398.487273 162.510764 
" style="fill:none;stroke:#ff7f0e;stroke-linecap:square;stroke-width:1.5;"/>
   </g>
   <g id="line2d_14">
    <path clip-path="url(#pca61bca465)" d="M 73.832727 162.973425 
L 80.45833 166.967004 
L 87.083933 168.340091 
L 93.709536 175.057143 
L 100.335139 181.227619 
L 106.960742 181.426334 
L 113.586345 175.835857 
L 120.211948 169.562567 
L 126.837551 168.016834 
L 133.463154 172.289192 
L 140.088757 178.269522 
L 146.71436 180.684107 
L 153.339963 177.6681 
L 159.965566 172.129782 
L 166.591169 168.973152 
L 173.216772 170.808527 
L 179.842375 175.782815 
L 186.467978 179.351017 
L 193.093581 178.561985 
L 199.719184 174.331453 
L 206.344787 170.52797 
L 212.97039 170.38668 
L 219.595993 173.859892 
L 226.221596 177.642773 
L 232.847199 178.55542 
L 239.472801 175.882774 
L 246.098404 172.199249 
L 252.724007 170.740075 
L 259.34961 172.592085 
L 265.975213 175.98831 
L 272.600816 177.8695 
L 279.226419 176.736162 
L 285.852022 173.720305 
L 292.477625 171.549864 
L 299.103228 172.070723 
L 305.728831 174.669935 
L 312.354434 176.969323 
L 318.980037 176.997369 
L 325.60564 174.91906 
L 332.231243 172.613376 
L 338.856846 172.080167 
L 345.482449 173.712048 
L 352.108052 175.927428 
L 358.733655 176.810752 
L 365.359258 175.639425 
L 371.984861 173.568677 
L 378.610464 172.434893 
L 385.236067 173.153787 
L 391.86167 174.968975 
L 398.487273 176.279675 
" style="fill:none;stroke:#2ca02c;stroke-linecap:square;stroke-width:1.5;"/>
   </g>
   <g id="line2d_15">
    <path clip-path="url(#pca61bca465)" d="M 73.832727 162.973425 
L 80.45833 287.260156 
L 87.083933 295.488 
L 93.709536 196.043004 
L 100.335139 82.454253 
L 106.960742 53.568 
L 113.586345 130.070206 
L 120.211948 239.8007 
L 126.837551 285.774981 
L 133.463154 232.758832 
L 140.088757 132.084439 
L 146.71436 73.470643 
L 153.339963 105.587913 
L 159.965566 195.552904 
L 166.591169 261.730497 
L 173.216772 248.331046 
L 179.842375 172.195149 
L 186.467978 102.335185 
L 193.093581 99.016174 
L 199.719184 161.03569 
L 206.344787 230.979431 
L 212.97039 247.729709 
L 219.595993 200.586977 
L 226.221596 133.254735 
L 232.847199 106.027282 
L 239.472801 139.282479 
L 246.098404 200.902926 
L 252.724007 236.195454 
L 259.34961 215.902727 
L 265.975213 161.154081 
L 272.600816 121.160664 
L 279.226419 129.962497 
L 285.852022 176.722344 
L 292.477625 218.566039 
L 299.103228 219.930203 
L 305.728831 182.260855 
L 312.354434 140.186762 
L 318.980037 129.941033 
L 325.60564 159.063903 
L 332.231243 199.8454 
L 338.856846 216.024724 
L 345.482449 195.487238 
L 352.108052 157.962688 
L 358.733655 137.173215 
L 365.359258 149.667223 
L 371.984861 182.750573 
L 378.610464 206.818315 
L 385.236067 201.700232 
L 391.86167 173.206185 
L 398.487273 147.615088 
" style="fill:none;stroke:#d62728;stroke-linecap:square;stroke-width:1.5;"/>
   </g>
   <g id="line2d_16">
    <path clip-path="url(#pca61bca465)" d="M 73.832727 173.39975 
L 80.45833 175.525392 
L 87.083933 174.654791 
L 93.709536 175.581045 
L 100.335139 174.121414 
L 106.960742 174.365113 
L 113.586345 174.851288 
L 120.211948 173.820929 
L 126.837551 175.314356 
L 133.463154 175.044123 
L 140.088757 173.493884 
L 146.71436 173.681272 
L 153.339963 175.16927 
L 159.965566 174.766044 
L 166.591169 173.945412 
L 173.216772 175.449186 
L 179.842375 174.842348 
L 186.467978 175.064391 
L 193.093581 174.784543 
L 199.719184 174.733486 
L 206.344787 173.744326 
L 212.97039 175.490013 
L 219.595993 173.721654 
L 226.221596 175.611681 
L 232.847199 174.44008 
L 239.472801 173.774867 
L 246.098404 174.288098 
L 252.724007 173.475453 
L 259.34961 173.771162 
L 265.975213 173.45116 
L 272.600816 174.697215 
L 279.226419 174.712573 
L 285.852022 173.602311 
L 292.477625 173.701415 
L 299.103228 175.046932 
L 305.728831 175.559571 
L 312.354434 174.124631 
L 318.980037 175.034028 
L 325.60564 175.403053 
L 332.231243 174.22632 
L 338.856846 174.674851 
L 345.482449 174.39163 
L 352.108052 175.339332 
L 358.733655 174.497959 
L 365.359258 173.699917 
L 371.984861 173.80816 
L 378.610464 174.517746 
L 385.236067 173.712002 
L 391.86167 173.865192 
L 398.487273 174.370753 
" style="fill:none;stroke:#9467bd;stroke-linecap:square;stroke-width:1.5;"/>
   </g>
   <g id="line2d_17">
    <path clip-path="url(#pca61bca465)" d="M 73.832727 174.869347 
L 80.45833 173.641941 
L 87.083933 174.750264 
L 93.709536 175.219548 
L 100.335139 174.606557 
L 106.960742 174.727324 
L 113.586345 174.81052 
L 120.211948 173.369049 
L 126.837551 174.270272 
L 133.463154 173.631184 
L 140.088757 175.303844 
L 146.71436 173.565231 
L 153.339963 175.096285 
L 159.965566 174.460204 
L 166.591169 175.640335 
L 173.216772 174.576037 
L 179.842375 174.978084 
L 186.467978 174.167682 
L 193.093581 173.944562 
L 199.719184 174.622954 
L 206.344787 173.554096 
L 212.97039 174.9915 
L 219.595993 175.375357 
L 226.221596 175.649131 
L 232.847199 173.661603 
L 239.472801 173.97101 
L 246.098404 174.693538 
L 252.724007 173.404952 
L 259.34961 173.542949 
L 265.975213 174.356027 
L 272.600816 173.478086 
L 279.226419 173.51723 
L 285.852022 174.720054 
L 292.477625 174.42359 
L 299.103228 174.539083 
L 305.728831 174.790173 
L 312.354434 173.44722 
L 318.980037 174.003724 
L 325.60564 173.503043 
L 332.231243 173.698996 
L 338.856846 175.647736 
L 345.482449 173.840488 
L 352.108052 174.183705 
L 358.733655 174.236962 
L 365.359258 175.556387 
L 371.984861 174.500835 
L 378.610464 173.644456 
L 385.236067 173.957707 
L 391.86167 174.80249 
L 398.487273 174.288257 
" style="fill:none;stroke:#8c564b;stroke-linecap:square;stroke-width:1.5;"/>
   </g>
   <g id="patch_3">
    <path d="M 57.6 307.584 
L 57.6 41.472 
" style="fill:none;stroke:#000000;stroke-linecap:square;stroke-linejoin:miter;stroke-width:0.8;"/>
   </g>
   <g id="patch_4">
    <path d="M 414.72 307.584 
L 414.72 41.472 
" style="fill:none;stroke:#000000;stroke-linecap:square;stroke-linejoin:miter;stroke-width:0.8;"/>
   </g>
   <g id="patch_5">
    <path d="M 57.6 307.584 
L 414.72 307.584 
" style="fill:none;stroke:#000000;stroke-linecap:square;stroke-linejoin:miter;stroke-width:0.8;"/>
   </g>
   <g id="patch_6">
    <path d="M 57.6 41.472 
L 414.72 41.472 
" style="fill:none;stroke:#000000;stroke-linecap:square;stroke-linejoin:miter;stroke-width:0.8;"/>
   </g>
   <g id="legend_1">
    <g id="patch_7">
     <path d="M 363.43875 137.54075 
L 407.72 137.54075 
Q 409.72 137.54075 409.72 135.54075 
L 409.72 48.472 
Q 409.72 46.472 407.72 46.472 
L 363.43875 46.472 
Q 361.43875 46.472 361.43875 48.472 
L 361.43875 135.54075 
Q 361.43875 137.54075 363.43875 137.54075 
z
" style="fill:#ffffff;opacity:0.8;stroke:#cccccc;stroke-linejoin:miter;"/>
    </g>
    <g id="line2d_18">
     <path d="M 365.43875 54.570438 
L 385.43875 54.570438 
" style="fill:none;stroke:#1f77b4;stroke-linecap:square;stroke-width:1.5;"/>
    </g>
    <g id="line2d_19"/>
    <g id="text_13">
     <!-- x0 -->
     <g transform="translate(393.43875 58.070438)scale(0.1 -0.1)">
      <defs>
       <path d="M 3513 3500 
L 2247 1797 
L 3578 0 
L 2900 0 
L 1881 1375 
L 863 0 
L 184 0 
L 1544 1831 
L 300 3500 
L 978 3500 
L 1906 2253 
L 2834 3500 
L 3513 3500 
z
" id="DejaVuSans-78" transform="scale(0.015625)"/>
      </defs>
      <use xlink:href="#DejaVuSans-78"/>
      <use x="59.179688" xlink:href="#DejaVuSans-30"/>
     </g>
    </g>
    <g id="line2d_20">
     <path d="M 365.43875 69.248563 
L 385.43875 69.248563 
" style="fill:none;stroke:#ff7f0e;stroke-linecap:square;stroke-width:1.5;"/>
    </g>
    <g id="line2d_21"/>
    <g id="text_14">
     <!-- x1 -->
     <g transform="translate(393.43875 72.748563)scale(0.1 -0.1)">
      <use xlink:href="#DejaVuSans-78"/>
      <use x="59.179688" xlink:href="#DejaVuSans-31"/>
     </g>
    </g>
    <g id="line2d_22">
     <path d="M 365.43875 83.926688 
L 385.43875 83.926688 
" style="fill:none;stroke:#2ca02c;stroke-linecap:square;stroke-width:1.5;"/>
    </g>
    <g id="line2d_23"/>
    <g id="text_15">
     <!-- x2 -->
     <g transform="translate(393.43875 87.426688)scale(0.1 -0.1)">
      <use xlink:href="#DejaVuSans-78"/>
      <use x="59.179688" xlink:href="#DejaVuSans-32"/>
     </g>
    </g>
    <g id="line2d_24">
     <path d="M 365.43875 98.604813 
L 385.43875 98.604813 
" style="fill:none;stroke:#d62728;stroke-linecap:square;stroke-width:1.5;"/>
    </g>
    <g id="line2d_25"/>
    <g id="text_16">
     <!-- x3 -->
     <g transform="translate(393.43875 102.104813)scale(0.1 -0.1)">
      <use xlink:href="#DejaVuSans-78"/>
      <use x="59.179688" xlink:href="#DejaVuSans-33"/>
     </g>
    </g>
    <g id="line2d_26">
     <path d="M 365.43875 113.282938 
L 385.43875 113.282938 
" style="fill:none;stroke:#9467bd;stroke-linecap:square;stroke-width:1.5;"/>
    </g>
    <g id="line2d_27"/>
    <g id="text_17">
     <!-- x4 -->
     <g transform="translate(393.43875 116.782938)scale(0.1 -0.1)">
      <use xlink:href="#DejaVuSans-78"/>
      <use x="59.179688" xlink:href="#DejaVuSans-34"/>
     </g>
    </g>
    <g id="line2d_28">
     <path d="M 365.43875 127.961063 
L 385.43875 127.961063 
" style="fill:none;stroke:#8c564b;stroke-linecap:square;stroke-width:1.5;"/>
    </g>
    <g id="line2d_29"/>
    <g id="text_18">
     <!-- x5 -->
     <g transform="translate(393.43875 131.461063)scale(0.1 -0.1)">
      <use xlink:href="#DejaVuSans-78"/>
      <use x="59.179688" xlink:href="#DejaVuSans-35"/>
     </g>
    </g>
   </g>
  </g>
 </g>
 <defs>
  <clipPath id="pca61bca465">
   <rect height="266.112" width="357.12" x="57.6" y="41.472"/>
  </clipPath>
 </defs>
</svg>
