<?xml version="1.0" encoding="utf-8" standalone="no"?>
<!DOCTYPE svg PUBLIC "-//W3C//DTD SVG 1.1//EN"
  "http://www.w3.org/Graphics/SVG/1.1/DTD/svg11.dtd">
<svg height="345.6pt" version="1.1" viewBox="0 0 460.8 345.6" width="460.8pt" xmlns="http://www.w3.org/2000/svg" xmlns:xlink="http://www.w3.org/1999/xlink">
 <metadata>
  <rdf:RDF xmlns:cc="http://creativecommons.org/ns#" xmlns:dc="http://purl.org/dc/elements/1.1/" xmlns:rdf="http://www.w3.org/1999/02/22-rdf-syntax-ns#">
   <cc:Work>
    <dc:type rdf:resource="http://purl.org/dc/dcmitype/StillImage"/>
    <dc:date>2021-07-30T05:20:10.664953</dc:date>
    <dc:format>image/svg+xml</dc:format>
    <dc:creator>
     <cc:Agent>
      <dc:title>Matplotlib v3.4.2, https://matplotlib.org/</dc:title>
     </cc:Agent>
    </dc:creator>
   </cc:Work>
  </rdf:RDF>
 </metadata>
 <defs>
  <style type="text/css">*{stroke-linecap:butt;stroke-linejoin:round;}</style>
 </defs>
 <g id="figure_1">
  <g id="patch_1">
   <path d="M 0 345.6 
L 460.8 345.6 
L 460.8 0 
L 0 0 
z
" style="fill:#ffffff;"/>
  </g>
  <g id="axes_1">
   <g id="patch_2">
    <path d="M 57.6 307.584 
L 414.72 307.584 
L 414.72 41.472 
L 57.6 41.472 
z
" style="fill:#ffffff;"/>
   </g>
   <g id="matplotlib.axis_1">
    <g id="xtick_1">
     <g id="line2d_1">
      <defs>
       <path d="M 0 0 
L 0 3.5 
" id="m92779e8177" style="stroke:#000000;stroke-width:0.8;"/>
      </defs>
      <g>
       <use style="stroke:#000000;stroke-width:0.8;" x="73.832727" xlink:href="#m92779e8177" y="307.584"/>
      </g>
     </g>
     <g id="text_1">
      <!-- 0 -->
      <g transform="translate(70.651477 322.182437)scale(0.1 -0.1)">
       <defs>
        <path d="M 2034 4250 
Q 1547 4250 1301 3770 
Q 1056 3291 1056 2328 
Q 1056 1369 1301 889 
Q 1547 409 2034 409 
Q 2525 409 2770 889 
Q 3016 1369 3016 2328 
Q 3016 3291 2770 3770 
Q 2525 4250 2034 4250 
z
M 2034 4750 
Q 2819 4750 3233 4129 
Q 3647 3509 3647 2328 
Q 3647 1150 3233 529 
Q 2819 -91 2034 -91 
Q 1250 -91 836 529 
Q 422 1150 422 2328 
Q 422 3509 836 4129 
Q 1250 4750 2034 4750 
z
" id="DejaVuSans-30" transform="scale(0.015625)"/>
       </defs>
       <use xlink:href="#DejaVuSans-30"/>
      </g>
     </g>
    </g>
    <g id="xtick_2">
     <g id="line2d_2">
      <g>
       <use style="stroke:#000000;stroke-width:0.8;" x="138.893758" xlink:href="#m92779e8177" y="307.584"/>
      </g>
     </g>
     <g id="text_2">
      <!-- 100 -->
      <g transform="translate(129.350008 322.182437)scale(0.1 -0.1)">
       <defs>
        <path d="M 794 531 
L 1825 531 
L 1825 4091 
L 703 3866 
L 703 4441 
L 1819 4666 
L 2450 4666 
L 2450 531 
L 3481 531 
L 3481 0 
L 794 0 
L 794 531 
z
" id="DejaVuSans-31" transform="scale(0.015625)"/>
       </defs>
       <use xlink:href="#DejaVuSans-31"/>
       <use x="63.623047" xlink:href="#DejaVuSans-30"/>
       <use x="127.246094" xlink:href="#DejaVuSans-30"/>
      </g>
     </g>
    </g>
    <g id="xtick_3">
     <g id="line2d_3">
      <g>
       <use style="stroke:#000000;stroke-width:0.8;" x="203.95479" xlink:href="#m92779e8177" y="307.584"/>
      </g>
     </g>
     <g id="text_3">
      <!-- 200 -->
      <g transform="translate(194.41104 322.182437)scale(0.1 -0.1)">
       <defs>
        <path d="M 1228 531 
L 3431 531 
L 3431 0 
L 469 0 
L 469 531 
Q 828 903 1448 1529 
Q 2069 2156 2228 2338 
Q 2531 2678 2651 2914 
Q 2772 3150 2772 3378 
Q 2772 3750 2511 3984 
Q 2250 4219 1831 4219 
Q 1534 4219 1204 4116 
Q 875 4013 500 3803 
L 500 4441 
Q 881 4594 1212 4672 
Q 1544 4750 1819 4750 
Q 2544 4750 2975 4387 
Q 3406 4025 3406 3419 
Q 3406 3131 3298 2873 
Q 3191 2616 2906 2266 
Q 2828 2175 2409 1742 
Q 1991 1309 1228 531 
z
" id="DejaVuSans-32" transform="scale(0.015625)"/>
       </defs>
       <use xlink:href="#DejaVuSans-32"/>
       <use x="63.623047" xlink:href="#DejaVuSans-30"/>
       <use x="127.246094" xlink:href="#DejaVuSans-30"/>
      </g>
     </g>
    </g>
    <g id="xtick_4">
     <g id="line2d_4">
      <g>
       <use style="stroke:#000000;stroke-width:0.8;" x="269.015821" xlink:href="#m92779e8177" y="307.584"/>
      </g>
     </g>
     <g id="text_4">
      <!-- 300 -->
      <g transform="translate(259.472071 322.182437)scale(0.1 -0.1)">
       <defs>
        <path d="M 2597 2516 
Q 3050 2419 3304 2112 
Q 3559 1806 3559 1356 
Q 3559 666 3084 287 
Q 2609 -91 1734 -91 
Q 1441 -91 1130 -33 
Q 819 25 488 141 
L 488 750 
Q 750 597 1062 519 
Q 1375 441 1716 441 
Q 2309 441 2620 675 
Q 2931 909 2931 1356 
Q 2931 1769 2642 2001 
Q 2353 2234 1838 2234 
L 1294 2234 
L 1294 2753 
L 1863 2753 
Q 2328 2753 2575 2939 
Q 2822 3125 2822 3475 
Q 2822 3834 2567 4026 
Q 2313 4219 1838 4219 
Q 1578 4219 1281 4162 
Q 984 4106 628 3988 
L 628 4550 
Q 988 4650 1302 4700 
Q 1616 4750 1894 4750 
Q 2613 4750 3031 4423 
Q 3450 4097 3450 3541 
Q 3450 3153 3228 2886 
Q 3006 2619 2597 2516 
z
" id="DejaVuSans-33" transform="scale(0.015625)"/>
       </defs>
       <use xlink:href="#DejaVuSans-33"/>
       <use x="63.623047" xlink:href="#DejaVuSans-30"/>
       <use x="127.246094" xlink:href="#DejaVuSans-30"/>
      </g>
     </g>
    </g>
    <g id="xtick_5">
     <g id="line2d_5">
      <g>
       <use style="stroke:#000000;stroke-width:0.8;" x="334.076852" xlink:href="#m92779e8177" y="307.584"/>
      </g>
     </g>
     <g id="text_5">
      <!-- 400 -->
      <g transform="translate(324.533102 322.182437)scale(0.1 -0.1)">
       <defs>
        <path d="M 2419 4116 
L 825 1625 
L 2419 1625 
L 2419 4116 
z
M 2253 4666 
L 3047 4666 
L 3047 1625 
L 3713 1625 
L 3713 1100 
L 3047 1100 
L 3047 0 
L 2419 0 
L 2419 1100 
L 313 1100 
L 313 1709 
L 2253 4666 
z
" id="DejaVuSans-34" transform="scale(0.015625)"/>
       </defs>
       <use xlink:href="#DejaVuSans-34"/>
       <use x="63.623047" xlink:href="#DejaVuSans-30"/>
       <use x="127.246094" xlink:href="#DejaVuSans-30"/>
      </g>
     </g>
    </g>
    <g id="xtick_6">
     <g id="line2d_6">
      <g>
       <use style="stroke:#000000;stroke-width:0.8;" x="399.137883" xlink:href="#m92779e8177" y="307.584"/>
      </g>
     </g>
     <g id="text_6">
      <!-- 500 -->
      <g transform="translate(389.594133 322.182437)scale(0.1 -0.1)">
       <defs>
        <path d="M 691 4666 
L 3169 4666 
L 3169 4134 
L 1269 4134 
L 1269 2991 
Q 1406 3038 1543 3061 
Q 1681 3084 1819 3084 
Q 2600 3084 3056 2656 
Q 3513 2228 3513 1497 
Q 3513 744 3044 326 
Q 2575 -91 1722 -91 
Q 1428 -91 1123 -41 
Q 819 9 494 109 
L 494 744 
Q 775 591 1075 516 
Q 1375 441 1709 441 
Q 2250 441 2565 725 
Q 2881 1009 2881 1497 
Q 2881 1984 2565 2268 
Q 2250 2553 1709 2553 
Q 1456 2553 1204 2497 
Q 953 2441 691 2322 
L 691 4666 
z
" id="DejaVuSans-35" transform="scale(0.015625)"/>
       </defs>
       <use xlink:href="#DejaVuSans-35"/>
       <use x="63.623047" xlink:href="#DejaVuSans-30"/>
       <use x="127.246094" xlink:href="#DejaVuSans-30"/>
      </g>
     </g>
    </g>
    <g id="text_7">
     <!-- Time -->
     <g transform="translate(223.926406 335.860562)scale(0.1 -0.1)">
      <defs>
       <path d="M -19 4666 
L 3928 4666 
L 3928 4134 
L 2272 4134 
L 2272 0 
L 1638 0 
L 1638 4134 
L -19 4134 
L -19 4666 
z
" id="DejaVuSans-54" transform="scale(0.015625)"/>
       <path d="M 603 3500 
L 1178 3500 
L 1178 0 
L 603 0 
L 603 3500 
z
M 603 4863 
L 1178 4863 
L 1178 4134 
L 603 4134 
L 603 4863 
z
" id="DejaVuSans-69" transform="scale(0.015625)"/>
       <path d="M 3328 2828 
Q 3544 3216 3844 3400 
Q 4144 3584 4550 3584 
Q 5097 3584 5394 3201 
Q 5691 2819 5691 2113 
L 5691 0 
L 5113 0 
L 5113 2094 
Q 5113 2597 4934 2840 
Q 4756 3084 4391 3084 
Q 3944 3084 3684 2787 
Q 3425 2491 3425 1978 
L 3425 0 
L 2847 0 
L 2847 2094 
Q 2847 2600 2669 2842 
Q 2491 3084 2119 3084 
Q 1678 3084 1418 2786 
Q 1159 2488 1159 1978 
L 1159 0 
L 581 0 
L 581 3500 
L 1159 3500 
L 1159 2956 
Q 1356 3278 1631 3431 
Q 1906 3584 2284 3584 
Q 2666 3584 2933 3390 
Q 3200 3197 3328 2828 
z
" id="DejaVuSans-6d" transform="scale(0.015625)"/>
       <path d="M 3597 1894 
L 3597 1613 
L 953 1613 
Q 991 1019 1311 708 
Q 1631 397 2203 397 
Q 2534 397 2845 478 
Q 3156 559 3463 722 
L 3463 178 
Q 3153 47 2828 -22 
Q 2503 -91 2169 -91 
Q 1331 -91 842 396 
Q 353 884 353 1716 
Q 353 2575 817 3079 
Q 1281 3584 2069 3584 
Q 2775 3584 3186 3129 
Q 3597 2675 3597 1894 
z
M 3022 2063 
Q 3016 2534 2758 2815 
Q 2500 3097 2075 3097 
Q 1594 3097 1305 2825 
Q 1016 2553 972 2059 
L 3022 2063 
z
" id="DejaVuSans-65" transform="scale(0.015625)"/>
      </defs>
      <use xlink:href="#DejaVuSans-54"/>
      <use x="57.958984" xlink:href="#DejaVuSans-69"/>
      <use x="85.742188" xlink:href="#DejaVuSans-6d"/>
      <use x="183.154297" xlink:href="#DejaVuSans-65"/>
     </g>
    </g>
   </g>
   <g id="matplotlib.axis_2">
    <g id="ytick_1">
     <g id="line2d_7">
      <defs>
       <path d="M 0 0 
L -3.5 0 
" id="m3bd040200b" style="stroke:#000000;stroke-width:0.8;"/>
      </defs>
      <g>
       <use style="stroke:#000000;stroke-width:0.8;" x="57.6" xlink:href="#m3bd040200b" y="278.086977"/>
      </g>
     </g>
     <g id="text_8">
      <!-- −100000 -->
      <g transform="translate(4.045313 281.886196)scale(0.1 -0.1)">
       <defs>
        <path d="M 678 2272 
L 4684 2272 
L 4684 1741 
L 678 1741 
L 678 2272 
z
" id="DejaVuSans-2212" transform="scale(0.015625)"/>
       </defs>
       <use xlink:href="#DejaVuSans-2212"/>
       <use x="83.789062" xlink:href="#DejaVuSans-31"/>
       <use x="147.412109" xlink:href="#DejaVuSans-30"/>
       <use x="211.035156" xlink:href="#DejaVuSans-30"/>
       <use x="274.658203" xlink:href="#DejaVuSans-30"/>
       <use x="338.28125" xlink:href="#DejaVuSans-30"/>
       <use x="401.904297" xlink:href="#DejaVuSans-30"/>
      </g>
     </g>
    </g>
    <g id="ytick_2">
     <g id="line2d_8">
      <g>
       <use style="stroke:#000000;stroke-width:0.8;" x="57.6" xlink:href="#m3bd040200b" y="227.080133"/>
      </g>
     </g>
     <g id="text_9">
      <!-- −50000 -->
      <g transform="translate(10.407812 230.879351)scale(0.1 -0.1)">
       <use xlink:href="#DejaVuSans-2212"/>
       <use x="83.789062" xlink:href="#DejaVuSans-35"/>
       <use x="147.412109" xlink:href="#DejaVuSans-30"/>
       <use x="211.035156" xlink:href="#DejaVuSans-30"/>
       <use x="274.658203" xlink:href="#DejaVuSans-30"/>
       <use x="338.28125" xlink:href="#DejaVuSans-30"/>
      </g>
     </g>
    </g>
    <g id="ytick_3">
     <g id="line2d_9">
      <g>
       <use style="stroke:#000000;stroke-width:0.8;" x="57.6" xlink:href="#m3bd040200b" y="176.073288"/>
      </g>
     </g>
     <g id="text_10">
      <!-- 0 -->
      <g transform="translate(44.2375 179.872507)scale(0.1 -0.1)">
       <use xlink:href="#DejaVuSans-30"/>
      </g>
     </g>
    </g>
    <g id="ytick_4">
     <g id="line2d_10">
      <g>
       <use style="stroke:#000000;stroke-width:0.8;" x="57.6" xlink:href="#m3bd040200b" y="125.066444"/>
      </g>
     </g>
     <g id="text_11">
      <!-- 50000 -->
      <g transform="translate(18.7875 128.865662)scale(0.1 -0.1)">
       <use xlink:href="#DejaVuSans-35"/>
       <use x="63.623047" xlink:href="#DejaVuSans-30"/>
       <use x="127.246094" xlink:href="#DejaVuSans-30"/>
       <use x="190.869141" xlink:href="#DejaVuSans-30"/>
       <use x="254.492188" xlink:href="#DejaVuSans-30"/>
      </g>
     </g>
    </g>
    <g id="ytick_5">
     <g id="line2d_11">
      <g>
       <use style="stroke:#000000;stroke-width:0.8;" x="57.6" xlink:href="#m3bd040200b" y="74.059599"/>
      </g>
     </g>
     <g id="text_12">
      <!-- 100000 -->
      <g transform="translate(12.425 77.858818)scale(0.1 -0.1)">
       <use xlink:href="#DejaVuSans-31"/>
       <use x="63.623047" xlink:href="#DejaVuSans-30"/>
       <use x="127.246094" xlink:href="#DejaVuSans-30"/>
       <use x="190.869141" xlink:href="#DejaVuSans-30"/>
       <use x="254.492188" xlink:href="#DejaVuSans-30"/>
       <use x="318.115234" xlink:href="#DejaVuSans-30"/>
      </g>
     </g>
    </g>
   </g>
   <g id="line2d_12">
    <path clip-path="url(#p47ff45ebcb)" d="M 73.832727 165.871919 
L 74.483338 168.507444 
L 75.133948 176.110965 
L 75.784558 181.659448 
L 76.435169 180.641527 
L 77.736389 168.765482 
L 78.386999 170.014641 
L 79.03761 176.803375 
L 79.68822 182.227424 
L 80.33883 181.115512 
L 80.989441 177.041973 
L 81.640051 171.945162 
L 82.290661 169.966274 
L 82.941272 174.839005 
L 83.591882 181.418407 
L 84.242492 183.200604 
L 84.893103 178.354903 
L 85.543713 172.285706 
L 86.194323 168.741352 
L 86.844934 170.99498 
L 87.495544 177.469088 
L 88.146154 181.887297 
L 88.796764 180.610001 
L 89.447375 175.844674 
L 90.097985 172.442472 
L 90.748595 171.615387 
L 91.399206 174.640136 
L 92.049816 178.197031 
L 92.700426 180.373739 
L 93.351037 179.380319 
L 94.652257 171.528398 
L 95.302868 172.592624 
L 96.604088 178.054028 
L 97.254698 179.95408 
L 97.905309 177.785893 
L 98.555919 173.680029 
L 99.206529 171.087034 
L 99.85714 173.238093 
L 100.50775 178.265149 
L 101.15836 181.450608 
L 101.808971 180.803674 
L 102.459581 176.712446 
L 103.110191 170.751705 
L 103.760802 169.43933 
L 104.411412 174.892374 
L 105.062022 181.658946 
L 105.712633 184.081849 
L 106.363243 179.824944 
L 107.013853 171.902442 
L 107.664463 168.627381 
L 108.315074 172.474406 
L 108.965684 178.422891 
L 109.616294 182.0678 
L 110.266905 181.042331 
L 111.568125 170.007347 
L 112.218736 169.19466 
L 112.869346 173.52034 
L 113.519956 180.21298 
L 114.170567 183.166312 
L 114.821177 178.781925 
L 115.471787 172.383274 
L 116.122398 168.829041 
L 116.773008 172.857228 
L 117.423618 180.215694 
L 118.074228 182.567358 
L 118.724839 180.488286 
L 119.375449 174.003327 
L 120.026059 169.200432 
L 120.67667 170.904952 
L 121.32728 176.649917 
L 121.97789 181.038815 
L 122.628501 181.845973 
L 123.279111 178.399827 
L 123.929721 172.518053 
L 124.580332 171.101949 
L 126.532163 179.463058 
L 127.182773 179.276106 
L 127.833383 177.29892 
L 128.483993 174.408271 
L 129.134604 172.465059 
L 129.785214 172.720984 
L 130.435824 175.530959 
L 131.086435 179.817091 
L 131.737045 179.465029 
L 132.387655 175.732957 
L 133.038266 173.343287 
L 133.688876 173.090252 
L 134.339486 176.640267 
L 134.990097 179.086268 
L 135.640707 179.054746 
L 136.291317 176.63214 
L 136.941927 173.34565 
L 137.592538 173.515363 
L 138.243148 175.738398 
L 138.893758 178.89306 
L 139.544369 178.724864 
L 140.194979 175.861032 
L 140.845589 172.401567 
L 141.4962 172.279035 
L 142.14681 175.497843 
L 142.79742 180.032604 
L 143.448031 181.351218 
L 144.098641 178.024363 
L 144.749251 172.330068 
L 145.399862 169.44747 
L 146.050472 171.892505 
L 146.701082 178.730431 
L 147.351692 182.578837 
L 148.002303 181.790936 
L 149.303523 171.598887 
L 149.954134 171.282561 
L 150.604744 173.982505 
L 151.905965 180.546578 
L 152.556575 178.973382 
L 153.207185 174.160926 
L 153.857796 171.151051 
L 154.508406 173.067379 
L 155.809627 179.299653 
L 156.460237 179.14616 
L 157.110847 176.370008 
L 157.761457 174.907054 
L 158.412068 175.18416 
L 159.062678 174.950581 
L 159.713288 175.84374 
L 160.363899 177.417984 
L 161.014509 177.689141 
L 161.665119 177.364274 
L 162.31573 174.895977 
L 162.96634 173.268221 
L 163.61695 175.50546 
L 164.267561 178.881371 
L 164.918171 179.106398 
L 165.568781 176.073036 
L 166.219392 174.164808 
L 166.870002 174.722933 
L 167.520612 175.686244 
L 168.171222 175.824297 
L 168.821833 176.818817 
L 169.472443 175.892268 
L 170.123053 176.072458 
L 170.773664 177.106628 
L 171.424274 177.363024 
L 172.074884 175.83733 
L 172.725495 174.610137 
L 173.376105 175.133275 
L 174.026715 175.316267 
L 174.677326 177.104952 
L 175.327936 177.807284 
L 175.978546 177.394424 
L 176.629156 174.449577 
L 177.279767 173.79178 
L 177.930377 175.749467 
L 178.580987 176.769498 
L 179.231598 176.821415 
L 179.882208 177.4928 
L 180.532818 177.333287 
L 181.183429 176.567451 
L 181.834039 175.587622 
L 182.484649 173.554247 
L 183.13526 173.31425 
L 184.43648 179.453398 
L 185.087091 178.332824 
L 185.737701 174.669968 
L 186.388311 172.561776 
L 187.038921 172.950496 
L 188.340142 178.157138 
L 188.990752 180.115837 
L 189.641363 178.75604 
L 190.291973 175.220664 
L 190.942583 173.096474 
L 191.593194 173.459339 
L 192.243804 174.941315 
L 192.894414 176.941715 
L 193.545025 178.280686 
L 194.195635 178.435412 
L 194.846245 176.451341 
L 195.496856 175.114993 
L 196.147466 174.849046 
L 196.798076 175.247273 
L 197.448686 176.609142 
L 198.099297 176.603302 
L 198.749907 175.591552 
L 199.400517 175.59217 
L 200.051128 175.303852 
L 200.701738 176.30046 
L 201.352348 175.981562 
L 202.002959 176.395541 
L 202.653569 177.566625 
L 203.304179 177.215277 
L 203.95479 174.614289 
L 204.6054 173.811428 
L 205.906621 178.912455 
L 206.557231 178.769218 
L 207.858451 172.18149 
L 208.509062 173.569958 
L 209.810282 178.303793 
L 210.460893 179.50337 
L 211.111503 177.338984 
L 211.762113 174.322997 
L 212.412724 172.762783 
L 213.063334 173.862364 
L 213.713944 175.911697 
L 214.364555 178.503551 
L 215.015165 178.555042 
L 216.316385 172.809437 
L 216.966996 172.70525 
L 217.617606 176.524014 
L 218.268216 179.083473 
L 218.918827 179.265283 
L 219.569437 177.318945 
L 220.220047 174.032293 
L 220.870658 172.043732 
L 221.521268 173.759893 
L 222.171878 177.984277 
L 222.822489 180.908312 
L 223.473099 179.789643 
L 224.77432 171.804372 
L 225.42493 171.804387 
L 226.07554 174.725243 
L 226.72615 179.389301 
L 227.376761 180.243471 
L 228.027371 177.811917 
L 228.677981 174.075472 
L 229.328592 172.047086 
L 229.979202 173.279594 
L 230.629812 177.997937 
L 231.280423 180.174895 
L 231.931033 179.230224 
L 232.581643 174.254877 
L 233.232254 171.311195 
L 233.882864 173.681059 
L 234.533474 176.870994 
L 235.184085 179.2394 
L 235.834695 180.409995 
L 236.485305 177.924863 
L 237.135915 173.628568 
L 237.786526 171.771264 
L 238.437136 174.301284 
L 239.087746 177.749517 
L 239.738357 178.636484 
L 240.388967 177.370516 
L 241.039577 175.338138 
L 241.690188 174.213762 
L 242.340798 174.120351 
L 242.991408 174.664174 
L 243.642019 176.357945 
L 244.292629 179.089106 
L 244.943239 179.183924 
L 246.24446 173.07055 
L 246.89507 173.143319 
L 247.54568 174.745832 
L 248.196291 177.563126 
L 248.846901 179.36926 
L 249.497511 177.64992 
L 250.148122 175.293184 
L 250.798732 175.352497 
L 251.449342 176.592423 
L 252.099953 176.1705 
L 252.750563 174.280828 
L 253.401173 173.55465 
L 254.702394 177.654169 
L 255.353004 177.595047 
L 256.003615 177.076575 
L 256.654225 176.875142 
L 257.304835 176.490575 
L 257.955445 175.479826 
L 258.606056 175.876115 
L 259.256666 175.996168 
L 259.907276 175.031761 
L 260.557887 174.570332 
L 261.208497 175.663065 
L 261.859107 177.781521 
L 262.509718 179.381059 
L 263.160328 177.737088 
L 263.810938 174.59467 
L 264.461549 172.284759 
L 265.112159 174.611071 
L 265.762769 178.22501 
L 266.413379 179.94966 
L 267.06399 178.317346 
L 268.36521 173.082558 
L 269.015821 172.239976 
L 269.666431 173.795144 
L 270.317041 178.302533 
L 270.967652 181.44376 
L 271.618262 179.651612 
L 272.919483 171.622987 
L 273.570093 171.446139 
L 274.871314 178.935577 
L 275.521924 180.991152 
L 276.172534 178.763433 
L 276.823144 172.751441 
L 277.473755 170.071756 
L 278.124365 173.025817 
L 278.774975 178.201597 
L 279.425586 181.047917 
L 280.076196 179.192271 
L 280.726806 174.995133 
L 281.377417 172.803492 
L 282.028027 174.062485 
L 282.678637 177.388816 
L 283.329248 179.429145 
L 283.979858 178.267421 
L 284.630468 175.207925 
L 285.281079 173.548689 
L 285.931689 174.711306 
L 286.582299 176.122328 
L 287.232909 176.140997 
L 287.88352 175.461359 
L 288.53413 176.017708 
L 289.18474 176.32778 
L 289.835351 176.792427 
L 290.485961 176.975479 
L 291.136571 175.824556 
L 291.787182 174.005804 
L 292.437792 175.109565 
L 293.739013 178.482346 
L 294.389623 178.199234 
L 295.040233 174.689458 
L 295.690844 172.496037 
L 296.341454 174.21484 
L 296.992064 177.05349 
L 297.642674 178.634473 
L 298.293285 177.871392 
L 299.594505 172.987568 
L 300.245116 174.165727 
L 300.895726 176.32001 
L 302.196947 178.839227 
L 302.847557 178.120147 
L 304.148778 173.243767 
L 304.799388 173.195207 
L 305.449998 176.910951 
L 306.100608 179.929035 
L 306.751219 179.609952 
L 307.401829 177.079063 
L 308.052439 173.424332 
L 308.70305 171.379543 
L 309.35366 174.646207 
L 310.00427 179.389842 
L 310.654881 181.041741 
L 311.305491 177.939453 
L 311.956101 172.555943 
L 312.606712 170.207726 
L 313.257322 172.711018 
L 313.907932 178.226296 
L 314.558543 181.644612 
L 315.209153 179.264037 
L 315.859763 173.468973 
L 316.510373 169.527176 
L 317.160984 171.778088 
L 317.811594 177.311291 
L 318.462204 180.877388 
L 319.112815 179.750302 
L 320.414035 174.151723 
L 321.064646 173.225888 
L 321.715256 174.321834 
L 322.365866 176.370696 
L 323.016477 179.345807 
L 323.667087 180.218802 
L 324.317697 177.636852 
L 324.968308 173.737363 
L 325.618918 171.021338 
L 326.269528 172.028739 
L 327.570749 181.841042 
L 328.221359 181.572863 
L 329.52258 172.313346 
L 330.17319 170.97484 
L 330.8238 174.615739 
L 331.474411 179.706563 
L 332.125021 181.12093 
L 333.426242 171.894033 
L 334.076852 170.533679 
L 334.727462 174.668025 
L 335.378073 179.893124 
L 336.028683 180.961335 
L 336.679293 178.089085 
L 337.329903 173.722683 
L 337.980514 171.773871 
L 339.281734 177.047208 
L 339.932345 178.852315 
L 340.582955 177.858843 
L 341.233565 174.593504 
L 341.884176 173.181404 
L 342.534786 174.496864 
L 343.185396 177.271304 
L 343.836007 178.081441 
L 344.486617 177.764105 
L 345.137227 175.216486 
L 345.787837 173.605787 
L 346.438448 175.115817 
L 348.390279 178.477842 
L 349.040889 177.55385 
L 349.691499 174.661421 
L 350.34211 173.765509 
L 350.99272 173.495473 
L 351.64333 175.420948 
L 352.293941 178.058116 
L 352.944551 179.1299 
L 353.595161 176.850206 
L 354.245772 173.829496 
L 354.896382 174.146234 
L 355.546992 176.686043 
L 356.197602 177.666845 
L 356.848213 176.503187 
L 357.498823 175.93275 
L 358.149433 174.905794 
L 358.800044 175.506362 
L 359.450654 177.43387 
L 360.101264 177.962752 
L 360.751875 176.809927 
L 361.402485 175.345287 
L 362.053095 175.040924 
L 362.703706 175.907545 
L 363.354316 175.971061 
L 364.004926 177.015386 
L 364.655537 176.071116 
L 365.306147 175.403812 
L 366.607367 175.941647 
L 367.257978 175.636976 
L 367.908588 176.568801 
L 368.559198 176.841408 
L 369.209809 176.133824 
L 369.860419 176.453759 
L 370.511029 177.027842 
L 371.16164 176.706017 
L 371.81225 174.512583 
L 372.46286 173.893148 
L 373.113471 175.9729 
L 373.764081 178.509921 
L 374.414691 179.465294 
L 375.065302 177.752133 
L 375.715912 174.060768 
L 376.366522 172.186133 
L 377.017132 173.734217 
L 377.667743 176.437208 
L 378.318353 177.179536 
L 378.968963 176.627361 
L 379.619574 175.233048 
L 380.270184 174.411079 
L 380.920794 174.097503 
L 381.571405 175.778273 
L 382.222015 178.847941 
L 382.872625 179.39938 
L 383.523236 178.302716 
L 384.824456 172.245924 
L 385.475066 172.157059 
L 386.776287 178.987622 
L 387.426897 180.104822 
L 388.077508 178.970229 
L 389.378728 173.17677 
L 390.029339 172.078873 
L 391.330559 177.112819 
L 391.98117 177.748871 
L 392.63178 176.913691 
L 393.933001 174.198806 
L 394.583611 174.910383 
L 395.234221 178.366826 
L 395.884831 180.516862 
L 396.535442 178.810072 
L 397.186052 175.157456 
L 397.836662 173.346982 
L 398.487273 173.934155 
L 398.487273 173.934155 
" style="fill:none;stroke:#1f77b4;stroke-linecap:square;stroke-width:1.5;"/>
   </g>
   <g id="line2d_13">
    <path clip-path="url(#p47ff45ebcb)" d="M 73.832727 165.871919 
L 74.483338 218.647357 
L 75.133948 230.314739 
L 75.784558 194.465613 
L 76.435169 140.612865 
L 77.085779 120.56205 
L 77.736389 156.392882 
L 78.386999 211.750426 
L 79.03761 231.58145 
L 79.68822 188.527771 
L 80.33883 159.648936 
L 80.989441 137.286047 
L 81.640051 138.565568 
L 82.290661 191.775817 
L 82.941272 228.386334 
L 83.591882 215.449639 
L 84.242492 160.107261 
L 84.893103 132.854132 
L 85.543713 131.227429 
L 86.194323 166.539748 
L 86.844934 214.443302 
L 87.495544 223.02877 
L 88.146154 188.915764 
L 88.796764 148.724672 
L 89.447375 146.030072 
L 90.097985 153.585359 
L 90.748595 186.792654 
L 91.399206 201.320475 
L 92.049816 202.424348 
L 92.700426 183.966478 
L 93.351037 156.729084 
L 94.001647 135.897312 
L 94.652257 169.481679 
L 95.302868 188.199075 
L 96.604088 202.133901 
L 97.905309 148.818115 
L 98.555919 143.143864 
L 99.85714 208.896947 
L 100.50775 211.719562 
L 101.15836 188.983628 
L 101.808971 161.854246 
L 102.459581 127.439988 
L 103.110191 140.494448 
L 103.760802 196.188595 
L 104.411412 229.80651 
L 105.062022 218.596346 
L 106.363243 119.678583 
L 107.013853 127.160285 
L 107.664463 181.514835 
L 108.315074 215.631785 
L 108.965684 216.634411 
L 109.616294 191.374875 
L 110.266905 148.313504 
L 110.917515 126.345096 
L 111.568125 146.845465 
L 112.869346 224.09416 
L 113.519956 222.596111 
L 114.170567 165.551071 
L 114.821177 132.227029 
L 115.471787 127.44382 
L 116.773008 232.251644 
L 117.423618 210.950519 
L 118.074228 184.786949 
L 118.724839 137.773622 
L 119.375449 123.840343 
L 120.67667 208.544104 
L 121.32728 216.691541 
L 121.97789 200.444737 
L 122.628501 170.693078 
L 123.279111 130.492154 
L 123.929721 147.255871 
L 124.580332 184.535391 
L 125.230942 195.776104 
L 125.881552 201.293702 
L 127.833383 156.035771 
L 128.483993 154.174959 
L 129.134604 166.315656 
L 129.785214 184.074411 
L 130.435824 214.085611 
L 131.086435 191.098861 
L 131.737045 154.069225 
L 132.387655 154.77694 
L 133.038266 159.117933 
L 133.688876 196.129613 
L 134.339486 200.209158 
L 134.990097 186.877466 
L 135.640707 168.665604 
L 136.291317 146.341185 
L 136.941927 167.016629 
L 137.592538 182.931355 
L 138.243148 204.333157 
L 138.893758 186.848181 
L 140.194979 144.663679 
L 140.845589 160.568984 
L 142.14681 212.804659 
L 142.79742 203.253438 
L 144.098641 134.651266 
L 144.749251 137.703996 
L 145.399862 168.301277 
L 146.050472 221.468005 
L 146.701082 219.14832 
L 147.351692 193.263787 
L 148.002303 154.026321 
L 148.652913 129.8602 
L 149.954134 184.496831 
L 151.255354 210.104343 
L 151.905965 182.511573 
L 152.556575 146.368497 
L 153.207185 139.077589 
L 153.857796 175.619099 
L 154.508406 194.065826 
L 155.159016 203.688914 
L 155.809627 188.928366 
L 156.460237 160.924836 
L 157.110847 160.473395 
L 157.761457 176.413103 
L 158.412068 171.174651 
L 159.062678 177.798278 
L 159.713288 189.982035 
L 160.363899 181.18181 
L 161.014509 181.481838 
L 161.665119 161.49482 
L 162.31573 154.062624 
L 162.96634 181.554807 
L 163.61695 204.127849 
L 164.267561 192.116696 
L 164.918171 159.89916 
L 165.568781 156.283468 
L 166.219392 173.366492 
L 166.870002 183.350471 
L 167.520612 173.622793 
L 168.171222 187.489238 
L 168.821833 169.820292 
L 169.472443 174.533452 
L 170.123053 183.790885 
L 170.773664 183.889644 
L 171.424274 168.7517 
L 172.074884 161.821617 
L 172.725495 178.338147 
L 173.376105 171.677967 
L 174.026715 189.554381 
L 174.677326 184.207843 
L 175.327936 183.307491 
L 175.978546 154.748142 
L 176.629156 160.82916 
L 177.279767 186.169084 
L 177.930377 186.320438 
L 178.580987 176.687602 
L 179.231598 183.538033 
L 179.882208 179.281845 
L 180.532818 172.47912 
L 181.183429 172.452567 
L 181.834039 158.874672 
L 182.484649 161.434436 
L 183.13526 192.495765 
L 183.78587 205.389514 
L 184.43648 182.439441 
L 185.087091 152.162559 
L 185.737701 152.802773 
L 186.388311 166.367314 
L 187.038921 188.173642 
L 188.340142 200.705927 
L 188.990752 180.360661 
L 189.641363 154.066875 
L 190.291973 152.818499 
L 190.942583 169.780371 
L 192.243804 190.014158 
L 192.894414 189.275891 
L 193.545025 186.895672 
L 194.195635 165.931294 
L 194.846245 164.140723 
L 195.496856 170.95273 
L 196.147466 173.638915 
L 196.798076 186.282287 
L 197.448686 180.89884 
L 198.099297 167.3653 
L 198.749907 176.493314 
L 199.400517 169.349042 
L 200.051128 184.618923 
L 200.701738 173.917658 
L 201.352348 176.543847 
L 202.002959 186.55904 
L 202.653569 182.396456 
L 203.304179 158.229762 
L 203.95479 159.447762 
L 204.6054 187.960051 
L 205.25601 199.400998 
L 205.906621 188.210717 
L 206.557231 159.468576 
L 207.207841 141.881533 
L 207.858451 173.837639 
L 208.509062 190.906889 
L 209.159672 192.847642 
L 209.810282 196.435588 
L 210.460893 170.315681 
L 211.111503 154.738521 
L 211.762113 154.829865 
L 212.412724 175.338363 
L 213.063334 184.606861 
L 213.713944 198.672428 
L 214.364555 188.649204 
L 215.015165 161.330767 
L 215.665775 150.915421 
L 216.316385 158.695505 
L 216.966996 197.770977 
L 217.617606 200.867417 
L 218.268216 188.117518 
L 219.569437 153.484928 
L 220.220047 150.306334 
L 220.870658 173.734569 
L 221.521268 202.823063 
L 222.171878 209.05096 
L 222.822489 185.501547 
L 223.473099 153.459143 
L 224.123709 140.072617 
L 225.42493 182.661978 
L 226.07554 214.171714 
L 226.72615 196.883486 
L 228.027371 149.513405 
L 228.677981 151.783645 
L 229.328592 167.042828 
L 229.979202 208.694838 
L 230.629812 201.355068 
L 231.280423 187.552885 
L 231.931033 145.801427 
L 232.581643 138.624659 
L 233.232254 179.638575 
L 233.882864 196.688339 
L 234.533474 196.573216 
L 235.184085 197.90793 
L 236.485305 145.521129 
L 237.135915 147.630193 
L 237.786526 181.177778 
L 238.437136 202.47086 
L 239.087746 191.482252 
L 239.738357 174.793561 
L 240.388967 162.26067 
L 241.039577 163.713864 
L 241.690188 170.353004 
L 242.340798 174.879321 
L 242.991408 182.188398 
L 243.642019 200.516421 
L 244.292629 189.44702 
L 244.943239 164.396231 
L 245.59385 146.112768 
L 246.24446 166.646644 
L 246.89507 179.11134 
L 247.54568 194.284039 
L 248.196291 199.862844 
L 248.846901 173.992912 
L 249.497511 157.462323 
L 250.148122 170.159954 
L 250.798732 185.658529 
L 251.449342 178.238181 
L 252.099953 162.140486 
L 252.750563 161.664939 
L 253.401173 182.44237 
L 254.051784 195.687503 
L 254.702394 181.102288 
L 255.353004 174.753214 
L 256.654225 176.901363 
L 257.304835 166.493582 
L 257.955445 176.954823 
L 258.606056 179.114665 
L 259.256666 169.147236 
L 259.907276 167.776579 
L 261.208497 189.827072 
L 261.859107 197.612426 
L 262.509718 174.528162 
L 263.160328 157.410783 
L 263.810938 146.458699 
L 264.461549 180.422456 
L 265.112159 201.74774 
L 265.762769 200.606076 
L 266.413379 175.551797 
L 267.06399 159.506175 
L 267.7146 154.083007 
L 268.36521 160.113456 
L 269.015821 172.962393 
L 269.666431 204.332526 
L 270.317041 213.537461 
L 271.618262 151.353105 
L 272.268872 141.52915 
L 272.919483 156.324127 
L 273.570093 192.151492 
L 274.220703 204.816064 
L 274.871314 204.294435 
L 275.521924 180.330311 
L 276.172534 134.07002 
L 276.823144 137.441858 
L 277.473755 178.271297 
L 278.124365 210.502736 
L 278.774975 211.266975 
L 280.076196 149.174137 
L 280.726806 150.331548 
L 282.028027 197.130911 
L 282.678637 200.124774 
L 283.979858 157.001261 
L 284.630468 155.384386 
L 285.281079 177.147977 
L 285.931689 186.236118 
L 286.582299 179.697723 
L 287.232909 168.799892 
L 287.88352 179.150084 
L 288.53413 178.049421 
L 289.18474 179.992358 
L 289.835351 180.756155 
L 290.485961 173.141924 
L 291.136571 156.48036 
L 291.787182 177.476039 
L 292.437792 187.143109 
L 293.088402 191.426055 
L 293.739013 186.6026 
L 294.389623 154.99875 
L 295.040233 148.758539 
L 295.690844 177.226608 
L 296.341454 194.647794 
L 296.992064 194.932994 
L 297.642674 178.927735 
L 298.293285 165.940324 
L 298.943895 148.532274 
L 299.594505 174.359746 
L 300.245116 190.00792 
L 300.895726 186.762352 
L 301.546336 190.832934 
L 302.196947 180.73467 
L 302.847557 161.601778 
L 303.498167 155.244392 
L 304.148778 161.08922 
L 304.799388 196.144588 
L 305.449998 206.618433 
L 306.751219 167.363494 
L 307.401829 150.657758 
L 308.052439 144.699089 
L 308.70305 184.418345 
L 309.35366 212.241929 
L 310.00427 204.814595 
L 311.305491 136.417577 
L 311.956101 141.821404 
L 313.257322 211.000579 
L 313.907932 217.277389 
L 315.209153 139.940251 
L 315.859763 129.490885 
L 317.160984 209.227432 
L 317.811594 215.656962 
L 318.462204 182.61638 
L 319.112815 164.058537 
L 319.763425 153.402795 
L 320.414035 160.261354 
L 321.064646 176.64192 
L 321.715256 184.955388 
L 322.365866 201.048362 
L 323.016477 196.335727 
L 323.667087 169.29924 
L 324.317697 149.599306 
L 324.968308 144.731393 
L 325.618918 165.163865 
L 326.269528 198.877966 
L 326.920138 223.896287 
L 327.570749 197.287091 
L 328.221359 153.827299 
L 328.871969 139.358461 
L 329.52258 147.605787 
L 330.17319 186.665063 
L 330.8238 214.872612 
L 331.474411 208.061112 
L 332.125021 156.415629 
L 332.775631 138.051282 
L 333.426242 145.598208 
L 334.076852 189.252135 
L 334.727462 218.863771 
L 335.378073 200.98702 
L 336.028683 169.868781 
L 336.679293 145.483446 
L 337.329903 146.108724 
L 337.980514 183.540361 
L 338.631124 194.107586 
L 339.281734 196.460031 
L 339.932345 181.204202 
L 340.582955 153.587948 
L 341.233565 157.150586 
L 341.884176 174.535877 
L 342.534786 197.143129 
L 343.185396 186.495791 
L 343.836007 182.958548 
L 344.486617 161.472206 
L 345.137227 154.830343 
L 345.787837 181.81078 
L 346.438448 183.050434 
L 347.089058 183.539548 
L 347.739668 189.97389 
L 348.390279 180.315619 
L 349.040889 153.839839 
L 349.691499 165.544848 
L 350.34211 165.210579 
L 350.99272 182.670004 
L 351.64333 195.788718 
L 352.293941 194.963994 
L 352.944551 169.896994 
L 353.595161 149.703597 
L 354.245772 166.936599 
L 354.896382 191.887947 
L 355.546992 190.695685 
L 356.197602 169.796297 
L 356.848213 174.07621 
L 357.498823 165.8296 
L 358.149433 173.990256 
L 358.800044 190.677736 
L 359.450654 186.591339 
L 360.101264 173.010922 
L 360.751875 165.142584 
L 361.402485 168.243382 
L 362.053095 182.776726 
L 362.703706 173.192371 
L 363.354316 187.582714 
L 364.004926 171.846784 
L 364.655537 168.990211 
L 365.306147 176.195926 
L 365.956757 179.147763 
L 366.607367 171.028847 
L 367.257978 182.184136 
L 367.908588 182.120424 
L 368.559198 170.743221 
L 369.209809 177.290841 
L 369.860419 181.299893 
L 370.511029 180.473395 
L 371.16164 160.108704 
L 371.81225 162.392985 
L 372.46286 184.441521 
L 373.113471 196.72045 
L 373.764081 192.883247 
L 374.414691 175.856353 
L 375.065302 150.530339 
L 375.715912 150.90784 
L 377.017132 195.053521 
L 378.968963 166.001798 
L 379.619574 167.872633 
L 380.270184 167.481205 
L 380.920794 179.488054 
L 381.571405 202.565858 
L 382.222015 188.957458 
L 382.872625 179.101473 
L 383.523236 158.330365 
L 384.173846 148.412555 
L 384.824456 159.473488 
L 385.475066 191.405997 
L 386.125677 204.681384 
L 386.776287 195.051274 
L 387.426897 179.839914 
L 388.077508 161.264381 
L 388.728118 152.332197 
L 389.378728 154.123457 
L 390.029339 183.597436 
L 390.679949 196.069784 
L 391.330559 187.08783 
L 391.98117 174.682429 
L 392.63178 168.903067 
L 393.28239 162.129902 
L 393.933001 170.572596 
L 394.583611 198.93449 
L 395.234221 203.869794 
L 396.535442 152.426387 
L 397.186052 154.126492 
L 397.836662 174.586903 
L 398.487273 174.387719 
L 398.487273 174.387719 
" style="fill:none;stroke:#ff7f0e;stroke-linecap:square;stroke-width:1.5;"/>
   </g>
   <g id="line2d_14">
    <path clip-path="url(#p47ff45ebcb)" d="M 73.832727 165.871919 
L 74.483338 168.797167 
L 75.133948 169.972311 
L 75.784558 175.516264 
L 76.435169 179.933284 
L 77.085779 179.836002 
L 78.386999 171.178249 
L 79.03761 170.765168 
L 79.68822 173.428426 
L 80.33883 182.143741 
L 80.989441 181.698076 
L 81.640051 176.595566 
L 82.941272 172.942427 
L 83.591882 176.078592 
L 84.893103 184.889585 
L 85.543713 179.866693 
L 86.194323 173.621439 
L 86.844934 170.324929 
L 87.495544 170.506287 
L 88.796764 180.109197 
L 89.447375 182.349999 
L 90.097985 176.503725 
L 91.399206 171.009979 
L 92.049816 174.254891 
L 92.700426 178.328264 
L 93.351037 180.577801 
L 94.001647 178.331723 
L 94.652257 177.98515 
L 95.302868 171.554923 
L 95.953478 170.823167 
L 96.604088 175.416396 
L 97.254698 176.505704 
L 97.905309 178.27228 
L 99.85714 171.387213 
L 100.50775 172.239028 
L 101.808971 182.195714 
L 103.110191 176.058301 
L 103.760802 172.741313 
L 104.411412 170.658648 
L 105.062022 175.1439 
L 105.712633 181.819705 
L 106.363243 183.248968 
L 107.013853 181.882281 
L 108.315074 170.373557 
L 108.965684 172.446028 
L 109.616294 179.006314 
L 110.266905 182.361196 
L 110.917515 181.503956 
L 111.568125 176.644195 
L 112.218736 170.22519 
L 112.869346 169.435965 
L 114.170567 176.655668 
L 114.821177 181.719811 
L 116.122398 173.829749 
L 116.773008 171.594293 
L 117.423618 170.159837 
L 118.074228 179.825842 
L 118.724839 181.308052 
L 119.375449 179.693128 
L 120.026059 175.534921 
L 120.67667 170.266426 
L 121.32728 169.129368 
L 122.628501 181.19039 
L 123.279111 180.441408 
L 123.929721 180.435108 
L 125.230942 170.16597 
L 126.532163 176.227553 
L 127.182773 180.257269 
L 127.833383 180.366845 
L 128.483993 178.018514 
L 129.134604 174.313509 
L 129.785214 171.374584 
L 130.435824 174.279922 
L 131.086435 173.855274 
L 132.387655 179.882821 
L 133.038266 175.130759 
L 133.688876 175.488426 
L 134.339486 173.036047 
L 135.640707 179.203807 
L 136.291317 177.943525 
L 136.941927 178.638699 
L 137.592538 174.249766 
L 138.243148 175.630091 
L 138.893758 175.366318 
L 139.544369 178.32244 
L 140.194979 177.303087 
L 140.845589 175.973025 
L 141.4962 172.503094 
L 142.14681 173.374261 
L 142.79742 175.768348 
L 143.448031 179.828111 
L 144.098641 180.312786 
L 144.749251 177.883074 
L 145.399862 171.767749 
L 146.701082 170.353534 
L 147.351692 177.941221 
L 148.002303 182.811878 
L 148.652913 182.492688 
L 149.303523 180.345953 
L 149.954134 173.513518 
L 150.604744 170.310059 
L 151.255354 174.972314 
L 152.556575 178.753585 
L 153.207185 178.10396 
L 153.857796 176.159104 
L 154.508406 170.439921 
L 155.159016 171.894514 
L 157.110847 179.733592 
L 157.761457 178.894824 
L 158.412068 174.250665 
L 159.062678 174.68315 
L 159.713288 175.795631 
L 160.363899 175.303501 
L 161.014509 178.792374 
L 161.665119 177.127514 
L 162.31573 176.296051 
L 162.96634 176.818197 
L 163.61695 175.983449 
L 164.267561 176.122817 
L 164.918171 177.594243 
L 165.568781 180.312775 
L 166.219392 179.227403 
L 167.520612 173.613256 
L 168.171222 177.310769 
L 168.821833 174.452037 
L 169.472443 177.339623 
L 170.123053 177.860006 
L 170.773664 177.940366 
L 171.424274 177.394707 
L 172.074884 177.641834 
L 172.725495 178.369481 
L 173.376105 173.992815 
L 174.026715 176.944242 
L 174.677326 175.838966 
L 175.327936 179.044455 
L 175.978546 176.561108 
L 176.629156 178.199341 
L 177.279767 177.354554 
L 177.930377 174.072055 
L 178.580987 174.625779 
L 179.231598 178.325216 
L 179.882208 178.528176 
L 181.183429 180.078858 
L 181.834039 176.796825 
L 182.484649 175.256673 
L 183.13526 175.934119 
L 183.78587 175.497734 
L 184.43648 176.319437 
L 185.087091 178.134149 
L 185.737701 179.0677 
L 186.388311 175.09515 
L 187.038921 172.570118 
L 187.689532 171.499077 
L 188.340142 175.918975 
L 188.990752 178.24837 
L 189.641363 179.898642 
L 190.291973 180.144839 
L 190.942583 177.204002 
L 191.593194 172.963966 
L 192.243804 172.729488 
L 192.894414 173.998582 
L 193.545025 177.510955 
L 194.195635 177.7885 
L 194.846245 179.733112 
L 195.496856 178.438142 
L 196.147466 175.778468 
L 196.798076 176.380484 
L 197.448686 175.287309 
L 198.099297 175.262046 
L 198.749907 177.663877 
L 199.400517 174.656038 
L 200.051128 176.826711 
L 200.701738 173.919534 
L 201.352348 175.905248 
L 202.002959 177.476155 
L 202.653569 177.51099 
L 203.304179 175.925052 
L 203.95479 176.712307 
L 204.6054 177.081684 
L 205.25601 175.76078 
L 205.906621 177.313145 
L 206.557231 178.349136 
L 207.207841 177.551503 
L 207.858451 177.942807 
L 208.509062 172.902879 
L 209.159672 172.559891 
L 209.810282 177.239162 
L 210.460893 177.937808 
L 211.111503 179.875697 
L 211.762113 178.019686 
L 212.412724 175.619886 
L 213.063334 171.872341 
L 213.713944 173.961899 
L 215.015165 176.347492 
L 215.665775 177.012498 
L 216.316385 174.033098 
L 216.966996 174.020163 
L 217.617606 171.281037 
L 218.918827 178.486778 
L 219.569437 178.47266 
L 220.870658 173.610361 
L 221.521268 172.291046 
L 222.171878 173.678239 
L 222.822489 177.226472 
L 223.473099 180.153735 
L 224.123709 179.579862 
L 224.77432 176.676932 
L 225.42493 171.015712 
L 226.07554 172.632202 
L 226.72615 172.690752 
L 227.376761 177.832366 
L 228.027371 179.400375 
L 228.677981 177.893535 
L 229.328592 173.248852 
L 229.979202 173.99476 
L 230.629812 171.864277 
L 231.280423 177.753093 
L 231.931033 177.468099 
L 232.581643 177.708137 
L 233.232254 176.539623 
L 233.882864 170.752813 
L 234.533474 171.518259 
L 235.184085 177.45491 
L 235.834695 179.361903 
L 236.485305 179.952257 
L 237.135915 178.368644 
L 237.786526 175.90746 
L 238.437136 172.877085 
L 239.087746 172.653037 
L 239.738357 176.370183 
L 240.388967 178.191784 
L 241.039577 177.909441 
L 242.340798 172.667329 
L 242.991408 172.130503 
L 243.642019 175.238629 
L 244.292629 176.070754 
L 244.943239 178.02215 
L 246.24446 177.523541 
L 246.89507 172.304622 
L 247.54568 172.161626 
L 248.196291 174.494454 
L 248.846901 175.361063 
L 249.497511 178.056816 
L 250.148122 179.554065 
L 250.798732 178.032172 
L 251.449342 175.542039 
L 252.099953 174.634509 
L 253.401173 174.084526 
L 254.051784 173.238821 
L 254.702394 172.723786 
L 255.353004 176.297653 
L 256.003615 178.126125 
L 256.654225 178.349045 
L 257.304835 176.550897 
L 257.955445 178.05415 
L 259.256666 174.768903 
L 260.557887 174.62286 
L 261.208497 174.725427 
L 261.859107 177.305745 
L 262.509718 177.638836 
L 263.160328 179.69304 
L 263.810938 176.950347 
L 264.461549 177.146764 
L 265.112159 174.186126 
L 265.762769 175.595159 
L 266.413379 178.282154 
L 267.06399 181.575013 
L 267.7146 180.367209 
L 269.015821 172.51476 
L 269.666431 173.602145 
L 270.317041 175.698944 
L 270.967652 178.256199 
L 271.618262 182.379703 
L 272.268872 181.455597 
L 272.919483 176.885917 
L 273.570093 173.765498 
L 274.220703 171.484414 
L 275.521924 180.048602 
L 276.172534 179.179182 
L 276.823144 179.077661 
L 278.124365 171.160673 
L 278.774975 172.542193 
L 280.076196 179.98489 
L 280.726806 180.627834 
L 281.377417 177.44532 
L 282.028027 175.278858 
L 282.678637 175.485895 
L 283.979858 179.796822 
L 284.630468 179.999645 
L 285.281079 178.6934 
L 285.931689 175.335026 
L 286.582299 174.304474 
L 287.232909 174.641746 
L 287.88352 177.047245 
L 288.53413 175.560833 
L 289.835351 177.407456 
L 290.485961 177.294285 
L 291.136571 175.275105 
L 291.787182 177.29899 
L 292.437792 174.731504 
L 293.088402 175.916838 
L 293.739013 178.428535 
L 294.389623 177.151717 
L 295.040233 177.528813 
L 295.690844 176.653099 
L 296.341454 173.257401 
L 296.992064 173.7981 
L 298.293285 178.584101 
L 298.943895 176.101444 
L 299.594505 176.959577 
L 300.245116 173.315435 
L 300.895726 172.334039 
L 301.546336 176.577245 
L 302.196947 178.453965 
L 302.847557 179.01862 
L 303.498167 178.561095 
L 304.148778 175.348324 
L 304.799388 175.703273 
L 305.449998 174.864397 
L 306.100608 177.105568 
L 306.751219 181.58268 
L 307.401829 181.459687 
L 308.052439 177.402331 
L 308.70305 176.773196 
L 309.35366 174.579255 
L 310.00427 176.298308 
L 310.654881 180.085325 
L 311.305491 181.005879 
L 311.956101 179.389416 
L 312.606712 174.306788 
L 313.257322 171.994716 
L 313.907932 173.64011 
L 315.209153 180.02953 
L 315.859763 178.013666 
L 316.510373 174.644881 
L 317.160984 169.991952 
L 317.811594 170.204705 
L 318.462204 173.539658 
L 319.112815 180.22977 
L 319.763425 180.401785 
L 320.414035 178.081301 
L 321.064646 174.806198 
L 321.715256 172.111442 
L 323.016477 177.657501 
L 323.667087 179.906077 
L 324.317697 181.286618 
L 324.968308 178.046091 
L 325.618918 173.808457 
L 326.269528 171.379103 
L 327.570749 176.507736 
L 328.221359 181.220254 
L 328.871969 183.505409 
L 329.52258 178.744018 
L 330.17319 175.397003 
L 330.8238 173.66881 
L 331.474411 176.166631 
L 332.125021 177.581985 
L 332.775631 181.252076 
L 333.426242 177.006584 
L 334.076852 174.119707 
L 334.727462 172.314035 
L 335.378073 173.555207 
L 336.028683 179.151791 
L 336.679293 181.206031 
L 337.980514 177.147995 
L 338.631124 172.001359 
L 339.281734 174.111855 
L 339.932345 176.626831 
L 340.582955 176.997353 
L 341.233565 178.032304 
L 341.884176 175.268868 
L 342.534786 174.434762 
L 343.185396 172.822888 
L 343.836007 177.305552 
L 344.486617 176.776311 
L 345.137227 176.591307 
L 345.787837 177.160907 
L 346.438448 172.67969 
L 347.089058 173.744019 
L 347.739668 176.937308 
L 348.390279 177.974971 
L 349.040889 176.858349 
L 349.691499 178.982915 
L 350.34211 173.564545 
L 350.99272 173.019077 
L 351.64333 172.907575 
L 352.293941 175.022397 
L 352.944551 176.184977 
L 354.245772 177.691657 
L 355.546992 173.765047 
L 356.197602 174.000162 
L 356.848213 177.969711 
L 357.498823 175.479393 
L 358.149433 175.76116 
L 358.800044 176.30803 
L 359.450654 175.751677 
L 360.751875 178.267568 
L 362.053095 177.597028 
L 362.703706 174.258568 
L 363.354316 177.842663 
L 364.004926 175.248512 
L 364.655537 176.926406 
L 365.306147 177.162484 
L 365.956757 176.072517 
L 366.607367 174.599282 
L 367.257978 176.90272 
L 367.908588 176.247313 
L 368.559198 175.800215 
L 369.209809 178.139049 
L 369.860419 178.003666 
L 370.511029 178.390724 
L 371.16164 176.212041 
L 371.81225 176.721571 
L 372.46286 176.424484 
L 373.113471 175.688648 
L 373.764081 177.689674 
L 374.414691 180.468471 
L 375.065302 180.32151 
L 375.715912 179.379015 
L 377.017132 173.78858 
L 377.667743 172.098538 
L 378.318353 175.053907 
L 378.968963 175.697653 
L 379.619574 175.967493 
L 380.270184 173.213441 
L 380.920794 172.673462 
L 381.571405 174.806799 
L 382.222015 174.489847 
L 382.872625 179.478134 
L 383.523236 179.669184 
L 384.173846 178.034407 
L 384.824456 174.555858 
L 385.475066 172.599339 
L 386.125677 171.31274 
L 386.776287 174.060912 
L 387.426897 179.180701 
L 388.077508 181.260534 
L 388.728118 180.39284 
L 389.378728 176.258744 
L 390.029339 174.527029 
L 390.679949 171.567707 
L 391.330559 171.992187 
L 391.98117 174.85982 
L 392.63178 176.722544 
L 393.28239 175.169435 
L 393.933001 174.24684 
L 394.583611 175.716806 
L 395.234221 176.440687 
L 396.535442 180.866726 
L 397.186052 181.250623 
L 397.836662 178.646637 
L 398.487273 173.036756 
L 398.487273 173.036756 
" style="fill:none;stroke:#2ca02c;stroke-linecap:square;stroke-width:1.5;"/>
   </g>
   <g id="line2d_15">
    <path clip-path="url(#p47ff45ebcb)" d="M 73.832727 165.871919 
L 74.483338 269.667265 
L 75.133948 280.023368 
L 75.784558 198.129146 
L 76.435169 93.237896 
L 77.085779 67.115386 
L 77.736389 150.597351 
L 78.386999 259.474959 
L 79.03761 285.788674 
L 79.68822 189.675966 
L 80.33883 132.086072 
L 80.989441 94.993322 
L 81.640051 109.175451 
L 82.290661 219.21242 
L 82.941272 282.211885 
L 83.591882 242.273045 
L 84.242492 127.631881 
L 84.893103 81.439977 
L 85.543713 91.282158 
L 86.844934 263.026749 
L 87.495544 267.865325 
L 88.796764 112.225398 
L 89.447375 114.880813 
L 90.097985 137.789963 
L 90.748595 206.375849 
L 91.399206 230.509496 
L 92.049816 225.141785 
L 92.700426 182.674827 
L 93.351037 129.365804 
L 94.001647 96.570679 
L 94.652257 170.835965 
L 95.302868 207.794705 
L 95.953478 218.380656 
L 96.604088 224.83683 
L 97.254698 164.122822 
L 97.905309 118.674229 
L 98.555919 116.548843 
L 99.85714 249.544916 
L 100.50775 244.940245 
L 102.459581 77.114471 
L 103.110191 116.286601 
L 103.760802 230.433034 
L 104.411412 286.791733 
L 105.062022 249.677222 
L 106.363243 53.568 
L 107.013853 84.172743 
L 107.664463 199.507328 
L 108.315074 261.501326 
L 108.965684 251.929155 
L 109.616294 192.728766 
L 110.266905 107.850903 
L 110.917515 75.312763 
L 111.568125 128.530447 
L 112.218736 211.965937 
L 112.869346 278.643786 
L 113.519956 261.482019 
L 114.170567 141.765663 
L 114.821177 82.950209 
L 115.471787 87.26306 
L 116.773008 295.488 
L 118.074228 180.184606 
L 118.724839 89.890032 
L 119.375449 75.515163 
L 120.67667 252.525313 
L 121.32728 258.40874 
L 121.97789 216.151714 
L 123.279111 79.741535 
L 123.929721 124.247008 
L 124.580332 201.845536 
L 125.230942 220.680961 
L 125.881552 225.442541 
L 127.182773 157.151922 
L 127.833383 131.802228 
L 128.483993 134.292829 
L 129.134604 163.741235 
L 129.785214 200.220065 
L 130.435824 253.503379 
L 131.086435 199.456267 
L 131.737045 126.526702 
L 132.387655 134.202119 
L 133.038266 148.602857 
L 133.688876 222.220294 
L 134.339486 223.726213 
L 135.640707 154.493352 
L 136.291317 115.272153 
L 136.941927 162.37762 
L 138.243148 232.169121 
L 140.194979 113.6121 
L 140.845589 152.764131 
L 141.4962 206.824627 
L 142.14681 251.271378 
L 142.79742 222.277368 
L 144.098641 88.280217 
L 144.749251 106.529173 
L 145.399862 175.332006 
L 146.050472 276.540953 
L 146.701082 258.808358 
L 147.351692 197.655132 
L 148.002303 119.001109 
L 148.652913 80.283986 
L 149.954134 201.182849 
L 151.255354 240.961658 
L 152.556575 110.532325 
L 153.207185 106.059627 
L 153.857796 184.876083 
L 154.508406 219.564062 
L 155.159016 232.429968 
L 155.809627 196.836578 
L 156.460237 141.010813 
L 157.110847 144.333573 
L 157.761457 177.961458 
L 158.412068 168.206336 
L 159.062678 182.287732 
L 159.713288 204.309256 
L 160.363899 183.790458 
L 161.014509 182.526114 
L 161.665119 143.72016 
L 162.31573 134.588959 
L 162.96634 192.115788 
L 163.61695 231.978127 
L 164.267561 201.138104 
L 164.918171 136.71855 
L 165.568781 134.736539 
L 166.219392 171.95575 
L 166.870002 191.197759 
L 167.520612 171.484464 
L 168.171222 198.04705 
L 168.821833 162.064803 
L 169.472443 172.801153 
L 170.123053 190.113333 
L 170.773664 187.660697 
L 171.424274 157.219078 
L 172.074884 146.695677 
L 172.725495 181.445253 
L 173.376105 168.678724 
L 174.026715 203.243015 
L 174.677326 189.219578 
L 175.327936 184.87275 
L 175.978546 129.863345 
L 176.629156 147.703037 
L 177.279767 199.031698 
L 177.930377 196.404538 
L 178.580987 175.882581 
L 179.231598 188.268662 
L 179.882208 177.738172 
L 180.532818 163.862299 
L 181.183429 164.552243 
L 181.834039 140.608043 
L 182.484649 151.059955 
L 183.13526 213.164734 
L 183.78587 231.969808 
L 185.087091 122.804219 
L 185.737701 131.174417 
L 186.388311 163.466318 
L 187.038921 207.21081 
L 187.689532 216.341234 
L 188.340142 221.579573 
L 189.641363 125.665338 
L 190.291973 129.659906 
L 190.942583 167.945906 
L 191.593194 189.687933 
L 192.243804 206.95418 
L 192.894414 201.651353 
L 193.545025 193.051555 
L 194.195635 150.688202 
L 194.846245 150.111238 
L 195.496856 165.992287 
L 196.147466 172.569516 
L 196.798076 196.800055 
L 197.448686 183.868613 
L 198.099297 157.672842 
L 198.749907 177.188407 
L 199.400517 163.937001 
L 200.051128 194.254176 
L 200.701738 172.00317 
L 201.352348 177.692682 
L 202.002959 195.818175 
L 202.653569 184.604779 
L 203.304179 138.066493 
L 203.95479 145.930656 
L 204.6054 203.556002 
L 205.25601 220.900963 
L 205.906621 192.969564 
L 206.557231 136.02657 
L 207.207841 108.678581 
L 207.858451 178.136182 
L 208.509062 210.567175 
L 209.159672 210.164252 
L 209.810282 211.654681 
L 210.460893 156.841632 
L 211.111503 129.501478 
L 211.762113 136.00525 
L 212.412724 180.51102 
L 213.063334 198.378738 
L 213.713944 222.16524 
L 214.364555 196.764525 
L 215.015165 142.437325 
L 215.665775 127.68144 
L 216.316385 149.936407 
L 216.966996 227.601797 
L 217.617606 226.925054 
L 219.569437 128.765145 
L 220.220047 129.745251 
L 221.521268 235.9297 
L 222.171878 239.345627 
L 223.473099 122.892112 
L 224.123709 104.661515 
L 226.07554 255.957691 
L 226.72615 212.592065 
L 227.376761 158.462407 
L 228.027371 119.657702 
L 228.677981 131.683338 
L 229.328592 167.542249 
L 229.979202 247.487711 
L 230.629812 224.173757 
L 231.280423 190.84755 
L 231.931033 109.929301 
L 232.581643 105.885652 
L 233.232254 192.968821 
L 233.882864 223.681668 
L 234.533474 217.753942 
L 235.184085 213.785552 
L 236.485305 110.390286 
L 237.135915 123.424234 
L 237.786526 194.117024 
L 238.437136 232.173941 
L 239.087746 204.276903 
L 239.738357 168.893457 
L 240.388967 145.893683 
L 241.039577 152.528246 
L 241.690188 168.582163 
L 242.340798 179.112149 
L 242.991408 193.515415 
L 243.642019 225.552437 
L 244.292629 197.333304 
L 244.943239 146.661116 
L 245.59385 116.260602 
L 246.24446 163.202002 
L 247.54568 216.977075 
L 248.196291 221.827794 
L 248.846901 166.691946 
L 249.497511 136.585652 
L 250.798732 195.143576 
L 251.449342 178.469806 
L 252.099953 148.437966 
L 252.750563 152.253022 
L 253.401173 195.309524 
L 254.051784 217.995059 
L 254.702394 185.328423 
L 255.353004 172.064705 
L 256.654225 175.567346 
L 257.304835 155.89426 
L 257.955445 177.994843 
L 258.606056 181.576879 
L 259.256666 162.459561 
L 259.907276 162.39955 
L 261.208497 205.170156 
L 261.859107 215.087114 
L 262.509718 165.51171 
L 263.160328 134.048705 
L 263.810938 119.474605 
L 264.461549 191.304982 
L 265.112159 229.432142 
L 265.762769 219.576786 
L 266.413379 165.641807 
L 267.06399 135.685595 
L 267.7146 130.290554 
L 268.36521 148.251554 
L 269.015821 177.538508 
L 269.666431 236.982643 
L 270.317041 245.329124 
L 270.967652 173.343282 
L 271.618262 116.692401 
L 272.268872 105.578349 
L 272.919483 143.523164 
L 273.570093 216.217265 
L 274.220703 235.339871 
L 274.871314 225.823854 
L 275.521924 172.484992 
L 276.172534 85.440683 
L 276.823144 104.506143 
L 277.473755 191.897976 
L 278.124365 251.277894 
L 278.774975 242.634 
L 280.076196 115.633464 
L 280.726806 125.469894 
L 282.028027 220.670936 
L 282.678637 219.874041 
L 283.979858 131.395394 
L 284.630468 133.962118 
L 285.281079 180.278713 
L 285.931689 196.876672 
L 286.582299 182.17137 
L 287.232909 161.423736 
L 287.88352 182.872875 
L 288.53413 179.886654 
L 289.18474 182.892653 
L 289.835351 182.95114 
L 290.485961 167.310316 
L 291.136571 137.621264 
L 291.787182 182.471888 
L 292.437792 199.90707 
L 293.088402 204.492021 
L 293.739013 190.615991 
L 294.389623 128.894537 
L 295.040233 123.922782 
L 295.690844 184.870441 
L 296.341454 216.907631 
L 296.992064 212.087687 
L 297.642674 176.835977 
L 298.943895 122.638217 
L 299.594505 178.794898 
L 300.245116 208.342911 
L 300.895726 198.533439 
L 301.546336 202.806599 
L 302.196947 179.172421 
L 302.847557 141.974432 
L 303.498167 134.420034 
L 304.148778 151.728376 
L 304.799388 221.211854 
L 305.449998 234.415093 
L 306.751219 148.741497 
L 307.401829 119.965857 
L 308.052439 116.755536 
L 308.70305 199.951053 
L 309.35366 248.95515 
L 310.00427 224.27054 
L 311.305491 90.202577 
L 311.956101 112.250781 
L 313.257322 252.056508 
L 313.907932 253.3329 
L 315.209153 96.607819 
L 315.859763 88.282618 
L 317.160984 252.564254 
L 317.811594 254.935201 
L 318.462204 182.098777 
L 319.112815 145.358713 
L 319.763425 128.54633 
L 320.414035 147.739687 
L 321.064646 182.911613 
L 321.715256 198.575563 
L 322.365866 225.798454 
L 323.016477 209.107987 
L 323.667087 152.438532 
L 324.317697 117.593434 
L 324.968308 116.567087 
L 325.618918 164.3625 
L 326.269528 230.665344 
L 326.920138 270.177748 
L 327.570749 206.213149 
L 328.221359 118.95268 
L 328.871969 98.269304 
L 329.52258 124.407007 
L 330.17319 205.495464 
L 330.8238 254.705622 
L 331.474411 230.378889 
L 332.125021 125.232671 
L 332.775631 97.153358 
L 333.426242 122.695897 
L 334.076852 213.004918 
L 334.727462 264.054755 
L 335.378073 218.266965 
L 336.028683 153.009106 
L 336.679293 109.313867 
L 337.329903 119.511909 
L 337.980514 197.746382 
L 338.631124 215.379719 
L 339.281734 214.698821 
L 339.932345 180.317315 
L 340.582955 127.705048 
L 341.233565 141.084234 
L 342.534786 221.365616 
L 343.185396 195.558683 
L 343.836007 185.844775 
L 344.486617 143.850279 
L 345.137227 136.058454 
L 345.787837 192.251631 
L 346.438448 192.948105 
L 347.089058 192.107731 
L 347.739668 201.591692 
L 348.390279 179.080298 
L 349.040889 128.739607 
L 349.691499 156.982103 
L 350.34211 159.730033 
L 350.99272 195.824799 
L 351.64333 218.367211 
L 352.293941 210.840589 
L 352.944551 158.626811 
L 353.595161 123.129356 
L 354.245772 162.809217 
L 354.896382 211.464613 
L 355.546992 204.52197 
L 356.197602 161.76904 
L 356.848213 171.503453 
L 357.498823 156.737042 
L 358.149433 175.001854 
L 358.800044 206.325237 
L 359.450654 194.179145 
L 360.101264 165.781653 
L 360.751875 151.976955 
L 361.402485 160.84113 
L 362.053095 189.901648 
L 362.703706 170.339843 
L 363.354316 197.857488 
L 364.004926 165.282918 
L 364.655537 161.435168 
L 365.306147 176.826683 
L 365.956757 182.219597 
L 366.607367 166.520607 
L 367.257978 188.731786 
L 367.908588 186.625853 
L 368.559198 163.822804 
L 369.209809 177.422534 
L 369.860419 184.139362 
L 370.511029 180.74405 
L 371.16164 141.847498 
L 371.81225 151.186649 
L 372.46286 196.143996 
L 373.113471 216.261099 
L 373.764081 202.714839 
L 374.414691 165.693417 
L 375.065302 118.618786 
L 375.715912 127.033331 
L 376.366522 179.152699 
L 377.017132 217.195533 
L 377.667743 194.92523 
L 378.968963 155.678126 
L 379.619574 162.253169 
L 380.270184 164.290814 
L 380.920794 189.505854 
L 381.571405 231.095963 
L 382.222015 197.70774 
L 382.872625 175.116013 
L 383.523236 135.19079 
L 384.173846 122.069932 
L 384.824456 151.216947 
L 385.475066 215.742694 
L 386.125677 236.036148 
L 386.776287 209.708508 
L 388.077508 139.120884 
L 388.728118 126.563157 
L 389.378728 137.156834 
L 390.029339 198.678525 
L 390.679949 219.947084 
L 391.330559 197.851854 
L 391.98117 171.823302 
L 393.28239 151.03601 
L 393.933001 171.032967 
L 394.583611 224.983275 
L 395.234221 226.715117 
L 396.535442 121.49938 
L 397.186052 131.340659 
L 397.836662 175.544145 
L 398.487273 176.06393 
L 398.487273 176.06393 
" style="fill:none;stroke:#d62728;stroke-linecap:square;stroke-width:1.5;"/>
   </g>
   <g id="line2d_16">
    <path clip-path="url(#p47ff45ebcb)" d="M 73.832727 172.977747 
L 74.483338 173.996149 
L 75.133948 173.828903 
L 75.784558 169.713985 
L 76.435169 168.966297 
L 77.085779 174.64579 
L 77.736389 179.264497 
L 78.386999 178.500528 
L 79.03761 166.130761 
L 79.68822 184.846875 
L 80.33883 178.315482 
L 80.989441 167.712017 
L 81.640051 184.101422 
L 82.290661 185.904469 
L 82.941272 184.385284 
L 83.591882 176.1668 
L 84.242492 185.204361 
L 84.893103 174.145325 
L 85.543713 171.268464 
L 86.194323 176.577968 
L 86.844934 174.056798 
L 87.495544 172.321314 
L 88.146154 174.748706 
L 88.796764 185.25817 
L 89.447375 172.188132 
L 90.097985 176.881553 
L 90.748595 170.598648 
L 91.399206 178.218625 
L 92.049816 181.922914 
L 92.700426 179.684305 
L 93.351037 168.822748 
L 94.001647 184.197708 
L 94.652257 169.081109 
L 95.302868 167.701275 
L 95.953478 182.214788 
L 96.604088 172.829079 
L 97.254698 171.766424 
L 97.905309 166.326929 
L 98.555919 172.091439 
L 99.206529 176.784901 
L 99.85714 175.409359 
L 101.15836 185.684221 
L 101.808971 167.40154 
L 102.459581 168.543532 
L 103.110191 179.817436 
L 103.760802 179.749476 
L 104.411412 183.13504 
L 105.062022 184.677519 
L 105.712633 173.736822 
L 106.363243 180.156225 
L 107.013853 185.293533 
L 107.664463 174.877067 
L 108.315074 176.605326 
L 108.965684 184.644824 
L 110.266905 174.774361 
L 110.917515 172.519092 
L 111.568125 167.951413 
L 112.218736 175.444405 
L 112.869346 180.492456 
L 113.519956 167.2341 
L 114.170567 175.918965 
L 114.821177 166.521975 
L 115.471787 177.660237 
L 116.122398 185.784654 
L 116.773008 165.912262 
L 117.423618 185.458235 
L 118.074228 174.096989 
L 118.724839 170.510983 
L 119.375449 176.601236 
L 120.026059 174.660024 
L 120.67667 168.699463 
L 121.32728 178.063366 
L 121.97789 184.940857 
L 122.628501 170.678882 
L 123.279111 182.890191 
L 123.929721 181.092788 
L 124.580332 166.208572 
L 125.230942 175.323443 
L 125.881552 176.985916 
L 126.532163 184.130625 
L 127.182773 180.596517 
L 128.483993 170.145733 
L 129.134604 167.598013 
L 129.785214 185.328632 
L 130.435824 170.707617 
L 131.086435 167.099623 
L 131.737045 181.387559 
L 132.387655 169.627866 
L 133.038266 184.883667 
L 133.688876 174.468941 
L 134.339486 176.831252 
L 134.990097 180.340613 
L 135.640707 170.340908 
L 136.291317 183.634677 
L 136.941927 174.803421 
L 137.592538 185.080205 
L 138.243148 174.341427 
L 138.893758 175.987929 
L 139.544369 168.528753 
L 140.194979 173.96059 
L 140.845589 172.727547 
L 141.4962 181.843572 
L 142.79742 180.188426 
L 143.448031 172.055514 
L 144.098641 171.395022 
L 144.749251 166.293697 
L 145.399862 181.485843 
L 146.050472 171.285817 
L 146.701082 182.465004 
L 147.351692 183.633814 
L 148.002303 178.274419 
L 148.652913 186.059079 
L 149.303523 174.619209 
L 149.954134 166.880301 
L 150.604744 183.861606 
L 151.255354 175.672289 
L 151.905965 170.759191 
L 152.556575 171.057272 
L 153.207185 181.22253 
L 153.857796 167.636579 
L 154.508406 173.248483 
L 155.159016 173.754439 
L 155.809627 171.102112 
L 156.460237 182.296547 
L 157.110847 186.121219 
L 157.761457 168.83772 
L 158.412068 173.633249 
L 159.062678 180.667683 
L 159.713288 174.043707 
L 160.363899 185.080757 
L 161.014509 172.274745 
L 161.665119 169.885188 
L 162.31573 183.365562 
L 162.96634 186.092637 
L 164.267561 171.476678 
L 164.918171 182.059198 
L 165.568781 186.1593 
L 166.219392 179.176367 
L 166.870002 166.994515 
L 167.520612 184.339235 
L 168.171222 167.326313 
L 168.821833 179.860291 
L 169.472443 184.194475 
L 170.123053 183.055831 
L 170.773664 175.456227 
L 171.424274 175.541826 
L 172.074884 185.088423 
L 172.725495 167.936128 
L 173.376105 184.40063 
L 174.026715 176.593364 
L 174.677326 185.906216 
L 175.327936 167.633391 
L 175.978546 178.736427 
L 176.629156 185.534774 
L 177.279767 172.929411 
L 177.930377 170.817221 
L 178.580987 185.203365 
L 179.231598 182.907965 
L 179.882208 182.825958 
L 180.532818 185.837549 
L 181.183429 171.253138 
L 181.834039 170.099524 
L 182.484649 184.120119 
L 183.13526 183.651754 
L 183.78587 175.011861 
L 184.43648 171.24277 
L 185.087091 178.292007 
L 185.737701 172.523043 
L 186.388311 172.487447 
L 187.038921 169.304358 
L 187.689532 183.11683 
L 188.340142 180.454813 
L 188.990752 177.253901 
L 189.641363 180.97541 
L 190.291973 179.63548 
L 190.942583 169.777059 
L 192.243804 173.786957 
L 192.894414 182.677712 
L 193.545025 175.256416 
L 194.195635 182.805357 
L 194.846245 181.999194 
L 195.496856 174.721283 
L 196.147466 181.161146 
L 196.798076 174.211108 
L 197.448686 169.619277 
L 198.099297 181.871314 
L 198.749907 169.306546 
L 199.400517 182.543653 
L 200.051128 168.00082 
L 201.352348 184.116352 
L 202.002959 181.009969 
L 202.653569 167.547186 
L 203.304179 173.71999 
L 203.95479 185.882692 
L 204.6054 182.677281 
L 205.25601 180.933545 
L 205.906621 173.876135 
L 206.557231 168.685631 
L 207.207841 184.995456 
L 207.858451 173.272576 
L 208.509062 170.966093 
L 209.159672 185.202959 
L 209.810282 176.036073 
L 210.460893 178.804761 
L 211.111503 175.746665 
L 211.762113 177.278262 
L 212.412724 167.828265 
L 213.063334 178.178004 
L 213.713944 175.827871 
L 214.364555 169.327388 
L 215.015165 170.852559 
L 215.665775 167.139678 
L 216.316385 181.69379 
L 216.966996 169.846486 
L 217.617606 173.882613 
L 218.268216 179.643156 
L 219.569437 168.95749 
L 220.220047 172.032855 
L 220.870658 176.786178 
L 221.521268 179.104715 
L 222.171878 178.645225 
L 222.822489 177.132051 
L 223.473099 174.511703 
L 224.123709 176.793207 
L 224.77432 166.642772 
L 225.42493 181.005477 
L 226.07554 169.879415 
L 226.72615 176.366077 
L 227.376761 175.523692 
L 228.027371 175.130194 
L 228.677981 168.020685 
L 229.328592 184.727514 
L 229.979202 170.038124 
L 230.629812 182.042663 
L 231.280423 166.339547 
L 231.931033 170.023051 
L 232.581643 184.061909 
L 233.232254 169.031244 
L 233.882864 169.03488 
L 234.533474 186.103291 
L 235.834695 175.118001 
L 236.485305 175.200042 
L 237.135915 181.432853 
L 237.786526 176.866998 
L 238.437136 169.080184 
L 239.087746 174.420718 
L 239.738357 176.712047 
L 240.388967 178.140792 
L 241.039577 173.475881 
L 241.690188 166.998524 
L 242.340798 168.001736 
L 242.991408 182.987577 
L 243.642019 178.160489 
L 244.292629 175.07598 
L 244.943239 170.446715 
L 245.59385 180.534877 
L 246.24446 168.109932 
L 246.89507 172.276788 
L 247.54568 178.921079 
L 248.196291 170.176974 
L 248.846901 174.682908 
L 249.497511 186.028139 
L 250.148122 185.970453 
L 250.798732 173.894218 
L 251.449342 166.159841 
L 252.099953 167.498076 
L 252.750563 175.295694 
L 253.401173 175.341283 
L 254.051784 166.331203 
L 254.702394 175.854377 
L 255.353004 182.045925 
L 256.003615 182.771185 
L 256.654225 173.374271 
L 257.304835 183.198204 
L 257.955445 178.024384 
L 258.606056 169.159644 
L 259.256666 169.941551 
L 259.907276 174.378569 
L 260.557887 177.584411 
L 261.208497 186.245411 
L 261.859107 176.717047 
L 262.509718 178.78083 
L 263.160328 169.103911 
L 263.810938 184.796584 
L 264.461549 180.252728 
L 265.112159 180.828828 
L 265.762769 178.437805 
L 266.413379 184.56593 
L 267.06399 181.078043 
L 268.36521 166.92303 
L 269.015821 180.910997 
L 269.666431 185.991562 
L 270.317041 178.712433 
L 270.967652 182.818739 
L 271.618262 180.230694 
L 272.268872 174.775218 
L 272.919483 178.494557 
L 273.570093 172.392753 
L 274.220703 182.847199 
L 274.871314 184.748516 
L 275.521924 167.082238 
L 276.172534 174.672924 
L 276.823144 179.095486 
L 277.473755 175.736043 
L 278.124365 175.594631 
L 278.774975 174.162095 
L 279.425586 175.726302 
L 280.076196 182.086965 
L 280.726806 181.754026 
L 281.377417 182.487273 
L 282.028027 180.869543 
L 282.678637 178.787322 
L 283.329248 178.012367 
L 283.979858 181.035047 
L 284.630468 186.211297 
L 285.281079 177.45457 
L 285.931689 170.91498 
L 286.582299 168.615236 
L 287.232909 181.022045 
L 287.88352 174.916906 
L 288.53413 178.551204 
L 289.18474 181.005981 
L 289.835351 177.483727 
L 290.485961 166.33923 
L 291.136571 182.773333 
L 291.787182 176.452176 
L 292.437792 180.183048 
L 293.088402 184.565115 
L 293.739013 168.992521 
L 294.389623 172.07353 
L 295.040233 181.841552 
L 295.690844 175.36948 
L 296.341454 174.719554 
L 296.992064 174.621124 
L 297.642674 178.646106 
L 298.293285 166.536268 
L 298.943895 181.736939 
L 299.594505 174.170103 
L 300.245116 168.15139 
L 300.895726 182.115699 
L 301.546336 182.523897 
L 302.196947 177.72406 
L 302.847557 176.519813 
L 303.498167 170.821022 
L 304.148778 185.071447 
L 305.449998 178.818677 
L 306.100608 186.20414 
L 306.751219 181.653546 
L 307.401829 170.304765 
L 308.052439 185.370741 
L 308.70305 184.795718 
L 310.00427 180.82678 
L 310.654881 174.242395 
L 311.305491 176.701642 
L 311.956101 174.817273 
L 312.606712 178.727646 
L 313.257322 180.818401 
L 313.907932 173.852619 
L 314.558543 172.123187 
L 315.209153 167.810494 
L 315.859763 176.029543 
L 316.510373 173.33801 
L 317.160984 171.235522 
L 317.811594 166.577314 
L 318.462204 182.314238 
L 319.112815 180.763951 
L 319.763425 178.378766 
L 320.414035 174.861539 
L 321.064646 168.559959 
L 321.715256 182.13275 
L 322.365866 185.10623 
L 323.016477 181.056834 
L 323.667087 180.657628 
L 324.317697 172.366236 
L 324.968308 169.56895 
L 325.618918 173.645117 
L 326.269528 185.657692 
L 326.920138 179.099496 
L 327.570749 178.484895 
L 328.221359 184.883725 
L 328.871969 176.749562 
L 329.52258 181.972393 
L 330.17319 183.061552 
L 330.8238 183.430679 
L 331.474411 167.727303 
L 332.125021 177.856081 
L 332.775631 171.498747 
L 333.426242 179.963598 
L 334.076852 180.75061 
L 334.727462 173.067143 
L 335.378073 178.749657 
L 336.028683 178.862888 
L 336.679293 176.335471 
L 337.329903 185.911164 
L 337.980514 170.634742 
L 338.631124 176.247273 
L 339.281734 176.831432 
L 339.932345 168.949466 
L 340.582955 177.117386 
L 341.233565 175.800161 
L 341.884176 180.132189 
L 342.534786 168.317043 
L 343.185396 180.970526 
L 343.836007 171.270103 
L 344.486617 171.148122 
L 345.137227 184.38312 
L 345.787837 168.594108 
L 346.438448 171.808729 
L 347.089058 183.166141 
L 347.739668 181.109623 
L 348.390279 168.735572 
L 349.040889 183.031491 
L 349.691499 166.109733 
L 350.34211 171.870701 
L 350.99272 174.44264 
L 351.64333 178.186873 
L 352.293941 171.47734 
L 352.944551 169.033031 
L 353.595161 180.744901 
L 354.245772 182.753855 
L 354.896382 173.280226 
L 355.546992 165.924679 
L 356.197602 181.631602 
L 356.848213 170.653584 
L 357.498823 175.925292 
L 358.149433 182.902222 
L 358.800044 177.31575 
L 359.450654 176.264615 
L 360.101264 178.175534 
L 360.751875 179.331808 
L 361.402485 183.85918 
L 362.053095 168.732267 
L 362.703706 185.91951 
L 363.354316 170.301851 
L 364.004926 176.167636 
L 364.655537 180.037408 
L 365.306147 177.140674 
L 365.956757 169.472913 
L 366.607367 181.548798 
L 367.257978 178.033525 
L 367.908588 172.294286 
L 368.559198 183.010502 
L 369.860419 183.260819 
L 370.511029 169.188765 
L 371.16164 174.513005 
L 371.81225 182.148968 
L 372.46286 181.884128 
L 373.113471 184.187588 
L 373.764081 185.530076 
L 374.414691 177.253581 
L 375.065302 178.310169 
L 375.715912 180.010118 
L 376.366522 177.104123 
L 377.017132 166.118387 
L 377.667743 172.437982 
L 378.318353 170.973865 
L 378.968963 174.044977 
L 379.619574 166.004449 
L 380.270184 169.523344 
L 380.920794 183.001206 
L 381.571405 173.350617 
L 382.222015 185.144496 
L 383.523236 172.812738 
L 384.173846 169.012429 
L 384.824456 174.931564 
L 385.475066 172.316601 
L 386.125677 174.384239 
L 386.776287 183.791929 
L 387.426897 183.983066 
L 388.077508 180.384223 
L 388.728118 170.829884 
L 389.378728 177.685742 
L 390.029339 170.440541 
L 390.679949 166.550001 
L 391.98117 175.499888 
L 392.63178 169.21263 
L 393.28239 171.029098 
L 393.933001 185.228032 
L 394.583611 185.065886 
L 395.234221 179.984964 
L 395.884831 179.452947 
L 396.535442 184.661137 
L 397.186052 185.19193 
L 397.836662 166.748584 
L 398.487273 178.480931 
L 398.487273 178.480931 
" style="fill:none;stroke:#9467bd;stroke-linecap:square;stroke-width:1.5;"/>
   </g>
   <g id="line2d_17">
    <path clip-path="url(#p47ff45ebcb)" d="M 73.832727 181.760851 
L 74.483338 182.671301 
L 75.133948 183.895056 
L 75.784558 173.960098 
L 76.435169 178.196195 
L 77.085779 173.025217 
L 77.736389 173.393635 
L 78.386999 185.172728 
L 79.03761 177.894437 
L 79.68822 184.290643 
L 80.33883 176.729175 
L 80.989441 185.261244 
L 81.640051 185.866035 
L 82.290661 180.591242 
L 82.941272 168.503406 
L 83.591882 183.952176 
L 84.242492 171.782977 
L 84.893103 183.130596 
L 85.543713 181.552455 
L 86.194323 171.724524 
L 86.844934 172.872496 
L 87.495544 176.837945 
L 88.146154 183.975835 
L 88.796764 183.773477 
L 89.447375 176.054178 
L 90.097985 177.225316 
L 90.748595 169.045396 
L 91.399206 176.305581 
L 92.049816 171.560757 
L 92.700426 178.499476 
L 93.351037 166.30162 
L 94.001647 169.244133 
L 94.652257 178.311568 
L 95.302868 167.476648 
L 95.953478 182.863927 
L 96.604088 166.685856 
L 97.254698 167.106281 
L 97.905309 169.822021 
L 98.555919 178.153446 
L 99.206529 170.392901 
L 99.85714 174.148866 
L 100.50775 170.542432 
L 101.15836 176.787104 
L 101.808971 179.56088 
L 102.459581 166.920757 
L 103.110191 168.994189 
L 103.760802 169.831317 
L 104.411412 181.433436 
L 105.062022 186.17248 
L 105.712633 173.41757 
L 106.363243 186.070008 
L 107.013853 174.895926 
L 107.664463 170.027383 
L 108.315074 174.597211 
L 108.965684 172.67384 
L 109.616294 176.526074 
L 110.266905 177.485329 
L 110.917515 172.101306 
L 111.568125 169.547841 
L 112.218736 182.144522 
L 112.869346 176.457668 
L 113.519956 179.532033 
L 114.170567 179.084656 
L 114.821177 168.064015 
L 115.471787 185.417318 
L 116.122398 181.870623 
L 116.773008 173.967639 
L 117.423618 183.371269 
L 118.074228 170.031692 
L 118.724839 171.900074 
L 119.375449 177.333776 
L 120.026059 174.410639 
L 120.67667 185.600121 
L 121.32728 179.14027 
L 121.97789 183.420101 
L 122.628501 172.318429 
L 123.279111 184.042317 
L 123.929721 179.805982 
L 124.580332 169.691863 
L 125.230942 183.895053 
L 125.881552 169.215659 
L 126.532163 186.061232 
L 127.182773 177.184568 
L 128.483993 167.822766 
L 129.134604 179.777043 
L 129.785214 180.733533 
L 130.435824 171.562628 
L 131.086435 165.91494 
L 131.737045 176.967488 
L 132.387655 170.648528 
L 133.038266 175.878243 
L 133.688876 185.403582 
L 134.339486 182.863366 
L 134.990097 184.479205 
L 135.640707 166.517453 
L 136.291317 182.374679 
L 136.941927 180.858928 
L 137.592538 171.679157 
L 138.243148 175.498875 
L 138.893758 169.474417 
L 139.544369 184.576633 
L 140.194979 175.180354 
L 140.845589 178.728838 
L 141.4962 179.89174 
L 142.14681 169.85428 
L 142.79742 172.086552 
L 143.448031 176.716804 
L 144.098641 172.396636 
L 144.749251 169.362365 
L 145.399862 180.184022 
L 146.050472 167.291175 
L 146.701082 177.819861 
L 148.002303 185.621009 
L 148.652913 184.034673 
L 149.303523 172.723724 
L 149.954134 176.437375 
L 150.604744 175.56804 
L 151.255354 167.546004 
L 151.905965 182.815032 
L 152.556575 181.655144 
L 153.207185 167.382111 
L 153.857796 185.829103 
L 154.508406 182.294479 
L 155.159016 184.546247 
L 155.809627 167.261413 
L 156.460237 168.526787 
L 157.110847 183.372974 
L 157.761457 173.306312 
L 158.412068 179.40268 
L 159.062678 170.729831 
L 159.713288 178.940287 
L 160.363899 175.803236 
L 161.014509 177.428903 
L 161.665119 178.341139 
L 162.31573 169.163184 
L 162.96634 179.153462 
L 163.61695 165.921793 
L 164.267561 179.62781 
L 164.918171 184.010128 
L 165.568781 168.394872 
L 166.219392 179.855242 
L 166.870002 184.246548 
L 167.520612 166.544409 
L 168.821833 185.008639 
L 169.472443 168.432981 
L 170.123053 185.802624 
L 170.773664 172.36808 
L 171.424274 179.618112 
L 172.074884 166.050367 
L 172.725495 181.701161 
L 173.376105 178.812711 
L 174.026715 184.765585 
L 174.677326 172.828562 
L 175.327936 174.034697 
L 175.978546 168.488368 
L 176.629156 172.593094 
L 177.279767 179.73408 
L 177.930377 172.965943 
L 178.580987 179.827229 
L 179.882208 176.285761 
L 180.532818 173.669459 
L 181.183429 168.196815 
L 181.834039 169.494904 
L 182.484649 183.965228 
L 183.13526 177.518219 
L 183.78587 186.069155 
L 184.43648 171.685588 
L 185.087091 182.313084 
L 185.737701 175.315116 
L 186.388311 182.661151 
L 187.038921 183.219919 
L 187.689532 165.916559 
L 188.340142 180.126837 
L 188.990752 169.221806 
L 189.641363 181.269453 
L 190.291973 169.246687 
L 190.942583 167.684892 
L 191.593194 178.718999 
L 192.243804 169.24293 
L 192.894414 179.83353 
L 193.545025 178.348438 
L 194.195635 182.444957 
L 194.846245 168.686343 
L 195.496856 173.990031 
L 196.147466 174.45223 
L 196.798076 168.920286 
L 197.448686 174.885439 
L 198.099297 185.911101 
L 198.749907 166.433691 
L 199.400517 171.735458 
L 200.051128 182.914407 
L 200.701738 175.24371 
L 201.352348 172.115357 
L 202.002959 179.904956 
L 202.653569 171.195309 
L 203.304179 173.704324 
L 203.95479 173.701464 
L 204.6054 174.64287 
L 205.25601 165.900113 
L 205.906621 177.577464 
L 206.557231 174.114681 
L 207.207841 165.965688 
L 208.509062 186.070032 
L 209.159672 169.25675 
L 209.810282 167.023008 
L 210.460893 184.775091 
L 211.111503 170.445217 
L 211.762113 172.358355 
L 212.412724 180.778056 
L 213.063334 180.632334 
L 213.713944 172.045679 
L 214.364555 178.764232 
L 215.015165 178.893702 
L 215.665775 168.592193 
L 216.316385 171.647271 
L 216.966996 168.092104 
L 217.617606 169.431916 
L 218.268216 176.055801 
L 218.918827 168.65153 
L 219.569437 180.601524 
L 220.220047 180.033873 
L 220.870658 166.274195 
L 221.521268 173.607546 
L 222.171878 166.156152 
L 222.822489 178.55351 
L 223.473099 180.271791 
L 224.123709 181.013993 
L 224.77432 175.209496 
L 225.42493 173.46071 
L 226.07554 176.090342 
L 226.72615 169.464178 
L 227.376761 185.431569 
L 228.027371 178.909243 
L 228.677981 182.213049 
L 229.328592 166.483006 
L 229.979202 182.137501 
L 230.629812 166.465319 
L 231.280423 175.377768 
L 231.931033 168.897352 
L 232.581643 183.892482 
L 233.232254 172.396184 
L 233.882864 174.248193 
L 234.533474 170.356769 
L 235.184085 171.66683 
L 235.834695 169.911386 
L 236.485305 180.029643 
L 237.135915 167.890417 
L 237.786526 185.631712 
L 238.437136 178.556951 
L 239.087746 169.137107 
L 239.738357 166.835648 
L 240.388967 171.206151 
L 241.039577 182.363857 
L 241.690188 172.786848 
L 242.340798 169.851086 
L 242.991408 185.002862 
L 243.642019 172.115169 
L 244.292629 173.061555 
L 244.943239 178.164214 
L 245.59385 177.979594 
L 246.24446 180.12427 
L 246.89507 166.373453 
L 247.54568 180.460631 
L 248.196291 176.629351 
L 248.846901 179.219706 
L 249.497511 172.610005 
L 250.148122 173.982759 
L 250.798732 185.592126 
L 251.449342 177.41642 
L 252.099953 166.770926 
L 252.750563 174.344857 
L 253.401173 177.795976 
L 254.051784 172.722831 
L 254.702394 170.207707 
L 255.353004 182.225437 
L 256.003615 178.539283 
L 256.654225 186.060075 
L 257.304835 181.414235 
L 257.955445 180.417929 
L 258.606056 178.820265 
L 259.907276 179.813573 
L 260.557887 170.770819 
L 261.208497 176.488603 
L 261.859107 180.759327 
L 262.509718 170.605289 
L 263.160328 178.241013 
L 263.810938 171.197589 
L 264.461549 170.873899 
L 265.112159 170.735107 
L 265.762769 178.193901 
L 266.413379 182.593417 
L 267.06399 180.78186 
L 269.015821 172.059364 
L 269.666431 185.283879 
L 270.317041 185.098007 
L 270.967652 167.932665 
L 271.618262 184.60634 
L 272.268872 172.873882 
L 272.919483 169.115923 
L 273.570093 175.41324 
L 274.220703 175.857445 
L 274.871314 179.238915 
L 275.521924 170.242731 
L 276.172534 177.321674 
L 276.823144 177.214288 
L 277.473755 183.515568 
L 278.124365 175.891613 
L 278.774975 180.215642 
L 279.425586 168.475902 
L 280.076196 175.340806 
L 280.726806 179.727391 
L 281.377417 168.567181 
L 282.028027 173.366242 
L 282.678637 181.902541 
L 283.329248 182.735806 
L 283.979858 169.12461 
L 284.630468 168.218912 
L 285.281079 178.785789 
L 285.931689 167.316577 
L 286.582299 183.678139 
L 287.232909 165.877036 
L 287.88352 184.37636 
L 288.53413 175.178131 
L 289.18474 182.580381 
L 289.835351 169.708005 
L 290.485961 175.24491 
L 291.136571 166.044291 
L 291.787182 177.331617 
L 292.437792 166.338319 
L 293.088402 167.126571 
L 293.739013 172.727534 
L 294.389623 180.523354 
L 295.040233 182.299089 
L 295.690844 173.821332 
L 296.341454 179.469035 
L 296.992064 167.158881 
L 297.642674 170.105903 
L 298.293285 181.914929 
L 298.943895 173.947574 
L 299.594505 171.85794 
L 300.245116 180.223517 
L 300.895726 181.065902 
L 301.546336 174.00422 
L 302.196947 179.074497 
L 302.847557 177.87131 
L 303.498167 174.056045 
L 304.148778 168.459645 
L 304.799388 184.680337 
L 305.449998 169.906493 
L 306.751219 172.972378 
L 307.401829 168.440758 
L 308.70305 184.884469 
L 309.35366 182.334364 
L 310.00427 181.690963 
L 310.654881 168.481623 
L 311.305491 174.716471 
L 311.956101 179.210678 
L 312.606712 178.774707 
L 313.257322 177.718688 
L 313.907932 185.285853 
L 314.558543 174.7139 
L 315.209153 184.069352 
L 315.859763 179.604312 
L 316.510373 185.789832 
L 317.160984 176.071927 
L 317.811594 174.355399 
L 318.462204 180.561381 
L 319.112815 169.25522 
L 319.763425 185.23763 
L 320.414035 183.683158 
L 321.064646 177.696646 
L 321.715256 169.332513 
L 322.365866 177.717061 
L 323.016477 180.37292 
L 323.667087 171.599358 
L 324.317697 179.525055 
L 324.968308 183.43507 
L 325.618918 173.406193 
L 326.269528 170.743494 
L 326.920138 175.30858 
L 327.570749 176.403272 
L 328.221359 174.496218 
L 328.871969 180.01223 
L 330.17319 167.936284 
L 330.8238 179.319763 
L 331.474411 171.567306 
L 332.125021 184.504495 
L 332.775631 167.032825 
L 333.426242 180.462974 
L 334.076852 174.822013 
L 334.727462 174.640034 
L 335.378073 181.932539 
L 336.028683 171.170928 
L 336.679293 171.851445 
L 337.329903 175.018732 
L 337.980514 181.285826 
L 338.631124 172.33427 
L 339.932345 171.555726 
L 340.582955 174.733873 
L 341.233565 170.656021 
L 341.884176 171.547731 
L 342.534786 170.432101 
L 343.185396 185.865166 
L 343.836007 169.146579 
L 344.486617 180.027185 
L 345.137227 185.387197 
L 346.438448 166.2133 
L 347.089058 179.352509 
L 347.739668 174.375082 
L 348.390279 180.16443 
L 349.040889 183.759353 
L 349.691499 167.931216 
L 350.34211 175.59664 
L 350.99272 172.215999 
L 351.64333 172.943193 
L 352.293941 182.712545 
L 352.944551 170.553708 
L 353.595161 179.947941 
L 354.245772 174.65717 
L 354.896382 170.975416 
L 355.546992 186.082146 
L 356.197602 171.052021 
L 356.848213 180.331026 
L 357.498823 171.462523 
L 358.149433 179.861418 
L 358.800044 180.569986 
L 359.450654 168.053014 
L 360.101264 181.100936 
L 360.751875 182.912171 
L 361.402485 180.313484 
L 362.053095 172.521836 
L 362.703706 180.312162 
L 363.354316 180.297122 
L 364.004926 172.475663 
L 364.655537 184.547662 
L 365.306147 166.157506 
L 365.956757 173.070076 
L 367.257978 177.909594 
L 367.908588 177.919692 
L 368.559198 184.149755 
L 369.209809 182.679207 
L 369.860419 172.034108 
L 370.511029 177.523859 
L 371.16164 184.656299 
L 371.81225 170.789849 
L 372.46286 183.372596 
L 373.113471 185.561642 
L 373.764081 174.48597 
L 374.414691 171.685604 
L 375.065302 173.390109 
L 375.715912 178.782864 
L 376.366522 175.54034 
L 377.017132 181.087408 
L 377.667743 184.86027 
L 378.318353 184.59244 
L 378.968963 172.047437 
L 379.619574 179.931415 
L 380.270184 184.866094 
L 380.920794 176.834927 
L 381.571405 166.404092 
L 382.222015 169.993214 
L 382.872625 170.648036 
L 383.523236 168.100798 
L 384.173846 177.015077 
L 384.824456 166.364141 
L 385.475066 174.868008 
L 386.125677 173.707639 
L 386.776287 179.292537 
L 387.426897 179.211712 
L 388.077508 176.110226 
L 388.728118 171.625041 
L 389.378728 166.275402 
L 390.029339 177.676155 
L 390.679949 176.771842 
L 391.330559 181.553236 
L 391.98117 169.079578 
L 392.63178 176.855468 
L 393.28239 178.144545 
L 393.933001 166.67143 
L 394.583611 172.347984 
L 395.234221 173.074185 
L 395.884831 172.523632 
L 396.535442 166.223364 
L 397.186052 183.685328 
L 397.836662 177.312964 
L 398.487273 178.333927 
L 398.487273 178.333927 
" style="fill:none;stroke:#8c564b;stroke-linecap:square;stroke-width:1.5;"/>
   </g>
   <g id="patch_3">
    <path d="M 57.6 307.584 
L 57.6 41.472 
" style="fill:none;stroke:#000000;stroke-linecap:square;stroke-linejoin:miter;stroke-width:0.8;"/>
   </g>
   <g id="patch_4">
    <path d="M 414.72 307.584 
L 414.72 41.472 
" style="fill:none;stroke:#000000;stroke-linecap:square;stroke-linejoin:miter;stroke-width:0.8;"/>
   </g>
   <g id="patch_5">
    <path d="M 57.6 307.584 
L 414.72 307.584 
" style="fill:none;stroke:#000000;stroke-linecap:square;stroke-linejoin:miter;stroke-width:0.8;"/>
   </g>
   <g id="patch_6">
    <path d="M 57.6 41.472 
L 414.72 41.472 
" style="fill:none;stroke:#000000;stroke-linecap:square;stroke-linejoin:miter;stroke-width:0.8;"/>
   </g>
   <g id="legend_1">
    <g id="patch_7">
     <path d="M 363.02 137.54075 
L 407.72 137.54075 
Q 409.72 137.54075 409.72 135.54075 
L 409.72 48.472 
Q 409.72 46.472 407.72 46.472 
L 363.02 46.472 
Q 361.02 46.472 361.02 48.472 
L 361.02 135.54075 
Q 361.02 137.54075 363.02 137.54075 
z
" style="fill:#ffffff;opacity:0.8;stroke:#cccccc;stroke-linejoin:miter;"/>
    </g>
    <g id="line2d_18">
     <path d="M 365.02 54.570438 
L 385.02 54.570438 
" style="fill:none;stroke:#1f77b4;stroke-linecap:square;stroke-width:1.5;"/>
    </g>
    <g id="line2d_19"/>
    <g id="text_13">
     <!-- x0 -->
     <g transform="translate(393.02 58.070438)scale(0.1 -0.1)">
      <defs>
       <path d="M 3513 3500 
L 2247 1797 
L 3578 0 
L 2900 0 
L 1881 1375 
L 863 0 
L 184 0 
L 1544 1831 
L 300 3500 
L 978 3500 
L 1906 2253 
L 2834 3500 
L 3513 3500 
z
" id="DejaVuSans-78" transform="scale(0.015625)"/>
      </defs>
      <use xlink:href="#DejaVuSans-78"/>
      <use x="59.179688" xlink:href="#DejaVuSans-30"/>
     </g>
    </g>
    <g id="line2d_20">
     <path d="M 365.02 69.248563 
L 385.02 69.248563 
" style="fill:none;stroke:#ff7f0e;stroke-linecap:square;stroke-width:1.5;"/>
    </g>
    <g id="line2d_21"/>
    <g id="text_14">
     <!-- x1 -->
     <g transform="translate(393.02 72.748563)scale(0.1 -0.1)">
      <use xlink:href="#DejaVuSans-78"/>
      <use x="59.179688" xlink:href="#DejaVuSans-31"/>
     </g>
    </g>
    <g id="line2d_22">
     <path d="M 365.02 83.926688 
L 385.02 83.926688 
" style="fill:none;stroke:#2ca02c;stroke-linecap:square;stroke-width:1.5;"/>
    </g>
    <g id="line2d_23"/>
    <g id="text_15">
     <!-- x2 -->
     <g transform="translate(393.02 87.426688)scale(0.1 -0.1)">
      <use xlink:href="#DejaVuSans-78"/>
      <use x="59.179688" xlink:href="#DejaVuSans-32"/>
     </g>
    </g>
    <g id="line2d_24">
     <path d="M 365.02 98.604813 
L 385.02 98.604813 
" style="fill:none;stroke:#d62728;stroke-linecap:square;stroke-width:1.5;"/>
    </g>
    <g id="line2d_25"/>
    <g id="text_16">
     <!-- x3 -->
     <g transform="translate(393.02 102.104813)scale(0.1 -0.1)">
      <use xlink:href="#DejaVuSans-78"/>
      <use x="59.179688" xlink:href="#DejaVuSans-33"/>
     </g>
    </g>
    <g id="line2d_26">
     <path d="M 365.02 113.282938 
L 385.02 113.282938 
" style="fill:none;stroke:#9467bd;stroke-linecap:square;stroke-width:1.5;"/>
    </g>
    <g id="line2d_27"/>
    <g id="text_17">
     <!-- u0 -->
     <g transform="translate(393.02 116.782938)scale(0.1 -0.1)">
      <defs>
       <path d="M 544 1381 
L 544 3500 
L 1119 3500 
L 1119 1403 
Q 1119 906 1312 657 
Q 1506 409 1894 409 
Q 2359 409 2629 706 
Q 2900 1003 2900 1516 
L 2900 3500 
L 3475 3500 
L 3475 0 
L 2900 0 
L 2900 538 
Q 2691 219 2414 64 
Q 2138 -91 1772 -91 
Q 1169 -91 856 284 
Q 544 659 544 1381 
z
M 1991 3584 
L 1991 3584 
z
" id="DejaVuSans-75" transform="scale(0.015625)"/>
      </defs>
      <use xlink:href="#DejaVuSans-75"/>
      <use x="63.378906" xlink:href="#DejaVuSans-30"/>
     </g>
    </g>
    <g id="line2d_28">
     <path d="M 365.02 127.961063 
L 385.02 127.961063 
" style="fill:none;stroke:#8c564b;stroke-linecap:square;stroke-width:1.5;"/>
    </g>
    <g id="line2d_29"/>
    <g id="text_18">
     <!-- u1 -->
     <g transform="translate(393.02 131.461063)scale(0.1 -0.1)">
      <use xlink:href="#DejaVuSans-75"/>
      <use x="63.378906" xlink:href="#DejaVuSans-31"/>
     </g>
    </g>
   </g>
  </g>
 </g>
 <defs>
  <clipPath id="p47ff45ebcb">
   <rect height="266.112" width="357.12" x="57.6" y="41.472"/>
  </clipPath>
 </defs>
</svg>
