<?xml version="1.0" encoding="utf-8" standalone="no"?>
<!DOCTYPE svg PUBLIC "-//W3C//DTD SVG 1.1//EN"
  "http://www.w3.org/Graphics/SVG/1.1/DTD/svg11.dtd">
<svg height="720pt" version="1.1" viewBox="0 0 360 720" width="360pt" xmlns="http://www.w3.org/2000/svg" xmlns:xlink="http://www.w3.org/1999/xlink">
 <metadata>
  <rdf:RDF xmlns:cc="http://creativecommons.org/ns#" xmlns:dc="http://purl.org/dc/elements/1.1/" xmlns:rdf="http://www.w3.org/1999/02/22-rdf-syntax-ns#">
   <cc:Work>
    <dc:type rdf:resource="http://purl.org/dc/dcmitype/StillImage"/>
    <dc:date>2021-08-20T01:34:19.392161</dc:date>
    <dc:format>image/svg+xml</dc:format>
    <dc:creator>
     <cc:Agent>
      <dc:title>Matplotlib v3.4.2, https://matplotlib.org/</dc:title>
     </cc:Agent>
    </dc:creator>
   </cc:Work>
  </rdf:RDF>
 </metadata>
 <defs>
  <style type="text/css">*{stroke-linecap:butt;stroke-linejoin:round;}</style>
 </defs>
 <g id="figure_1">
  <g id="patch_1">
   <path d="M 0 720 
L 360 720 
L 360 0 
L 0 0 
z
" style="fill:#ffffff;"/>
  </g>
  <g id="axes_1">
   <g id="patch_2">
    <path d="M 29.08774 236.46333 
L 356.99976 236.46333 
L 356.99976 34.051845 
L 29.08774 34.051845 
z
" style="fill:#ffffff;"/>
   </g>
   <g id="matplotlib.axis_1">
    <g id="xtick_1">
     <g id="line2d_1">
      <defs>
       <path d="M 0 0 
L 0 3.5 
" id="ma7133b9561" style="stroke:#000000;stroke-width:0.8;"/>
      </defs>
      <g>
       <use style="stroke:#000000;stroke-width:0.8;" x="43.992832" xlink:href="#ma7133b9561" y="236.46333"/>
      </g>
     </g>
     <g id="text_1">
      <!-- 0.00 -->
      <g transform="translate(32.860019 251.061768)scale(0.1 -0.1)">
       <defs>
        <path d="M 2034 4250 
Q 1547 4250 1301 3770 
Q 1056 3291 1056 2328 
Q 1056 1369 1301 889 
Q 1547 409 2034 409 
Q 2525 409 2770 889 
Q 3016 1369 3016 2328 
Q 3016 3291 2770 3770 
Q 2525 4250 2034 4250 
z
M 2034 4750 
Q 2819 4750 3233 4129 
Q 3647 3509 3647 2328 
Q 3647 1150 3233 529 
Q 2819 -91 2034 -91 
Q 1250 -91 836 529 
Q 422 1150 422 2328 
Q 422 3509 836 4129 
Q 1250 4750 2034 4750 
z
" id="DejaVuSans-30" transform="scale(0.015625)"/>
        <path d="M 684 794 
L 1344 794 
L 1344 0 
L 684 0 
L 684 794 
z
" id="DejaVuSans-2e" transform="scale(0.015625)"/>
       </defs>
       <use xlink:href="#DejaVuSans-30"/>
       <use x="63.623047" xlink:href="#DejaVuSans-2e"/>
       <use x="95.410156" xlink:href="#DejaVuSans-30"/>
       <use x="159.033203" xlink:href="#DejaVuSans-30"/>
      </g>
     </g>
    </g>
    <g id="xtick_2">
     <g id="line2d_2">
      <g>
       <use style="stroke:#000000;stroke-width:0.8;" x="81.255561" xlink:href="#ma7133b9561" y="236.46333"/>
      </g>
     </g>
     <g id="text_2">
      <!-- 0.25 -->
      <g transform="translate(70.122749 251.061768)scale(0.1 -0.1)">
       <defs>
        <path d="M 1228 531 
L 3431 531 
L 3431 0 
L 469 0 
L 469 531 
Q 828 903 1448 1529 
Q 2069 2156 2228 2338 
Q 2531 2678 2651 2914 
Q 2772 3150 2772 3378 
Q 2772 3750 2511 3984 
Q 2250 4219 1831 4219 
Q 1534 4219 1204 4116 
Q 875 4013 500 3803 
L 500 4441 
Q 881 4594 1212 4672 
Q 1544 4750 1819 4750 
Q 2544 4750 2975 4387 
Q 3406 4025 3406 3419 
Q 3406 3131 3298 2873 
Q 3191 2616 2906 2266 
Q 2828 2175 2409 1742 
Q 1991 1309 1228 531 
z
" id="DejaVuSans-32" transform="scale(0.015625)"/>
        <path d="M 691 4666 
L 3169 4666 
L 3169 4134 
L 1269 4134 
L 1269 2991 
Q 1406 3038 1543 3061 
Q 1681 3084 1819 3084 
Q 2600 3084 3056 2656 
Q 3513 2228 3513 1497 
Q 3513 744 3044 326 
Q 2575 -91 1722 -91 
Q 1428 -91 1123 -41 
Q 819 9 494 109 
L 494 744 
Q 775 591 1075 516 
Q 1375 441 1709 441 
Q 2250 441 2565 725 
Q 2881 1009 2881 1497 
Q 2881 1984 2565 2268 
Q 2250 2553 1709 2553 
Q 1456 2553 1204 2497 
Q 953 2441 691 2322 
L 691 4666 
z
" id="DejaVuSans-35" transform="scale(0.015625)"/>
       </defs>
       <use xlink:href="#DejaVuSans-30"/>
       <use x="63.623047" xlink:href="#DejaVuSans-2e"/>
       <use x="95.410156" xlink:href="#DejaVuSans-32"/>
       <use x="159.033203" xlink:href="#DejaVuSans-35"/>
      </g>
     </g>
    </g>
    <g id="xtick_3">
     <g id="line2d_3">
      <g>
       <use style="stroke:#000000;stroke-width:0.8;" x="118.518291" xlink:href="#ma7133b9561" y="236.46333"/>
      </g>
     </g>
     <g id="text_3">
      <!-- 0.50 -->
      <g transform="translate(107.385478 251.061768)scale(0.1 -0.1)">
       <use xlink:href="#DejaVuSans-30"/>
       <use x="63.623047" xlink:href="#DejaVuSans-2e"/>
       <use x="95.410156" xlink:href="#DejaVuSans-35"/>
       <use x="159.033203" xlink:href="#DejaVuSans-30"/>
      </g>
     </g>
    </g>
    <g id="xtick_4">
     <g id="line2d_4">
      <g>
       <use style="stroke:#000000;stroke-width:0.8;" x="155.78102" xlink:href="#ma7133b9561" y="236.46333"/>
      </g>
     </g>
     <g id="text_4">
      <!-- 0.75 -->
      <g transform="translate(144.648208 251.061768)scale(0.1 -0.1)">
       <defs>
        <path d="M 525 4666 
L 3525 4666 
L 3525 4397 
L 1831 0 
L 1172 0 
L 2766 4134 
L 525 4134 
L 525 4666 
z
" id="DejaVuSans-37" transform="scale(0.015625)"/>
       </defs>
       <use xlink:href="#DejaVuSans-30"/>
       <use x="63.623047" xlink:href="#DejaVuSans-2e"/>
       <use x="95.410156" xlink:href="#DejaVuSans-37"/>
       <use x="159.033203" xlink:href="#DejaVuSans-35"/>
      </g>
     </g>
    </g>
    <g id="xtick_5">
     <g id="line2d_5">
      <g>
       <use style="stroke:#000000;stroke-width:0.8;" x="193.04375" xlink:href="#ma7133b9561" y="236.46333"/>
      </g>
     </g>
     <g id="text_5">
      <!-- 1.00 -->
      <g transform="translate(181.910937 251.061768)scale(0.1 -0.1)">
       <defs>
        <path d="M 794 531 
L 1825 531 
L 1825 4091 
L 703 3866 
L 703 4441 
L 1819 4666 
L 2450 4666 
L 2450 531 
L 3481 531 
L 3481 0 
L 794 0 
L 794 531 
z
" id="DejaVuSans-31" transform="scale(0.015625)"/>
       </defs>
       <use xlink:href="#DejaVuSans-31"/>
       <use x="63.623047" xlink:href="#DejaVuSans-2e"/>
       <use x="95.410156" xlink:href="#DejaVuSans-30"/>
       <use x="159.033203" xlink:href="#DejaVuSans-30"/>
      </g>
     </g>
    </g>
    <g id="xtick_6">
     <g id="line2d_6">
      <g>
       <use style="stroke:#000000;stroke-width:0.8;" x="230.30648" xlink:href="#ma7133b9561" y="236.46333"/>
      </g>
     </g>
     <g id="text_6">
      <!-- 1.25 -->
      <g transform="translate(219.173667 251.061768)scale(0.1 -0.1)">
       <use xlink:href="#DejaVuSans-31"/>
       <use x="63.623047" xlink:href="#DejaVuSans-2e"/>
       <use x="95.410156" xlink:href="#DejaVuSans-32"/>
       <use x="159.033203" xlink:href="#DejaVuSans-35"/>
      </g>
     </g>
    </g>
    <g id="xtick_7">
     <g id="line2d_7">
      <g>
       <use style="stroke:#000000;stroke-width:0.8;" x="267.569209" xlink:href="#ma7133b9561" y="236.46333"/>
      </g>
     </g>
     <g id="text_7">
      <!-- 1.50 -->
      <g transform="translate(256.436397 251.061768)scale(0.1 -0.1)">
       <use xlink:href="#DejaVuSans-31"/>
       <use x="63.623047" xlink:href="#DejaVuSans-2e"/>
       <use x="95.410156" xlink:href="#DejaVuSans-35"/>
       <use x="159.033203" xlink:href="#DejaVuSans-30"/>
      </g>
     </g>
    </g>
    <g id="xtick_8">
     <g id="line2d_8">
      <g>
       <use style="stroke:#000000;stroke-width:0.8;" x="304.831939" xlink:href="#ma7133b9561" y="236.46333"/>
      </g>
     </g>
     <g id="text_8">
      <!-- 1.75 -->
      <g transform="translate(293.699126 251.061768)scale(0.1 -0.1)">
       <use xlink:href="#DejaVuSans-31"/>
       <use x="63.623047" xlink:href="#DejaVuSans-2e"/>
       <use x="95.410156" xlink:href="#DejaVuSans-37"/>
       <use x="159.033203" xlink:href="#DejaVuSans-35"/>
      </g>
     </g>
    </g>
    <g id="xtick_9">
     <g id="line2d_9">
      <g>
       <use style="stroke:#000000;stroke-width:0.8;" x="342.094668" xlink:href="#ma7133b9561" y="236.46333"/>
      </g>
     </g>
     <g id="text_9">
      <!-- 2.00 -->
      <g transform="translate(330.961856 251.061768)scale(0.1 -0.1)">
       <use xlink:href="#DejaVuSans-32"/>
       <use x="63.623047" xlink:href="#DejaVuSans-2e"/>
       <use x="95.410156" xlink:href="#DejaVuSans-30"/>
       <use x="159.033203" xlink:href="#DejaVuSans-30"/>
      </g>
     </g>
    </g>
   </g>
   <g id="matplotlib.axis_2">
    <g id="ytick_1">
     <g id="line2d_10">
      <defs>
       <path d="M 0 0 
L -3.5 0 
" id="m5558875310" style="stroke:#000000;stroke-width:0.8;"/>
      </defs>
      <g>
       <use style="stroke:#000000;stroke-width:0.8;" x="29.08774" xlink:href="#m5558875310" y="236.46333"/>
      </g>
     </g>
     <g id="text_10">
      <!-- 270 -->
      <g transform="translate(3.00024 240.262549)scale(0.1 -0.1)">
       <use xlink:href="#DejaVuSans-32"/>
       <use x="63.623047" xlink:href="#DejaVuSans-37"/>
       <use x="127.246094" xlink:href="#DejaVuSans-30"/>
      </g>
     </g>
    </g>
    <g id="ytick_2">
     <g id="line2d_11">
      <g>
       <use style="stroke:#000000;stroke-width:0.8;" x="29.08774" xlink:href="#m5558875310" y="205.794923"/>
      </g>
     </g>
     <g id="text_11">
      <!-- 280 -->
      <g transform="translate(3.00024 209.594142)scale(0.1 -0.1)">
       <defs>
        <path d="M 2034 2216 
Q 1584 2216 1326 1975 
Q 1069 1734 1069 1313 
Q 1069 891 1326 650 
Q 1584 409 2034 409 
Q 2484 409 2743 651 
Q 3003 894 3003 1313 
Q 3003 1734 2745 1975 
Q 2488 2216 2034 2216 
z
M 1403 2484 
Q 997 2584 770 2862 
Q 544 3141 544 3541 
Q 544 4100 942 4425 
Q 1341 4750 2034 4750 
Q 2731 4750 3128 4425 
Q 3525 4100 3525 3541 
Q 3525 3141 3298 2862 
Q 3072 2584 2669 2484 
Q 3125 2378 3379 2068 
Q 3634 1759 3634 1313 
Q 3634 634 3220 271 
Q 2806 -91 2034 -91 
Q 1263 -91 848 271 
Q 434 634 434 1313 
Q 434 1759 690 2068 
Q 947 2378 1403 2484 
z
M 1172 3481 
Q 1172 3119 1398 2916 
Q 1625 2713 2034 2713 
Q 2441 2713 2670 2916 
Q 2900 3119 2900 3481 
Q 2900 3844 2670 4047 
Q 2441 4250 2034 4250 
Q 1625 4250 1398 4047 
Q 1172 3844 1172 3481 
z
" id="DejaVuSans-38" transform="scale(0.015625)"/>
       </defs>
       <use xlink:href="#DejaVuSans-32"/>
       <use x="63.623047" xlink:href="#DejaVuSans-38"/>
       <use x="127.246094" xlink:href="#DejaVuSans-30"/>
      </g>
     </g>
    </g>
    <g id="ytick_3">
     <g id="line2d_12">
      <g>
       <use style="stroke:#000000;stroke-width:0.8;" x="29.08774" xlink:href="#m5558875310" y="175.126516"/>
      </g>
     </g>
     <g id="text_12">
      <!-- 290 -->
      <g transform="translate(3.00024 178.925735)scale(0.1 -0.1)">
       <defs>
        <path d="M 703 97 
L 703 672 
Q 941 559 1184 500 
Q 1428 441 1663 441 
Q 2288 441 2617 861 
Q 2947 1281 2994 2138 
Q 2813 1869 2534 1725 
Q 2256 1581 1919 1581 
Q 1219 1581 811 2004 
Q 403 2428 403 3163 
Q 403 3881 828 4315 
Q 1253 4750 1959 4750 
Q 2769 4750 3195 4129 
Q 3622 3509 3622 2328 
Q 3622 1225 3098 567 
Q 2575 -91 1691 -91 
Q 1453 -91 1209 -44 
Q 966 3 703 97 
z
M 1959 2075 
Q 2384 2075 2632 2365 
Q 2881 2656 2881 3163 
Q 2881 3666 2632 3958 
Q 2384 4250 1959 4250 
Q 1534 4250 1286 3958 
Q 1038 3666 1038 3163 
Q 1038 2656 1286 2365 
Q 1534 2075 1959 2075 
z
" id="DejaVuSans-39" transform="scale(0.015625)"/>
       </defs>
       <use xlink:href="#DejaVuSans-32"/>
       <use x="63.623047" xlink:href="#DejaVuSans-39"/>
       <use x="127.246094" xlink:href="#DejaVuSans-30"/>
      </g>
     </g>
    </g>
    <g id="ytick_4">
     <g id="line2d_13">
      <g>
       <use style="stroke:#000000;stroke-width:0.8;" x="29.08774" xlink:href="#m5558875310" y="144.45811"/>
      </g>
     </g>
     <g id="text_13">
      <!-- 300 -->
      <g transform="translate(3.00024 148.257328)scale(0.1 -0.1)">
       <defs>
        <path d="M 2597 2516 
Q 3050 2419 3304 2112 
Q 3559 1806 3559 1356 
Q 3559 666 3084 287 
Q 2609 -91 1734 -91 
Q 1441 -91 1130 -33 
Q 819 25 488 141 
L 488 750 
Q 750 597 1062 519 
Q 1375 441 1716 441 
Q 2309 441 2620 675 
Q 2931 909 2931 1356 
Q 2931 1769 2642 2001 
Q 2353 2234 1838 2234 
L 1294 2234 
L 1294 2753 
L 1863 2753 
Q 2328 2753 2575 2939 
Q 2822 3125 2822 3475 
Q 2822 3834 2567 4026 
Q 2313 4219 1838 4219 
Q 1578 4219 1281 4162 
Q 984 4106 628 3988 
L 628 4550 
Q 988 4650 1302 4700 
Q 1616 4750 1894 4750 
Q 2613 4750 3031 4423 
Q 3450 4097 3450 3541 
Q 3450 3153 3228 2886 
Q 3006 2619 2597 2516 
z
" id="DejaVuSans-33" transform="scale(0.015625)"/>
       </defs>
       <use xlink:href="#DejaVuSans-33"/>
       <use x="63.623047" xlink:href="#DejaVuSans-30"/>
       <use x="127.246094" xlink:href="#DejaVuSans-30"/>
      </g>
     </g>
    </g>
    <g id="ytick_5">
     <g id="line2d_14">
      <g>
       <use style="stroke:#000000;stroke-width:0.8;" x="29.08774" xlink:href="#m5558875310" y="113.789703"/>
      </g>
     </g>
     <g id="text_14">
      <!-- 310 -->
      <g transform="translate(3.00024 117.588921)scale(0.1 -0.1)">
       <use xlink:href="#DejaVuSans-33"/>
       <use x="63.623047" xlink:href="#DejaVuSans-31"/>
       <use x="127.246094" xlink:href="#DejaVuSans-30"/>
      </g>
     </g>
    </g>
    <g id="ytick_6">
     <g id="line2d_15">
      <g>
       <use style="stroke:#000000;stroke-width:0.8;" x="29.08774" xlink:href="#m5558875310" y="83.121296"/>
      </g>
     </g>
     <g id="text_15">
      <!-- 320 -->
      <g transform="translate(3.00024 86.920515)scale(0.1 -0.1)">
       <use xlink:href="#DejaVuSans-33"/>
       <use x="63.623047" xlink:href="#DejaVuSans-32"/>
       <use x="127.246094" xlink:href="#DejaVuSans-30"/>
      </g>
     </g>
    </g>
    <g id="ytick_7">
     <g id="line2d_16">
      <g>
       <use style="stroke:#000000;stroke-width:0.8;" x="29.08774" xlink:href="#m5558875310" y="52.452889"/>
      </g>
     </g>
     <g id="text_16">
      <!-- 330 -->
      <g transform="translate(3.00024 56.252108)scale(0.1 -0.1)">
       <use xlink:href="#DejaVuSans-33"/>
       <use x="63.623047" xlink:href="#DejaVuSans-33"/>
       <use x="127.246094" xlink:href="#DejaVuSans-30"/>
      </g>
     </g>
    </g>
   </g>
   <g id="line2d_17">
    <path clip-path="url(#p8870205f48)" d="M 43.992832 227.262808 
L 58.897924 195.392813 
L 73.803015 158.56803 
L 88.708107 145.715821 
L 103.613199 132.279072 
L 118.518291 131.274682 
L 133.423383 133.263528 
L 148.328475 137.652177 
L 163.233566 138.608418 
L 178.138658 140.203788 
L 193.04375 140.250711 
L 207.948842 140.629772 
L 222.853934 140.502192 
L 237.759025 140.793848 
L 252.664117 140.58377 
L 267.569209 140.94627 
L 282.474301 141.112493 
L 297.379393 142.031319 
L 312.284485 141.682005 
L 327.189576 141.174443 
L 342.094668 142.030092 
" style="fill:none;stroke:#1f77b4;stroke-linecap:square;stroke-width:1.5;"/>
   </g>
   <g id="line2d_18">
    <path clip-path="url(#p8870205f48)" d="M 43.992832 165.925994 
L 58.897924 162.705812 
L 73.803015 159.178945 
L 88.708107 155.345394 
L 103.613199 151.205159 
L 118.518291 146.75824 
L 133.423383 142.004637 
L 148.328475 136.94435 
L 163.233566 131.577379 
L 178.138658 125.903723 
L 193.04375 119.923384 
L 207.948842 113.636361 
L 222.853934 107.042653 
L 237.759025 100.142262 
L 252.664117 92.935186 
L 267.569209 85.421426 
L 282.474301 77.600983 
L 297.379393 69.473855 
L 312.284485 61.040043 
L 327.189576 52.299547 
L 342.094668 43.252367 
" style="fill:none;stroke:#ff7f0e;stroke-linecap:square;stroke-width:1.5;"/>
   </g>
   <g id="line2d_19">
    <path clip-path="url(#p8870205f48)" d="M 43.992832 135.257588 
L 58.897924 135.257588 
L 73.803015 135.257588 
L 88.708107 135.257588 
L 103.613199 135.257588 
L 118.518291 135.257588 
L 133.423383 135.257588 
L 148.328475 135.257588 
L 163.233566 135.257588 
L 178.138658 135.257588 
L 193.04375 135.257588 
L 207.948842 135.257588 
L 222.853934 135.257588 
L 237.759025 135.257588 
L 252.664117 135.257588 
L 267.569209 135.257588 
L 282.474301 135.257588 
L 297.379393 135.257588 
L 312.284485 135.257588 
L 327.189576 135.257588 
L 342.094668 135.257588 
" style="fill:none;stroke:#2ca02c;stroke-dasharray:5.55,2.4;stroke-dashoffset:0;stroke-width:1.5;"/>
   </g>
   <g id="patch_3">
    <path d="M 29.08774 236.46333 
L 29.08774 34.051845 
" style="fill:none;stroke:#000000;stroke-linecap:square;stroke-linejoin:miter;stroke-width:0.8;"/>
   </g>
   <g id="patch_4">
    <path d="M 356.99976 236.46333 
L 356.99976 34.051845 
" style="fill:none;stroke:#000000;stroke-linecap:square;stroke-linejoin:miter;stroke-width:0.8;"/>
   </g>
   <g id="patch_5">
    <path d="M 29.08774 236.46333 
L 356.99976 236.46333 
" style="fill:none;stroke:#000000;stroke-linecap:square;stroke-linejoin:miter;stroke-width:0.8;"/>
   </g>
   <g id="patch_6">
    <path d="M 29.08774 34.051845 
L 356.99976 34.051845 
" style="fill:none;stroke:#000000;stroke-linecap:square;stroke-linejoin:miter;stroke-width:0.8;"/>
   </g>
   <g id="legend_1">
    <g id="patch_7">
     <path d="M 36.08774 86.108095 
L 174.88774 86.108095 
Q 176.88774 86.108095 176.88774 84.108095 
L 176.88774 41.051845 
Q 176.88774 39.051845 174.88774 39.051845 
L 36.08774 39.051845 
Q 34.08774 39.051845 34.08774 41.051845 
L 34.08774 84.108095 
Q 34.08774 86.108095 36.08774 86.108095 
z
" style="fill:#ffffff;opacity:0.8;stroke:#cccccc;stroke-linejoin:miter;"/>
    </g>
    <g id="line2d_20">
     <path d="M 38.08774 47.150283 
L 58.08774 47.150283 
" style="fill:none;stroke:#1f77b4;stroke-linecap:square;stroke-width:1.5;"/>
    </g>
    <g id="line2d_21"/>
    <g id="text_17">
     <!-- $x_5$ -->
     <g transform="translate(66.08774 50.650283)scale(0.1 -0.1)">
      <defs>
       <path d="M 3841 3500 
L 2234 1784 
L 3219 0 
L 2559 0 
L 1819 1388 
L 531 0 
L -166 0 
L 1556 1844 
L 641 3500 
L 1300 3500 
L 1972 2234 
L 3144 3500 
L 3841 3500 
z
" id="DejaVuSans-Oblique-78" transform="scale(0.015625)"/>
      </defs>
      <use transform="translate(0 0.3125)" xlink:href="#DejaVuSans-Oblique-78"/>
      <use transform="translate(59.179688 -16.09375)scale(0.7)" xlink:href="#DejaVuSans-35"/>
     </g>
    </g>
    <g id="line2d_22">
     <path d="M 38.08774 61.828408 
L 58.08774 61.828408 
" style="fill:none;stroke:#ff7f0e;stroke-linecap:square;stroke-width:1.5;"/>
    </g>
    <g id="line2d_23"/>
    <g id="text_18">
     <!-- Path constraint for $x_5$ -->
     <g transform="translate(66.08774 65.328408)scale(0.1 -0.1)">
      <defs>
       <path d="M 1259 4147 
L 1259 2394 
L 2053 2394 
Q 2494 2394 2734 2622 
Q 2975 2850 2975 3272 
Q 2975 3691 2734 3919 
Q 2494 4147 2053 4147 
L 1259 4147 
z
M 628 4666 
L 2053 4666 
Q 2838 4666 3239 4311 
Q 3641 3956 3641 3272 
Q 3641 2581 3239 2228 
Q 2838 1875 2053 1875 
L 1259 1875 
L 1259 0 
L 628 0 
L 628 4666 
z
" id="DejaVuSans-50" transform="scale(0.015625)"/>
       <path d="M 2194 1759 
Q 1497 1759 1228 1600 
Q 959 1441 959 1056 
Q 959 750 1161 570 
Q 1363 391 1709 391 
Q 2188 391 2477 730 
Q 2766 1069 2766 1631 
L 2766 1759 
L 2194 1759 
z
M 3341 1997 
L 3341 0 
L 2766 0 
L 2766 531 
Q 2569 213 2275 61 
Q 1981 -91 1556 -91 
Q 1019 -91 701 211 
Q 384 513 384 1019 
Q 384 1609 779 1909 
Q 1175 2209 1959 2209 
L 2766 2209 
L 2766 2266 
Q 2766 2663 2505 2880 
Q 2244 3097 1772 3097 
Q 1472 3097 1187 3025 
Q 903 2953 641 2809 
L 641 3341 
Q 956 3463 1253 3523 
Q 1550 3584 1831 3584 
Q 2591 3584 2966 3190 
Q 3341 2797 3341 1997 
z
" id="DejaVuSans-61" transform="scale(0.015625)"/>
       <path d="M 1172 4494 
L 1172 3500 
L 2356 3500 
L 2356 3053 
L 1172 3053 
L 1172 1153 
Q 1172 725 1289 603 
Q 1406 481 1766 481 
L 2356 481 
L 2356 0 
L 1766 0 
Q 1100 0 847 248 
Q 594 497 594 1153 
L 594 3053 
L 172 3053 
L 172 3500 
L 594 3500 
L 594 4494 
L 1172 4494 
z
" id="DejaVuSans-74" transform="scale(0.015625)"/>
       <path d="M 3513 2113 
L 3513 0 
L 2938 0 
L 2938 2094 
Q 2938 2591 2744 2837 
Q 2550 3084 2163 3084 
Q 1697 3084 1428 2787 
Q 1159 2491 1159 1978 
L 1159 0 
L 581 0 
L 581 4863 
L 1159 4863 
L 1159 2956 
Q 1366 3272 1645 3428 
Q 1925 3584 2291 3584 
Q 2894 3584 3203 3211 
Q 3513 2838 3513 2113 
z
" id="DejaVuSans-68" transform="scale(0.015625)"/>
       <path id="DejaVuSans-20" transform="scale(0.015625)"/>
       <path d="M 3122 3366 
L 3122 2828 
Q 2878 2963 2633 3030 
Q 2388 3097 2138 3097 
Q 1578 3097 1268 2742 
Q 959 2388 959 1747 
Q 959 1106 1268 751 
Q 1578 397 2138 397 
Q 2388 397 2633 464 
Q 2878 531 3122 666 
L 3122 134 
Q 2881 22 2623 -34 
Q 2366 -91 2075 -91 
Q 1284 -91 818 406 
Q 353 903 353 1747 
Q 353 2603 823 3093 
Q 1294 3584 2113 3584 
Q 2378 3584 2631 3529 
Q 2884 3475 3122 3366 
z
" id="DejaVuSans-63" transform="scale(0.015625)"/>
       <path d="M 1959 3097 
Q 1497 3097 1228 2736 
Q 959 2375 959 1747 
Q 959 1119 1226 758 
Q 1494 397 1959 397 
Q 2419 397 2687 759 
Q 2956 1122 2956 1747 
Q 2956 2369 2687 2733 
Q 2419 3097 1959 3097 
z
M 1959 3584 
Q 2709 3584 3137 3096 
Q 3566 2609 3566 1747 
Q 3566 888 3137 398 
Q 2709 -91 1959 -91 
Q 1206 -91 779 398 
Q 353 888 353 1747 
Q 353 2609 779 3096 
Q 1206 3584 1959 3584 
z
" id="DejaVuSans-6f" transform="scale(0.015625)"/>
       <path d="M 3513 2113 
L 3513 0 
L 2938 0 
L 2938 2094 
Q 2938 2591 2744 2837 
Q 2550 3084 2163 3084 
Q 1697 3084 1428 2787 
Q 1159 2491 1159 1978 
L 1159 0 
L 581 0 
L 581 3500 
L 1159 3500 
L 1159 2956 
Q 1366 3272 1645 3428 
Q 1925 3584 2291 3584 
Q 2894 3584 3203 3211 
Q 3513 2838 3513 2113 
z
" id="DejaVuSans-6e" transform="scale(0.015625)"/>
       <path d="M 2834 3397 
L 2834 2853 
Q 2591 2978 2328 3040 
Q 2066 3103 1784 3103 
Q 1356 3103 1142 2972 
Q 928 2841 928 2578 
Q 928 2378 1081 2264 
Q 1234 2150 1697 2047 
L 1894 2003 
Q 2506 1872 2764 1633 
Q 3022 1394 3022 966 
Q 3022 478 2636 193 
Q 2250 -91 1575 -91 
Q 1294 -91 989 -36 
Q 684 19 347 128 
L 347 722 
Q 666 556 975 473 
Q 1284 391 1588 391 
Q 1994 391 2212 530 
Q 2431 669 2431 922 
Q 2431 1156 2273 1281 
Q 2116 1406 1581 1522 
L 1381 1569 
Q 847 1681 609 1914 
Q 372 2147 372 2553 
Q 372 3047 722 3315 
Q 1072 3584 1716 3584 
Q 2034 3584 2315 3537 
Q 2597 3491 2834 3397 
z
" id="DejaVuSans-73" transform="scale(0.015625)"/>
       <path d="M 2631 2963 
Q 2534 3019 2420 3045 
Q 2306 3072 2169 3072 
Q 1681 3072 1420 2755 
Q 1159 2438 1159 1844 
L 1159 0 
L 581 0 
L 581 3500 
L 1159 3500 
L 1159 2956 
Q 1341 3275 1631 3429 
Q 1922 3584 2338 3584 
Q 2397 3584 2469 3576 
Q 2541 3569 2628 3553 
L 2631 2963 
z
" id="DejaVuSans-72" transform="scale(0.015625)"/>
       <path d="M 603 3500 
L 1178 3500 
L 1178 0 
L 603 0 
L 603 3500 
z
M 603 4863 
L 1178 4863 
L 1178 4134 
L 603 4134 
L 603 4863 
z
" id="DejaVuSans-69" transform="scale(0.015625)"/>
       <path d="M 2375 4863 
L 2375 4384 
L 1825 4384 
Q 1516 4384 1395 4259 
Q 1275 4134 1275 3809 
L 1275 3500 
L 2222 3500 
L 2222 3053 
L 1275 3053 
L 1275 0 
L 697 0 
L 697 3053 
L 147 3053 
L 147 3500 
L 697 3500 
L 697 3744 
Q 697 4328 969 4595 
Q 1241 4863 1831 4863 
L 2375 4863 
z
" id="DejaVuSans-66" transform="scale(0.015625)"/>
      </defs>
      <use transform="translate(0 0.015625)" xlink:href="#DejaVuSans-50"/>
      <use transform="translate(60.302734 0.015625)" xlink:href="#DejaVuSans-61"/>
      <use transform="translate(121.582031 0.015625)" xlink:href="#DejaVuSans-74"/>
      <use transform="translate(160.791016 0.015625)" xlink:href="#DejaVuSans-68"/>
      <use transform="translate(224.169922 0.015625)" xlink:href="#DejaVuSans-20"/>
      <use transform="translate(255.957031 0.015625)" xlink:href="#DejaVuSans-63"/>
      <use transform="translate(310.9375 0.015625)" xlink:href="#DejaVuSans-6f"/>
      <use transform="translate(372.119141 0.015625)" xlink:href="#DejaVuSans-6e"/>
      <use transform="translate(435.498047 0.015625)" xlink:href="#DejaVuSans-73"/>
      <use transform="translate(487.597656 0.015625)" xlink:href="#DejaVuSans-74"/>
      <use transform="translate(526.806641 0.015625)" xlink:href="#DejaVuSans-72"/>
      <use transform="translate(567.919922 0.015625)" xlink:href="#DejaVuSans-61"/>
      <use transform="translate(629.199219 0.015625)" xlink:href="#DejaVuSans-69"/>
      <use transform="translate(656.982422 0.015625)" xlink:href="#DejaVuSans-6e"/>
      <use transform="translate(720.361328 0.015625)" xlink:href="#DejaVuSans-74"/>
      <use transform="translate(759.570312 0.015625)" xlink:href="#DejaVuSans-20"/>
      <use transform="translate(791.357422 0.015625)" xlink:href="#DejaVuSans-66"/>
      <use transform="translate(826.5625 0.015625)" xlink:href="#DejaVuSans-6f"/>
      <use transform="translate(887.744141 0.015625)" xlink:href="#DejaVuSans-72"/>
      <use transform="translate(928.857422 0.015625)" xlink:href="#DejaVuSans-20"/>
      <use transform="translate(960.644531 0.015625)" xlink:href="#DejaVuSans-Oblique-78"/>
      <use transform="translate(1019.824219 -16.390625)scale(0.7)" xlink:href="#DejaVuSans-35"/>
     </g>
    </g>
    <g id="line2d_24">
     <path d="M 38.08774 76.508095 
L 58.08774 76.508095 
" style="fill:none;stroke:#2ca02c;stroke-dasharray:5.55,2.4;stroke-dashoffset:0;stroke-width:1.5;"/>
    </g>
    <g id="line2d_25"/>
    <g id="text_19">
     <!-- Setpoint for $x_5$ -->
     <g transform="translate(66.08774 80.008095)scale(0.1 -0.1)">
      <defs>
       <path d="M 3425 4513 
L 3425 3897 
Q 3066 4069 2747 4153 
Q 2428 4238 2131 4238 
Q 1616 4238 1336 4038 
Q 1056 3838 1056 3469 
Q 1056 3159 1242 3001 
Q 1428 2844 1947 2747 
L 2328 2669 
Q 3034 2534 3370 2195 
Q 3706 1856 3706 1288 
Q 3706 609 3251 259 
Q 2797 -91 1919 -91 
Q 1588 -91 1214 -16 
Q 841 59 441 206 
L 441 856 
Q 825 641 1194 531 
Q 1563 422 1919 422 
Q 2459 422 2753 634 
Q 3047 847 3047 1241 
Q 3047 1584 2836 1778 
Q 2625 1972 2144 2069 
L 1759 2144 
Q 1053 2284 737 2584 
Q 422 2884 422 3419 
Q 422 4038 858 4394 
Q 1294 4750 2059 4750 
Q 2388 4750 2728 4690 
Q 3069 4631 3425 4513 
z
" id="DejaVuSans-53" transform="scale(0.015625)"/>
       <path d="M 3597 1894 
L 3597 1613 
L 953 1613 
Q 991 1019 1311 708 
Q 1631 397 2203 397 
Q 2534 397 2845 478 
Q 3156 559 3463 722 
L 3463 178 
Q 3153 47 2828 -22 
Q 2503 -91 2169 -91 
Q 1331 -91 842 396 
Q 353 884 353 1716 
Q 353 2575 817 3079 
Q 1281 3584 2069 3584 
Q 2775 3584 3186 3129 
Q 3597 2675 3597 1894 
z
M 3022 2063 
Q 3016 2534 2758 2815 
Q 2500 3097 2075 3097 
Q 1594 3097 1305 2825 
Q 1016 2553 972 2059 
L 3022 2063 
z
" id="DejaVuSans-65" transform="scale(0.015625)"/>
       <path d="M 1159 525 
L 1159 -1331 
L 581 -1331 
L 581 3500 
L 1159 3500 
L 1159 2969 
Q 1341 3281 1617 3432 
Q 1894 3584 2278 3584 
Q 2916 3584 3314 3078 
Q 3713 2572 3713 1747 
Q 3713 922 3314 415 
Q 2916 -91 2278 -91 
Q 1894 -91 1617 61 
Q 1341 213 1159 525 
z
M 3116 1747 
Q 3116 2381 2855 2742 
Q 2594 3103 2138 3103 
Q 1681 3103 1420 2742 
Q 1159 2381 1159 1747 
Q 1159 1113 1420 752 
Q 1681 391 2138 391 
Q 2594 391 2855 752 
Q 3116 1113 3116 1747 
z
" id="DejaVuSans-70" transform="scale(0.015625)"/>
      </defs>
      <use transform="translate(0 0.015625)" xlink:href="#DejaVuSans-53"/>
      <use transform="translate(63.476562 0.015625)" xlink:href="#DejaVuSans-65"/>
      <use transform="translate(125 0.015625)" xlink:href="#DejaVuSans-74"/>
      <use transform="translate(164.208984 0.015625)" xlink:href="#DejaVuSans-70"/>
      <use transform="translate(227.685547 0.015625)" xlink:href="#DejaVuSans-6f"/>
      <use transform="translate(288.867188 0.015625)" xlink:href="#DejaVuSans-69"/>
      <use transform="translate(316.650391 0.015625)" xlink:href="#DejaVuSans-6e"/>
      <use transform="translate(380.029297 0.015625)" xlink:href="#DejaVuSans-74"/>
      <use transform="translate(419.238281 0.015625)" xlink:href="#DejaVuSans-20"/>
      <use transform="translate(451.025391 0.015625)" xlink:href="#DejaVuSans-66"/>
      <use transform="translate(486.230469 0.015625)" xlink:href="#DejaVuSans-6f"/>
      <use transform="translate(547.412109 0.015625)" xlink:href="#DejaVuSans-72"/>
      <use transform="translate(588.525391 0.015625)" xlink:href="#DejaVuSans-20"/>
      <use transform="translate(620.3125 0.015625)" xlink:href="#DejaVuSans-Oblique-78"/>
      <use transform="translate(679.492188 -16.390625)scale(0.7)" xlink:href="#DejaVuSans-35"/>
     </g>
    </g>
   </g>
  </g>
  <g id="axes_2">
   <g id="patch_8">
    <path d="M 29.08774 461.55342 
L 356.99976 461.55342 
L 356.99976 259.141935 
L 29.08774 259.141935 
z
" style="fill:#ffffff;"/>
   </g>
   <g id="matplotlib.axis_3">
    <g id="xtick_10">
     <g id="line2d_26">
      <g>
       <use style="stroke:#000000;stroke-width:0.8;" x="43.992832" xlink:href="#ma7133b9561" y="461.55342"/>
      </g>
     </g>
     <g id="text_20">
      <!-- 0.00 -->
      <g transform="translate(32.860019 476.151857)scale(0.1 -0.1)">
       <use xlink:href="#DejaVuSans-30"/>
       <use x="63.623047" xlink:href="#DejaVuSans-2e"/>
       <use x="95.410156" xlink:href="#DejaVuSans-30"/>
       <use x="159.033203" xlink:href="#DejaVuSans-30"/>
      </g>
     </g>
    </g>
    <g id="xtick_11">
     <g id="line2d_27">
      <g>
       <use style="stroke:#000000;stroke-width:0.8;" x="81.255561" xlink:href="#ma7133b9561" y="461.55342"/>
      </g>
     </g>
     <g id="text_21">
      <!-- 0.25 -->
      <g transform="translate(70.122749 476.151857)scale(0.1 -0.1)">
       <use xlink:href="#DejaVuSans-30"/>
       <use x="63.623047" xlink:href="#DejaVuSans-2e"/>
       <use x="95.410156" xlink:href="#DejaVuSans-32"/>
       <use x="159.033203" xlink:href="#DejaVuSans-35"/>
      </g>
     </g>
    </g>
    <g id="xtick_12">
     <g id="line2d_28">
      <g>
       <use style="stroke:#000000;stroke-width:0.8;" x="118.518291" xlink:href="#ma7133b9561" y="461.55342"/>
      </g>
     </g>
     <g id="text_22">
      <!-- 0.50 -->
      <g transform="translate(107.385478 476.151857)scale(0.1 -0.1)">
       <use xlink:href="#DejaVuSans-30"/>
       <use x="63.623047" xlink:href="#DejaVuSans-2e"/>
       <use x="95.410156" xlink:href="#DejaVuSans-35"/>
       <use x="159.033203" xlink:href="#DejaVuSans-30"/>
      </g>
     </g>
    </g>
    <g id="xtick_13">
     <g id="line2d_29">
      <g>
       <use style="stroke:#000000;stroke-width:0.8;" x="155.78102" xlink:href="#ma7133b9561" y="461.55342"/>
      </g>
     </g>
     <g id="text_23">
      <!-- 0.75 -->
      <g transform="translate(144.648208 476.151857)scale(0.1 -0.1)">
       <use xlink:href="#DejaVuSans-30"/>
       <use x="63.623047" xlink:href="#DejaVuSans-2e"/>
       <use x="95.410156" xlink:href="#DejaVuSans-37"/>
       <use x="159.033203" xlink:href="#DejaVuSans-35"/>
      </g>
     </g>
    </g>
    <g id="xtick_14">
     <g id="line2d_30">
      <g>
       <use style="stroke:#000000;stroke-width:0.8;" x="193.04375" xlink:href="#ma7133b9561" y="461.55342"/>
      </g>
     </g>
     <g id="text_24">
      <!-- 1.00 -->
      <g transform="translate(181.910937 476.151857)scale(0.1 -0.1)">
       <use xlink:href="#DejaVuSans-31"/>
       <use x="63.623047" xlink:href="#DejaVuSans-2e"/>
       <use x="95.410156" xlink:href="#DejaVuSans-30"/>
       <use x="159.033203" xlink:href="#DejaVuSans-30"/>
      </g>
     </g>
    </g>
    <g id="xtick_15">
     <g id="line2d_31">
      <g>
       <use style="stroke:#000000;stroke-width:0.8;" x="230.30648" xlink:href="#ma7133b9561" y="461.55342"/>
      </g>
     </g>
     <g id="text_25">
      <!-- 1.25 -->
      <g transform="translate(219.173667 476.151857)scale(0.1 -0.1)">
       <use xlink:href="#DejaVuSans-31"/>
       <use x="63.623047" xlink:href="#DejaVuSans-2e"/>
       <use x="95.410156" xlink:href="#DejaVuSans-32"/>
       <use x="159.033203" xlink:href="#DejaVuSans-35"/>
      </g>
     </g>
    </g>
    <g id="xtick_16">
     <g id="line2d_32">
      <g>
       <use style="stroke:#000000;stroke-width:0.8;" x="267.569209" xlink:href="#ma7133b9561" y="461.55342"/>
      </g>
     </g>
     <g id="text_26">
      <!-- 1.50 -->
      <g transform="translate(256.436397 476.151857)scale(0.1 -0.1)">
       <use xlink:href="#DejaVuSans-31"/>
       <use x="63.623047" xlink:href="#DejaVuSans-2e"/>
       <use x="95.410156" xlink:href="#DejaVuSans-35"/>
       <use x="159.033203" xlink:href="#DejaVuSans-30"/>
      </g>
     </g>
    </g>
    <g id="xtick_17">
     <g id="line2d_33">
      <g>
       <use style="stroke:#000000;stroke-width:0.8;" x="304.831939" xlink:href="#ma7133b9561" y="461.55342"/>
      </g>
     </g>
     <g id="text_27">
      <!-- 1.75 -->
      <g transform="translate(293.699126 476.151857)scale(0.1 -0.1)">
       <use xlink:href="#DejaVuSans-31"/>
       <use x="63.623047" xlink:href="#DejaVuSans-2e"/>
       <use x="95.410156" xlink:href="#DejaVuSans-37"/>
       <use x="159.033203" xlink:href="#DejaVuSans-35"/>
      </g>
     </g>
    </g>
    <g id="xtick_18">
     <g id="line2d_34">
      <g>
       <use style="stroke:#000000;stroke-width:0.8;" x="342.094668" xlink:href="#ma7133b9561" y="461.55342"/>
      </g>
     </g>
     <g id="text_28">
      <!-- 2.00 -->
      <g transform="translate(330.961856 476.151857)scale(0.1 -0.1)">
       <use xlink:href="#DejaVuSans-32"/>
       <use x="63.623047" xlink:href="#DejaVuSans-2e"/>
       <use x="95.410156" xlink:href="#DejaVuSans-30"/>
       <use x="159.033203" xlink:href="#DejaVuSans-30"/>
      </g>
     </g>
    </g>
   </g>
   <g id="matplotlib.axis_4">
    <g id="ytick_8">
     <g id="line2d_35">
      <g>
       <use style="stroke:#000000;stroke-width:0.8;" x="29.08774" xlink:href="#m5558875310" y="461.55342"/>
      </g>
     </g>
     <g id="text_29">
      <!-- 270 -->
      <g transform="translate(3.00024 465.352639)scale(0.1 -0.1)">
       <use xlink:href="#DejaVuSans-32"/>
       <use x="63.623047" xlink:href="#DejaVuSans-37"/>
       <use x="127.246094" xlink:href="#DejaVuSans-30"/>
      </g>
     </g>
    </g>
    <g id="ytick_9">
     <g id="line2d_36">
      <g>
       <use style="stroke:#000000;stroke-width:0.8;" x="29.08774" xlink:href="#m5558875310" y="430.885013"/>
      </g>
     </g>
     <g id="text_30">
      <!-- 280 -->
      <g transform="translate(3.00024 434.684232)scale(0.1 -0.1)">
       <use xlink:href="#DejaVuSans-32"/>
       <use x="63.623047" xlink:href="#DejaVuSans-38"/>
       <use x="127.246094" xlink:href="#DejaVuSans-30"/>
      </g>
     </g>
    </g>
    <g id="ytick_10">
     <g id="line2d_37">
      <g>
       <use style="stroke:#000000;stroke-width:0.8;" x="29.08774" xlink:href="#m5558875310" y="400.216606"/>
      </g>
     </g>
     <g id="text_31">
      <!-- 290 -->
      <g transform="translate(3.00024 404.015825)scale(0.1 -0.1)">
       <use xlink:href="#DejaVuSans-32"/>
       <use x="63.623047" xlink:href="#DejaVuSans-39"/>
       <use x="127.246094" xlink:href="#DejaVuSans-30"/>
      </g>
     </g>
    </g>
    <g id="ytick_11">
     <g id="line2d_38">
      <g>
       <use style="stroke:#000000;stroke-width:0.8;" x="29.08774" xlink:href="#m5558875310" y="369.5482"/>
      </g>
     </g>
     <g id="text_32">
      <!-- 300 -->
      <g transform="translate(3.00024 373.347418)scale(0.1 -0.1)">
       <use xlink:href="#DejaVuSans-33"/>
       <use x="63.623047" xlink:href="#DejaVuSans-30"/>
       <use x="127.246094" xlink:href="#DejaVuSans-30"/>
      </g>
     </g>
    </g>
    <g id="ytick_12">
     <g id="line2d_39">
      <g>
       <use style="stroke:#000000;stroke-width:0.8;" x="29.08774" xlink:href="#m5558875310" y="338.879793"/>
      </g>
     </g>
     <g id="text_33">
      <!-- 310 -->
      <g transform="translate(3.00024 342.679011)scale(0.1 -0.1)">
       <use xlink:href="#DejaVuSans-33"/>
       <use x="63.623047" xlink:href="#DejaVuSans-31"/>
       <use x="127.246094" xlink:href="#DejaVuSans-30"/>
      </g>
     </g>
    </g>
    <g id="ytick_13">
     <g id="line2d_40">
      <g>
       <use style="stroke:#000000;stroke-width:0.8;" x="29.08774" xlink:href="#m5558875310" y="308.211386"/>
      </g>
     </g>
     <g id="text_34">
      <!-- 320 -->
      <g transform="translate(3.00024 312.010605)scale(0.1 -0.1)">
       <use xlink:href="#DejaVuSans-33"/>
       <use x="63.623047" xlink:href="#DejaVuSans-32"/>
       <use x="127.246094" xlink:href="#DejaVuSans-30"/>
      </g>
     </g>
    </g>
    <g id="ytick_14">
     <g id="line2d_41">
      <g>
       <use style="stroke:#000000;stroke-width:0.8;" x="29.08774" xlink:href="#m5558875310" y="277.542979"/>
      </g>
     </g>
     <g id="text_35">
      <!-- 330 -->
      <g transform="translate(3.00024 281.342198)scale(0.1 -0.1)">
       <use xlink:href="#DejaVuSans-33"/>
       <use x="63.623047" xlink:href="#DejaVuSans-33"/>
       <use x="127.246094" xlink:href="#DejaVuSans-30"/>
      </g>
     </g>
    </g>
   </g>
   <g id="line2d_42">
    <path clip-path="url(#pda92ba7d3d)" d="M 43.992832 452.352898 
L 58.897924 384.910925 
L 73.803015 347.134501 
L 88.708107 312.830355 
L 103.613199 287.282038 
L 118.518291 275.540332 
L 133.423383 270.526048 
L 148.328475 268.740533 
L 163.233566 268.472184 
L 178.138658 268.536588 
L 193.04375 268.725199 
L 207.948842 268.834378 
L 222.853934 268.912276 
L 237.759025 268.942024 
L 252.664117 268.976373 
L 267.569209 268.979747 
L 282.474301 269.014709 
L 297.379393 269.063165 
L 312.284485 269.167437 
L 327.189576 269.182158 
L 342.094668 269.145969 
" style="fill:none;stroke:#1f77b4;stroke-linecap:square;stroke-width:1.5;"/>
   </g>
   <g id="line2d_43">
    <path clip-path="url(#pda92ba7d3d)" d="M 43.992832 268.342457 
L 58.897924 268.342457 
L 73.803015 268.342457 
L 88.708107 268.342457 
L 103.613199 268.342457 
L 118.518291 268.342457 
L 133.423383 268.342457 
L 148.328475 268.342457 
L 163.233566 268.342457 
L 178.138658 268.342457 
L 193.04375 268.342457 
L 207.948842 268.342457 
L 222.853934 268.342457 
L 237.759025 268.342457 
L 252.664117 268.342457 
L 267.569209 268.342457 
L 282.474301 268.342457 
L 297.379393 268.342457 
L 312.284485 268.342457 
L 327.189576 268.342457 
L 342.094668 268.342457 
" style="fill:none;stroke:#ff7f0e;stroke-dasharray:5.55,2.4;stroke-dashoffset:0;stroke-width:1.5;"/>
   </g>
   <g id="patch_9">
    <path d="M 29.08774 461.55342 
L 29.08774 259.141935 
" style="fill:none;stroke:#000000;stroke-linecap:square;stroke-linejoin:miter;stroke-width:0.8;"/>
   </g>
   <g id="patch_10">
    <path d="M 356.99976 461.55342 
L 356.99976 259.141935 
" style="fill:none;stroke:#000000;stroke-linecap:square;stroke-linejoin:miter;stroke-width:0.8;"/>
   </g>
   <g id="patch_11">
    <path d="M 29.08774 461.55342 
L 356.99976 461.55342 
" style="fill:none;stroke:#000000;stroke-linecap:square;stroke-linejoin:miter;stroke-width:0.8;"/>
   </g>
   <g id="patch_12">
    <path d="M 29.08774 259.141935 
L 356.99976 259.141935 
" style="fill:none;stroke:#000000;stroke-linecap:square;stroke-linejoin:miter;stroke-width:0.8;"/>
   </g>
   <g id="legend_2">
    <g id="patch_13">
     <path d="M 240.79976 456.55342 
L 349.99976 456.55342 
Q 351.99976 456.55342 351.99976 454.55342 
L 351.99976 426.175295 
Q 351.99976 424.175295 349.99976 424.175295 
L 240.79976 424.175295 
Q 238.79976 424.175295 238.79976 426.175295 
L 238.79976 454.55342 
Q 238.79976 456.55342 240.79976 456.55342 
z
" style="fill:#ffffff;opacity:0.8;stroke:#cccccc;stroke-linejoin:miter;"/>
    </g>
    <g id="line2d_44">
     <path d="M 242.79976 432.273732 
L 262.79976 432.273732 
" style="fill:none;stroke:#1f77b4;stroke-linecap:square;stroke-width:1.5;"/>
    </g>
    <g id="line2d_45"/>
    <g id="text_36">
     <!-- $x_{13}$ -->
     <g transform="translate(270.79976 435.773732)scale(0.1 -0.1)">
      <use transform="translate(0 0.3125)" xlink:href="#DejaVuSans-Oblique-78"/>
      <use transform="translate(59.179688 -16.09375)scale(0.7)" xlink:href="#DejaVuSans-31"/>
      <use transform="translate(103.71582 -16.09375)scale(0.7)" xlink:href="#DejaVuSans-33"/>
     </g>
    </g>
    <g id="line2d_46">
     <path d="M 242.79976 446.95342 
L 262.79976 446.95342 
" style="fill:none;stroke:#ff7f0e;stroke-dasharray:5.55,2.4;stroke-dashoffset:0;stroke-width:1.5;"/>
    </g>
    <g id="line2d_47"/>
    <g id="text_37">
     <!-- Setpoint for $x_{13}$ -->
     <g transform="translate(270.79976 450.45342)scale(0.1 -0.1)">
      <use transform="translate(0 0.015625)" xlink:href="#DejaVuSans-53"/>
      <use transform="translate(63.476562 0.015625)" xlink:href="#DejaVuSans-65"/>
      <use transform="translate(125 0.015625)" xlink:href="#DejaVuSans-74"/>
      <use transform="translate(164.208984 0.015625)" xlink:href="#DejaVuSans-70"/>
      <use transform="translate(227.685547 0.015625)" xlink:href="#DejaVuSans-6f"/>
      <use transform="translate(288.867188 0.015625)" xlink:href="#DejaVuSans-69"/>
      <use transform="translate(316.650391 0.015625)" xlink:href="#DejaVuSans-6e"/>
      <use transform="translate(380.029297 0.015625)" xlink:href="#DejaVuSans-74"/>
      <use transform="translate(419.238281 0.015625)" xlink:href="#DejaVuSans-20"/>
      <use transform="translate(451.025391 0.015625)" xlink:href="#DejaVuSans-66"/>
      <use transform="translate(486.230469 0.015625)" xlink:href="#DejaVuSans-6f"/>
      <use transform="translate(547.412109 0.015625)" xlink:href="#DejaVuSans-72"/>
      <use transform="translate(588.525391 0.015625)" xlink:href="#DejaVuSans-20"/>
      <use transform="translate(620.3125 0.015625)" xlink:href="#DejaVuSans-Oblique-78"/>
      <use transform="translate(679.492188 -16.390625)scale(0.7)" xlink:href="#DejaVuSans-31"/>
      <use transform="translate(724.02832 -16.390625)scale(0.7)" xlink:href="#DejaVuSans-33"/>
     </g>
    </g>
   </g>
  </g>
  <g id="axes_3">
   <g id="patch_14">
    <path d="M 29.08774 686.64351 
L 356.99976 686.64351 
L 356.99976 484.232025 
L 29.08774 484.232025 
z
" style="fill:#ffffff;"/>
   </g>
   <g id="matplotlib.axis_5">
    <g id="xtick_19">
     <g id="line2d_48">
      <g>
       <use style="stroke:#000000;stroke-width:0.8;" x="43.992832" xlink:href="#ma7133b9561" y="686.64351"/>
      </g>
     </g>
     <g id="text_38">
      <!-- 0.00 -->
      <g transform="translate(32.860019 701.241948)scale(0.1 -0.1)">
       <use xlink:href="#DejaVuSans-30"/>
       <use x="63.623047" xlink:href="#DejaVuSans-2e"/>
       <use x="95.410156" xlink:href="#DejaVuSans-30"/>
       <use x="159.033203" xlink:href="#DejaVuSans-30"/>
      </g>
     </g>
    </g>
    <g id="xtick_20">
     <g id="line2d_49">
      <g>
       <use style="stroke:#000000;stroke-width:0.8;" x="81.255561" xlink:href="#ma7133b9561" y="686.64351"/>
      </g>
     </g>
     <g id="text_39">
      <!-- 0.25 -->
      <g transform="translate(70.122749 701.241948)scale(0.1 -0.1)">
       <use xlink:href="#DejaVuSans-30"/>
       <use x="63.623047" xlink:href="#DejaVuSans-2e"/>
       <use x="95.410156" xlink:href="#DejaVuSans-32"/>
       <use x="159.033203" xlink:href="#DejaVuSans-35"/>
      </g>
     </g>
    </g>
    <g id="xtick_21">
     <g id="line2d_50">
      <g>
       <use style="stroke:#000000;stroke-width:0.8;" x="118.518291" xlink:href="#ma7133b9561" y="686.64351"/>
      </g>
     </g>
     <g id="text_40">
      <!-- 0.50 -->
      <g transform="translate(107.385478 701.241948)scale(0.1 -0.1)">
       <use xlink:href="#DejaVuSans-30"/>
       <use x="63.623047" xlink:href="#DejaVuSans-2e"/>
       <use x="95.410156" xlink:href="#DejaVuSans-35"/>
       <use x="159.033203" xlink:href="#DejaVuSans-30"/>
      </g>
     </g>
    </g>
    <g id="xtick_22">
     <g id="line2d_51">
      <g>
       <use style="stroke:#000000;stroke-width:0.8;" x="155.78102" xlink:href="#ma7133b9561" y="686.64351"/>
      </g>
     </g>
     <g id="text_41">
      <!-- 0.75 -->
      <g transform="translate(144.648208 701.241948)scale(0.1 -0.1)">
       <use xlink:href="#DejaVuSans-30"/>
       <use x="63.623047" xlink:href="#DejaVuSans-2e"/>
       <use x="95.410156" xlink:href="#DejaVuSans-37"/>
       <use x="159.033203" xlink:href="#DejaVuSans-35"/>
      </g>
     </g>
    </g>
    <g id="xtick_23">
     <g id="line2d_52">
      <g>
       <use style="stroke:#000000;stroke-width:0.8;" x="193.04375" xlink:href="#ma7133b9561" y="686.64351"/>
      </g>
     </g>
     <g id="text_42">
      <!-- 1.00 -->
      <g transform="translate(181.910937 701.241948)scale(0.1 -0.1)">
       <use xlink:href="#DejaVuSans-31"/>
       <use x="63.623047" xlink:href="#DejaVuSans-2e"/>
       <use x="95.410156" xlink:href="#DejaVuSans-30"/>
       <use x="159.033203" xlink:href="#DejaVuSans-30"/>
      </g>
     </g>
    </g>
    <g id="xtick_24">
     <g id="line2d_53">
      <g>
       <use style="stroke:#000000;stroke-width:0.8;" x="230.30648" xlink:href="#ma7133b9561" y="686.64351"/>
      </g>
     </g>
     <g id="text_43">
      <!-- 1.25 -->
      <g transform="translate(219.173667 701.241948)scale(0.1 -0.1)">
       <use xlink:href="#DejaVuSans-31"/>
       <use x="63.623047" xlink:href="#DejaVuSans-2e"/>
       <use x="95.410156" xlink:href="#DejaVuSans-32"/>
       <use x="159.033203" xlink:href="#DejaVuSans-35"/>
      </g>
     </g>
    </g>
    <g id="xtick_25">
     <g id="line2d_54">
      <g>
       <use style="stroke:#000000;stroke-width:0.8;" x="267.569209" xlink:href="#ma7133b9561" y="686.64351"/>
      </g>
     </g>
     <g id="text_44">
      <!-- 1.50 -->
      <g transform="translate(256.436397 701.241948)scale(0.1 -0.1)">
       <use xlink:href="#DejaVuSans-31"/>
       <use x="63.623047" xlink:href="#DejaVuSans-2e"/>
       <use x="95.410156" xlink:href="#DejaVuSans-35"/>
       <use x="159.033203" xlink:href="#DejaVuSans-30"/>
      </g>
     </g>
    </g>
    <g id="xtick_26">
     <g id="line2d_55">
      <g>
       <use style="stroke:#000000;stroke-width:0.8;" x="304.831939" xlink:href="#ma7133b9561" y="686.64351"/>
      </g>
     </g>
     <g id="text_45">
      <!-- 1.75 -->
      <g transform="translate(293.699126 701.241948)scale(0.1 -0.1)">
       <use xlink:href="#DejaVuSans-31"/>
       <use x="63.623047" xlink:href="#DejaVuSans-2e"/>
       <use x="95.410156" xlink:href="#DejaVuSans-37"/>
       <use x="159.033203" xlink:href="#DejaVuSans-35"/>
      </g>
     </g>
    </g>
    <g id="xtick_27">
     <g id="line2d_56">
      <g>
       <use style="stroke:#000000;stroke-width:0.8;" x="342.094668" xlink:href="#ma7133b9561" y="686.64351"/>
      </g>
     </g>
     <g id="text_46">
      <!-- 2.00 -->
      <g transform="translate(330.961856 701.241948)scale(0.1 -0.1)">
       <use xlink:href="#DejaVuSans-32"/>
       <use x="63.623047" xlink:href="#DejaVuSans-2e"/>
       <use x="95.410156" xlink:href="#DejaVuSans-30"/>
       <use x="159.033203" xlink:href="#DejaVuSans-30"/>
      </g>
     </g>
    </g>
    <g id="text_47">
     <!-- Time -->
     <g transform="translate(180.810156 714.920072)scale(0.1 -0.1)">
      <defs>
       <path d="M -19 4666 
L 3928 4666 
L 3928 4134 
L 2272 4134 
L 2272 0 
L 1638 0 
L 1638 4134 
L -19 4134 
L -19 4666 
z
" id="DejaVuSans-54" transform="scale(0.015625)"/>
       <path d="M 3328 2828 
Q 3544 3216 3844 3400 
Q 4144 3584 4550 3584 
Q 5097 3584 5394 3201 
Q 5691 2819 5691 2113 
L 5691 0 
L 5113 0 
L 5113 2094 
Q 5113 2597 4934 2840 
Q 4756 3084 4391 3084 
Q 3944 3084 3684 2787 
Q 3425 2491 3425 1978 
L 3425 0 
L 2847 0 
L 2847 2094 
Q 2847 2600 2669 2842 
Q 2491 3084 2119 3084 
Q 1678 3084 1418 2786 
Q 1159 2488 1159 1978 
L 1159 0 
L 581 0 
L 581 3500 
L 1159 3500 
L 1159 2956 
Q 1356 3278 1631 3431 
Q 1906 3584 2284 3584 
Q 2666 3584 2933 3390 
Q 3200 3197 3328 2828 
z
" id="DejaVuSans-6d" transform="scale(0.015625)"/>
      </defs>
      <use xlink:href="#DejaVuSans-54"/>
      <use x="57.958984" xlink:href="#DejaVuSans-69"/>
      <use x="85.742188" xlink:href="#DejaVuSans-6d"/>
      <use x="183.154297" xlink:href="#DejaVuSans-65"/>
     </g>
    </g>
   </g>
   <g id="matplotlib.axis_6">
    <g id="ytick_15">
     <g id="line2d_57">
      <g>
       <use style="stroke:#000000;stroke-width:0.8;" x="29.08774" xlink:href="#m5558875310" y="659.749674"/>
      </g>
     </g>
     <g id="text_48">
      <!-- 325 -->
      <g transform="translate(3.00024 663.548893)scale(0.1 -0.1)">
       <use xlink:href="#DejaVuSans-33"/>
       <use x="63.623047" xlink:href="#DejaVuSans-32"/>
       <use x="127.246094" xlink:href="#DejaVuSans-35"/>
      </g>
     </g>
    </g>
    <g id="ytick_16">
     <g id="line2d_58">
      <g>
       <use style="stroke:#000000;stroke-width:0.8;" x="29.08774" xlink:href="#m5558875310" y="631.655558"/>
      </g>
     </g>
     <g id="text_49">
      <!-- 350 -->
      <g transform="translate(3.00024 635.454777)scale(0.1 -0.1)">
       <use xlink:href="#DejaVuSans-33"/>
       <use x="63.623047" xlink:href="#DejaVuSans-35"/>
       <use x="127.246094" xlink:href="#DejaVuSans-30"/>
      </g>
     </g>
    </g>
    <g id="ytick_17">
     <g id="line2d_59">
      <g>
       <use style="stroke:#000000;stroke-width:0.8;" x="29.08774" xlink:href="#m5558875310" y="603.561442"/>
      </g>
     </g>
     <g id="text_50">
      <!-- 375 -->
      <g transform="translate(3.00024 607.360661)scale(0.1 -0.1)">
       <use xlink:href="#DejaVuSans-33"/>
       <use x="63.623047" xlink:href="#DejaVuSans-37"/>
       <use x="127.246094" xlink:href="#DejaVuSans-35"/>
      </g>
     </g>
    </g>
    <g id="ytick_18">
     <g id="line2d_60">
      <g>
       <use style="stroke:#000000;stroke-width:0.8;" x="29.08774" xlink:href="#m5558875310" y="575.467326"/>
      </g>
     </g>
     <g id="text_51">
      <!-- 400 -->
      <g transform="translate(3.00024 579.266545)scale(0.1 -0.1)">
       <defs>
        <path d="M 2419 4116 
L 825 1625 
L 2419 1625 
L 2419 4116 
z
M 2253 4666 
L 3047 4666 
L 3047 1625 
L 3713 1625 
L 3713 1100 
L 3047 1100 
L 3047 0 
L 2419 0 
L 2419 1100 
L 313 1100 
L 313 1709 
L 2253 4666 
z
" id="DejaVuSans-34" transform="scale(0.015625)"/>
       </defs>
       <use xlink:href="#DejaVuSans-34"/>
       <use x="63.623047" xlink:href="#DejaVuSans-30"/>
       <use x="127.246094" xlink:href="#DejaVuSans-30"/>
      </g>
     </g>
    </g>
    <g id="ytick_19">
     <g id="line2d_61">
      <g>
       <use style="stroke:#000000;stroke-width:0.8;" x="29.08774" xlink:href="#m5558875310" y="547.37321"/>
      </g>
     </g>
     <g id="text_52">
      <!-- 425 -->
      <g transform="translate(3.00024 551.172429)scale(0.1 -0.1)">
       <use xlink:href="#DejaVuSans-34"/>
       <use x="63.623047" xlink:href="#DejaVuSans-32"/>
       <use x="127.246094" xlink:href="#DejaVuSans-35"/>
      </g>
     </g>
    </g>
    <g id="ytick_20">
     <g id="line2d_62">
      <g>
       <use style="stroke:#000000;stroke-width:0.8;" x="29.08774" xlink:href="#m5558875310" y="519.279094"/>
      </g>
     </g>
     <g id="text_53">
      <!-- 450 -->
      <g transform="translate(3.00024 523.078313)scale(0.1 -0.1)">
       <use xlink:href="#DejaVuSans-34"/>
       <use x="63.623047" xlink:href="#DejaVuSans-35"/>
       <use x="127.246094" xlink:href="#DejaVuSans-30"/>
      </g>
     </g>
    </g>
    <g id="ytick_21">
     <g id="line2d_63">
      <g>
       <use style="stroke:#000000;stroke-width:0.8;" x="29.08774" xlink:href="#m5558875310" y="491.184978"/>
      </g>
     </g>
     <g id="text_54">
      <!-- 475 -->
      <g transform="translate(3.00024 494.984196)scale(0.1 -0.1)">
       <use xlink:href="#DejaVuSans-34"/>
       <use x="63.623047" xlink:href="#DejaVuSans-37"/>
       <use x="127.246094" xlink:href="#DejaVuSans-35"/>
      </g>
     </g>
    </g>
   </g>
   <g id="line2d_64">
    <path clip-path="url(#pb5a0e2ecd6)" d="M 43.992832 651.122675 
L 43.992832 632.727333 
L 58.897924 632.727333 
L 58.897924 654.609738 
L 73.803015 654.609738 
L 73.803015 641.644854 
L 88.708107 641.644854 
L 88.708107 662.580877 
L 103.613199 662.580877 
L 103.613199 667.11898 
L 118.518291 667.11898 
L 118.518291 676.003921 
L 133.423383 676.003921 
L 133.423383 672.817544 
L 148.328475 672.817544 
L 148.328475 676.417069 
L 163.233566 676.417069 
L 163.233566 674.21618 
L 178.138658 674.21618 
L 178.138658 675.488647 
L 193.04375 675.488647 
L 193.04375 674.517421 
L 207.948842 674.517421 
L 207.948842 675.489398 
L 222.853934 675.489398 
L 222.853934 674.515982 
L 237.759025 674.515982 
L 237.759025 675.734194 
L 252.664117 675.734194 
L 252.664117 675.490924 
L 267.569209 675.490924 
L 267.569209 677.442988 
L 282.474301 677.442988 
L 282.474301 675.369811 
L 297.379393 675.369811 
L 297.379393 675.009591 
L 312.284485 675.009591 
L 312.284485 677.436888 
L 327.189576 677.436888 
L 327.189576 675.365201 
L 342.094668 675.365201 
" style="fill:none;stroke:#1f77b4;stroke-linecap:square;stroke-width:1.5;"/>
   </g>
   <g id="line2d_65">
    <path clip-path="url(#pb5a0e2ecd6)" d="M 43.992832 493.859588 
L 43.992832 580.080734 
L 58.897924 580.080734 
L 58.897924 493.433176 
L 73.803015 493.433176 
L 73.803015 493.432571 
L 88.708107 493.432571 
L 88.708107 493.432916 
L 103.613199 493.432916 
L 103.613199 493.432549 
L 118.518291 493.432549 
L 118.518291 493.432688 
L 133.423383 493.432688 
L 133.423383 493.433176 
L 148.328475 493.433176 
L 148.328475 493.432619 
L 163.233566 493.432619 
L 163.233566 493.432547 
L 178.138658 493.432547 
L 178.138658 493.432581 
L 193.04375 493.432581 
L 193.04375 493.432581 
L 207.948842 493.432581 
L 207.948842 493.432875 
L 222.853934 493.432875 
L 222.853934 493.432574 
L 237.759025 493.432574 
L 237.759025 493.432565 
L 252.664117 493.432565 
L 252.664117 493.432556 
L 267.569209 493.432556 
L 267.569209 493.432916 
L 282.474301 493.432916 
L 282.474301 493.432556 
L 297.379393 493.432556 
L 297.379393 493.432582 
L 312.284485 493.432582 
L 312.284485 493.432582 
L 327.189576 493.432582 
L 327.189576 493.432853 
L 342.094668 493.432853 
" style="fill:none;stroke:#ff7f0e;stroke-linecap:square;stroke-width:1.5;"/>
   </g>
   <g id="patch_15">
    <path d="M 29.08774 686.64351 
L 29.08774 484.232025 
" style="fill:none;stroke:#000000;stroke-linecap:square;stroke-linejoin:miter;stroke-width:0.8;"/>
   </g>
   <g id="patch_16">
    <path d="M 356.99976 686.64351 
L 356.99976 484.232025 
" style="fill:none;stroke:#000000;stroke-linecap:square;stroke-linejoin:miter;stroke-width:0.8;"/>
   </g>
   <g id="patch_17">
    <path d="M 29.08774 686.64351 
L 356.99976 686.64351 
" style="fill:none;stroke:#000000;stroke-linecap:square;stroke-linejoin:miter;stroke-width:0.8;"/>
   </g>
   <g id="patch_18">
    <path d="M 29.08774 484.232025 
L 356.99976 484.232025 
" style="fill:none;stroke:#000000;stroke-linecap:square;stroke-linejoin:miter;stroke-width:0.8;"/>
   </g>
   <g id="legend_3">
    <g id="patch_19">
     <path d="M 306.89976 601.615892 
L 349.99976 601.615892 
Q 351.99976 601.615892 351.99976 599.615892 
L 351.99976 571.259642 
Q 351.99976 569.259642 349.99976 569.259642 
L 306.89976 569.259642 
Q 304.89976 569.259642 304.89976 571.259642 
L 304.89976 599.615892 
Q 304.89976 601.615892 306.89976 601.615892 
z
" style="fill:#ffffff;opacity:0.8;stroke:#cccccc;stroke-linejoin:miter;"/>
    </g>
    <g id="line2d_66">
     <path d="M 308.89976 577.35808 
L 328.89976 577.35808 
" style="fill:none;stroke:#1f77b4;stroke-linecap:square;stroke-width:1.5;"/>
    </g>
    <g id="line2d_67"/>
    <g id="text_55">
     <!-- $u_0$ -->
     <g transform="translate(336.89976 580.85808)scale(0.1 -0.1)">
      <defs>
       <path d="M 428 1388 
L 838 3500 
L 1416 3500 
L 1006 1409 
Q 975 1256 961 1147 
Q 947 1038 947 966 
Q 947 700 1109 554 
Q 1272 409 1569 409 
Q 2031 409 2368 721 
Q 2706 1034 2809 1563 
L 3194 3500 
L 3769 3500 
L 3091 0 
L 2516 0 
L 2631 550 
Q 2388 244 2052 76 
Q 1716 -91 1338 -91 
Q 878 -91 622 161 
Q 366 413 366 863 
Q 366 956 381 1097 
Q 397 1238 428 1388 
z
" id="DejaVuSans-Oblique-75" transform="scale(0.015625)"/>
      </defs>
      <use transform="translate(0 0.3125)" xlink:href="#DejaVuSans-Oblique-75"/>
      <use transform="translate(63.378906 -16.09375)scale(0.7)" xlink:href="#DejaVuSans-30"/>
     </g>
    </g>
    <g id="line2d_68">
     <path d="M 308.89976 592.036205 
L 328.89976 592.036205 
" style="fill:none;stroke:#ff7f0e;stroke-linecap:square;stroke-width:1.5;"/>
    </g>
    <g id="line2d_69"/>
    <g id="text_56">
     <!-- $u_1$ -->
     <g transform="translate(336.89976 595.536205)scale(0.1 -0.1)">
      <use transform="translate(0 0.3125)" xlink:href="#DejaVuSans-Oblique-75"/>
      <use transform="translate(63.378906 -16.09375)scale(0.7)" xlink:href="#DejaVuSans-31"/>
     </g>
    </g>
   </g>
  </g>
  <g id="text_57">
   <!-- MPC Controller (2 seconds): Cost achieved = 922.269 -->
   <g transform="translate(18.743437 12.118365)scale(0.12 -0.12)">
    <defs>
     <path d="M 628 4666 
L 1569 4666 
L 2759 1491 
L 3956 4666 
L 4897 4666 
L 4897 0 
L 4281 0 
L 4281 4097 
L 3078 897 
L 2444 897 
L 1241 4097 
L 1241 0 
L 628 0 
L 628 4666 
z
" id="DejaVuSans-4d" transform="scale(0.015625)"/>
     <path d="M 4122 4306 
L 4122 3641 
Q 3803 3938 3442 4084 
Q 3081 4231 2675 4231 
Q 1875 4231 1450 3742 
Q 1025 3253 1025 2328 
Q 1025 1406 1450 917 
Q 1875 428 2675 428 
Q 3081 428 3442 575 
Q 3803 722 4122 1019 
L 4122 359 
Q 3791 134 3420 21 
Q 3050 -91 2638 -91 
Q 1578 -91 968 557 
Q 359 1206 359 2328 
Q 359 3453 968 4101 
Q 1578 4750 2638 4750 
Q 3056 4750 3426 4639 
Q 3797 4528 4122 4306 
z
" id="DejaVuSans-43" transform="scale(0.015625)"/>
     <path d="M 603 4863 
L 1178 4863 
L 1178 0 
L 603 0 
L 603 4863 
z
" id="DejaVuSans-6c" transform="scale(0.015625)"/>
     <path d="M 1984 4856 
Q 1566 4138 1362 3434 
Q 1159 2731 1159 2009 
Q 1159 1288 1364 580 
Q 1569 -128 1984 -844 
L 1484 -844 
Q 1016 -109 783 600 
Q 550 1309 550 2009 
Q 550 2706 781 3412 
Q 1013 4119 1484 4856 
L 1984 4856 
z
" id="DejaVuSans-28" transform="scale(0.015625)"/>
     <path d="M 2906 2969 
L 2906 4863 
L 3481 4863 
L 3481 0 
L 2906 0 
L 2906 525 
Q 2725 213 2448 61 
Q 2172 -91 1784 -91 
Q 1150 -91 751 415 
Q 353 922 353 1747 
Q 353 2572 751 3078 
Q 1150 3584 1784 3584 
Q 2172 3584 2448 3432 
Q 2725 3281 2906 2969 
z
M 947 1747 
Q 947 1113 1208 752 
Q 1469 391 1925 391 
Q 2381 391 2643 752 
Q 2906 1113 2906 1747 
Q 2906 2381 2643 2742 
Q 2381 3103 1925 3103 
Q 1469 3103 1208 2742 
Q 947 2381 947 1747 
z
" id="DejaVuSans-64" transform="scale(0.015625)"/>
     <path d="M 513 4856 
L 1013 4856 
Q 1481 4119 1714 3412 
Q 1947 2706 1947 2009 
Q 1947 1309 1714 600 
Q 1481 -109 1013 -844 
L 513 -844 
Q 928 -128 1133 580 
Q 1338 1288 1338 2009 
Q 1338 2731 1133 3434 
Q 928 4138 513 4856 
z
" id="DejaVuSans-29" transform="scale(0.015625)"/>
     <path d="M 750 794 
L 1409 794 
L 1409 0 
L 750 0 
L 750 794 
z
M 750 3309 
L 1409 3309 
L 1409 2516 
L 750 2516 
L 750 3309 
z
" id="DejaVuSans-3a" transform="scale(0.015625)"/>
     <path d="M 191 3500 
L 800 3500 
L 1894 563 
L 2988 3500 
L 3597 3500 
L 2284 0 
L 1503 0 
L 191 3500 
z
" id="DejaVuSans-76" transform="scale(0.015625)"/>
     <path d="M 678 2906 
L 4684 2906 
L 4684 2381 
L 678 2381 
L 678 2906 
z
M 678 1631 
L 4684 1631 
L 4684 1100 
L 678 1100 
L 678 1631 
z
" id="DejaVuSans-3d" transform="scale(0.015625)"/>
     <path d="M 2113 2584 
Q 1688 2584 1439 2293 
Q 1191 2003 1191 1497 
Q 1191 994 1439 701 
Q 1688 409 2113 409 
Q 2538 409 2786 701 
Q 3034 994 3034 1497 
Q 3034 2003 2786 2293 
Q 2538 2584 2113 2584 
z
M 3366 4563 
L 3366 3988 
Q 3128 4100 2886 4159 
Q 2644 4219 2406 4219 
Q 1781 4219 1451 3797 
Q 1122 3375 1075 2522 
Q 1259 2794 1537 2939 
Q 1816 3084 2150 3084 
Q 2853 3084 3261 2657 
Q 3669 2231 3669 1497 
Q 3669 778 3244 343 
Q 2819 -91 2113 -91 
Q 1303 -91 875 529 
Q 447 1150 447 2328 
Q 447 3434 972 4092 
Q 1497 4750 2381 4750 
Q 2619 4750 2861 4703 
Q 3103 4656 3366 4563 
z
" id="DejaVuSans-36" transform="scale(0.015625)"/>
    </defs>
    <use xlink:href="#DejaVuSans-4d"/>
    <use x="86.279297" xlink:href="#DejaVuSans-50"/>
    <use x="146.582031" xlink:href="#DejaVuSans-43"/>
    <use x="216.40625" xlink:href="#DejaVuSans-20"/>
    <use x="248.193359" xlink:href="#DejaVuSans-43"/>
    <use x="318.017578" xlink:href="#DejaVuSans-6f"/>
    <use x="379.199219" xlink:href="#DejaVuSans-6e"/>
    <use x="442.578125" xlink:href="#DejaVuSans-74"/>
    <use x="481.787109" xlink:href="#DejaVuSans-72"/>
    <use x="520.650391" xlink:href="#DejaVuSans-6f"/>
    <use x="581.832031" xlink:href="#DejaVuSans-6c"/>
    <use x="609.615234" xlink:href="#DejaVuSans-6c"/>
    <use x="637.398438" xlink:href="#DejaVuSans-65"/>
    <use x="698.921875" xlink:href="#DejaVuSans-72"/>
    <use x="740.035156" xlink:href="#DejaVuSans-20"/>
    <use x="771.822266" xlink:href="#DejaVuSans-28"/>
    <use x="810.835938" xlink:href="#DejaVuSans-32"/>
    <use x="874.458984" xlink:href="#DejaVuSans-20"/>
    <use x="906.246094" xlink:href="#DejaVuSans-73"/>
    <use x="958.345703" xlink:href="#DejaVuSans-65"/>
    <use x="1019.869141" xlink:href="#DejaVuSans-63"/>
    <use x="1074.849609" xlink:href="#DejaVuSans-6f"/>
    <use x="1136.03125" xlink:href="#DejaVuSans-6e"/>
    <use x="1199.410156" xlink:href="#DejaVuSans-64"/>
    <use x="1262.886719" xlink:href="#DejaVuSans-73"/>
    <use x="1314.986328" xlink:href="#DejaVuSans-29"/>
    <use x="1354" xlink:href="#DejaVuSans-3a"/>
    <use x="1387.691406" xlink:href="#DejaVuSans-20"/>
    <use x="1419.478516" xlink:href="#DejaVuSans-43"/>
    <use x="1489.302734" xlink:href="#DejaVuSans-6f"/>
    <use x="1550.484375" xlink:href="#DejaVuSans-73"/>
    <use x="1602.583984" xlink:href="#DejaVuSans-74"/>
    <use x="1641.792969" xlink:href="#DejaVuSans-20"/>
    <use x="1673.580078" xlink:href="#DejaVuSans-61"/>
    <use x="1734.859375" xlink:href="#DejaVuSans-63"/>
    <use x="1789.839844" xlink:href="#DejaVuSans-68"/>
    <use x="1853.21875" xlink:href="#DejaVuSans-69"/>
    <use x="1881.001953" xlink:href="#DejaVuSans-65"/>
    <use x="1942.525391" xlink:href="#DejaVuSans-76"/>
    <use x="2001.705078" xlink:href="#DejaVuSans-65"/>
    <use x="2063.228516" xlink:href="#DejaVuSans-64"/>
    <use x="2126.705078" xlink:href="#DejaVuSans-20"/>
    <use x="2158.492188" xlink:href="#DejaVuSans-3d"/>
    <use x="2242.28125" xlink:href="#DejaVuSans-20"/>
    <use x="2274.068359" xlink:href="#DejaVuSans-39"/>
    <use x="2337.691406" xlink:href="#DejaVuSans-32"/>
    <use x="2401.314453" xlink:href="#DejaVuSans-32"/>
    <use x="2464.9375" xlink:href="#DejaVuSans-2e"/>
    <use x="2496.724609" xlink:href="#DejaVuSans-32"/>
    <use x="2560.347656" xlink:href="#DejaVuSans-36"/>
    <use x="2623.970703" xlink:href="#DejaVuSans-39"/>
   </g>
   <!-- Heat Equation with Radiative Loss and Path Constraint -->
   <g transform="translate(16.257188 25.55574)scale(0.12 -0.12)">
    <defs>
     <path d="M 628 4666 
L 1259 4666 
L 1259 2753 
L 3553 2753 
L 3553 4666 
L 4184 4666 
L 4184 0 
L 3553 0 
L 3553 2222 
L 1259 2222 
L 1259 0 
L 628 0 
L 628 4666 
z
" id="DejaVuSans-48" transform="scale(0.015625)"/>
     <path d="M 628 4666 
L 3578 4666 
L 3578 4134 
L 1259 4134 
L 1259 2753 
L 3481 2753 
L 3481 2222 
L 1259 2222 
L 1259 531 
L 3634 531 
L 3634 0 
L 628 0 
L 628 4666 
z
" id="DejaVuSans-45" transform="scale(0.015625)"/>
     <path d="M 947 1747 
Q 947 1113 1208 752 
Q 1469 391 1925 391 
Q 2381 391 2643 752 
Q 2906 1113 2906 1747 
Q 2906 2381 2643 2742 
Q 2381 3103 1925 3103 
Q 1469 3103 1208 2742 
Q 947 2381 947 1747 
z
M 2906 525 
Q 2725 213 2448 61 
Q 2172 -91 1784 -91 
Q 1150 -91 751 415 
Q 353 922 353 1747 
Q 353 2572 751 3078 
Q 1150 3584 1784 3584 
Q 2172 3584 2448 3432 
Q 2725 3281 2906 2969 
L 2906 3500 
L 3481 3500 
L 3481 -1331 
L 2906 -1331 
L 2906 525 
z
" id="DejaVuSans-71" transform="scale(0.015625)"/>
     <path d="M 544 1381 
L 544 3500 
L 1119 3500 
L 1119 1403 
Q 1119 906 1312 657 
Q 1506 409 1894 409 
Q 2359 409 2629 706 
Q 2900 1003 2900 1516 
L 2900 3500 
L 3475 3500 
L 3475 0 
L 2900 0 
L 2900 538 
Q 2691 219 2414 64 
Q 2138 -91 1772 -91 
Q 1169 -91 856 284 
Q 544 659 544 1381 
z
M 1991 3584 
L 1991 3584 
z
" id="DejaVuSans-75" transform="scale(0.015625)"/>
     <path d="M 269 3500 
L 844 3500 
L 1563 769 
L 2278 3500 
L 2956 3500 
L 3675 769 
L 4391 3500 
L 4966 3500 
L 4050 0 
L 3372 0 
L 2619 2869 
L 1863 0 
L 1184 0 
L 269 3500 
z
" id="DejaVuSans-77" transform="scale(0.015625)"/>
     <path d="M 2841 2188 
Q 3044 2119 3236 1894 
Q 3428 1669 3622 1275 
L 4263 0 
L 3584 0 
L 2988 1197 
Q 2756 1666 2539 1819 
Q 2322 1972 1947 1972 
L 1259 1972 
L 1259 0 
L 628 0 
L 628 4666 
L 2053 4666 
Q 2853 4666 3247 4331 
Q 3641 3997 3641 3322 
Q 3641 2881 3436 2590 
Q 3231 2300 2841 2188 
z
M 1259 4147 
L 1259 2491 
L 2053 2491 
Q 2509 2491 2742 2702 
Q 2975 2913 2975 3322 
Q 2975 3731 2742 3939 
Q 2509 4147 2053 4147 
L 1259 4147 
z
" id="DejaVuSans-52" transform="scale(0.015625)"/>
     <path d="M 628 4666 
L 1259 4666 
L 1259 531 
L 3531 531 
L 3531 0 
L 628 0 
L 628 4666 
z
" id="DejaVuSans-4c" transform="scale(0.015625)"/>
    </defs>
    <use xlink:href="#DejaVuSans-48"/>
    <use x="75.195312" xlink:href="#DejaVuSans-65"/>
    <use x="136.71875" xlink:href="#DejaVuSans-61"/>
    <use x="197.998047" xlink:href="#DejaVuSans-74"/>
    <use x="237.207031" xlink:href="#DejaVuSans-20"/>
    <use x="268.994141" xlink:href="#DejaVuSans-45"/>
    <use x="332.177734" xlink:href="#DejaVuSans-71"/>
    <use x="395.654297" xlink:href="#DejaVuSans-75"/>
    <use x="459.033203" xlink:href="#DejaVuSans-61"/>
    <use x="520.3125" xlink:href="#DejaVuSans-74"/>
    <use x="559.521484" xlink:href="#DejaVuSans-69"/>
    <use x="587.304688" xlink:href="#DejaVuSans-6f"/>
    <use x="648.486328" xlink:href="#DejaVuSans-6e"/>
    <use x="711.865234" xlink:href="#DejaVuSans-20"/>
    <use x="743.652344" xlink:href="#DejaVuSans-77"/>
    <use x="825.439453" xlink:href="#DejaVuSans-69"/>
    <use x="853.222656" xlink:href="#DejaVuSans-74"/>
    <use x="892.431641" xlink:href="#DejaVuSans-68"/>
    <use x="955.810547" xlink:href="#DejaVuSans-20"/>
    <use x="987.597656" xlink:href="#DejaVuSans-52"/>
    <use x="1054.830078" xlink:href="#DejaVuSans-61"/>
    <use x="1116.109375" xlink:href="#DejaVuSans-64"/>
    <use x="1179.585938" xlink:href="#DejaVuSans-69"/>
    <use x="1207.369141" xlink:href="#DejaVuSans-61"/>
    <use x="1268.648438" xlink:href="#DejaVuSans-74"/>
    <use x="1307.857422" xlink:href="#DejaVuSans-69"/>
    <use x="1335.640625" xlink:href="#DejaVuSans-76"/>
    <use x="1394.820312" xlink:href="#DejaVuSans-65"/>
    <use x="1456.34375" xlink:href="#DejaVuSans-20"/>
    <use x="1488.130859" xlink:href="#DejaVuSans-4c"/>
    <use x="1542.09375" xlink:href="#DejaVuSans-6f"/>
    <use x="1603.275391" xlink:href="#DejaVuSans-73"/>
    <use x="1655.375" xlink:href="#DejaVuSans-73"/>
    <use x="1707.474609" xlink:href="#DejaVuSans-20"/>
    <use x="1739.261719" xlink:href="#DejaVuSans-61"/>
    <use x="1800.541016" xlink:href="#DejaVuSans-6e"/>
    <use x="1863.919922" xlink:href="#DejaVuSans-64"/>
    <use x="1927.396484" xlink:href="#DejaVuSans-20"/>
    <use x="1959.183594" xlink:href="#DejaVuSans-50"/>
    <use x="2014.986328" xlink:href="#DejaVuSans-61"/>
    <use x="2076.265625" xlink:href="#DejaVuSans-74"/>
    <use x="2115.474609" xlink:href="#DejaVuSans-68"/>
    <use x="2178.853516" xlink:href="#DejaVuSans-20"/>
    <use x="2210.640625" xlink:href="#DejaVuSans-43"/>
    <use x="2280.464844" xlink:href="#DejaVuSans-6f"/>
    <use x="2341.646484" xlink:href="#DejaVuSans-6e"/>
    <use x="2405.025391" xlink:href="#DejaVuSans-73"/>
    <use x="2457.125" xlink:href="#DejaVuSans-74"/>
    <use x="2496.333984" xlink:href="#DejaVuSans-72"/>
    <use x="2537.447266" xlink:href="#DejaVuSans-61"/>
    <use x="2598.726562" xlink:href="#DejaVuSans-69"/>
    <use x="2626.509766" xlink:href="#DejaVuSans-6e"/>
    <use x="2689.888672" xlink:href="#DejaVuSans-74"/>
   </g>
  </g>
 </g>
 <defs>
  <clipPath id="p8870205f48">
   <rect height="202.411485" width="327.91202" x="29.08774" y="34.051845"/>
  </clipPath>
  <clipPath id="pda92ba7d3d">
   <rect height="202.411485" width="327.91202" x="29.08774" y="259.141935"/>
  </clipPath>
  <clipPath id="pb5a0e2ecd6">
   <rect height="202.411485" width="327.91202" x="29.08774" y="484.232025"/>
  </clipPath>
 </defs>
</svg>
