<?xml version="1.0" encoding="utf-8" standalone="no"?>
<!DOCTYPE svg PUBLIC "-//W3C//DTD SVG 1.1//EN"
  "http://www.w3.org/Graphics/SVG/1.1/DTD/svg11.dtd">
<svg height="720pt" version="1.1" viewBox="0 0 360 720" width="360pt" xmlns="http://www.w3.org/2000/svg" xmlns:xlink="http://www.w3.org/1999/xlink">
 <metadata>
  <rdf:RDF xmlns:cc="http://creativecommons.org/ns#" xmlns:dc="http://purl.org/dc/elements/1.1/" xmlns:rdf="http://www.w3.org/1999/02/22-rdf-syntax-ns#">
   <cc:Work>
    <dc:type rdf:resource="http://purl.org/dc/dcmitype/StillImage"/>
    <dc:date>2021-08-23T03:13:10.433265</dc:date>
    <dc:format>image/svg+xml</dc:format>
    <dc:creator>
     <cc:Agent>
      <dc:title>Matplotlib v3.4.2, https://matplotlib.org/</dc:title>
     </cc:Agent>
    </dc:creator>
   </cc:Work>
  </rdf:RDF>
 </metadata>
 <defs>
  <style type="text/css">*{stroke-linecap:butt;stroke-linejoin:round;}</style>
 </defs>
 <g id="figure_1">
  <g id="patch_1">
   <path d="M 0 720 
L 360 720 
L 360 0 
L 0 0 
z
" style="fill:#ffffff;"/>
  </g>
  <g id="axes_1">
   <g id="patch_2">
    <path d="M 29.08774 236.46333 
L 356.99976 236.46333 
L 356.99976 34.051845 
L 29.08774 34.051845 
z
" style="fill:#ffffff;"/>
   </g>
   <g id="matplotlib.axis_1">
    <g id="xtick_1">
     <g id="line2d_1">
      <defs>
       <path d="M 0 0 
L 0 3.5 
" id="mfc6b3694c8" style="stroke:#000000;stroke-width:0.8;"/>
      </defs>
      <g>
       <use style="stroke:#000000;stroke-width:0.8;" x="43.992832" xlink:href="#mfc6b3694c8" y="236.46333"/>
      </g>
     </g>
     <g id="text_1">
      <!-- 0.0 -->
      <g transform="translate(36.041269 251.061768)scale(0.1 -0.1)">
       <defs>
        <path d="M 2034 4250 
Q 1547 4250 1301 3770 
Q 1056 3291 1056 2328 
Q 1056 1369 1301 889 
Q 1547 409 2034 409 
Q 2525 409 2770 889 
Q 3016 1369 3016 2328 
Q 3016 3291 2770 3770 
Q 2525 4250 2034 4250 
z
M 2034 4750 
Q 2819 4750 3233 4129 
Q 3647 3509 3647 2328 
Q 3647 1150 3233 529 
Q 2819 -91 2034 -91 
Q 1250 -91 836 529 
Q 422 1150 422 2328 
Q 422 3509 836 4129 
Q 1250 4750 2034 4750 
z
" id="DejaVuSans-30" transform="scale(0.015625)"/>
        <path d="M 684 794 
L 1344 794 
L 1344 0 
L 684 0 
L 684 794 
z
" id="DejaVuSans-2e" transform="scale(0.015625)"/>
       </defs>
       <use xlink:href="#DejaVuSans-30"/>
       <use x="63.623047" xlink:href="#DejaVuSans-2e"/>
       <use x="95.410156" xlink:href="#DejaVuSans-30"/>
      </g>
     </g>
    </g>
    <g id="xtick_2">
     <g id="line2d_2">
      <g>
       <use style="stroke:#000000;stroke-width:0.8;" x="103.613199" xlink:href="#mfc6b3694c8" y="236.46333"/>
      </g>
     </g>
     <g id="text_2">
      <!-- 0.2 -->
      <g transform="translate(95.661637 251.061768)scale(0.1 -0.1)">
       <defs>
        <path d="M 1228 531 
L 3431 531 
L 3431 0 
L 469 0 
L 469 531 
Q 828 903 1448 1529 
Q 2069 2156 2228 2338 
Q 2531 2678 2651 2914 
Q 2772 3150 2772 3378 
Q 2772 3750 2511 3984 
Q 2250 4219 1831 4219 
Q 1534 4219 1204 4116 
Q 875 4013 500 3803 
L 500 4441 
Q 881 4594 1212 4672 
Q 1544 4750 1819 4750 
Q 2544 4750 2975 4387 
Q 3406 4025 3406 3419 
Q 3406 3131 3298 2873 
Q 3191 2616 2906 2266 
Q 2828 2175 2409 1742 
Q 1991 1309 1228 531 
z
" id="DejaVuSans-32" transform="scale(0.015625)"/>
       </defs>
       <use xlink:href="#DejaVuSans-30"/>
       <use x="63.623047" xlink:href="#DejaVuSans-2e"/>
       <use x="95.410156" xlink:href="#DejaVuSans-32"/>
      </g>
     </g>
    </g>
    <g id="xtick_3">
     <g id="line2d_3">
      <g>
       <use style="stroke:#000000;stroke-width:0.8;" x="163.233566" xlink:href="#mfc6b3694c8" y="236.46333"/>
      </g>
     </g>
     <g id="text_3">
      <!-- 0.4 -->
      <g transform="translate(155.282004 251.061768)scale(0.1 -0.1)">
       <defs>
        <path d="M 2419 4116 
L 825 1625 
L 2419 1625 
L 2419 4116 
z
M 2253 4666 
L 3047 4666 
L 3047 1625 
L 3713 1625 
L 3713 1100 
L 3047 1100 
L 3047 0 
L 2419 0 
L 2419 1100 
L 313 1100 
L 313 1709 
L 2253 4666 
z
" id="DejaVuSans-34" transform="scale(0.015625)"/>
       </defs>
       <use xlink:href="#DejaVuSans-30"/>
       <use x="63.623047" xlink:href="#DejaVuSans-2e"/>
       <use x="95.410156" xlink:href="#DejaVuSans-34"/>
      </g>
     </g>
    </g>
    <g id="xtick_4">
     <g id="line2d_4">
      <g>
       <use style="stroke:#000000;stroke-width:0.8;" x="222.853934" xlink:href="#mfc6b3694c8" y="236.46333"/>
      </g>
     </g>
     <g id="text_4">
      <!-- 0.6 -->
      <g transform="translate(214.902371 251.061768)scale(0.1 -0.1)">
       <defs>
        <path d="M 2113 2584 
Q 1688 2584 1439 2293 
Q 1191 2003 1191 1497 
Q 1191 994 1439 701 
Q 1688 409 2113 409 
Q 2538 409 2786 701 
Q 3034 994 3034 1497 
Q 3034 2003 2786 2293 
Q 2538 2584 2113 2584 
z
M 3366 4563 
L 3366 3988 
Q 3128 4100 2886 4159 
Q 2644 4219 2406 4219 
Q 1781 4219 1451 3797 
Q 1122 3375 1075 2522 
Q 1259 2794 1537 2939 
Q 1816 3084 2150 3084 
Q 2853 3084 3261 2657 
Q 3669 2231 3669 1497 
Q 3669 778 3244 343 
Q 2819 -91 2113 -91 
Q 1303 -91 875 529 
Q 447 1150 447 2328 
Q 447 3434 972 4092 
Q 1497 4750 2381 4750 
Q 2619 4750 2861 4703 
Q 3103 4656 3366 4563 
z
" id="DejaVuSans-36" transform="scale(0.015625)"/>
       </defs>
       <use xlink:href="#DejaVuSans-30"/>
       <use x="63.623047" xlink:href="#DejaVuSans-2e"/>
       <use x="95.410156" xlink:href="#DejaVuSans-36"/>
      </g>
     </g>
    </g>
    <g id="xtick_5">
     <g id="line2d_5">
      <g>
       <use style="stroke:#000000;stroke-width:0.8;" x="282.474301" xlink:href="#mfc6b3694c8" y="236.46333"/>
      </g>
     </g>
     <g id="text_5">
      <!-- 0.8 -->
      <g transform="translate(274.522738 251.061768)scale(0.1 -0.1)">
       <defs>
        <path d="M 2034 2216 
Q 1584 2216 1326 1975 
Q 1069 1734 1069 1313 
Q 1069 891 1326 650 
Q 1584 409 2034 409 
Q 2484 409 2743 651 
Q 3003 894 3003 1313 
Q 3003 1734 2745 1975 
Q 2488 2216 2034 2216 
z
M 1403 2484 
Q 997 2584 770 2862 
Q 544 3141 544 3541 
Q 544 4100 942 4425 
Q 1341 4750 2034 4750 
Q 2731 4750 3128 4425 
Q 3525 4100 3525 3541 
Q 3525 3141 3298 2862 
Q 3072 2584 2669 2484 
Q 3125 2378 3379 2068 
Q 3634 1759 3634 1313 
Q 3634 634 3220 271 
Q 2806 -91 2034 -91 
Q 1263 -91 848 271 
Q 434 634 434 1313 
Q 434 1759 690 2068 
Q 947 2378 1403 2484 
z
M 1172 3481 
Q 1172 3119 1398 2916 
Q 1625 2713 2034 2713 
Q 2441 2713 2670 2916 
Q 2900 3119 2900 3481 
Q 2900 3844 2670 4047 
Q 2441 4250 2034 4250 
Q 1625 4250 1398 4047 
Q 1172 3844 1172 3481 
z
" id="DejaVuSans-38" transform="scale(0.015625)"/>
       </defs>
       <use xlink:href="#DejaVuSans-30"/>
       <use x="63.623047" xlink:href="#DejaVuSans-2e"/>
       <use x="95.410156" xlink:href="#DejaVuSans-38"/>
      </g>
     </g>
    </g>
    <g id="xtick_6">
     <g id="line2d_6">
      <g>
       <use style="stroke:#000000;stroke-width:0.8;" x="342.094668" xlink:href="#mfc6b3694c8" y="236.46333"/>
      </g>
     </g>
     <g id="text_6">
      <!-- 1.0 -->
      <g transform="translate(334.143106 251.061768)scale(0.1 -0.1)">
       <defs>
        <path d="M 794 531 
L 1825 531 
L 1825 4091 
L 703 3866 
L 703 4441 
L 1819 4666 
L 2450 4666 
L 2450 531 
L 3481 531 
L 3481 0 
L 794 0 
L 794 531 
z
" id="DejaVuSans-31" transform="scale(0.015625)"/>
       </defs>
       <use xlink:href="#DejaVuSans-31"/>
       <use x="63.623047" xlink:href="#DejaVuSans-2e"/>
       <use x="95.410156" xlink:href="#DejaVuSans-30"/>
      </g>
     </g>
    </g>
   </g>
   <g id="matplotlib.axis_2">
    <g id="ytick_1">
     <g id="line2d_7">
      <defs>
       <path d="M 0 0 
L -3.5 0 
" id="m1728bc2426" style="stroke:#000000;stroke-width:0.8;"/>
      </defs>
      <g>
       <use style="stroke:#000000;stroke-width:0.8;" x="29.08774" xlink:href="#m1728bc2426" y="216.747926"/>
      </g>
     </g>
     <g id="text_7">
      <!-- 275 -->
      <g transform="translate(3.00024 220.547144)scale(0.1 -0.1)">
       <defs>
        <path d="M 525 4666 
L 3525 4666 
L 3525 4397 
L 1831 0 
L 1172 0 
L 2766 4134 
L 525 4134 
L 525 4666 
z
" id="DejaVuSans-37" transform="scale(0.015625)"/>
        <path d="M 691 4666 
L 3169 4666 
L 3169 4134 
L 1269 4134 
L 1269 2991 
Q 1406 3038 1543 3061 
Q 1681 3084 1819 3084 
Q 2600 3084 3056 2656 
Q 3513 2228 3513 1497 
Q 3513 744 3044 326 
Q 2575 -91 1722 -91 
Q 1428 -91 1123 -41 
Q 819 9 494 109 
L 494 744 
Q 775 591 1075 516 
Q 1375 441 1709 441 
Q 2250 441 2565 725 
Q 2881 1009 2881 1497 
Q 2881 1984 2565 2268 
Q 2250 2553 1709 2553 
Q 1456 2553 1204 2497 
Q 953 2441 691 2322 
L 691 4666 
z
" id="DejaVuSans-35" transform="scale(0.015625)"/>
       </defs>
       <use xlink:href="#DejaVuSans-32"/>
       <use x="63.623047" xlink:href="#DejaVuSans-37"/>
       <use x="127.246094" xlink:href="#DejaVuSans-35"/>
      </g>
     </g>
    </g>
    <g id="ytick_2">
     <g id="line2d_8">
      <g>
       <use style="stroke:#000000;stroke-width:0.8;" x="29.08774" xlink:href="#m1728bc2426" y="190.46072"/>
      </g>
     </g>
     <g id="text_8">
      <!-- 280 -->
      <g transform="translate(3.00024 194.259939)scale(0.1 -0.1)">
       <use xlink:href="#DejaVuSans-32"/>
       <use x="63.623047" xlink:href="#DejaVuSans-38"/>
       <use x="127.246094" xlink:href="#DejaVuSans-30"/>
      </g>
     </g>
    </g>
    <g id="ytick_3">
     <g id="line2d_9">
      <g>
       <use style="stroke:#000000;stroke-width:0.8;" x="29.08774" xlink:href="#m1728bc2426" y="164.173514"/>
      </g>
     </g>
     <g id="text_9">
      <!-- 285 -->
      <g transform="translate(3.00024 167.972733)scale(0.1 -0.1)">
       <use xlink:href="#DejaVuSans-32"/>
       <use x="63.623047" xlink:href="#DejaVuSans-38"/>
       <use x="127.246094" xlink:href="#DejaVuSans-35"/>
      </g>
     </g>
    </g>
    <g id="ytick_4">
     <g id="line2d_10">
      <g>
       <use style="stroke:#000000;stroke-width:0.8;" x="29.08774" xlink:href="#m1728bc2426" y="137.886308"/>
      </g>
     </g>
     <g id="text_10">
      <!-- 290 -->
      <g transform="translate(3.00024 141.685527)scale(0.1 -0.1)">
       <defs>
        <path d="M 703 97 
L 703 672 
Q 941 559 1184 500 
Q 1428 441 1663 441 
Q 2288 441 2617 861 
Q 2947 1281 2994 2138 
Q 2813 1869 2534 1725 
Q 2256 1581 1919 1581 
Q 1219 1581 811 2004 
Q 403 2428 403 3163 
Q 403 3881 828 4315 
Q 1253 4750 1959 4750 
Q 2769 4750 3195 4129 
Q 3622 3509 3622 2328 
Q 3622 1225 3098 567 
Q 2575 -91 1691 -91 
Q 1453 -91 1209 -44 
Q 966 3 703 97 
z
M 1959 2075 
Q 2384 2075 2632 2365 
Q 2881 2656 2881 3163 
Q 2881 3666 2632 3958 
Q 2384 4250 1959 4250 
Q 1534 4250 1286 3958 
Q 1038 3666 1038 3163 
Q 1038 2656 1286 2365 
Q 1534 2075 1959 2075 
z
" id="DejaVuSans-39" transform="scale(0.015625)"/>
       </defs>
       <use xlink:href="#DejaVuSans-32"/>
       <use x="63.623047" xlink:href="#DejaVuSans-39"/>
       <use x="127.246094" xlink:href="#DejaVuSans-30"/>
      </g>
     </g>
    </g>
    <g id="ytick_5">
     <g id="line2d_11">
      <g>
       <use style="stroke:#000000;stroke-width:0.8;" x="29.08774" xlink:href="#m1728bc2426" y="111.599102"/>
      </g>
     </g>
     <g id="text_11">
      <!-- 295 -->
      <g transform="translate(3.00024 115.398321)scale(0.1 -0.1)">
       <use xlink:href="#DejaVuSans-32"/>
       <use x="63.623047" xlink:href="#DejaVuSans-39"/>
       <use x="127.246094" xlink:href="#DejaVuSans-35"/>
      </g>
     </g>
    </g>
    <g id="ytick_6">
     <g id="line2d_12">
      <g>
       <use style="stroke:#000000;stroke-width:0.8;" x="29.08774" xlink:href="#m1728bc2426" y="85.311896"/>
      </g>
     </g>
     <g id="text_12">
      <!-- 300 -->
      <g transform="translate(3.00024 89.111115)scale(0.1 -0.1)">
       <defs>
        <path d="M 2597 2516 
Q 3050 2419 3304 2112 
Q 3559 1806 3559 1356 
Q 3559 666 3084 287 
Q 2609 -91 1734 -91 
Q 1441 -91 1130 -33 
Q 819 25 488 141 
L 488 750 
Q 750 597 1062 519 
Q 1375 441 1716 441 
Q 2309 441 2620 675 
Q 2931 909 2931 1356 
Q 2931 1769 2642 2001 
Q 2353 2234 1838 2234 
L 1294 2234 
L 1294 2753 
L 1863 2753 
Q 2328 2753 2575 2939 
Q 2822 3125 2822 3475 
Q 2822 3834 2567 4026 
Q 2313 4219 1838 4219 
Q 1578 4219 1281 4162 
Q 984 4106 628 3988 
L 628 4550 
Q 988 4650 1302 4700 
Q 1616 4750 1894 4750 
Q 2613 4750 3031 4423 
Q 3450 4097 3450 3541 
Q 3450 3153 3228 2886 
Q 3006 2619 2597 2516 
z
" id="DejaVuSans-33" transform="scale(0.015625)"/>
       </defs>
       <use xlink:href="#DejaVuSans-33"/>
       <use x="63.623047" xlink:href="#DejaVuSans-30"/>
       <use x="127.246094" xlink:href="#DejaVuSans-30"/>
      </g>
     </g>
    </g>
    <g id="ytick_7">
     <g id="line2d_13">
      <g>
       <use style="stroke:#000000;stroke-width:0.8;" x="29.08774" xlink:href="#m1728bc2426" y="59.024691"/>
      </g>
     </g>
     <g id="text_13">
      <!-- 305 -->
      <g transform="translate(3.00024 62.823909)scale(0.1 -0.1)">
       <use xlink:href="#DejaVuSans-33"/>
       <use x="63.623047" xlink:href="#DejaVuSans-30"/>
       <use x="127.246094" xlink:href="#DejaVuSans-35"/>
      </g>
     </g>
    </g>
   </g>
   <g id="line2d_14">
    <path clip-path="url(#pe061ac0b48)" d="M 43.992832 227.262808 
L 73.803015 133.446399 
L 103.613199 62.628666 
L 133.423383 76.307477 
L 163.233566 96.404046 
L 193.04375 106.261222 
L 222.853934 109.404121 
L 252.664117 107.517225 
L 282.474301 102.120462 
L 312.284485 98.356659 
L 342.094668 96.315721 
" style="fill:none;stroke:#1f77b4;stroke-linecap:square;stroke-width:1.5;"/>
   </g>
   <g id="line2d_15">
    <path clip-path="url(#pe061ac0b48)" d="M 43.992832 227.262808 
L 73.803015 135.859641 
L 103.613199 120.146547 
L 133.423383 113.212527 
L 163.233566 105.114592 
L 193.04375 97.350697 
L 222.853934 89.191099 
L 252.664117 80.318297 
L 282.474301 74.700151 
L 312.284485 71.658447 
L 342.094668 87.332973 
" style="fill:none;stroke:#ff7f0e;stroke-linecap:square;stroke-width:1.5;"/>
   </g>
   <g id="line2d_16">
    <path clip-path="url(#pe061ac0b48)" d="M 43.992832 122.113985 
L 73.803015 116.593671 
L 103.613199 110.547614 
L 133.423383 103.975813 
L 163.233566 96.878267 
L 193.04375 89.254977 
L 222.853934 81.105943 
L 252.664117 72.431166 
L 282.474301 63.230643 
L 312.284485 53.504377 
L 342.094668 43.252367 
" style="fill:none;stroke:#2ca02c;stroke-dasharray:5.55,2.4;stroke-dashoffset:0;stroke-width:1.5;"/>
   </g>
   <g id="line2d_17">
    <path clip-path="url(#pe061ac0b48)" d="M 43.992832 69.539573 
L 73.803015 69.539573 
L 103.613199 69.539573 
L 133.423383 69.539573 
L 163.233566 69.539573 
L 193.04375 69.539573 
L 222.853934 69.539573 
L 252.664117 69.539573 
L 282.474301 69.539573 
L 312.284485 69.539573 
L 342.094668 69.539573 
" style="fill:none;stroke:#d62728;stroke-dasharray:5.55,2.4;stroke-dashoffset:0;stroke-width:1.5;"/>
   </g>
   <g id="patch_3">
    <path d="M 29.08774 236.46333 
L 29.08774 34.051845 
" style="fill:none;stroke:#000000;stroke-linecap:square;stroke-linejoin:miter;stroke-width:0.8;"/>
   </g>
   <g id="patch_4">
    <path d="M 356.99976 236.46333 
L 356.99976 34.051845 
" style="fill:none;stroke:#000000;stroke-linecap:square;stroke-linejoin:miter;stroke-width:0.8;"/>
   </g>
   <g id="patch_5">
    <path d="M 29.08774 236.46333 
L 356.99976 236.46333 
" style="fill:none;stroke:#000000;stroke-linecap:square;stroke-linejoin:miter;stroke-width:0.8;"/>
   </g>
   <g id="patch_6">
    <path d="M 29.08774 34.051845 
L 356.99976 34.051845 
" style="fill:none;stroke:#000000;stroke-linecap:square;stroke-linejoin:miter;stroke-width:0.8;"/>
   </g>
   <g id="legend_1">
    <g id="patch_7">
     <path d="M 211.19976 231.46333 
L 349.99976 231.46333 
Q 351.99976 231.46333 351.99976 229.46333 
L 351.99976 171.70708 
Q 351.99976 169.70708 349.99976 169.70708 
L 211.19976 169.70708 
Q 209.19976 169.70708 209.19976 171.70708 
L 209.19976 229.46333 
Q 209.19976 231.46333 211.19976 231.46333 
z
" style="fill:#ffffff;opacity:0.8;stroke:#cccccc;stroke-linejoin:miter;"/>
    </g>
    <g id="line2d_18">
     <path d="M 213.19976 177.80708 
L 233.19976 177.80708 
" style="fill:none;stroke:#1f77b4;stroke-linecap:square;stroke-width:1.5;"/>
    </g>
    <g id="line2d_19"/>
    <g id="text_14">
     <!-- Actual system: $x_5$ -->
     <g transform="translate(241.19976 181.30708)scale(0.1 -0.1)">
      <defs>
       <path d="M 2188 4044 
L 1331 1722 
L 3047 1722 
L 2188 4044 
z
M 1831 4666 
L 2547 4666 
L 4325 0 
L 3669 0 
L 3244 1197 
L 1141 1197 
L 716 0 
L 50 0 
L 1831 4666 
z
" id="DejaVuSans-41" transform="scale(0.015625)"/>
       <path d="M 3122 3366 
L 3122 2828 
Q 2878 2963 2633 3030 
Q 2388 3097 2138 3097 
Q 1578 3097 1268 2742 
Q 959 2388 959 1747 
Q 959 1106 1268 751 
Q 1578 397 2138 397 
Q 2388 397 2633 464 
Q 2878 531 3122 666 
L 3122 134 
Q 2881 22 2623 -34 
Q 2366 -91 2075 -91 
Q 1284 -91 818 406 
Q 353 903 353 1747 
Q 353 2603 823 3093 
Q 1294 3584 2113 3584 
Q 2378 3584 2631 3529 
Q 2884 3475 3122 3366 
z
" id="DejaVuSans-63" transform="scale(0.015625)"/>
       <path d="M 1172 4494 
L 1172 3500 
L 2356 3500 
L 2356 3053 
L 1172 3053 
L 1172 1153 
Q 1172 725 1289 603 
Q 1406 481 1766 481 
L 2356 481 
L 2356 0 
L 1766 0 
Q 1100 0 847 248 
Q 594 497 594 1153 
L 594 3053 
L 172 3053 
L 172 3500 
L 594 3500 
L 594 4494 
L 1172 4494 
z
" id="DejaVuSans-74" transform="scale(0.015625)"/>
       <path d="M 544 1381 
L 544 3500 
L 1119 3500 
L 1119 1403 
Q 1119 906 1312 657 
Q 1506 409 1894 409 
Q 2359 409 2629 706 
Q 2900 1003 2900 1516 
L 2900 3500 
L 3475 3500 
L 3475 0 
L 2900 0 
L 2900 538 
Q 2691 219 2414 64 
Q 2138 -91 1772 -91 
Q 1169 -91 856 284 
Q 544 659 544 1381 
z
M 1991 3584 
L 1991 3584 
z
" id="DejaVuSans-75" transform="scale(0.015625)"/>
       <path d="M 2194 1759 
Q 1497 1759 1228 1600 
Q 959 1441 959 1056 
Q 959 750 1161 570 
Q 1363 391 1709 391 
Q 2188 391 2477 730 
Q 2766 1069 2766 1631 
L 2766 1759 
L 2194 1759 
z
M 3341 1997 
L 3341 0 
L 2766 0 
L 2766 531 
Q 2569 213 2275 61 
Q 1981 -91 1556 -91 
Q 1019 -91 701 211 
Q 384 513 384 1019 
Q 384 1609 779 1909 
Q 1175 2209 1959 2209 
L 2766 2209 
L 2766 2266 
Q 2766 2663 2505 2880 
Q 2244 3097 1772 3097 
Q 1472 3097 1187 3025 
Q 903 2953 641 2809 
L 641 3341 
Q 956 3463 1253 3523 
Q 1550 3584 1831 3584 
Q 2591 3584 2966 3190 
Q 3341 2797 3341 1997 
z
" id="DejaVuSans-61" transform="scale(0.015625)"/>
       <path d="M 603 4863 
L 1178 4863 
L 1178 0 
L 603 0 
L 603 4863 
z
" id="DejaVuSans-6c" transform="scale(0.015625)"/>
       <path id="DejaVuSans-20" transform="scale(0.015625)"/>
       <path d="M 2834 3397 
L 2834 2853 
Q 2591 2978 2328 3040 
Q 2066 3103 1784 3103 
Q 1356 3103 1142 2972 
Q 928 2841 928 2578 
Q 928 2378 1081 2264 
Q 1234 2150 1697 2047 
L 1894 2003 
Q 2506 1872 2764 1633 
Q 3022 1394 3022 966 
Q 3022 478 2636 193 
Q 2250 -91 1575 -91 
Q 1294 -91 989 -36 
Q 684 19 347 128 
L 347 722 
Q 666 556 975 473 
Q 1284 391 1588 391 
Q 1994 391 2212 530 
Q 2431 669 2431 922 
Q 2431 1156 2273 1281 
Q 2116 1406 1581 1522 
L 1381 1569 
Q 847 1681 609 1914 
Q 372 2147 372 2553 
Q 372 3047 722 3315 
Q 1072 3584 1716 3584 
Q 2034 3584 2315 3537 
Q 2597 3491 2834 3397 
z
" id="DejaVuSans-73" transform="scale(0.015625)"/>
       <path d="M 2059 -325 
Q 1816 -950 1584 -1140 
Q 1353 -1331 966 -1331 
L 506 -1331 
L 506 -850 
L 844 -850 
Q 1081 -850 1212 -737 
Q 1344 -625 1503 -206 
L 1606 56 
L 191 3500 
L 800 3500 
L 1894 763 
L 2988 3500 
L 3597 3500 
L 2059 -325 
z
" id="DejaVuSans-79" transform="scale(0.015625)"/>
       <path d="M 3597 1894 
L 3597 1613 
L 953 1613 
Q 991 1019 1311 708 
Q 1631 397 2203 397 
Q 2534 397 2845 478 
Q 3156 559 3463 722 
L 3463 178 
Q 3153 47 2828 -22 
Q 2503 -91 2169 -91 
Q 1331 -91 842 396 
Q 353 884 353 1716 
Q 353 2575 817 3079 
Q 1281 3584 2069 3584 
Q 2775 3584 3186 3129 
Q 3597 2675 3597 1894 
z
M 3022 2063 
Q 3016 2534 2758 2815 
Q 2500 3097 2075 3097 
Q 1594 3097 1305 2825 
Q 1016 2553 972 2059 
L 3022 2063 
z
" id="DejaVuSans-65" transform="scale(0.015625)"/>
       <path d="M 3328 2828 
Q 3544 3216 3844 3400 
Q 4144 3584 4550 3584 
Q 5097 3584 5394 3201 
Q 5691 2819 5691 2113 
L 5691 0 
L 5113 0 
L 5113 2094 
Q 5113 2597 4934 2840 
Q 4756 3084 4391 3084 
Q 3944 3084 3684 2787 
Q 3425 2491 3425 1978 
L 3425 0 
L 2847 0 
L 2847 2094 
Q 2847 2600 2669 2842 
Q 2491 3084 2119 3084 
Q 1678 3084 1418 2786 
Q 1159 2488 1159 1978 
L 1159 0 
L 581 0 
L 581 3500 
L 1159 3500 
L 1159 2956 
Q 1356 3278 1631 3431 
Q 1906 3584 2284 3584 
Q 2666 3584 2933 3390 
Q 3200 3197 3328 2828 
z
" id="DejaVuSans-6d" transform="scale(0.015625)"/>
       <path d="M 750 794 
L 1409 794 
L 1409 0 
L 750 0 
L 750 794 
z
M 750 3309 
L 1409 3309 
L 1409 2516 
L 750 2516 
L 750 3309 
z
" id="DejaVuSans-3a" transform="scale(0.015625)"/>
       <path d="M 3841 3500 
L 2234 1784 
L 3219 0 
L 2559 0 
L 1819 1388 
L 531 0 
L -166 0 
L 1556 1844 
L 641 3500 
L 1300 3500 
L 1972 2234 
L 3144 3500 
L 3841 3500 
z
" id="DejaVuSans-Oblique-78" transform="scale(0.015625)"/>
      </defs>
      <use transform="translate(0 0.015625)" xlink:href="#DejaVuSans-41"/>
      <use transform="translate(68.408203 0.015625)" xlink:href="#DejaVuSans-63"/>
      <use transform="translate(123.388672 0.015625)" xlink:href="#DejaVuSans-74"/>
      <use transform="translate(162.597656 0.015625)" xlink:href="#DejaVuSans-75"/>
      <use transform="translate(225.976562 0.015625)" xlink:href="#DejaVuSans-61"/>
      <use transform="translate(287.255859 0.015625)" xlink:href="#DejaVuSans-6c"/>
      <use transform="translate(315.039062 0.015625)" xlink:href="#DejaVuSans-20"/>
      <use transform="translate(346.826172 0.015625)" xlink:href="#DejaVuSans-73"/>
      <use transform="translate(398.925781 0.015625)" xlink:href="#DejaVuSans-79"/>
      <use transform="translate(458.105469 0.015625)" xlink:href="#DejaVuSans-73"/>
      <use transform="translate(510.205078 0.015625)" xlink:href="#DejaVuSans-74"/>
      <use transform="translate(549.414062 0.015625)" xlink:href="#DejaVuSans-65"/>
      <use transform="translate(610.9375 0.015625)" xlink:href="#DejaVuSans-6d"/>
      <use transform="translate(706.599609 0.015625)" xlink:href="#DejaVuSans-3a"/>
      <use transform="translate(740.291016 0.015625)" xlink:href="#DejaVuSans-20"/>
      <use transform="translate(772.078125 0.015625)" xlink:href="#DejaVuSans-Oblique-78"/>
      <use transform="translate(831.257812 -16.390625)scale(0.7)" xlink:href="#DejaVuSans-35"/>
     </g>
    </g>
    <g id="line2d_20">
     <path d="M 213.19976 192.505517 
L 233.19976 192.505517 
" style="fill:none;stroke:#ff7f0e;stroke-linecap:square;stroke-width:1.5;"/>
    </g>
    <g id="line2d_21"/>
    <g id="text_15">
     <!-- MPC forecast: $x_5$ -->
     <g transform="translate(241.19976 196.005517)scale(0.1 -0.1)">
      <defs>
       <path d="M 628 4666 
L 1569 4666 
L 2759 1491 
L 3956 4666 
L 4897 4666 
L 4897 0 
L 4281 0 
L 4281 4097 
L 3078 897 
L 2444 897 
L 1241 4097 
L 1241 0 
L 628 0 
L 628 4666 
z
" id="DejaVuSans-4d" transform="scale(0.015625)"/>
       <path d="M 1259 4147 
L 1259 2394 
L 2053 2394 
Q 2494 2394 2734 2622 
Q 2975 2850 2975 3272 
Q 2975 3691 2734 3919 
Q 2494 4147 2053 4147 
L 1259 4147 
z
M 628 4666 
L 2053 4666 
Q 2838 4666 3239 4311 
Q 3641 3956 3641 3272 
Q 3641 2581 3239 2228 
Q 2838 1875 2053 1875 
L 1259 1875 
L 1259 0 
L 628 0 
L 628 4666 
z
" id="DejaVuSans-50" transform="scale(0.015625)"/>
       <path d="M 4122 4306 
L 4122 3641 
Q 3803 3938 3442 4084 
Q 3081 4231 2675 4231 
Q 1875 4231 1450 3742 
Q 1025 3253 1025 2328 
Q 1025 1406 1450 917 
Q 1875 428 2675 428 
Q 3081 428 3442 575 
Q 3803 722 4122 1019 
L 4122 359 
Q 3791 134 3420 21 
Q 3050 -91 2638 -91 
Q 1578 -91 968 557 
Q 359 1206 359 2328 
Q 359 3453 968 4101 
Q 1578 4750 2638 4750 
Q 3056 4750 3426 4639 
Q 3797 4528 4122 4306 
z
" id="DejaVuSans-43" transform="scale(0.015625)"/>
       <path d="M 2375 4863 
L 2375 4384 
L 1825 4384 
Q 1516 4384 1395 4259 
Q 1275 4134 1275 3809 
L 1275 3500 
L 2222 3500 
L 2222 3053 
L 1275 3053 
L 1275 0 
L 697 0 
L 697 3053 
L 147 3053 
L 147 3500 
L 697 3500 
L 697 3744 
Q 697 4328 969 4595 
Q 1241 4863 1831 4863 
L 2375 4863 
z
" id="DejaVuSans-66" transform="scale(0.015625)"/>
       <path d="M 1959 3097 
Q 1497 3097 1228 2736 
Q 959 2375 959 1747 
Q 959 1119 1226 758 
Q 1494 397 1959 397 
Q 2419 397 2687 759 
Q 2956 1122 2956 1747 
Q 2956 2369 2687 2733 
Q 2419 3097 1959 3097 
z
M 1959 3584 
Q 2709 3584 3137 3096 
Q 3566 2609 3566 1747 
Q 3566 888 3137 398 
Q 2709 -91 1959 -91 
Q 1206 -91 779 398 
Q 353 888 353 1747 
Q 353 2609 779 3096 
Q 1206 3584 1959 3584 
z
" id="DejaVuSans-6f" transform="scale(0.015625)"/>
       <path d="M 2631 2963 
Q 2534 3019 2420 3045 
Q 2306 3072 2169 3072 
Q 1681 3072 1420 2755 
Q 1159 2438 1159 1844 
L 1159 0 
L 581 0 
L 581 3500 
L 1159 3500 
L 1159 2956 
Q 1341 3275 1631 3429 
Q 1922 3584 2338 3584 
Q 2397 3584 2469 3576 
Q 2541 3569 2628 3553 
L 2631 2963 
z
" id="DejaVuSans-72" transform="scale(0.015625)"/>
      </defs>
      <use transform="translate(0 0.015625)" xlink:href="#DejaVuSans-4d"/>
      <use transform="translate(86.279297 0.015625)" xlink:href="#DejaVuSans-50"/>
      <use transform="translate(146.582031 0.015625)" xlink:href="#DejaVuSans-43"/>
      <use transform="translate(216.40625 0.015625)" xlink:href="#DejaVuSans-20"/>
      <use transform="translate(248.193359 0.015625)" xlink:href="#DejaVuSans-66"/>
      <use transform="translate(283.398438 0.015625)" xlink:href="#DejaVuSans-6f"/>
      <use transform="translate(344.580078 0.015625)" xlink:href="#DejaVuSans-72"/>
      <use transform="translate(385.693359 0.015625)" xlink:href="#DejaVuSans-65"/>
      <use transform="translate(447.216797 0.015625)" xlink:href="#DejaVuSans-63"/>
      <use transform="translate(502.197266 0.015625)" xlink:href="#DejaVuSans-61"/>
      <use transform="translate(563.476562 0.015625)" xlink:href="#DejaVuSans-73"/>
      <use transform="translate(615.576172 0.015625)" xlink:href="#DejaVuSans-74"/>
      <use transform="translate(654.785156 0.015625)" xlink:href="#DejaVuSans-3a"/>
      <use transform="translate(688.476562 0.015625)" xlink:href="#DejaVuSans-20"/>
      <use transform="translate(720.263672 0.015625)" xlink:href="#DejaVuSans-Oblique-78"/>
      <use transform="translate(779.443359 -16.390625)scale(0.7)" xlink:href="#DejaVuSans-35"/>
     </g>
    </g>
    <g id="line2d_22">
     <path d="M 213.19976 207.183643 
L 233.19976 207.183643 
" style="fill:none;stroke:#2ca02c;stroke-dasharray:5.55,2.4;stroke-dashoffset:0;stroke-width:1.5;"/>
    </g>
    <g id="line2d_23"/>
    <g id="text_16">
     <!-- Path constraint for $x_5$ -->
     <g transform="translate(241.19976 210.683643)scale(0.1 -0.1)">
      <defs>
       <path d="M 3513 2113 
L 3513 0 
L 2938 0 
L 2938 2094 
Q 2938 2591 2744 2837 
Q 2550 3084 2163 3084 
Q 1697 3084 1428 2787 
Q 1159 2491 1159 1978 
L 1159 0 
L 581 0 
L 581 4863 
L 1159 4863 
L 1159 2956 
Q 1366 3272 1645 3428 
Q 1925 3584 2291 3584 
Q 2894 3584 3203 3211 
Q 3513 2838 3513 2113 
z
" id="DejaVuSans-68" transform="scale(0.015625)"/>
       <path d="M 3513 2113 
L 3513 0 
L 2938 0 
L 2938 2094 
Q 2938 2591 2744 2837 
Q 2550 3084 2163 3084 
Q 1697 3084 1428 2787 
Q 1159 2491 1159 1978 
L 1159 0 
L 581 0 
L 581 3500 
L 1159 3500 
L 1159 2956 
Q 1366 3272 1645 3428 
Q 1925 3584 2291 3584 
Q 2894 3584 3203 3211 
Q 3513 2838 3513 2113 
z
" id="DejaVuSans-6e" transform="scale(0.015625)"/>
       <path d="M 603 3500 
L 1178 3500 
L 1178 0 
L 603 0 
L 603 3500 
z
M 603 4863 
L 1178 4863 
L 1178 4134 
L 603 4134 
L 603 4863 
z
" id="DejaVuSans-69" transform="scale(0.015625)"/>
      </defs>
      <use transform="translate(0 0.015625)" xlink:href="#DejaVuSans-50"/>
      <use transform="translate(60.302734 0.015625)" xlink:href="#DejaVuSans-61"/>
      <use transform="translate(121.582031 0.015625)" xlink:href="#DejaVuSans-74"/>
      <use transform="translate(160.791016 0.015625)" xlink:href="#DejaVuSans-68"/>
      <use transform="translate(224.169922 0.015625)" xlink:href="#DejaVuSans-20"/>
      <use transform="translate(255.957031 0.015625)" xlink:href="#DejaVuSans-63"/>
      <use transform="translate(310.9375 0.015625)" xlink:href="#DejaVuSans-6f"/>
      <use transform="translate(372.119141 0.015625)" xlink:href="#DejaVuSans-6e"/>
      <use transform="translate(435.498047 0.015625)" xlink:href="#DejaVuSans-73"/>
      <use transform="translate(487.597656 0.015625)" xlink:href="#DejaVuSans-74"/>
      <use transform="translate(526.806641 0.015625)" xlink:href="#DejaVuSans-72"/>
      <use transform="translate(567.919922 0.015625)" xlink:href="#DejaVuSans-61"/>
      <use transform="translate(629.199219 0.015625)" xlink:href="#DejaVuSans-69"/>
      <use transform="translate(656.982422 0.015625)" xlink:href="#DejaVuSans-6e"/>
      <use transform="translate(720.361328 0.015625)" xlink:href="#DejaVuSans-74"/>
      <use transform="translate(759.570312 0.015625)" xlink:href="#DejaVuSans-20"/>
      <use transform="translate(791.357422 0.015625)" xlink:href="#DejaVuSans-66"/>
      <use transform="translate(826.5625 0.015625)" xlink:href="#DejaVuSans-6f"/>
      <use transform="translate(887.744141 0.015625)" xlink:href="#DejaVuSans-72"/>
      <use transform="translate(928.857422 0.015625)" xlink:href="#DejaVuSans-20"/>
      <use transform="translate(960.644531 0.015625)" xlink:href="#DejaVuSans-Oblique-78"/>
      <use transform="translate(1019.824219 -16.390625)scale(0.7)" xlink:href="#DejaVuSans-35"/>
     </g>
    </g>
    <g id="line2d_24">
     <path d="M 213.19976 221.86333 
L 233.19976 221.86333 
" style="fill:none;stroke:#d62728;stroke-dasharray:5.55,2.4;stroke-dashoffset:0;stroke-width:1.5;"/>
    </g>
    <g id="line2d_25"/>
    <g id="text_17">
     <!-- Setpoint for $x_5$ -->
     <g transform="translate(241.19976 225.36333)scale(0.1 -0.1)">
      <defs>
       <path d="M 3425 4513 
L 3425 3897 
Q 3066 4069 2747 4153 
Q 2428 4238 2131 4238 
Q 1616 4238 1336 4038 
Q 1056 3838 1056 3469 
Q 1056 3159 1242 3001 
Q 1428 2844 1947 2747 
L 2328 2669 
Q 3034 2534 3370 2195 
Q 3706 1856 3706 1288 
Q 3706 609 3251 259 
Q 2797 -91 1919 -91 
Q 1588 -91 1214 -16 
Q 841 59 441 206 
L 441 856 
Q 825 641 1194 531 
Q 1563 422 1919 422 
Q 2459 422 2753 634 
Q 3047 847 3047 1241 
Q 3047 1584 2836 1778 
Q 2625 1972 2144 2069 
L 1759 2144 
Q 1053 2284 737 2584 
Q 422 2884 422 3419 
Q 422 4038 858 4394 
Q 1294 4750 2059 4750 
Q 2388 4750 2728 4690 
Q 3069 4631 3425 4513 
z
" id="DejaVuSans-53" transform="scale(0.015625)"/>
       <path d="M 1159 525 
L 1159 -1331 
L 581 -1331 
L 581 3500 
L 1159 3500 
L 1159 2969 
Q 1341 3281 1617 3432 
Q 1894 3584 2278 3584 
Q 2916 3584 3314 3078 
Q 3713 2572 3713 1747 
Q 3713 922 3314 415 
Q 2916 -91 2278 -91 
Q 1894 -91 1617 61 
Q 1341 213 1159 525 
z
M 3116 1747 
Q 3116 2381 2855 2742 
Q 2594 3103 2138 3103 
Q 1681 3103 1420 2742 
Q 1159 2381 1159 1747 
Q 1159 1113 1420 752 
Q 1681 391 2138 391 
Q 2594 391 2855 752 
Q 3116 1113 3116 1747 
z
" id="DejaVuSans-70" transform="scale(0.015625)"/>
      </defs>
      <use transform="translate(0 0.015625)" xlink:href="#DejaVuSans-53"/>
      <use transform="translate(63.476562 0.015625)" xlink:href="#DejaVuSans-65"/>
      <use transform="translate(125 0.015625)" xlink:href="#DejaVuSans-74"/>
      <use transform="translate(164.208984 0.015625)" xlink:href="#DejaVuSans-70"/>
      <use transform="translate(227.685547 0.015625)" xlink:href="#DejaVuSans-6f"/>
      <use transform="translate(288.867188 0.015625)" xlink:href="#DejaVuSans-69"/>
      <use transform="translate(316.650391 0.015625)" xlink:href="#DejaVuSans-6e"/>
      <use transform="translate(380.029297 0.015625)" xlink:href="#DejaVuSans-74"/>
      <use transform="translate(419.238281 0.015625)" xlink:href="#DejaVuSans-20"/>
      <use transform="translate(451.025391 0.015625)" xlink:href="#DejaVuSans-66"/>
      <use transform="translate(486.230469 0.015625)" xlink:href="#DejaVuSans-6f"/>
      <use transform="translate(547.412109 0.015625)" xlink:href="#DejaVuSans-72"/>
      <use transform="translate(588.525391 0.015625)" xlink:href="#DejaVuSans-20"/>
      <use transform="translate(620.3125 0.015625)" xlink:href="#DejaVuSans-Oblique-78"/>
      <use transform="translate(679.492188 -16.390625)scale(0.7)" xlink:href="#DejaVuSans-35"/>
     </g>
    </g>
   </g>
  </g>
  <g id="axes_2">
   <g id="patch_8">
    <path d="M 29.08774 461.55342 
L 356.99976 461.55342 
L 356.99976 259.141935 
L 29.08774 259.141935 
z
" style="fill:#ffffff;"/>
   </g>
   <g id="matplotlib.axis_3">
    <g id="xtick_7">
     <g id="line2d_26">
      <g>
       <use style="stroke:#000000;stroke-width:0.8;" x="43.992832" xlink:href="#mfc6b3694c8" y="461.55342"/>
      </g>
     </g>
     <g id="text_18">
      <!-- 0.0 -->
      <g transform="translate(36.041269 476.151857)scale(0.1 -0.1)">
       <use xlink:href="#DejaVuSans-30"/>
       <use x="63.623047" xlink:href="#DejaVuSans-2e"/>
       <use x="95.410156" xlink:href="#DejaVuSans-30"/>
      </g>
     </g>
    </g>
    <g id="xtick_8">
     <g id="line2d_27">
      <g>
       <use style="stroke:#000000;stroke-width:0.8;" x="103.613199" xlink:href="#mfc6b3694c8" y="461.55342"/>
      </g>
     </g>
     <g id="text_19">
      <!-- 0.2 -->
      <g transform="translate(95.661637 476.151857)scale(0.1 -0.1)">
       <use xlink:href="#DejaVuSans-30"/>
       <use x="63.623047" xlink:href="#DejaVuSans-2e"/>
       <use x="95.410156" xlink:href="#DejaVuSans-32"/>
      </g>
     </g>
    </g>
    <g id="xtick_9">
     <g id="line2d_28">
      <g>
       <use style="stroke:#000000;stroke-width:0.8;" x="163.233566" xlink:href="#mfc6b3694c8" y="461.55342"/>
      </g>
     </g>
     <g id="text_20">
      <!-- 0.4 -->
      <g transform="translate(155.282004 476.151857)scale(0.1 -0.1)">
       <use xlink:href="#DejaVuSans-30"/>
       <use x="63.623047" xlink:href="#DejaVuSans-2e"/>
       <use x="95.410156" xlink:href="#DejaVuSans-34"/>
      </g>
     </g>
    </g>
    <g id="xtick_10">
     <g id="line2d_29">
      <g>
       <use style="stroke:#000000;stroke-width:0.8;" x="222.853934" xlink:href="#mfc6b3694c8" y="461.55342"/>
      </g>
     </g>
     <g id="text_21">
      <!-- 0.6 -->
      <g transform="translate(214.902371 476.151857)scale(0.1 -0.1)">
       <use xlink:href="#DejaVuSans-30"/>
       <use x="63.623047" xlink:href="#DejaVuSans-2e"/>
       <use x="95.410156" xlink:href="#DejaVuSans-36"/>
      </g>
     </g>
    </g>
    <g id="xtick_11">
     <g id="line2d_30">
      <g>
       <use style="stroke:#000000;stroke-width:0.8;" x="282.474301" xlink:href="#mfc6b3694c8" y="461.55342"/>
      </g>
     </g>
     <g id="text_22">
      <!-- 0.8 -->
      <g transform="translate(274.522738 476.151857)scale(0.1 -0.1)">
       <use xlink:href="#DejaVuSans-30"/>
       <use x="63.623047" xlink:href="#DejaVuSans-2e"/>
       <use x="95.410156" xlink:href="#DejaVuSans-38"/>
      </g>
     </g>
    </g>
    <g id="xtick_12">
     <g id="line2d_31">
      <g>
       <use style="stroke:#000000;stroke-width:0.8;" x="342.094668" xlink:href="#mfc6b3694c8" y="461.55342"/>
      </g>
     </g>
     <g id="text_23">
      <!-- 1.0 -->
      <g transform="translate(334.143106 476.151857)scale(0.1 -0.1)">
       <use xlink:href="#DejaVuSans-31"/>
       <use x="63.623047" xlink:href="#DejaVuSans-2e"/>
       <use x="95.410156" xlink:href="#DejaVuSans-30"/>
      </g>
     </g>
    </g>
   </g>
   <g id="matplotlib.axis_4">
    <g id="ytick_8">
     <g id="line2d_32">
      <g>
       <use style="stroke:#000000;stroke-width:0.8;" x="29.08774" xlink:href="#m1728bc2426" y="461.55342"/>
      </g>
     </g>
     <g id="text_24">
      <!-- 270 -->
      <g transform="translate(3.00024 465.352639)scale(0.1 -0.1)">
       <use xlink:href="#DejaVuSans-32"/>
       <use x="63.623047" xlink:href="#DejaVuSans-37"/>
       <use x="127.246094" xlink:href="#DejaVuSans-30"/>
      </g>
     </g>
    </g>
    <g id="ytick_9">
     <g id="line2d_33">
      <g>
       <use style="stroke:#000000;stroke-width:0.8;" x="29.08774" xlink:href="#m1728bc2426" y="430.885013"/>
      </g>
     </g>
     <g id="text_25">
      <!-- 280 -->
      <g transform="translate(3.00024 434.684232)scale(0.1 -0.1)">
       <use xlink:href="#DejaVuSans-32"/>
       <use x="63.623047" xlink:href="#DejaVuSans-38"/>
       <use x="127.246094" xlink:href="#DejaVuSans-30"/>
      </g>
     </g>
    </g>
    <g id="ytick_10">
     <g id="line2d_34">
      <g>
       <use style="stroke:#000000;stroke-width:0.8;" x="29.08774" xlink:href="#m1728bc2426" y="400.216606"/>
      </g>
     </g>
     <g id="text_26">
      <!-- 290 -->
      <g transform="translate(3.00024 404.015825)scale(0.1 -0.1)">
       <use xlink:href="#DejaVuSans-32"/>
       <use x="63.623047" xlink:href="#DejaVuSans-39"/>
       <use x="127.246094" xlink:href="#DejaVuSans-30"/>
      </g>
     </g>
    </g>
    <g id="ytick_11">
     <g id="line2d_35">
      <g>
       <use style="stroke:#000000;stroke-width:0.8;" x="29.08774" xlink:href="#m1728bc2426" y="369.5482"/>
      </g>
     </g>
     <g id="text_27">
      <!-- 300 -->
      <g transform="translate(3.00024 373.347418)scale(0.1 -0.1)">
       <use xlink:href="#DejaVuSans-33"/>
       <use x="63.623047" xlink:href="#DejaVuSans-30"/>
       <use x="127.246094" xlink:href="#DejaVuSans-30"/>
      </g>
     </g>
    </g>
    <g id="ytick_12">
     <g id="line2d_36">
      <g>
       <use style="stroke:#000000;stroke-width:0.8;" x="29.08774" xlink:href="#m1728bc2426" y="338.879793"/>
      </g>
     </g>
     <g id="text_28">
      <!-- 310 -->
      <g transform="translate(3.00024 342.679011)scale(0.1 -0.1)">
       <use xlink:href="#DejaVuSans-33"/>
       <use x="63.623047" xlink:href="#DejaVuSans-31"/>
       <use x="127.246094" xlink:href="#DejaVuSans-30"/>
      </g>
     </g>
    </g>
    <g id="ytick_13">
     <g id="line2d_37">
      <g>
       <use style="stroke:#000000;stroke-width:0.8;" x="29.08774" xlink:href="#m1728bc2426" y="308.211386"/>
      </g>
     </g>
     <g id="text_29">
      <!-- 320 -->
      <g transform="translate(3.00024 312.010605)scale(0.1 -0.1)">
       <use xlink:href="#DejaVuSans-33"/>
       <use x="63.623047" xlink:href="#DejaVuSans-32"/>
       <use x="127.246094" xlink:href="#DejaVuSans-30"/>
      </g>
     </g>
    </g>
    <g id="ytick_14">
     <g id="line2d_38">
      <g>
       <use style="stroke:#000000;stroke-width:0.8;" x="29.08774" xlink:href="#m1728bc2426" y="277.542979"/>
      </g>
     </g>
     <g id="text_30">
      <!-- 330 -->
      <g transform="translate(3.00024 281.342198)scale(0.1 -0.1)">
       <use xlink:href="#DejaVuSans-33"/>
       <use x="63.623047" xlink:href="#DejaVuSans-33"/>
       <use x="127.246094" xlink:href="#DejaVuSans-30"/>
      </g>
     </g>
    </g>
   </g>
   <g id="line2d_39">
    <path clip-path="url(#pd97225975c)" d="M 43.992832 452.352898 
L 73.803015 420.144017 
L 103.613199 374.13282 
L 133.423383 351.779845 
L 163.233566 343.500908 
L 193.04375 343.088112 
L 222.853934 346.82291 
L 252.664117 349.839455 
L 282.474301 351.496469 
L 312.284485 352.357944 
L 342.094668 352.510366 
" style="fill:none;stroke:#1f77b4;stroke-linecap:square;stroke-width:1.5;"/>
   </g>
   <g id="line2d_40">
    <path clip-path="url(#pd97225975c)" d="M 43.992832 452.352898 
L 73.803015 384.060479 
L 103.613199 338.580063 
L 133.423383 302.819998 
L 163.233566 289.105652 
L 193.04375 286.018697 
L 222.853934 285.357204 
L 252.664117 285.014075 
L 282.474301 284.784432 
L 312.284485 284.345184 
L 342.094668 315.015548 
" style="fill:none;stroke:#ff7f0e;stroke-linecap:square;stroke-width:1.5;"/>
   </g>
   <g id="line2d_41">
    <path clip-path="url(#pd97225975c)" d="M 43.992832 268.342457 
L 73.803015 268.342457 
L 103.613199 268.342457 
L 133.423383 268.342457 
L 163.233566 268.342457 
L 193.04375 268.342457 
L 222.853934 268.342457 
L 252.664117 268.342457 
L 282.474301 268.342457 
L 312.284485 268.342457 
L 342.094668 268.342457 
" style="fill:none;stroke:#2ca02c;stroke-dasharray:5.55,2.4;stroke-dashoffset:0;stroke-width:1.5;"/>
   </g>
   <g id="patch_9">
    <path d="M 29.08774 461.55342 
L 29.08774 259.141935 
" style="fill:none;stroke:#000000;stroke-linecap:square;stroke-linejoin:miter;stroke-width:0.8;"/>
   </g>
   <g id="patch_10">
    <path d="M 356.99976 461.55342 
L 356.99976 259.141935 
" style="fill:none;stroke:#000000;stroke-linecap:square;stroke-linejoin:miter;stroke-width:0.8;"/>
   </g>
   <g id="patch_11">
    <path d="M 29.08774 461.55342 
L 356.99976 461.55342 
" style="fill:none;stroke:#000000;stroke-linecap:square;stroke-linejoin:miter;stroke-width:0.8;"/>
   </g>
   <g id="patch_12">
    <path d="M 29.08774 259.141935 
L 356.99976 259.141935 
" style="fill:none;stroke:#000000;stroke-linecap:square;stroke-linejoin:miter;stroke-width:0.8;"/>
   </g>
   <g id="legend_2">
    <g id="patch_13">
     <path d="M 225.59976 456.55342 
L 349.99976 456.55342 
Q 351.99976 456.55342 351.99976 454.55342 
L 351.99976 411.475295 
Q 351.99976 409.475295 349.99976 409.475295 
L 225.59976 409.475295 
Q 223.59976 409.475295 223.59976 411.475295 
L 223.59976 454.55342 
Q 223.59976 456.55342 225.59976 456.55342 
z
" style="fill:#ffffff;opacity:0.8;stroke:#cccccc;stroke-linejoin:miter;"/>
    </g>
    <g id="line2d_42">
     <path d="M 227.59976 417.575295 
L 247.59976 417.575295 
" style="fill:none;stroke:#1f77b4;stroke-linecap:square;stroke-width:1.5;"/>
    </g>
    <g id="line2d_43"/>
    <g id="text_31">
     <!-- Actual system: $x_{13}$ -->
     <g transform="translate(255.59976 421.075295)scale(0.1 -0.1)">
      <use transform="translate(0 0.015625)" xlink:href="#DejaVuSans-41"/>
      <use transform="translate(68.408203 0.015625)" xlink:href="#DejaVuSans-63"/>
      <use transform="translate(123.388672 0.015625)" xlink:href="#DejaVuSans-74"/>
      <use transform="translate(162.597656 0.015625)" xlink:href="#DejaVuSans-75"/>
      <use transform="translate(225.976562 0.015625)" xlink:href="#DejaVuSans-61"/>
      <use transform="translate(287.255859 0.015625)" xlink:href="#DejaVuSans-6c"/>
      <use transform="translate(315.039062 0.015625)" xlink:href="#DejaVuSans-20"/>
      <use transform="translate(346.826172 0.015625)" xlink:href="#DejaVuSans-73"/>
      <use transform="translate(398.925781 0.015625)" xlink:href="#DejaVuSans-79"/>
      <use transform="translate(458.105469 0.015625)" xlink:href="#DejaVuSans-73"/>
      <use transform="translate(510.205078 0.015625)" xlink:href="#DejaVuSans-74"/>
      <use transform="translate(549.414062 0.015625)" xlink:href="#DejaVuSans-65"/>
      <use transform="translate(610.9375 0.015625)" xlink:href="#DejaVuSans-6d"/>
      <use transform="translate(706.599609 0.015625)" xlink:href="#DejaVuSans-3a"/>
      <use transform="translate(740.291016 0.015625)" xlink:href="#DejaVuSans-20"/>
      <use transform="translate(772.078125 0.015625)" xlink:href="#DejaVuSans-Oblique-78"/>
      <use transform="translate(831.257812 -16.390625)scale(0.7)" xlink:href="#DejaVuSans-31"/>
      <use transform="translate(875.793945 -16.390625)scale(0.7)" xlink:href="#DejaVuSans-33"/>
     </g>
    </g>
    <g id="line2d_44">
     <path d="M 227.59976 432.273732 
L 247.59976 432.273732 
" style="fill:none;stroke:#ff7f0e;stroke-linecap:square;stroke-width:1.5;"/>
    </g>
    <g id="line2d_45"/>
    <g id="text_32">
     <!-- MPC forecast $x_{13}$ -->
     <g transform="translate(255.59976 435.773732)scale(0.1 -0.1)">
      <use transform="translate(0 0.015625)" xlink:href="#DejaVuSans-4d"/>
      <use transform="translate(86.279297 0.015625)" xlink:href="#DejaVuSans-50"/>
      <use transform="translate(146.582031 0.015625)" xlink:href="#DejaVuSans-43"/>
      <use transform="translate(216.40625 0.015625)" xlink:href="#DejaVuSans-20"/>
      <use transform="translate(248.193359 0.015625)" xlink:href="#DejaVuSans-66"/>
      <use transform="translate(283.398438 0.015625)" xlink:href="#DejaVuSans-6f"/>
      <use transform="translate(344.580078 0.015625)" xlink:href="#DejaVuSans-72"/>
      <use transform="translate(385.693359 0.015625)" xlink:href="#DejaVuSans-65"/>
      <use transform="translate(447.216797 0.015625)" xlink:href="#DejaVuSans-63"/>
      <use transform="translate(502.197266 0.015625)" xlink:href="#DejaVuSans-61"/>
      <use transform="translate(563.476562 0.015625)" xlink:href="#DejaVuSans-73"/>
      <use transform="translate(615.576172 0.015625)" xlink:href="#DejaVuSans-74"/>
      <use transform="translate(654.785156 0.015625)" xlink:href="#DejaVuSans-20"/>
      <use transform="translate(686.572266 0.015625)" xlink:href="#DejaVuSans-Oblique-78"/>
      <use transform="translate(745.751953 -16.390625)scale(0.7)" xlink:href="#DejaVuSans-31"/>
      <use transform="translate(790.288086 -16.390625)scale(0.7)" xlink:href="#DejaVuSans-33"/>
     </g>
    </g>
    <g id="line2d_46">
     <path d="M 227.59976 446.95342 
L 247.59976 446.95342 
" style="fill:none;stroke:#2ca02c;stroke-dasharray:5.55,2.4;stroke-dashoffset:0;stroke-width:1.5;"/>
    </g>
    <g id="line2d_47"/>
    <g id="text_33">
     <!-- Setpoint for $x_{13}$ -->
     <g transform="translate(255.59976 450.45342)scale(0.1 -0.1)">
      <use transform="translate(0 0.015625)" xlink:href="#DejaVuSans-53"/>
      <use transform="translate(63.476562 0.015625)" xlink:href="#DejaVuSans-65"/>
      <use transform="translate(125 0.015625)" xlink:href="#DejaVuSans-74"/>
      <use transform="translate(164.208984 0.015625)" xlink:href="#DejaVuSans-70"/>
      <use transform="translate(227.685547 0.015625)" xlink:href="#DejaVuSans-6f"/>
      <use transform="translate(288.867188 0.015625)" xlink:href="#DejaVuSans-69"/>
      <use transform="translate(316.650391 0.015625)" xlink:href="#DejaVuSans-6e"/>
      <use transform="translate(380.029297 0.015625)" xlink:href="#DejaVuSans-74"/>
      <use transform="translate(419.238281 0.015625)" xlink:href="#DejaVuSans-20"/>
      <use transform="translate(451.025391 0.015625)" xlink:href="#DejaVuSans-66"/>
      <use transform="translate(486.230469 0.015625)" xlink:href="#DejaVuSans-6f"/>
      <use transform="translate(547.412109 0.015625)" xlink:href="#DejaVuSans-72"/>
      <use transform="translate(588.525391 0.015625)" xlink:href="#DejaVuSans-20"/>
      <use transform="translate(620.3125 0.015625)" xlink:href="#DejaVuSans-Oblique-78"/>
      <use transform="translate(679.492188 -16.390625)scale(0.7)" xlink:href="#DejaVuSans-31"/>
      <use transform="translate(724.02832 -16.390625)scale(0.7)" xlink:href="#DejaVuSans-33"/>
     </g>
    </g>
   </g>
  </g>
  <g id="axes_3">
   <g id="patch_14">
    <path d="M 29.08774 686.64351 
L 356.99976 686.64351 
L 356.99976 484.232025 
L 29.08774 484.232025 
z
" style="fill:#ffffff;"/>
   </g>
   <g id="matplotlib.axis_5">
    <g id="xtick_13">
     <g id="line2d_48">
      <g>
       <use style="stroke:#000000;stroke-width:0.8;" x="43.992832" xlink:href="#mfc6b3694c8" y="686.64351"/>
      </g>
     </g>
     <g id="text_34">
      <!-- 0.0 -->
      <g transform="translate(36.041269 701.241948)scale(0.1 -0.1)">
       <use xlink:href="#DejaVuSans-30"/>
       <use x="63.623047" xlink:href="#DejaVuSans-2e"/>
       <use x="95.410156" xlink:href="#DejaVuSans-30"/>
      </g>
     </g>
    </g>
    <g id="xtick_14">
     <g id="line2d_49">
      <g>
       <use style="stroke:#000000;stroke-width:0.8;" x="103.613199" xlink:href="#mfc6b3694c8" y="686.64351"/>
      </g>
     </g>
     <g id="text_35">
      <!-- 0.2 -->
      <g transform="translate(95.661637 701.241948)scale(0.1 -0.1)">
       <use xlink:href="#DejaVuSans-30"/>
       <use x="63.623047" xlink:href="#DejaVuSans-2e"/>
       <use x="95.410156" xlink:href="#DejaVuSans-32"/>
      </g>
     </g>
    </g>
    <g id="xtick_15">
     <g id="line2d_50">
      <g>
       <use style="stroke:#000000;stroke-width:0.8;" x="163.233566" xlink:href="#mfc6b3694c8" y="686.64351"/>
      </g>
     </g>
     <g id="text_36">
      <!-- 0.4 -->
      <g transform="translate(155.282004 701.241948)scale(0.1 -0.1)">
       <use xlink:href="#DejaVuSans-30"/>
       <use x="63.623047" xlink:href="#DejaVuSans-2e"/>
       <use x="95.410156" xlink:href="#DejaVuSans-34"/>
      </g>
     </g>
    </g>
    <g id="xtick_16">
     <g id="line2d_51">
      <g>
       <use style="stroke:#000000;stroke-width:0.8;" x="222.853934" xlink:href="#mfc6b3694c8" y="686.64351"/>
      </g>
     </g>
     <g id="text_37">
      <!-- 0.6 -->
      <g transform="translate(214.902371 701.241948)scale(0.1 -0.1)">
       <use xlink:href="#DejaVuSans-30"/>
       <use x="63.623047" xlink:href="#DejaVuSans-2e"/>
       <use x="95.410156" xlink:href="#DejaVuSans-36"/>
      </g>
     </g>
    </g>
    <g id="xtick_17">
     <g id="line2d_52">
      <g>
       <use style="stroke:#000000;stroke-width:0.8;" x="282.474301" xlink:href="#mfc6b3694c8" y="686.64351"/>
      </g>
     </g>
     <g id="text_38">
      <!-- 0.8 -->
      <g transform="translate(274.522738 701.241948)scale(0.1 -0.1)">
       <use xlink:href="#DejaVuSans-30"/>
       <use x="63.623047" xlink:href="#DejaVuSans-2e"/>
       <use x="95.410156" xlink:href="#DejaVuSans-38"/>
      </g>
     </g>
    </g>
    <g id="xtick_18">
     <g id="line2d_53">
      <g>
       <use style="stroke:#000000;stroke-width:0.8;" x="342.094668" xlink:href="#mfc6b3694c8" y="686.64351"/>
      </g>
     </g>
     <g id="text_39">
      <!-- 1.0 -->
      <g transform="translate(334.143106 701.241948)scale(0.1 -0.1)">
       <use xlink:href="#DejaVuSans-31"/>
       <use x="63.623047" xlink:href="#DejaVuSans-2e"/>
       <use x="95.410156" xlink:href="#DejaVuSans-30"/>
      </g>
     </g>
    </g>
    <g id="text_40">
     <!-- Time -->
     <g transform="translate(180.810156 714.920072)scale(0.1 -0.1)">
      <defs>
       <path d="M -19 4666 
L 3928 4666 
L 3928 4134 
L 2272 4134 
L 2272 0 
L 1638 0 
L 1638 4134 
L -19 4134 
L -19 4666 
z
" id="DejaVuSans-54" transform="scale(0.015625)"/>
      </defs>
      <use xlink:href="#DejaVuSans-54"/>
      <use x="57.958984" xlink:href="#DejaVuSans-69"/>
      <use x="85.742188" xlink:href="#DejaVuSans-6d"/>
      <use x="183.154297" xlink:href="#DejaVuSans-65"/>
     </g>
    </g>
   </g>
   <g id="matplotlib.axis_6">
    <g id="ytick_15">
     <g id="line2d_54">
      <g>
       <use style="stroke:#000000;stroke-width:0.8;" x="29.08774" xlink:href="#m1728bc2426" y="678.624112"/>
      </g>
     </g>
     <g id="text_41">
      <!-- 300 -->
      <g transform="translate(3.00024 682.423331)scale(0.1 -0.1)">
       <use xlink:href="#DejaVuSans-33"/>
       <use x="63.623047" xlink:href="#DejaVuSans-30"/>
       <use x="127.246094" xlink:href="#DejaVuSans-30"/>
      </g>
     </g>
    </g>
    <g id="ytick_16">
     <g id="line2d_55">
      <g>
       <use style="stroke:#000000;stroke-width:0.8;" x="29.08774" xlink:href="#m1728bc2426" y="651.862325"/>
      </g>
     </g>
     <g id="text_42">
      <!-- 325 -->
      <g transform="translate(3.00024 655.661544)scale(0.1 -0.1)">
       <use xlink:href="#DejaVuSans-33"/>
       <use x="63.623047" xlink:href="#DejaVuSans-32"/>
       <use x="127.246094" xlink:href="#DejaVuSans-35"/>
      </g>
     </g>
    </g>
    <g id="ytick_17">
     <g id="line2d_56">
      <g>
       <use style="stroke:#000000;stroke-width:0.8;" x="29.08774" xlink:href="#m1728bc2426" y="625.100539"/>
      </g>
     </g>
     <g id="text_43">
      <!-- 350 -->
      <g transform="translate(3.00024 628.899757)scale(0.1 -0.1)">
       <use xlink:href="#DejaVuSans-33"/>
       <use x="63.623047" xlink:href="#DejaVuSans-35"/>
       <use x="127.246094" xlink:href="#DejaVuSans-30"/>
      </g>
     </g>
    </g>
    <g id="ytick_18">
     <g id="line2d_57">
      <g>
       <use style="stroke:#000000;stroke-width:0.8;" x="29.08774" xlink:href="#m1728bc2426" y="598.338752"/>
      </g>
     </g>
     <g id="text_44">
      <!-- 375 -->
      <g transform="translate(3.00024 602.13797)scale(0.1 -0.1)">
       <use xlink:href="#DejaVuSans-33"/>
       <use x="63.623047" xlink:href="#DejaVuSans-37"/>
       <use x="127.246094" xlink:href="#DejaVuSans-35"/>
      </g>
     </g>
    </g>
    <g id="ytick_19">
     <g id="line2d_58">
      <g>
       <use style="stroke:#000000;stroke-width:0.8;" x="29.08774" xlink:href="#m1728bc2426" y="571.576965"/>
      </g>
     </g>
     <g id="text_45">
      <!-- 400 -->
      <g transform="translate(3.00024 575.376184)scale(0.1 -0.1)">
       <use xlink:href="#DejaVuSans-34"/>
       <use x="63.623047" xlink:href="#DejaVuSans-30"/>
       <use x="127.246094" xlink:href="#DejaVuSans-30"/>
      </g>
     </g>
    </g>
    <g id="ytick_20">
     <g id="line2d_59">
      <g>
       <use style="stroke:#000000;stroke-width:0.8;" x="29.08774" xlink:href="#m1728bc2426" y="544.815178"/>
      </g>
     </g>
     <g id="text_46">
      <!-- 425 -->
      <g transform="translate(3.00024 548.614397)scale(0.1 -0.1)">
       <use xlink:href="#DejaVuSans-34"/>
       <use x="63.623047" xlink:href="#DejaVuSans-32"/>
       <use x="127.246094" xlink:href="#DejaVuSans-35"/>
      </g>
     </g>
    </g>
    <g id="ytick_21">
     <g id="line2d_60">
      <g>
       <use style="stroke:#000000;stroke-width:0.8;" x="29.08774" xlink:href="#m1728bc2426" y="518.053391"/>
      </g>
     </g>
     <g id="text_47">
      <!-- 450 -->
      <g transform="translate(3.00024 521.85261)scale(0.1 -0.1)">
       <use xlink:href="#DejaVuSans-34"/>
       <use x="63.623047" xlink:href="#DejaVuSans-35"/>
       <use x="127.246094" xlink:href="#DejaVuSans-30"/>
      </g>
     </g>
    </g>
    <g id="ytick_22">
     <g id="line2d_61">
      <g>
       <use style="stroke:#000000;stroke-width:0.8;" x="29.08774" xlink:href="#m1728bc2426" y="491.291604"/>
      </g>
     </g>
     <g id="text_48">
      <!-- 475 -->
      <g transform="translate(3.00024 495.090823)scale(0.1 -0.1)">
       <use xlink:href="#DejaVuSans-34"/>
       <use x="63.623047" xlink:href="#DejaVuSans-37"/>
       <use x="127.246094" xlink:href="#DejaVuSans-35"/>
      </g>
     </g>
    </g>
   </g>
   <g id="line2d_62">
    <path clip-path="url(#p024e5e44af)" d="M 43.992832 598.946862 
L 43.992832 588.746885 
L 73.803015 588.746885 
L 73.803015 657.173704 
L 103.613199 657.173704 
L 103.613199 667.385488 
L 133.423383 667.385488 
L 133.423383 670.285937 
L 163.233566 670.285937 
L 163.233566 668.809621 
L 193.04375 668.809621 
L 193.04375 664.312618 
L 222.853934 664.312618 
L 222.853934 658.775262 
L 252.664117 658.775262 
L 252.664117 657.616059 
L 282.474301 657.616059 
L 282.474301 656.997614 
L 312.284485 656.997614 
L 312.284485 677.442988 
L 342.094668 677.442988 
" style="fill:none;stroke:#1f77b4;stroke-linecap:square;stroke-width:1.5;"/>
   </g>
   <g id="line2d_63">
    <path clip-path="url(#p024e5e44af)" d="M 43.992832 493.432547 
L 43.992832 493.432547 
L 73.803015 493.432547 
L 73.803015 498.804101 
L 103.613199 498.804101 
L 103.613199 499.212016 
L 133.423383 499.212016 
L 133.423383 505.332224 
L 163.233566 505.332224 
L 163.233566 514.843694 
L 193.04375 514.843694 
L 193.04375 515.853336 
L 222.853934 515.853336 
L 222.853934 517.523804 
L 252.664117 517.523804 
L 252.664117 518.861989 
L 282.474301 518.861989 
L 282.474301 518.647512 
L 312.284485 518.647512 
L 312.284485 627.823831 
L 342.094668 627.823831 
" style="fill:none;stroke:#ff7f0e;stroke-linecap:square;stroke-width:1.5;"/>
   </g>
   <g id="patch_15">
    <path d="M 29.08774 686.64351 
L 29.08774 484.232025 
" style="fill:none;stroke:#000000;stroke-linecap:square;stroke-linejoin:miter;stroke-width:0.8;"/>
   </g>
   <g id="patch_16">
    <path d="M 356.99976 686.64351 
L 356.99976 484.232025 
" style="fill:none;stroke:#000000;stroke-linecap:square;stroke-linejoin:miter;stroke-width:0.8;"/>
   </g>
   <g id="patch_17">
    <path d="M 29.08774 686.64351 
L 356.99976 686.64351 
" style="fill:none;stroke:#000000;stroke-linecap:square;stroke-linejoin:miter;stroke-width:0.8;"/>
   </g>
   <g id="patch_18">
    <path d="M 29.08774 484.232025 
L 356.99976 484.232025 
" style="fill:none;stroke:#000000;stroke-linecap:square;stroke-linejoin:miter;stroke-width:0.8;"/>
   </g>
   <g id="legend_3">
    <g id="patch_19">
     <path d="M 171.49375 601.615892 
L 214.59375 601.615892 
Q 216.59375 601.615892 216.59375 599.615892 
L 216.59375 571.259642 
Q 216.59375 569.259642 214.59375 569.259642 
L 171.49375 569.259642 
Q 169.49375 569.259642 169.49375 571.259642 
L 169.49375 599.615892 
Q 169.49375 601.615892 171.49375 601.615892 
z
" style="fill:#ffffff;opacity:0.8;stroke:#cccccc;stroke-linejoin:miter;"/>
    </g>
    <g id="line2d_64">
     <path d="M 173.49375 577.35808 
L 193.49375 577.35808 
" style="fill:none;stroke:#1f77b4;stroke-linecap:square;stroke-width:1.5;"/>
    </g>
    <g id="line2d_65"/>
    <g id="text_49">
     <!-- $u_0$ -->
     <g transform="translate(201.49375 580.85808)scale(0.1 -0.1)">
      <defs>
       <path d="M 428 1388 
L 838 3500 
L 1416 3500 
L 1006 1409 
Q 975 1256 961 1147 
Q 947 1038 947 966 
Q 947 700 1109 554 
Q 1272 409 1569 409 
Q 2031 409 2368 721 
Q 2706 1034 2809 1563 
L 3194 3500 
L 3769 3500 
L 3091 0 
L 2516 0 
L 2631 550 
Q 2388 244 2052 76 
Q 1716 -91 1338 -91 
Q 878 -91 622 161 
Q 366 413 366 863 
Q 366 956 381 1097 
Q 397 1238 428 1388 
z
" id="DejaVuSans-Oblique-75" transform="scale(0.015625)"/>
      </defs>
      <use transform="translate(0 0.3125)" xlink:href="#DejaVuSans-Oblique-75"/>
      <use transform="translate(63.378906 -16.09375)scale(0.7)" xlink:href="#DejaVuSans-30"/>
     </g>
    </g>
    <g id="line2d_66">
     <path d="M 173.49375 592.036205 
L 193.49375 592.036205 
" style="fill:none;stroke:#ff7f0e;stroke-linecap:square;stroke-width:1.5;"/>
    </g>
    <g id="line2d_67"/>
    <g id="text_50">
     <!-- $u_1$ -->
     <g transform="translate(201.49375 595.536205)scale(0.1 -0.1)">
      <use transform="translate(0 0.3125)" xlink:href="#DejaVuSans-Oblique-75"/>
      <use transform="translate(63.378906 -16.09375)scale(0.7)" xlink:href="#DejaVuSans-31"/>
     </g>
    </g>
   </g>
  </g>
  <g id="text_51">
   <!-- MPC Controller: Cost achieved = 1353.372 -->
   <g transform="translate(51.869063 12.118365)scale(0.12 -0.12)">
    <defs>
     <path d="M 191 3500 
L 800 3500 
L 1894 563 
L 2988 3500 
L 3597 3500 
L 2284 0 
L 1503 0 
L 191 3500 
z
" id="DejaVuSans-76" transform="scale(0.015625)"/>
     <path d="M 2906 2969 
L 2906 4863 
L 3481 4863 
L 3481 0 
L 2906 0 
L 2906 525 
Q 2725 213 2448 61 
Q 2172 -91 1784 -91 
Q 1150 -91 751 415 
Q 353 922 353 1747 
Q 353 2572 751 3078 
Q 1150 3584 1784 3584 
Q 2172 3584 2448 3432 
Q 2725 3281 2906 2969 
z
M 947 1747 
Q 947 1113 1208 752 
Q 1469 391 1925 391 
Q 2381 391 2643 752 
Q 2906 1113 2906 1747 
Q 2906 2381 2643 2742 
Q 2381 3103 1925 3103 
Q 1469 3103 1208 2742 
Q 947 2381 947 1747 
z
" id="DejaVuSans-64" transform="scale(0.015625)"/>
     <path d="M 678 2906 
L 4684 2906 
L 4684 2381 
L 678 2381 
L 678 2906 
z
M 678 1631 
L 4684 1631 
L 4684 1100 
L 678 1100 
L 678 1631 
z
" id="DejaVuSans-3d" transform="scale(0.015625)"/>
    </defs>
    <use xlink:href="#DejaVuSans-4d"/>
    <use x="86.279297" xlink:href="#DejaVuSans-50"/>
    <use x="146.582031" xlink:href="#DejaVuSans-43"/>
    <use x="216.40625" xlink:href="#DejaVuSans-20"/>
    <use x="248.193359" xlink:href="#DejaVuSans-43"/>
    <use x="318.017578" xlink:href="#DejaVuSans-6f"/>
    <use x="379.199219" xlink:href="#DejaVuSans-6e"/>
    <use x="442.578125" xlink:href="#DejaVuSans-74"/>
    <use x="481.787109" xlink:href="#DejaVuSans-72"/>
    <use x="520.650391" xlink:href="#DejaVuSans-6f"/>
    <use x="581.832031" xlink:href="#DejaVuSans-6c"/>
    <use x="609.615234" xlink:href="#DejaVuSans-6c"/>
    <use x="637.398438" xlink:href="#DejaVuSans-65"/>
    <use x="698.921875" xlink:href="#DejaVuSans-72"/>
    <use x="738.285156" xlink:href="#DejaVuSans-3a"/>
    <use x="771.976562" xlink:href="#DejaVuSans-20"/>
    <use x="803.763672" xlink:href="#DejaVuSans-43"/>
    <use x="873.587891" xlink:href="#DejaVuSans-6f"/>
    <use x="934.769531" xlink:href="#DejaVuSans-73"/>
    <use x="986.869141" xlink:href="#DejaVuSans-74"/>
    <use x="1026.078125" xlink:href="#DejaVuSans-20"/>
    <use x="1057.865234" xlink:href="#DejaVuSans-61"/>
    <use x="1119.144531" xlink:href="#DejaVuSans-63"/>
    <use x="1174.125" xlink:href="#DejaVuSans-68"/>
    <use x="1237.503906" xlink:href="#DejaVuSans-69"/>
    <use x="1265.287109" xlink:href="#DejaVuSans-65"/>
    <use x="1326.810547" xlink:href="#DejaVuSans-76"/>
    <use x="1385.990234" xlink:href="#DejaVuSans-65"/>
    <use x="1447.513672" xlink:href="#DejaVuSans-64"/>
    <use x="1510.990234" xlink:href="#DejaVuSans-20"/>
    <use x="1542.777344" xlink:href="#DejaVuSans-3d"/>
    <use x="1626.566406" xlink:href="#DejaVuSans-20"/>
    <use x="1658.353516" xlink:href="#DejaVuSans-31"/>
    <use x="1721.976562" xlink:href="#DejaVuSans-33"/>
    <use x="1785.599609" xlink:href="#DejaVuSans-35"/>
    <use x="1849.222656" xlink:href="#DejaVuSans-33"/>
    <use x="1912.845703" xlink:href="#DejaVuSans-2e"/>
    <use x="1944.632812" xlink:href="#DejaVuSans-33"/>
    <use x="2008.255859" xlink:href="#DejaVuSans-37"/>
    <use x="2071.878906" xlink:href="#DejaVuSans-32"/>
   </g>
   <!-- Heat Equation with path constraint and radiative loss -->
   <g transform="translate(19.825312 25.55574)scale(0.12 -0.12)">
    <defs>
     <path d="M 628 4666 
L 1259 4666 
L 1259 2753 
L 3553 2753 
L 3553 4666 
L 4184 4666 
L 4184 0 
L 3553 0 
L 3553 2222 
L 1259 2222 
L 1259 0 
L 628 0 
L 628 4666 
z
" id="DejaVuSans-48" transform="scale(0.015625)"/>
     <path d="M 628 4666 
L 3578 4666 
L 3578 4134 
L 1259 4134 
L 1259 2753 
L 3481 2753 
L 3481 2222 
L 1259 2222 
L 1259 531 
L 3634 531 
L 3634 0 
L 628 0 
L 628 4666 
z
" id="DejaVuSans-45" transform="scale(0.015625)"/>
     <path d="M 947 1747 
Q 947 1113 1208 752 
Q 1469 391 1925 391 
Q 2381 391 2643 752 
Q 2906 1113 2906 1747 
Q 2906 2381 2643 2742 
Q 2381 3103 1925 3103 
Q 1469 3103 1208 2742 
Q 947 2381 947 1747 
z
M 2906 525 
Q 2725 213 2448 61 
Q 2172 -91 1784 -91 
Q 1150 -91 751 415 
Q 353 922 353 1747 
Q 353 2572 751 3078 
Q 1150 3584 1784 3584 
Q 2172 3584 2448 3432 
Q 2725 3281 2906 2969 
L 2906 3500 
L 3481 3500 
L 3481 -1331 
L 2906 -1331 
L 2906 525 
z
" id="DejaVuSans-71" transform="scale(0.015625)"/>
     <path d="M 269 3500 
L 844 3500 
L 1563 769 
L 2278 3500 
L 2956 3500 
L 3675 769 
L 4391 3500 
L 4966 3500 
L 4050 0 
L 3372 0 
L 2619 2869 
L 1863 0 
L 1184 0 
L 269 3500 
z
" id="DejaVuSans-77" transform="scale(0.015625)"/>
    </defs>
    <use xlink:href="#DejaVuSans-48"/>
    <use x="75.195312" xlink:href="#DejaVuSans-65"/>
    <use x="136.71875" xlink:href="#DejaVuSans-61"/>
    <use x="197.998047" xlink:href="#DejaVuSans-74"/>
    <use x="237.207031" xlink:href="#DejaVuSans-20"/>
    <use x="268.994141" xlink:href="#DejaVuSans-45"/>
    <use x="332.177734" xlink:href="#DejaVuSans-71"/>
    <use x="395.654297" xlink:href="#DejaVuSans-75"/>
    <use x="459.033203" xlink:href="#DejaVuSans-61"/>
    <use x="520.3125" xlink:href="#DejaVuSans-74"/>
    <use x="559.521484" xlink:href="#DejaVuSans-69"/>
    <use x="587.304688" xlink:href="#DejaVuSans-6f"/>
    <use x="648.486328" xlink:href="#DejaVuSans-6e"/>
    <use x="711.865234" xlink:href="#DejaVuSans-20"/>
    <use x="743.652344" xlink:href="#DejaVuSans-77"/>
    <use x="825.439453" xlink:href="#DejaVuSans-69"/>
    <use x="853.222656" xlink:href="#DejaVuSans-74"/>
    <use x="892.431641" xlink:href="#DejaVuSans-68"/>
    <use x="955.810547" xlink:href="#DejaVuSans-20"/>
    <use x="987.597656" xlink:href="#DejaVuSans-70"/>
    <use x="1051.074219" xlink:href="#DejaVuSans-61"/>
    <use x="1112.353516" xlink:href="#DejaVuSans-74"/>
    <use x="1151.5625" xlink:href="#DejaVuSans-68"/>
    <use x="1214.941406" xlink:href="#DejaVuSans-20"/>
    <use x="1246.728516" xlink:href="#DejaVuSans-63"/>
    <use x="1301.708984" xlink:href="#DejaVuSans-6f"/>
    <use x="1362.890625" xlink:href="#DejaVuSans-6e"/>
    <use x="1426.269531" xlink:href="#DejaVuSans-73"/>
    <use x="1478.369141" xlink:href="#DejaVuSans-74"/>
    <use x="1517.578125" xlink:href="#DejaVuSans-72"/>
    <use x="1558.691406" xlink:href="#DejaVuSans-61"/>
    <use x="1619.970703" xlink:href="#DejaVuSans-69"/>
    <use x="1647.753906" xlink:href="#DejaVuSans-6e"/>
    <use x="1711.132812" xlink:href="#DejaVuSans-74"/>
    <use x="1750.341797" xlink:href="#DejaVuSans-20"/>
    <use x="1782.128906" xlink:href="#DejaVuSans-61"/>
    <use x="1843.408203" xlink:href="#DejaVuSans-6e"/>
    <use x="1906.787109" xlink:href="#DejaVuSans-64"/>
    <use x="1970.263672" xlink:href="#DejaVuSans-20"/>
    <use x="2002.050781" xlink:href="#DejaVuSans-72"/>
    <use x="2043.164062" xlink:href="#DejaVuSans-61"/>
    <use x="2104.443359" xlink:href="#DejaVuSans-64"/>
    <use x="2167.919922" xlink:href="#DejaVuSans-69"/>
    <use x="2195.703125" xlink:href="#DejaVuSans-61"/>
    <use x="2256.982422" xlink:href="#DejaVuSans-74"/>
    <use x="2296.191406" xlink:href="#DejaVuSans-69"/>
    <use x="2323.974609" xlink:href="#DejaVuSans-76"/>
    <use x="2383.154297" xlink:href="#DejaVuSans-65"/>
    <use x="2444.677734" xlink:href="#DejaVuSans-20"/>
    <use x="2476.464844" xlink:href="#DejaVuSans-6c"/>
    <use x="2504.248047" xlink:href="#DejaVuSans-6f"/>
    <use x="2565.429688" xlink:href="#DejaVuSans-73"/>
    <use x="2617.529297" xlink:href="#DejaVuSans-73"/>
   </g>
  </g>
 </g>
 <defs>
  <clipPath id="pe061ac0b48">
   <rect height="202.411485" width="327.91202" x="29.08774" y="34.051845"/>
  </clipPath>
  <clipPath id="pd97225975c">
   <rect height="202.411485" width="327.91202" x="29.08774" y="259.141935"/>
  </clipPath>
  <clipPath id="p024e5e44af">
   <rect height="202.411485" width="327.91202" x="29.08774" y="484.232025"/>
  </clipPath>
 </defs>
</svg>
