<?xml version="1.0" encoding="utf-8" standalone="no"?>
<!DOCTYPE svg PUBLIC "-//W3C//DTD SVG 1.1//EN"
  "http://www.w3.org/Graphics/SVG/1.1/DTD/svg11.dtd">
<svg height="842.4pt" version="1.1" viewBox="0 0 597.6 842.4" width="597.6pt" xmlns="http://www.w3.org/2000/svg" xmlns:xlink="http://www.w3.org/1999/xlink">
 <metadata>
  <rdf:RDF xmlns:cc="http://creativecommons.org/ns#" xmlns:dc="http://purl.org/dc/elements/1.1/" xmlns:rdf="http://www.w3.org/1999/02/22-rdf-syntax-ns#">
   <cc:Work>
    <dc:type rdf:resource="http://purl.org/dc/dcmitype/StillImage"/>
    <dc:date>2021-08-02T06:59:04.791409</dc:date>
    <dc:format>image/svg+xml</dc:format>
    <dc:creator>
     <cc:Agent>
      <dc:title>Matplotlib v3.4.2, https://matplotlib.org/</dc:title>
     </cc:Agent>
    </dc:creator>
   </cc:Work>
  </rdf:RDF>
 </metadata>
 <defs>
  <style type="text/css">*{stroke-linecap:butt;stroke-linejoin:round;}</style>
 </defs>
 <g id="figure_1">
  <g id="patch_1">
   <path d="M 0 842.4 
L 597.6 842.4 
L 597.6 0 
L 0 0 
z
" style="fill:#ffffff;"/>
  </g>
  <g id="axes_1">
   <g id="patch_2">
    <path d="M 74.7 291.866824 
L 537.84 291.866824 
L 537.84 101.088 
L 74.7 101.088 
z
" style="fill:#ffffff;"/>
   </g>
   <g id="matplotlib.axis_1">
    <g id="xtick_1">
     <g id="line2d_1">
      <defs>
       <path d="M 0 0 
L 0 3.5 
" id="md3b471b47b" style="stroke:#000000;stroke-width:0.8;"/>
      </defs>
      <g>
       <use style="stroke:#000000;stroke-width:0.8;" x="95.751818" xlink:href="#md3b471b47b" y="291.866824"/>
      </g>
     </g>
     <g id="text_1">
      <!-- 0 -->
      <g transform="translate(92.570568 306.465261)scale(0.1 -0.1)">
       <defs>
        <path d="M 2034 4250 
Q 1547 4250 1301 3770 
Q 1056 3291 1056 2328 
Q 1056 1369 1301 889 
Q 1547 409 2034 409 
Q 2525 409 2770 889 
Q 3016 1369 3016 2328 
Q 3016 3291 2770 3770 
Q 2525 4250 2034 4250 
z
M 2034 4750 
Q 2819 4750 3233 4129 
Q 3647 3509 3647 2328 
Q 3647 1150 3233 529 
Q 2819 -91 2034 -91 
Q 1250 -91 836 529 
Q 422 1150 422 2328 
Q 422 3509 836 4129 
Q 1250 4750 2034 4750 
z
" id="DejaVuSans-30" transform="scale(0.015625)"/>
       </defs>
       <use xlink:href="#DejaVuSans-30"/>
      </g>
     </g>
    </g>
    <g id="xtick_2">
     <g id="line2d_2">
      <g>
       <use style="stroke:#000000;stroke-width:0.8;" x="179.959091" xlink:href="#md3b471b47b" y="291.866824"/>
      </g>
     </g>
     <g id="text_2">
      <!-- 10 -->
      <g transform="translate(173.596591 306.465261)scale(0.1 -0.1)">
       <defs>
        <path d="M 794 531 
L 1825 531 
L 1825 4091 
L 703 3866 
L 703 4441 
L 1819 4666 
L 2450 4666 
L 2450 531 
L 3481 531 
L 3481 0 
L 794 0 
L 794 531 
z
" id="DejaVuSans-31" transform="scale(0.015625)"/>
       </defs>
       <use xlink:href="#DejaVuSans-31"/>
       <use x="63.623047" xlink:href="#DejaVuSans-30"/>
      </g>
     </g>
    </g>
    <g id="xtick_3">
     <g id="line2d_3">
      <g>
       <use style="stroke:#000000;stroke-width:0.8;" x="264.166364" xlink:href="#md3b471b47b" y="291.866824"/>
      </g>
     </g>
     <g id="text_3">
      <!-- 20 -->
      <g transform="translate(257.803864 306.465261)scale(0.1 -0.1)">
       <defs>
        <path d="M 1228 531 
L 3431 531 
L 3431 0 
L 469 0 
L 469 531 
Q 828 903 1448 1529 
Q 2069 2156 2228 2338 
Q 2531 2678 2651 2914 
Q 2772 3150 2772 3378 
Q 2772 3750 2511 3984 
Q 2250 4219 1831 4219 
Q 1534 4219 1204 4116 
Q 875 4013 500 3803 
L 500 4441 
Q 881 4594 1212 4672 
Q 1544 4750 1819 4750 
Q 2544 4750 2975 4387 
Q 3406 4025 3406 3419 
Q 3406 3131 3298 2873 
Q 3191 2616 2906 2266 
Q 2828 2175 2409 1742 
Q 1991 1309 1228 531 
z
" id="DejaVuSans-32" transform="scale(0.015625)"/>
       </defs>
       <use xlink:href="#DejaVuSans-32"/>
       <use x="63.623047" xlink:href="#DejaVuSans-30"/>
      </g>
     </g>
    </g>
    <g id="xtick_4">
     <g id="line2d_4">
      <g>
       <use style="stroke:#000000;stroke-width:0.8;" x="348.373636" xlink:href="#md3b471b47b" y="291.866824"/>
      </g>
     </g>
     <g id="text_4">
      <!-- 30 -->
      <g transform="translate(342.011136 306.465261)scale(0.1 -0.1)">
       <defs>
        <path d="M 2597 2516 
Q 3050 2419 3304 2112 
Q 3559 1806 3559 1356 
Q 3559 666 3084 287 
Q 2609 -91 1734 -91 
Q 1441 -91 1130 -33 
Q 819 25 488 141 
L 488 750 
Q 750 597 1062 519 
Q 1375 441 1716 441 
Q 2309 441 2620 675 
Q 2931 909 2931 1356 
Q 2931 1769 2642 2001 
Q 2353 2234 1838 2234 
L 1294 2234 
L 1294 2753 
L 1863 2753 
Q 2328 2753 2575 2939 
Q 2822 3125 2822 3475 
Q 2822 3834 2567 4026 
Q 2313 4219 1838 4219 
Q 1578 4219 1281 4162 
Q 984 4106 628 3988 
L 628 4550 
Q 988 4650 1302 4700 
Q 1616 4750 1894 4750 
Q 2613 4750 3031 4423 
Q 3450 4097 3450 3541 
Q 3450 3153 3228 2886 
Q 3006 2619 2597 2516 
z
" id="DejaVuSans-33" transform="scale(0.015625)"/>
       </defs>
       <use xlink:href="#DejaVuSans-33"/>
       <use x="63.623047" xlink:href="#DejaVuSans-30"/>
      </g>
     </g>
    </g>
    <g id="xtick_5">
     <g id="line2d_5">
      <g>
       <use style="stroke:#000000;stroke-width:0.8;" x="432.580909" xlink:href="#md3b471b47b" y="291.866824"/>
      </g>
     </g>
     <g id="text_5">
      <!-- 40 -->
      <g transform="translate(426.218409 306.465261)scale(0.1 -0.1)">
       <defs>
        <path d="M 2419 4116 
L 825 1625 
L 2419 1625 
L 2419 4116 
z
M 2253 4666 
L 3047 4666 
L 3047 1625 
L 3713 1625 
L 3713 1100 
L 3047 1100 
L 3047 0 
L 2419 0 
L 2419 1100 
L 313 1100 
L 313 1709 
L 2253 4666 
z
" id="DejaVuSans-34" transform="scale(0.015625)"/>
       </defs>
       <use xlink:href="#DejaVuSans-34"/>
       <use x="63.623047" xlink:href="#DejaVuSans-30"/>
      </g>
     </g>
    </g>
    <g id="xtick_6">
     <g id="line2d_6">
      <g>
       <use style="stroke:#000000;stroke-width:0.8;" x="516.788182" xlink:href="#md3b471b47b" y="291.866824"/>
      </g>
     </g>
     <g id="text_6">
      <!-- 50 -->
      <g transform="translate(510.425682 306.465261)scale(0.1 -0.1)">
       <defs>
        <path d="M 691 4666 
L 3169 4666 
L 3169 4134 
L 1269 4134 
L 1269 2991 
Q 1406 3038 1543 3061 
Q 1681 3084 1819 3084 
Q 2600 3084 3056 2656 
Q 3513 2228 3513 1497 
Q 3513 744 3044 326 
Q 2575 -91 1722 -91 
Q 1428 -91 1123 -41 
Q 819 9 494 109 
L 494 744 
Q 775 591 1075 516 
Q 1375 441 1709 441 
Q 2250 441 2565 725 
Q 2881 1009 2881 1497 
Q 2881 1984 2565 2268 
Q 2250 2553 1709 2553 
Q 1456 2553 1204 2497 
Q 953 2441 691 2322 
L 691 4666 
z
" id="DejaVuSans-35" transform="scale(0.015625)"/>
       </defs>
       <use xlink:href="#DejaVuSans-35"/>
       <use x="63.623047" xlink:href="#DejaVuSans-30"/>
      </g>
     </g>
    </g>
   </g>
   <g id="matplotlib.axis_2">
    <g id="ytick_1">
     <g id="line2d_7">
      <defs>
       <path d="M 0 0 
L -3.5 0 
" id="me0429d4d62" style="stroke:#000000;stroke-width:0.8;"/>
      </defs>
      <g>
       <use style="stroke:#000000;stroke-width:0.8;" x="74.7" xlink:href="#me0429d4d62" y="291.357585"/>
      </g>
     </g>
     <g id="text_7">
      <!-- −6000 -->
      <g transform="translate(33.870313 295.156804)scale(0.1 -0.1)">
       <defs>
        <path d="M 678 2272 
L 4684 2272 
L 4684 1741 
L 678 1741 
L 678 2272 
z
" id="DejaVuSans-2212" transform="scale(0.015625)"/>
        <path d="M 2113 2584 
Q 1688 2584 1439 2293 
Q 1191 2003 1191 1497 
Q 1191 994 1439 701 
Q 1688 409 2113 409 
Q 2538 409 2786 701 
Q 3034 994 3034 1497 
Q 3034 2003 2786 2293 
Q 2538 2584 2113 2584 
z
M 3366 4563 
L 3366 3988 
Q 3128 4100 2886 4159 
Q 2644 4219 2406 4219 
Q 1781 4219 1451 3797 
Q 1122 3375 1075 2522 
Q 1259 2794 1537 2939 
Q 1816 3084 2150 3084 
Q 2853 3084 3261 2657 
Q 3669 2231 3669 1497 
Q 3669 778 3244 343 
Q 2819 -91 2113 -91 
Q 1303 -91 875 529 
Q 447 1150 447 2328 
Q 447 3434 972 4092 
Q 1497 4750 2381 4750 
Q 2619 4750 2861 4703 
Q 3103 4656 3366 4563 
z
" id="DejaVuSans-36" transform="scale(0.015625)"/>
       </defs>
       <use xlink:href="#DejaVuSans-2212"/>
       <use x="83.789062" xlink:href="#DejaVuSans-36"/>
       <use x="147.412109" xlink:href="#DejaVuSans-30"/>
       <use x="211.035156" xlink:href="#DejaVuSans-30"/>
       <use x="274.658203" xlink:href="#DejaVuSans-30"/>
      </g>
     </g>
    </g>
    <g id="ytick_2">
     <g id="line2d_8">
      <g>
       <use style="stroke:#000000;stroke-width:0.8;" x="74.7" xlink:href="#me0429d4d62" y="254.58945"/>
      </g>
     </g>
     <g id="text_8">
      <!-- −4000 -->
      <g transform="translate(33.870313 258.388668)scale(0.1 -0.1)">
       <use xlink:href="#DejaVuSans-2212"/>
       <use x="83.789062" xlink:href="#DejaVuSans-34"/>
       <use x="147.412109" xlink:href="#DejaVuSans-30"/>
       <use x="211.035156" xlink:href="#DejaVuSans-30"/>
       <use x="274.658203" xlink:href="#DejaVuSans-30"/>
      </g>
     </g>
    </g>
    <g id="ytick_3">
     <g id="line2d_9">
      <g>
       <use style="stroke:#000000;stroke-width:0.8;" x="74.7" xlink:href="#me0429d4d62" y="217.821314"/>
      </g>
     </g>
     <g id="text_9">
      <!-- −2000 -->
      <g transform="translate(33.870313 221.620533)scale(0.1 -0.1)">
       <use xlink:href="#DejaVuSans-2212"/>
       <use x="83.789062" xlink:href="#DejaVuSans-32"/>
       <use x="147.412109" xlink:href="#DejaVuSans-30"/>
       <use x="211.035156" xlink:href="#DejaVuSans-30"/>
       <use x="274.658203" xlink:href="#DejaVuSans-30"/>
      </g>
     </g>
    </g>
    <g id="ytick_4">
     <g id="line2d_10">
      <g>
       <use style="stroke:#000000;stroke-width:0.8;" x="74.7" xlink:href="#me0429d4d62" y="181.053179"/>
      </g>
     </g>
     <g id="text_10">
      <!-- 0 -->
      <g transform="translate(61.3375 184.852398)scale(0.1 -0.1)">
       <use xlink:href="#DejaVuSans-30"/>
      </g>
     </g>
    </g>
    <g id="ytick_5">
     <g id="line2d_11">
      <g>
       <use style="stroke:#000000;stroke-width:0.8;" x="74.7" xlink:href="#me0429d4d62" y="144.285044"/>
      </g>
     </g>
     <g id="text_11">
      <!-- 2000 -->
      <g transform="translate(42.25 148.084262)scale(0.1 -0.1)">
       <use xlink:href="#DejaVuSans-32"/>
       <use x="63.623047" xlink:href="#DejaVuSans-30"/>
       <use x="127.246094" xlink:href="#DejaVuSans-30"/>
       <use x="190.869141" xlink:href="#DejaVuSans-30"/>
      </g>
     </g>
    </g>
    <g id="ytick_6">
     <g id="line2d_12">
      <g>
       <use style="stroke:#000000;stroke-width:0.8;" x="74.7" xlink:href="#me0429d4d62" y="107.516908"/>
      </g>
     </g>
     <g id="text_12">
      <!-- 4000 -->
      <g transform="translate(42.25 111.316127)scale(0.1 -0.1)">
       <use xlink:href="#DejaVuSans-34"/>
       <use x="63.623047" xlink:href="#DejaVuSans-30"/>
       <use x="127.246094" xlink:href="#DejaVuSans-30"/>
       <use x="190.869141" xlink:href="#DejaVuSans-30"/>
      </g>
     </g>
    </g>
   </g>
   <g id="line2d_13">
    <path clip-path="url(#pb46dcb4f6f)" d="M 95.751818 109.759765 
L 104.172545 170.495556 
L 112.593273 180.378111 
L 121.014 180.947955 
L 129.434727 180.999508 
L 137.855455 181.03189 
L 146.276182 181.033485 
L 154.696909 181.042479 
L 163.117636 181.035562 
L 171.538364 181.036028 
L 179.959091 181.035139 
L 188.379818 181.029983 
L 196.800545 181.043835 
L 205.221273 181.050895 
L 213.642 181.053179 
L 222.062727 181.058307 
L 230.483455 181.05295 
L 238.904182 181.053179 
L 247.324909 181.053179 
L 255.745636 181.042765 
L 264.166364 181.034948 
L 272.587091 181.044022 
L 281.007818 181.038304 
L 289.428545 181.036865 
L 297.849273 181.039377 
L 306.27 181.051539 
L 314.690727 181.049098 
L 323.111455 181.052884 
L 331.532182 181.052703 
L 339.952909 181.046472 
L 348.373636 181.052522 
L 356.794364 181.038124 
L 365.215091 181.05434 
L 373.635818 181.070582 
L 382.056545 181.043431 
L 390.477273 181.058683 
L 398.898 181.054377 
L 407.318727 181.041844 
L 415.739455 181.049506 
L 424.160182 181.052918 
L 432.580909 181.053368 
L 441.001636 181.059794 
L 449.422364 181.035144 
L 457.843091 181.034845 
L 466.263818 181.049029 
L 474.684545 181.056749 
L 483.105273 181.052292 
L 491.526 181.051021 
L 499.946727 181.106773 
L 508.367455 181.600042 
L 516.788182 185.653203 
" style="fill:none;stroke:#1f77b4;stroke-linecap:square;stroke-width:1.5;"/>
   </g>
   <g id="line2d_14">
    <path clip-path="url(#pb46dcb4f6f)" d="M 95.751818 189.50985 
L 104.172545 182.714715 
L 112.593273 181.177384 
L 121.014 181.661397 
L 129.434727 181.47543 
L 137.855455 181.620959 
L 146.276182 181.611725 
L 154.696909 181.683262 
L 163.117636 181.667866 
L 171.538364 181.617212 
L 179.959091 181.424818 
L 188.379818 181.37775 
L 196.800545 181.360102 
L 205.221273 181.367643 
L 213.642 181.42273 
L 222.062727 181.548917 
L 230.483455 181.556174 
L 238.904182 181.516463 
L 247.324909 181.397256 
L 255.745636 181.404307 
L 264.166364 181.390814 
L 272.587091 181.393926 
L 281.007818 181.389264 
L 289.428545 181.350978 
L 297.849273 181.414591 
L 306.27 181.515052 
L 314.690727 181.474089 
L 323.111455 181.491794 
L 331.532182 181.52864 
L 339.952909 181.476424 
L 348.373636 181.481274 
L 356.794364 181.384773 
L 365.215091 181.415993 
L 373.635818 181.666969 
L 382.056545 181.592972 
L 390.477273 181.665425 
L 398.898 181.660992 
L 407.318727 181.582408 
L 415.739455 181.457969 
L 424.160182 181.472616 
L 432.580909 181.52154 
L 441.001636 181.556658 
L 449.422364 181.372433 
L 457.843091 181.274992 
L 466.263818 181.392954 
L 474.684545 181.352652 
L 483.105273 181.349487 
L 491.526 181.380211 
L 499.946727 181.416671 
L 508.367455 181.765908 
L 516.788182 186.540656 
" style="fill:none;stroke:#ff7f0e;stroke-linecap:square;stroke-width:1.5;"/>
   </g>
   <g id="line2d_15">
    <path clip-path="url(#pb46dcb4f6f)" d="M 95.751818 277.109932 
L 104.172545 183.754708 
L 112.593273 181.71005 
L 121.014 181.048567 
L 129.434727 181.053179 
L 137.855455 181.053179 
L 146.276182 181.053179 
L 154.696909 181.053179 
L 163.117636 181.053179 
L 171.538364 181.053179 
L 179.959091 181.053179 
L 188.379818 181.053179 
L 196.800545 181.053179 
L 205.221273 181.053179 
L 213.642 181.053179 
L 222.062727 181.053179 
L 230.483455 181.053179 
L 238.904182 181.053179 
L 247.324909 181.053179 
L 255.745636 181.053179 
L 264.166364 181.053179 
L 272.587091 181.053179 
L 281.007818 181.053179 
L 289.428545 181.053179 
L 297.849273 181.053179 
L 306.27 181.053179 
L 314.690727 181.053179 
L 323.111455 181.053179 
L 331.532182 181.053179 
L 339.952909 181.053179 
L 348.373636 181.053179 
L 356.794364 181.053179 
L 365.215091 181.053179 
L 373.635818 181.053179 
L 382.056545 181.053179 
L 390.477273 181.053179 
L 398.898 181.053179 
L 407.318727 181.053179 
L 415.739455 181.053179 
L 424.160182 181.038127 
L 432.580909 180.990334 
L 441.001636 180.994444 
L 449.422364 181.014955 
L 457.843091 181.025806 
L 466.263818 181.053179 
L 474.684545 181.053179 
L 483.105273 181.017371 
L 491.526 181.040435 
L 499.946727 181.053179 
L 508.367455 181.018565 
L 516.788182 180.189549 
" style="fill:none;stroke:#2ca02c;stroke-linecap:square;stroke-width:1.5;"/>
   </g>
   <g id="line2d_16">
    <path clip-path="url(#pb46dcb4f6f)" d="M 95.751818 283.195059 
L 104.172545 195.168024 
L 112.593273 181.58745 
L 121.014 182.058345 
L 129.434727 181.700726 
L 137.855455 182.012896 
L 146.276182 182.048008 
L 154.696909 182.207741 
L 163.117636 182.210651 
L 171.538364 182.128179 
L 179.959091 181.760305 
L 188.379818 181.682561 
L 196.800545 181.629361 
L 205.221273 181.632409 
L 213.642 181.731883 
L 222.062727 181.98234 
L 230.483455 182.013031 
L 238.904182 181.938677 
L 247.324909 181.707164 
L 255.745636 181.740129 
L 264.166364 181.734254 
L 272.587091 181.728289 
L 281.007818 181.729468 
L 289.428545 181.65717 
L 297.849273 181.782998 
L 306.27 181.959024 
L 314.690727 181.878559 
L 323.111455 181.904451 
L 331.532182 181.975753 
L 339.952909 181.881994 
L 348.373636 181.880855 
L 356.794364 181.713901 
L 365.215091 181.744915 
L 373.635818 182.211454 
L 382.056545 182.114441 
L 390.477273 182.232372 
L 398.898 182.231619 
L 407.318727 182.10095 
L 415.739455 181.840104 
L 424.160182 181.862532 
L 432.580909 181.963144 
L 441.001636 182.023786 
L 449.422364 181.714628 
L 457.843091 181.537751 
L 466.263818 181.759011 
L 474.684545 181.659831 
L 483.105273 181.653545 
L 491.526 181.710373 
L 499.946727 181.609965 
L 508.367455 181.053179 
L 516.788182 181.053179 
" style="fill:none;stroke:#d62728;stroke-linecap:square;stroke-width:1.5;"/>
   </g>
   <g id="patch_3">
    <path d="M 74.7 291.866824 
L 74.7 101.088 
" style="fill:none;stroke:#000000;stroke-linecap:square;stroke-linejoin:miter;stroke-width:0.8;"/>
   </g>
   <g id="patch_4">
    <path d="M 537.84 291.866824 
L 537.84 101.088 
" style="fill:none;stroke:#000000;stroke-linecap:square;stroke-linejoin:miter;stroke-width:0.8;"/>
   </g>
   <g id="patch_5">
    <path d="M 74.7 291.866824 
L 537.84 291.866824 
" style="fill:none;stroke:#000000;stroke-linecap:square;stroke-linejoin:miter;stroke-width:0.8;"/>
   </g>
   <g id="patch_6">
    <path d="M 74.7 101.088 
L 537.84 101.088 
" style="fill:none;stroke:#000000;stroke-linecap:square;stroke-linejoin:miter;stroke-width:0.8;"/>
   </g>
   <g id="text_13">
    <!-- MPC state variables (x) against time -->
    <g transform="translate(215.480156 95.088)scale(0.1 -0.1)">
     <defs>
      <path d="M 628 4666 
L 1569 4666 
L 2759 1491 
L 3956 4666 
L 4897 4666 
L 4897 0 
L 4281 0 
L 4281 4097 
L 3078 897 
L 2444 897 
L 1241 4097 
L 1241 0 
L 628 0 
L 628 4666 
z
" id="DejaVuSans-4d" transform="scale(0.015625)"/>
      <path d="M 1259 4147 
L 1259 2394 
L 2053 2394 
Q 2494 2394 2734 2622 
Q 2975 2850 2975 3272 
Q 2975 3691 2734 3919 
Q 2494 4147 2053 4147 
L 1259 4147 
z
M 628 4666 
L 2053 4666 
Q 2838 4666 3239 4311 
Q 3641 3956 3641 3272 
Q 3641 2581 3239 2228 
Q 2838 1875 2053 1875 
L 1259 1875 
L 1259 0 
L 628 0 
L 628 4666 
z
" id="DejaVuSans-50" transform="scale(0.015625)"/>
      <path d="M 4122 4306 
L 4122 3641 
Q 3803 3938 3442 4084 
Q 3081 4231 2675 4231 
Q 1875 4231 1450 3742 
Q 1025 3253 1025 2328 
Q 1025 1406 1450 917 
Q 1875 428 2675 428 
Q 3081 428 3442 575 
Q 3803 722 4122 1019 
L 4122 359 
Q 3791 134 3420 21 
Q 3050 -91 2638 -91 
Q 1578 -91 968 557 
Q 359 1206 359 2328 
Q 359 3453 968 4101 
Q 1578 4750 2638 4750 
Q 3056 4750 3426 4639 
Q 3797 4528 4122 4306 
z
" id="DejaVuSans-43" transform="scale(0.015625)"/>
      <path id="DejaVuSans-20" transform="scale(0.015625)"/>
      <path d="M 2834 3397 
L 2834 2853 
Q 2591 2978 2328 3040 
Q 2066 3103 1784 3103 
Q 1356 3103 1142 2972 
Q 928 2841 928 2578 
Q 928 2378 1081 2264 
Q 1234 2150 1697 2047 
L 1894 2003 
Q 2506 1872 2764 1633 
Q 3022 1394 3022 966 
Q 3022 478 2636 193 
Q 2250 -91 1575 -91 
Q 1294 -91 989 -36 
Q 684 19 347 128 
L 347 722 
Q 666 556 975 473 
Q 1284 391 1588 391 
Q 1994 391 2212 530 
Q 2431 669 2431 922 
Q 2431 1156 2273 1281 
Q 2116 1406 1581 1522 
L 1381 1569 
Q 847 1681 609 1914 
Q 372 2147 372 2553 
Q 372 3047 722 3315 
Q 1072 3584 1716 3584 
Q 2034 3584 2315 3537 
Q 2597 3491 2834 3397 
z
" id="DejaVuSans-73" transform="scale(0.015625)"/>
      <path d="M 1172 4494 
L 1172 3500 
L 2356 3500 
L 2356 3053 
L 1172 3053 
L 1172 1153 
Q 1172 725 1289 603 
Q 1406 481 1766 481 
L 2356 481 
L 2356 0 
L 1766 0 
Q 1100 0 847 248 
Q 594 497 594 1153 
L 594 3053 
L 172 3053 
L 172 3500 
L 594 3500 
L 594 4494 
L 1172 4494 
z
" id="DejaVuSans-74" transform="scale(0.015625)"/>
      <path d="M 2194 1759 
Q 1497 1759 1228 1600 
Q 959 1441 959 1056 
Q 959 750 1161 570 
Q 1363 391 1709 391 
Q 2188 391 2477 730 
Q 2766 1069 2766 1631 
L 2766 1759 
L 2194 1759 
z
M 3341 1997 
L 3341 0 
L 2766 0 
L 2766 531 
Q 2569 213 2275 61 
Q 1981 -91 1556 -91 
Q 1019 -91 701 211 
Q 384 513 384 1019 
Q 384 1609 779 1909 
Q 1175 2209 1959 2209 
L 2766 2209 
L 2766 2266 
Q 2766 2663 2505 2880 
Q 2244 3097 1772 3097 
Q 1472 3097 1187 3025 
Q 903 2953 641 2809 
L 641 3341 
Q 956 3463 1253 3523 
Q 1550 3584 1831 3584 
Q 2591 3584 2966 3190 
Q 3341 2797 3341 1997 
z
" id="DejaVuSans-61" transform="scale(0.015625)"/>
      <path d="M 3597 1894 
L 3597 1613 
L 953 1613 
Q 991 1019 1311 708 
Q 1631 397 2203 397 
Q 2534 397 2845 478 
Q 3156 559 3463 722 
L 3463 178 
Q 3153 47 2828 -22 
Q 2503 -91 2169 -91 
Q 1331 -91 842 396 
Q 353 884 353 1716 
Q 353 2575 817 3079 
Q 1281 3584 2069 3584 
Q 2775 3584 3186 3129 
Q 3597 2675 3597 1894 
z
M 3022 2063 
Q 3016 2534 2758 2815 
Q 2500 3097 2075 3097 
Q 1594 3097 1305 2825 
Q 1016 2553 972 2059 
L 3022 2063 
z
" id="DejaVuSans-65" transform="scale(0.015625)"/>
      <path d="M 191 3500 
L 800 3500 
L 1894 563 
L 2988 3500 
L 3597 3500 
L 2284 0 
L 1503 0 
L 191 3500 
z
" id="DejaVuSans-76" transform="scale(0.015625)"/>
      <path d="M 2631 2963 
Q 2534 3019 2420 3045 
Q 2306 3072 2169 3072 
Q 1681 3072 1420 2755 
Q 1159 2438 1159 1844 
L 1159 0 
L 581 0 
L 581 3500 
L 1159 3500 
L 1159 2956 
Q 1341 3275 1631 3429 
Q 1922 3584 2338 3584 
Q 2397 3584 2469 3576 
Q 2541 3569 2628 3553 
L 2631 2963 
z
" id="DejaVuSans-72" transform="scale(0.015625)"/>
      <path d="M 603 3500 
L 1178 3500 
L 1178 0 
L 603 0 
L 603 3500 
z
M 603 4863 
L 1178 4863 
L 1178 4134 
L 603 4134 
L 603 4863 
z
" id="DejaVuSans-69" transform="scale(0.015625)"/>
      <path d="M 3116 1747 
Q 3116 2381 2855 2742 
Q 2594 3103 2138 3103 
Q 1681 3103 1420 2742 
Q 1159 2381 1159 1747 
Q 1159 1113 1420 752 
Q 1681 391 2138 391 
Q 2594 391 2855 752 
Q 3116 1113 3116 1747 
z
M 1159 2969 
Q 1341 3281 1617 3432 
Q 1894 3584 2278 3584 
Q 2916 3584 3314 3078 
Q 3713 2572 3713 1747 
Q 3713 922 3314 415 
Q 2916 -91 2278 -91 
Q 1894 -91 1617 61 
Q 1341 213 1159 525 
L 1159 0 
L 581 0 
L 581 4863 
L 1159 4863 
L 1159 2969 
z
" id="DejaVuSans-62" transform="scale(0.015625)"/>
      <path d="M 603 4863 
L 1178 4863 
L 1178 0 
L 603 0 
L 603 4863 
z
" id="DejaVuSans-6c" transform="scale(0.015625)"/>
      <path d="M 1984 4856 
Q 1566 4138 1362 3434 
Q 1159 2731 1159 2009 
Q 1159 1288 1364 580 
Q 1569 -128 1984 -844 
L 1484 -844 
Q 1016 -109 783 600 
Q 550 1309 550 2009 
Q 550 2706 781 3412 
Q 1013 4119 1484 4856 
L 1984 4856 
z
" id="DejaVuSans-28" transform="scale(0.015625)"/>
      <path d="M 3513 3500 
L 2247 1797 
L 3578 0 
L 2900 0 
L 1881 1375 
L 863 0 
L 184 0 
L 1544 1831 
L 300 3500 
L 978 3500 
L 1906 2253 
L 2834 3500 
L 3513 3500 
z
" id="DejaVuSans-78" transform="scale(0.015625)"/>
      <path d="M 513 4856 
L 1013 4856 
Q 1481 4119 1714 3412 
Q 1947 2706 1947 2009 
Q 1947 1309 1714 600 
Q 1481 -109 1013 -844 
L 513 -844 
Q 928 -128 1133 580 
Q 1338 1288 1338 2009 
Q 1338 2731 1133 3434 
Q 928 4138 513 4856 
z
" id="DejaVuSans-29" transform="scale(0.015625)"/>
      <path d="M 2906 1791 
Q 2906 2416 2648 2759 
Q 2391 3103 1925 3103 
Q 1463 3103 1205 2759 
Q 947 2416 947 1791 
Q 947 1169 1205 825 
Q 1463 481 1925 481 
Q 2391 481 2648 825 
Q 2906 1169 2906 1791 
z
M 3481 434 
Q 3481 -459 3084 -895 
Q 2688 -1331 1869 -1331 
Q 1566 -1331 1297 -1286 
Q 1028 -1241 775 -1147 
L 775 -588 
Q 1028 -725 1275 -790 
Q 1522 -856 1778 -856 
Q 2344 -856 2625 -561 
Q 2906 -266 2906 331 
L 2906 616 
Q 2728 306 2450 153 
Q 2172 0 1784 0 
Q 1141 0 747 490 
Q 353 981 353 1791 
Q 353 2603 747 3093 
Q 1141 3584 1784 3584 
Q 2172 3584 2450 3431 
Q 2728 3278 2906 2969 
L 2906 3500 
L 3481 3500 
L 3481 434 
z
" id="DejaVuSans-67" transform="scale(0.015625)"/>
      <path d="M 3513 2113 
L 3513 0 
L 2938 0 
L 2938 2094 
Q 2938 2591 2744 2837 
Q 2550 3084 2163 3084 
Q 1697 3084 1428 2787 
Q 1159 2491 1159 1978 
L 1159 0 
L 581 0 
L 581 3500 
L 1159 3500 
L 1159 2956 
Q 1366 3272 1645 3428 
Q 1925 3584 2291 3584 
Q 2894 3584 3203 3211 
Q 3513 2838 3513 2113 
z
" id="DejaVuSans-6e" transform="scale(0.015625)"/>
      <path d="M 3328 2828 
Q 3544 3216 3844 3400 
Q 4144 3584 4550 3584 
Q 5097 3584 5394 3201 
Q 5691 2819 5691 2113 
L 5691 0 
L 5113 0 
L 5113 2094 
Q 5113 2597 4934 2840 
Q 4756 3084 4391 3084 
Q 3944 3084 3684 2787 
Q 3425 2491 3425 1978 
L 3425 0 
L 2847 0 
L 2847 2094 
Q 2847 2600 2669 2842 
Q 2491 3084 2119 3084 
Q 1678 3084 1418 2786 
Q 1159 2488 1159 1978 
L 1159 0 
L 581 0 
L 581 3500 
L 1159 3500 
L 1159 2956 
Q 1356 3278 1631 3431 
Q 1906 3584 2284 3584 
Q 2666 3584 2933 3390 
Q 3200 3197 3328 2828 
z
" id="DejaVuSans-6d" transform="scale(0.015625)"/>
     </defs>
     <use xlink:href="#DejaVuSans-4d"/>
     <use x="86.279297" xlink:href="#DejaVuSans-50"/>
     <use x="146.582031" xlink:href="#DejaVuSans-43"/>
     <use x="216.40625" xlink:href="#DejaVuSans-20"/>
     <use x="248.193359" xlink:href="#DejaVuSans-73"/>
     <use x="300.292969" xlink:href="#DejaVuSans-74"/>
     <use x="339.501953" xlink:href="#DejaVuSans-61"/>
     <use x="400.78125" xlink:href="#DejaVuSans-74"/>
     <use x="439.990234" xlink:href="#DejaVuSans-65"/>
     <use x="501.513672" xlink:href="#DejaVuSans-20"/>
     <use x="533.300781" xlink:href="#DejaVuSans-76"/>
     <use x="592.480469" xlink:href="#DejaVuSans-61"/>
     <use x="653.759766" xlink:href="#DejaVuSans-72"/>
     <use x="694.873047" xlink:href="#DejaVuSans-69"/>
     <use x="722.65625" xlink:href="#DejaVuSans-61"/>
     <use x="783.935547" xlink:href="#DejaVuSans-62"/>
     <use x="847.412109" xlink:href="#DejaVuSans-6c"/>
     <use x="875.195312" xlink:href="#DejaVuSans-65"/>
     <use x="936.71875" xlink:href="#DejaVuSans-73"/>
     <use x="988.818359" xlink:href="#DejaVuSans-20"/>
     <use x="1020.605469" xlink:href="#DejaVuSans-28"/>
     <use x="1059.619141" xlink:href="#DejaVuSans-78"/>
     <use x="1118.798828" xlink:href="#DejaVuSans-29"/>
     <use x="1157.8125" xlink:href="#DejaVuSans-20"/>
     <use x="1189.599609" xlink:href="#DejaVuSans-61"/>
     <use x="1250.878906" xlink:href="#DejaVuSans-67"/>
     <use x="1314.355469" xlink:href="#DejaVuSans-61"/>
     <use x="1375.634766" xlink:href="#DejaVuSans-69"/>
     <use x="1403.417969" xlink:href="#DejaVuSans-6e"/>
     <use x="1466.796875" xlink:href="#DejaVuSans-73"/>
     <use x="1518.896484" xlink:href="#DejaVuSans-74"/>
     <use x="1558.105469" xlink:href="#DejaVuSans-20"/>
     <use x="1589.892578" xlink:href="#DejaVuSans-74"/>
     <use x="1629.101562" xlink:href="#DejaVuSans-69"/>
     <use x="1656.884766" xlink:href="#DejaVuSans-6d"/>
     <use x="1754.296875" xlink:href="#DejaVuSans-65"/>
    </g>
   </g>
   <g id="legend_1">
    <g id="patch_7">
     <path d="M 468.810331 157.586225 
L 532.009 157.586225 
Q 533.675 157.586225 533.675 155.920225 
L 533.675 106.919 
Q 533.675 105.253 532.009 105.253 
L 468.810331 105.253 
Q 467.144331 105.253 467.144331 106.919 
L 467.144331 155.920225 
Q 467.144331 157.586225 468.810331 157.586225 
z
" style="fill:#ffffff;opacity:0.8;stroke:#cccccc;stroke-linejoin:miter;"/>
    </g>
    <g id="line2d_17">
     <path d="M 470.476331 111.998998 
L 487.136331 111.998998 
" style="fill:none;stroke:#1f77b4;stroke-linecap:square;stroke-width:1.5;"/>
    </g>
    <g id="line2d_18"/>
    <g id="text_14">
     <!-- mpc_x_0 -->
     <g transform="translate(493.800331 114.914498)scale(0.0833 -0.0833)">
      <defs>
       <path d="M 1159 525 
L 1159 -1331 
L 581 -1331 
L 581 3500 
L 1159 3500 
L 1159 2969 
Q 1341 3281 1617 3432 
Q 1894 3584 2278 3584 
Q 2916 3584 3314 3078 
Q 3713 2572 3713 1747 
Q 3713 922 3314 415 
Q 2916 -91 2278 -91 
Q 1894 -91 1617 61 
Q 1341 213 1159 525 
z
M 3116 1747 
Q 3116 2381 2855 2742 
Q 2594 3103 2138 3103 
Q 1681 3103 1420 2742 
Q 1159 2381 1159 1747 
Q 1159 1113 1420 752 
Q 1681 391 2138 391 
Q 2594 391 2855 752 
Q 3116 1113 3116 1747 
z
" id="DejaVuSans-70" transform="scale(0.015625)"/>
       <path d="M 3122 3366 
L 3122 2828 
Q 2878 2963 2633 3030 
Q 2388 3097 2138 3097 
Q 1578 3097 1268 2742 
Q 959 2388 959 1747 
Q 959 1106 1268 751 
Q 1578 397 2138 397 
Q 2388 397 2633 464 
Q 2878 531 3122 666 
L 3122 134 
Q 2881 22 2623 -34 
Q 2366 -91 2075 -91 
Q 1284 -91 818 406 
Q 353 903 353 1747 
Q 353 2603 823 3093 
Q 1294 3584 2113 3584 
Q 2378 3584 2631 3529 
Q 2884 3475 3122 3366 
z
" id="DejaVuSans-63" transform="scale(0.015625)"/>
       <path d="M 3263 -1063 
L 3263 -1509 
L -63 -1509 
L -63 -1063 
L 3263 -1063 
z
" id="DejaVuSans-5f" transform="scale(0.015625)"/>
      </defs>
      <use xlink:href="#DejaVuSans-6d"/>
      <use x="97.412109" xlink:href="#DejaVuSans-70"/>
      <use x="160.888672" xlink:href="#DejaVuSans-63"/>
      <use x="215.869141" xlink:href="#DejaVuSans-5f"/>
      <use x="265.869141" xlink:href="#DejaVuSans-78"/>
      <use x="325.048828" xlink:href="#DejaVuSans-5f"/>
      <use x="375.048828" xlink:href="#DejaVuSans-30"/>
     </g>
    </g>
    <g id="line2d_19">
     <path d="M 470.476331 124.457555 
L 487.136331 124.457555 
" style="fill:none;stroke:#ff7f0e;stroke-linecap:square;stroke-width:1.5;"/>
    </g>
    <g id="line2d_20"/>
    <g id="text_15">
     <!-- mpc_x_1 -->
     <g transform="translate(493.800331 127.373055)scale(0.0833 -0.0833)">
      <use xlink:href="#DejaVuSans-6d"/>
      <use x="97.412109" xlink:href="#DejaVuSans-70"/>
      <use x="160.888672" xlink:href="#DejaVuSans-63"/>
      <use x="215.869141" xlink:href="#DejaVuSans-5f"/>
      <use x="265.869141" xlink:href="#DejaVuSans-78"/>
      <use x="325.048828" xlink:href="#DejaVuSans-5f"/>
      <use x="375.048828" xlink:href="#DejaVuSans-31"/>
     </g>
    </g>
    <g id="line2d_21">
     <path d="M 470.476331 136.916111 
L 487.136331 136.916111 
" style="fill:none;stroke:#2ca02c;stroke-linecap:square;stroke-width:1.5;"/>
    </g>
    <g id="line2d_22"/>
    <g id="text_16">
     <!-- mpc_x_2 -->
     <g transform="translate(493.800331 139.831611)scale(0.0833 -0.0833)">
      <use xlink:href="#DejaVuSans-6d"/>
      <use x="97.412109" xlink:href="#DejaVuSans-70"/>
      <use x="160.888672" xlink:href="#DejaVuSans-63"/>
      <use x="215.869141" xlink:href="#DejaVuSans-5f"/>
      <use x="265.869141" xlink:href="#DejaVuSans-78"/>
      <use x="325.048828" xlink:href="#DejaVuSans-5f"/>
      <use x="375.048828" xlink:href="#DejaVuSans-32"/>
     </g>
    </g>
    <g id="line2d_23">
     <path d="M 470.476331 149.374667 
L 487.136331 149.374667 
" style="fill:none;stroke:#d62728;stroke-linecap:square;stroke-width:1.5;"/>
    </g>
    <g id="line2d_24"/>
    <g id="text_17">
     <!-- mpc_x_3 -->
     <g transform="translate(493.800331 152.290167)scale(0.0833 -0.0833)">
      <use xlink:href="#DejaVuSans-6d"/>
      <use x="97.412109" xlink:href="#DejaVuSans-70"/>
      <use x="160.888672" xlink:href="#DejaVuSans-63"/>
      <use x="215.869141" xlink:href="#DejaVuSans-5f"/>
      <use x="265.869141" xlink:href="#DejaVuSans-78"/>
      <use x="325.048828" xlink:href="#DejaVuSans-5f"/>
      <use x="375.048828" xlink:href="#DejaVuSans-33"/>
     </g>
    </g>
   </g>
  </g>
  <g id="axes_2">
   <g id="patch_8">
    <path d="M 74.7 520.801412 
L 537.84 520.801412 
L 537.84 330.022588 
L 74.7 330.022588 
z
" style="fill:#ffffff;"/>
   </g>
   <g id="matplotlib.axis_3">
    <g id="xtick_7">
     <g id="line2d_25">
      <g>
       <use style="stroke:#000000;stroke-width:0.8;" x="95.751818" xlink:href="#md3b471b47b" y="520.801412"/>
      </g>
     </g>
     <g id="text_18">
      <!-- 0 -->
      <g transform="translate(92.570568 535.399849)scale(0.1 -0.1)">
       <use xlink:href="#DejaVuSans-30"/>
      </g>
     </g>
    </g>
    <g id="xtick_8">
     <g id="line2d_26">
      <g>
       <use style="stroke:#000000;stroke-width:0.8;" x="179.959091" xlink:href="#md3b471b47b" y="520.801412"/>
      </g>
     </g>
     <g id="text_19">
      <!-- 10 -->
      <g transform="translate(173.596591 535.399849)scale(0.1 -0.1)">
       <use xlink:href="#DejaVuSans-31"/>
       <use x="63.623047" xlink:href="#DejaVuSans-30"/>
      </g>
     </g>
    </g>
    <g id="xtick_9">
     <g id="line2d_27">
      <g>
       <use style="stroke:#000000;stroke-width:0.8;" x="264.166364" xlink:href="#md3b471b47b" y="520.801412"/>
      </g>
     </g>
     <g id="text_20">
      <!-- 20 -->
      <g transform="translate(257.803864 535.399849)scale(0.1 -0.1)">
       <use xlink:href="#DejaVuSans-32"/>
       <use x="63.623047" xlink:href="#DejaVuSans-30"/>
      </g>
     </g>
    </g>
    <g id="xtick_10">
     <g id="line2d_28">
      <g>
       <use style="stroke:#000000;stroke-width:0.8;" x="348.373636" xlink:href="#md3b471b47b" y="520.801412"/>
      </g>
     </g>
     <g id="text_21">
      <!-- 30 -->
      <g transform="translate(342.011136 535.399849)scale(0.1 -0.1)">
       <use xlink:href="#DejaVuSans-33"/>
       <use x="63.623047" xlink:href="#DejaVuSans-30"/>
      </g>
     </g>
    </g>
    <g id="xtick_11">
     <g id="line2d_29">
      <g>
       <use style="stroke:#000000;stroke-width:0.8;" x="432.580909" xlink:href="#md3b471b47b" y="520.801412"/>
      </g>
     </g>
     <g id="text_22">
      <!-- 40 -->
      <g transform="translate(426.218409 535.399849)scale(0.1 -0.1)">
       <use xlink:href="#DejaVuSans-34"/>
       <use x="63.623047" xlink:href="#DejaVuSans-30"/>
      </g>
     </g>
    </g>
    <g id="xtick_12">
     <g id="line2d_30">
      <g>
       <use style="stroke:#000000;stroke-width:0.8;" x="516.788182" xlink:href="#md3b471b47b" y="520.801412"/>
      </g>
     </g>
     <g id="text_23">
      <!-- 50 -->
      <g transform="translate(510.425682 535.399849)scale(0.1 -0.1)">
       <use xlink:href="#DejaVuSans-35"/>
       <use x="63.623047" xlink:href="#DejaVuSans-30"/>
      </g>
     </g>
    </g>
   </g>
   <g id="matplotlib.axis_4">
    <g id="ytick_7">
     <g id="line2d_31">
      <g>
       <use style="stroke:#000000;stroke-width:0.8;" x="74.7" xlink:href="#me0429d4d62" y="504.66421"/>
      </g>
     </g>
     <g id="text_24">
      <!-- −3000 -->
      <g transform="translate(33.870313 508.463428)scale(0.1 -0.1)">
       <use xlink:href="#DejaVuSans-2212"/>
       <use x="83.789062" xlink:href="#DejaVuSans-33"/>
       <use x="147.412109" xlink:href="#DejaVuSans-30"/>
       <use x="211.035156" xlink:href="#DejaVuSans-30"/>
       <use x="274.658203" xlink:href="#DejaVuSans-30"/>
      </g>
     </g>
    </g>
    <g id="ytick_8">
     <g id="line2d_32">
      <g>
       <use style="stroke:#000000;stroke-width:0.8;" x="74.7" xlink:href="#me0429d4d62" y="481.998941"/>
      </g>
     </g>
     <g id="text_25">
      <!-- −2000 -->
      <g transform="translate(33.870313 485.798159)scale(0.1 -0.1)">
       <use xlink:href="#DejaVuSans-2212"/>
       <use x="83.789062" xlink:href="#DejaVuSans-32"/>
       <use x="147.412109" xlink:href="#DejaVuSans-30"/>
       <use x="211.035156" xlink:href="#DejaVuSans-30"/>
       <use x="274.658203" xlink:href="#DejaVuSans-30"/>
      </g>
     </g>
    </g>
    <g id="ytick_9">
     <g id="line2d_33">
      <g>
       <use style="stroke:#000000;stroke-width:0.8;" x="74.7" xlink:href="#me0429d4d62" y="459.333671"/>
      </g>
     </g>
     <g id="text_26">
      <!-- −1000 -->
      <g transform="translate(33.870313 463.13289)scale(0.1 -0.1)">
       <use xlink:href="#DejaVuSans-2212"/>
       <use x="83.789062" xlink:href="#DejaVuSans-31"/>
       <use x="147.412109" xlink:href="#DejaVuSans-30"/>
       <use x="211.035156" xlink:href="#DejaVuSans-30"/>
       <use x="274.658203" xlink:href="#DejaVuSans-30"/>
      </g>
     </g>
    </g>
    <g id="ytick_10">
     <g id="line2d_34">
      <g>
       <use style="stroke:#000000;stroke-width:0.8;" x="74.7" xlink:href="#me0429d4d62" y="436.668402"/>
      </g>
     </g>
     <g id="text_27">
      <!-- 0 -->
      <g transform="translate(61.3375 440.467621)scale(0.1 -0.1)">
       <use xlink:href="#DejaVuSans-30"/>
      </g>
     </g>
    </g>
    <g id="ytick_11">
     <g id="line2d_35">
      <g>
       <use style="stroke:#000000;stroke-width:0.8;" x="74.7" xlink:href="#me0429d4d62" y="414.003133"/>
      </g>
     </g>
     <g id="text_28">
      <!-- 1000 -->
      <g transform="translate(42.25 417.802352)scale(0.1 -0.1)">
       <use xlink:href="#DejaVuSans-31"/>
       <use x="63.623047" xlink:href="#DejaVuSans-30"/>
       <use x="127.246094" xlink:href="#DejaVuSans-30"/>
       <use x="190.869141" xlink:href="#DejaVuSans-30"/>
      </g>
     </g>
    </g>
    <g id="ytick_12">
     <g id="line2d_36">
      <g>
       <use style="stroke:#000000;stroke-width:0.8;" x="74.7" xlink:href="#me0429d4d62" y="391.337864"/>
      </g>
     </g>
     <g id="text_29">
      <!-- 2000 -->
      <g transform="translate(42.25 395.137083)scale(0.1 -0.1)">
       <use xlink:href="#DejaVuSans-32"/>
       <use x="63.623047" xlink:href="#DejaVuSans-30"/>
       <use x="127.246094" xlink:href="#DejaVuSans-30"/>
       <use x="190.869141" xlink:href="#DejaVuSans-30"/>
      </g>
     </g>
    </g>
    <g id="ytick_13">
     <g id="line2d_37">
      <g>
       <use style="stroke:#000000;stroke-width:0.8;" x="74.7" xlink:href="#me0429d4d62" y="368.672595"/>
      </g>
     </g>
     <g id="text_30">
      <!-- 3000 -->
      <g transform="translate(42.25 372.471813)scale(0.1 -0.1)">
       <use xlink:href="#DejaVuSans-33"/>
       <use x="63.623047" xlink:href="#DejaVuSans-30"/>
       <use x="127.246094" xlink:href="#DejaVuSans-30"/>
       <use x="190.869141" xlink:href="#DejaVuSans-30"/>
      </g>
     </g>
    </g>
    <g id="ytick_14">
     <g id="line2d_38">
      <g>
       <use style="stroke:#000000;stroke-width:0.8;" x="74.7" xlink:href="#me0429d4d62" y="346.007325"/>
      </g>
     </g>
     <g id="text_31">
      <!-- 4000 -->
      <g transform="translate(42.25 349.806544)scale(0.1 -0.1)">
       <use xlink:href="#DejaVuSans-34"/>
       <use x="63.623047" xlink:href="#DejaVuSans-30"/>
       <use x="127.246094" xlink:href="#DejaVuSans-30"/>
       <use x="190.869141" xlink:href="#DejaVuSans-30"/>
      </g>
     </g>
    </g>
   </g>
   <g id="line2d_39">
    <path clip-path="url(#p3313015eea)" d="M 95.751818 512.129647 
L 104.172545 436.668402 
L 112.593273 436.668402 
L 121.014 436.290698 
L 129.434727 436.409216 
L 137.855455 436.283958 
L 146.276182 436.431957 
L 154.696909 436.578196 
L 163.117636 436.668402 
L 171.538364 436.668402 
L 179.959091 436.668402 
L 188.379818 436.668402 
L 196.800545 436.668322 
L 205.221273 436.668402 
L 213.642 436.668402 
L 222.062727 436.668402 
L 230.483455 436.668402 
L 238.904182 436.668402 
L 247.324909 436.668402 
L 255.745636 436.668402 
L 264.166364 436.668382 
L 272.587091 436.668402 
L 281.007818 436.668402 
L 289.428545 436.668402 
L 297.849273 436.668402 
L 306.27 436.668402 
L 314.690727 436.668402 
L 323.111455 436.668402 
L 331.532182 436.668402 
L 339.952909 436.668402 
L 348.373636 436.668402 
L 356.794364 436.668402 
L 365.215091 436.668402 
L 373.635818 436.668402 
L 382.056545 436.668402 
L 390.477273 436.668402 
L 398.898 436.668402 
L 407.318727 436.668402 
L 415.739455 436.668402 
L 424.160182 436.668402 
L 432.580909 436.668402 
L 441.001636 436.668402 
L 449.422364 436.620444 
L 457.843091 436.653862 
L 466.263818 436.668402 
L 474.684545 436.668402 
L 483.105273 436.668402 
L 491.526 436.668402 
L 499.946727 436.668402 
L 508.367455 436.668402 
L 516.788182 436.668402 
" style="fill:none;stroke:#1f77b4;stroke-linecap:square;stroke-width:1.5;"/>
   </g>
   <g id="line2d_40">
    <path clip-path="url(#p3313015eea)" d="M 95.751818 492.128378 
L 104.172545 452.703503 
L 112.593273 437.337187 
L 121.014 436.668402 
L 129.434727 436.598771 
L 137.855455 436.472861 
L 146.276182 436.486643 
L 154.696909 436.340456 
L 163.117636 436.2911 
L 171.538364 436.315251 
L 179.959091 436.25885 
L 188.379818 436.25543 
L 196.800545 436.238737 
L 205.221273 436.331483 
L 213.642 436.315989 
L 222.062727 436.293016 
L 230.483455 436.302899 
L 238.904182 436.315322 
L 247.324909 436.342152 
L 255.745636 436.341438 
L 264.166364 436.357533 
L 272.587091 436.347454 
L 281.007818 436.248141 
L 289.428545 436.263358 
L 297.849273 436.242346 
L 306.27 436.197269 
L 314.690727 436.321255 
L 323.111455 436.316139 
L 331.532182 436.287894 
L 339.952909 436.315224 
L 348.373636 436.323222 
L 356.794364 436.314716 
L 365.215091 436.282826 
L 373.635818 436.203729 
L 382.056545 436.290753 
L 390.477273 436.233019 
L 398.898 436.262207 
L 407.318727 436.292473 
L 415.739455 436.357004 
L 424.160182 436.324746 
L 432.580909 436.470988 
L 441.001636 436.53258 
L 449.422364 436.668354 
L 457.843091 436.668402 
L 466.263818 436.531688 
L 474.684545 436.45601 
L 483.105273 436.331733 
L 491.526 436.597193 
L 499.946727 437.791518 
L 508.367455 443.569913 
L 516.788182 448.585318 
" style="fill:none;stroke:#ff7f0e;stroke-linecap:square;stroke-width:1.5;"/>
   </g>
   <g id="line2d_41">
    <path clip-path="url(#p3313015eea)" d="M 95.751818 338.694353 
L 104.172545 443.595466 
L 112.593273 436.697046 
L 121.014 437.670586 
L 129.434727 437.365099 
L 137.855455 438.2189 
L 146.276182 437.746875 
L 154.696909 437.738187 
L 163.117636 437.736502 
L 171.538364 437.73442 
L 179.959091 438.264357 
L 188.379818 438.289039 
L 196.800545 438.35868 
L 205.221273 437.854129 
L 213.642 437.81864 
L 222.062727 437.815063 
L 230.483455 437.830862 
L 238.904182 437.810167 
L 247.324909 437.835996 
L 255.745636 437.77352 
L 264.166364 437.79851 
L 272.587091 437.818983 
L 281.007818 438.31703 
L 289.428545 438.335075 
L 297.849273 438.292479 
L 306.27 438.296255 
L 314.690727 437.817602 
L 323.111455 437.769627 
L 331.532182 437.847928 
L 339.952909 437.869996 
L 348.373636 437.785367 
L 356.794364 438.038399 
L 365.215091 438.03787 
L 373.635818 437.887998 
L 382.056545 437.885315 
L 390.477273 437.933917 
L 398.898 437.863384 
L 407.318727 437.899879 
L 415.739455 437.763595 
L 424.160182 437.75791 
L 432.580909 437.035692 
L 441.001636 436.668402 
L 449.422364 436.668402 
L 457.843091 436.668402 
L 466.263818 436.935997 
L 474.684545 437.371565 
L 483.105273 437.996591 
L 491.526 436.668402 
L 499.946727 436.891626 
L 508.367455 436.668402 
L 516.788182 436.668402 
" style="fill:none;stroke:#2ca02c;stroke-linecap:square;stroke-width:1.5;"/>
   </g>
   <g id="line2d_42">
    <path clip-path="url(#p3313015eea)" d="M 95.751818 436.668402 
L 104.172545 436.668402 
L 112.593273 436.668402 
L 121.014 436.668402 
L 129.434727 436.668402 
L 137.855455 436.668402 
L 146.276182 436.668402 
L 154.696909 436.668402 
L 163.117636 436.668402 
L 171.538364 436.668402 
L 179.959091 436.668402 
L 188.379818 436.668402 
L 196.800545 436.668402 
L 205.221273 436.668402 
L 213.642 436.668402 
L 222.062727 436.668402 
L 230.483455 436.668402 
L 238.904182 436.668402 
L 247.324909 436.668402 
L 255.745636 436.668402 
L 264.166364 436.668402 
L 272.587091 436.668402 
L 281.007818 436.668402 
L 289.428545 436.668402 
L 297.849273 436.668402 
L 306.27 436.668402 
L 314.690727 436.668402 
L 323.111455 436.668402 
L 331.532182 436.668402 
L 339.952909 436.668402 
L 348.373636 436.668402 
L 356.794364 436.668402 
L 365.215091 436.668402 
L 373.635818 436.668402 
L 382.056545 436.668402 
L 390.477273 436.668402 
L 398.898 436.668402 
L 407.318727 436.668402 
L 415.739455 436.668402 
L 424.160182 436.668402 
L 432.580909 436.668402 
L 441.001636 436.668402 
L 449.422364 436.668402 
L 457.843091 436.668402 
L 466.263818 436.668402 
L 474.684545 436.668402 
L 483.105273 436.668402 
L 491.526 436.668402 
L 499.946727 439.669189 
L 508.367455 454.716549 
L 516.788182 487.34943 
" style="fill:none;stroke:#d62728;stroke-linecap:square;stroke-width:1.5;"/>
   </g>
   <g id="patch_9">
    <path d="M 74.7 520.801412 
L 74.7 330.022588 
" style="fill:none;stroke:#000000;stroke-linecap:square;stroke-linejoin:miter;stroke-width:0.8;"/>
   </g>
   <g id="patch_10">
    <path d="M 537.84 520.801412 
L 537.84 330.022588 
" style="fill:none;stroke:#000000;stroke-linecap:square;stroke-linejoin:miter;stroke-width:0.8;"/>
   </g>
   <g id="patch_11">
    <path d="M 74.7 520.801412 
L 537.84 520.801412 
" style="fill:none;stroke:#000000;stroke-linecap:square;stroke-linejoin:miter;stroke-width:0.8;"/>
   </g>
   <g id="patch_12">
    <path d="M 74.7 330.022588 
L 537.84 330.022588 
" style="fill:none;stroke:#000000;stroke-linecap:square;stroke-linejoin:miter;stroke-width:0.8;"/>
   </g>
   <g id="text_32">
    <!-- MPC control action (u) against time -->
    <g transform="translate(217.993438 324.022588)scale(0.1 -0.1)">
     <defs>
      <path d="M 1959 3097 
Q 1497 3097 1228 2736 
Q 959 2375 959 1747 
Q 959 1119 1226 758 
Q 1494 397 1959 397 
Q 2419 397 2687 759 
Q 2956 1122 2956 1747 
Q 2956 2369 2687 2733 
Q 2419 3097 1959 3097 
z
M 1959 3584 
Q 2709 3584 3137 3096 
Q 3566 2609 3566 1747 
Q 3566 888 3137 398 
Q 2709 -91 1959 -91 
Q 1206 -91 779 398 
Q 353 888 353 1747 
Q 353 2609 779 3096 
Q 1206 3584 1959 3584 
z
" id="DejaVuSans-6f" transform="scale(0.015625)"/>
      <path d="M 544 1381 
L 544 3500 
L 1119 3500 
L 1119 1403 
Q 1119 906 1312 657 
Q 1506 409 1894 409 
Q 2359 409 2629 706 
Q 2900 1003 2900 1516 
L 2900 3500 
L 3475 3500 
L 3475 0 
L 2900 0 
L 2900 538 
Q 2691 219 2414 64 
Q 2138 -91 1772 -91 
Q 1169 -91 856 284 
Q 544 659 544 1381 
z
M 1991 3584 
L 1991 3584 
z
" id="DejaVuSans-75" transform="scale(0.015625)"/>
     </defs>
     <use xlink:href="#DejaVuSans-4d"/>
     <use x="86.279297" xlink:href="#DejaVuSans-50"/>
     <use x="146.582031" xlink:href="#DejaVuSans-43"/>
     <use x="216.40625" xlink:href="#DejaVuSans-20"/>
     <use x="248.193359" xlink:href="#DejaVuSans-63"/>
     <use x="303.173828" xlink:href="#DejaVuSans-6f"/>
     <use x="364.355469" xlink:href="#DejaVuSans-6e"/>
     <use x="427.734375" xlink:href="#DejaVuSans-74"/>
     <use x="466.943359" xlink:href="#DejaVuSans-72"/>
     <use x="505.806641" xlink:href="#DejaVuSans-6f"/>
     <use x="566.988281" xlink:href="#DejaVuSans-6c"/>
     <use x="594.771484" xlink:href="#DejaVuSans-20"/>
     <use x="626.558594" xlink:href="#DejaVuSans-61"/>
     <use x="687.837891" xlink:href="#DejaVuSans-63"/>
     <use x="742.818359" xlink:href="#DejaVuSans-74"/>
     <use x="782.027344" xlink:href="#DejaVuSans-69"/>
     <use x="809.810547" xlink:href="#DejaVuSans-6f"/>
     <use x="870.992188" xlink:href="#DejaVuSans-6e"/>
     <use x="934.371094" xlink:href="#DejaVuSans-20"/>
     <use x="966.158203" xlink:href="#DejaVuSans-28"/>
     <use x="1005.171875" xlink:href="#DejaVuSans-75"/>
     <use x="1068.550781" xlink:href="#DejaVuSans-29"/>
     <use x="1107.564453" xlink:href="#DejaVuSans-20"/>
     <use x="1139.351562" xlink:href="#DejaVuSans-61"/>
     <use x="1200.630859" xlink:href="#DejaVuSans-67"/>
     <use x="1264.107422" xlink:href="#DejaVuSans-61"/>
     <use x="1325.386719" xlink:href="#DejaVuSans-69"/>
     <use x="1353.169922" xlink:href="#DejaVuSans-6e"/>
     <use x="1416.548828" xlink:href="#DejaVuSans-73"/>
     <use x="1468.648438" xlink:href="#DejaVuSans-74"/>
     <use x="1507.857422" xlink:href="#DejaVuSans-20"/>
     <use x="1539.644531" xlink:href="#DejaVuSans-74"/>
     <use x="1578.853516" xlink:href="#DejaVuSans-69"/>
     <use x="1606.636719" xlink:href="#DejaVuSans-6d"/>
     <use x="1704.048828" xlink:href="#DejaVuSans-65"/>
    </g>
   </g>
   <g id="legend_2">
    <g id="patch_13">
     <path d="M 490.6089 386.520813 
L 532.009 386.520813 
Q 533.675 386.520813 533.675 384.854813 
L 533.675 335.853588 
Q 533.675 334.187588 532.009 334.187588 
L 490.6089 334.187588 
Q 488.9429 334.187588 488.9429 335.853588 
L 488.9429 384.854813 
Q 488.9429 386.520813 490.6089 386.520813 
z
" style="fill:#ffffff;opacity:0.8;stroke:#cccccc;stroke-linejoin:miter;"/>
    </g>
    <g id="line2d_43">
     <path d="M 492.2749 340.933587 
L 508.9349 340.933587 
" style="fill:none;stroke:#1f77b4;stroke-linecap:square;stroke-width:1.5;"/>
    </g>
    <g id="line2d_44"/>
    <g id="text_33">
     <!-- u_0 -->
     <g transform="translate(515.5989 343.849087)scale(0.0833 -0.0833)">
      <use xlink:href="#DejaVuSans-75"/>
      <use x="63.378906" xlink:href="#DejaVuSans-5f"/>
      <use x="113.378906" xlink:href="#DejaVuSans-30"/>
     </g>
    </g>
    <g id="line2d_45">
     <path d="M 492.2749 353.392143 
L 508.9349 353.392143 
" style="fill:none;stroke:#ff7f0e;stroke-linecap:square;stroke-width:1.5;"/>
    </g>
    <g id="line2d_46"/>
    <g id="text_34">
     <!-- u_1 -->
     <g transform="translate(515.5989 356.307643)scale(0.0833 -0.0833)">
      <use xlink:href="#DejaVuSans-75"/>
      <use x="63.378906" xlink:href="#DejaVuSans-5f"/>
      <use x="113.378906" xlink:href="#DejaVuSans-31"/>
     </g>
    </g>
    <g id="line2d_47">
     <path d="M 492.2749 365.850699 
L 508.9349 365.850699 
" style="fill:none;stroke:#2ca02c;stroke-linecap:square;stroke-width:1.5;"/>
    </g>
    <g id="line2d_48"/>
    <g id="text_35">
     <!-- u_2 -->
     <g transform="translate(515.5989 368.766199)scale(0.0833 -0.0833)">
      <use xlink:href="#DejaVuSans-75"/>
      <use x="63.378906" xlink:href="#DejaVuSans-5f"/>
      <use x="113.378906" xlink:href="#DejaVuSans-32"/>
     </g>
    </g>
    <g id="line2d_49">
     <path d="M 492.2749 378.309255 
L 508.9349 378.309255 
" style="fill:none;stroke:#d62728;stroke-linecap:square;stroke-width:1.5;"/>
    </g>
    <g id="line2d_50"/>
    <g id="text_36">
     <!-- u_3 -->
     <g transform="translate(515.5989 381.224755)scale(0.0833 -0.0833)">
      <use xlink:href="#DejaVuSans-75"/>
      <use x="63.378906" xlink:href="#DejaVuSans-5f"/>
      <use x="113.378906" xlink:href="#DejaVuSans-33"/>
     </g>
    </g>
   </g>
  </g>
  <g id="axes_3">
   <g id="patch_14">
    <path d="M 74.7 749.736 
L 537.84 749.736 
L 537.84 558.957176 
L 74.7 558.957176 
z
" style="fill:#ffffff;"/>
   </g>
   <g id="matplotlib.axis_5">
    <g id="xtick_13">
     <g id="line2d_51">
      <g>
       <use style="stroke:#000000;stroke-width:0.8;" x="95.751818" xlink:href="#md3b471b47b" y="749.736"/>
      </g>
     </g>
     <g id="text_37">
      <!-- 0 -->
      <g transform="translate(92.570568 764.334438)scale(0.1 -0.1)">
       <use xlink:href="#DejaVuSans-30"/>
      </g>
     </g>
    </g>
    <g id="xtick_14">
     <g id="line2d_52">
      <g>
       <use style="stroke:#000000;stroke-width:0.8;" x="137.855455" xlink:href="#md3b471b47b" y="749.736"/>
      </g>
     </g>
     <g id="text_38">
      <!-- 5 -->
      <g transform="translate(134.674205 764.334438)scale(0.1 -0.1)">
       <use xlink:href="#DejaVuSans-35"/>
      </g>
     </g>
    </g>
    <g id="xtick_15">
     <g id="line2d_53">
      <g>
       <use style="stroke:#000000;stroke-width:0.8;" x="179.959091" xlink:href="#md3b471b47b" y="749.736"/>
      </g>
     </g>
     <g id="text_39">
      <!-- 10 -->
      <g transform="translate(173.596591 764.334438)scale(0.1 -0.1)">
       <use xlink:href="#DejaVuSans-31"/>
       <use x="63.623047" xlink:href="#DejaVuSans-30"/>
      </g>
     </g>
    </g>
    <g id="xtick_16">
     <g id="line2d_54">
      <g>
       <use style="stroke:#000000;stroke-width:0.8;" x="222.062727" xlink:href="#md3b471b47b" y="749.736"/>
      </g>
     </g>
     <g id="text_40">
      <!-- 15 -->
      <g transform="translate(215.700227 764.334438)scale(0.1 -0.1)">
       <use xlink:href="#DejaVuSans-31"/>
       <use x="63.623047" xlink:href="#DejaVuSans-35"/>
      </g>
     </g>
    </g>
    <g id="xtick_17">
     <g id="line2d_55">
      <g>
       <use style="stroke:#000000;stroke-width:0.8;" x="264.166364" xlink:href="#md3b471b47b" y="749.736"/>
      </g>
     </g>
     <g id="text_41">
      <!-- 20 -->
      <g transform="translate(257.803864 764.334438)scale(0.1 -0.1)">
       <use xlink:href="#DejaVuSans-32"/>
       <use x="63.623047" xlink:href="#DejaVuSans-30"/>
      </g>
     </g>
    </g>
    <g id="xtick_18">
     <g id="line2d_56">
      <g>
       <use style="stroke:#000000;stroke-width:0.8;" x="306.27" xlink:href="#md3b471b47b" y="749.736"/>
      </g>
     </g>
     <g id="text_42">
      <!-- 25 -->
      <g transform="translate(299.9075 764.334438)scale(0.1 -0.1)">
       <use xlink:href="#DejaVuSans-32"/>
       <use x="63.623047" xlink:href="#DejaVuSans-35"/>
      </g>
     </g>
    </g>
    <g id="xtick_19">
     <g id="line2d_57">
      <g>
       <use style="stroke:#000000;stroke-width:0.8;" x="348.373636" xlink:href="#md3b471b47b" y="749.736"/>
      </g>
     </g>
     <g id="text_43">
      <!-- 30 -->
      <g transform="translate(342.011136 764.334438)scale(0.1 -0.1)">
       <use xlink:href="#DejaVuSans-33"/>
       <use x="63.623047" xlink:href="#DejaVuSans-30"/>
      </g>
     </g>
    </g>
    <g id="xtick_20">
     <g id="line2d_58">
      <g>
       <use style="stroke:#000000;stroke-width:0.8;" x="390.477273" xlink:href="#md3b471b47b" y="749.736"/>
      </g>
     </g>
     <g id="text_44">
      <!-- 35 -->
      <g transform="translate(384.114773 764.334438)scale(0.1 -0.1)">
       <use xlink:href="#DejaVuSans-33"/>
       <use x="63.623047" xlink:href="#DejaVuSans-35"/>
      </g>
     </g>
    </g>
    <g id="xtick_21">
     <g id="line2d_59">
      <g>
       <use style="stroke:#000000;stroke-width:0.8;" x="432.580909" xlink:href="#md3b471b47b" y="749.736"/>
      </g>
     </g>
     <g id="text_45">
      <!-- 40 -->
      <g transform="translate(426.218409 764.334438)scale(0.1 -0.1)">
       <use xlink:href="#DejaVuSans-34"/>
       <use x="63.623047" xlink:href="#DejaVuSans-30"/>
      </g>
     </g>
    </g>
    <g id="xtick_22">
     <g id="line2d_60">
      <g>
       <use style="stroke:#000000;stroke-width:0.8;" x="474.684545" xlink:href="#md3b471b47b" y="749.736"/>
      </g>
     </g>
     <g id="text_46">
      <!-- 45 -->
      <g transform="translate(468.322045 764.334438)scale(0.1 -0.1)">
       <use xlink:href="#DejaVuSans-34"/>
       <use x="63.623047" xlink:href="#DejaVuSans-35"/>
      </g>
     </g>
    </g>
    <g id="xtick_23">
     <g id="line2d_61">
      <g>
       <use style="stroke:#000000;stroke-width:0.8;" x="516.788182" xlink:href="#md3b471b47b" y="749.736"/>
      </g>
     </g>
     <g id="text_47">
      <!-- 50 -->
      <g transform="translate(510.425682 764.334438)scale(0.1 -0.1)">
       <use xlink:href="#DejaVuSans-35"/>
       <use x="63.623047" xlink:href="#DejaVuSans-30"/>
      </g>
     </g>
    </g>
    <g id="text_48">
     <!-- Time -->
     <g transform="translate(294.036406 778.012562)scale(0.1 -0.1)">
      <defs>
       <path d="M -19 4666 
L 3928 4666 
L 3928 4134 
L 2272 4134 
L 2272 0 
L 1638 0 
L 1638 4134 
L -19 4134 
L -19 4666 
z
" id="DejaVuSans-54" transform="scale(0.015625)"/>
      </defs>
      <use xlink:href="#DejaVuSans-54"/>
      <use x="57.958984" xlink:href="#DejaVuSans-69"/>
      <use x="85.742188" xlink:href="#DejaVuSans-6d"/>
      <use x="183.154297" xlink:href="#DejaVuSans-65"/>
     </g>
    </g>
   </g>
   <g id="matplotlib.axis_6">
    <g id="ytick_15">
     <g id="line2d_62">
      <g>
       <use style="stroke:#000000;stroke-width:0.8;" x="74.7" xlink:href="#me0429d4d62" y="732.994097"/>
      </g>
     </g>
     <g id="text_49">
      <!-- 2500 -->
      <g transform="translate(42.25 736.793316)scale(0.1 -0.1)">
       <use xlink:href="#DejaVuSans-32"/>
       <use x="63.623047" xlink:href="#DejaVuSans-35"/>
       <use x="127.246094" xlink:href="#DejaVuSans-30"/>
       <use x="190.869141" xlink:href="#DejaVuSans-30"/>
      </g>
     </g>
    </g>
    <g id="ytick_16">
     <g id="line2d_63">
      <g>
       <use style="stroke:#000000;stroke-width:0.8;" x="74.7" xlink:href="#me0429d4d62" y="708.427015"/>
      </g>
     </g>
     <g id="text_50">
      <!-- 5000 -->
      <g transform="translate(42.25 712.226234)scale(0.1 -0.1)">
       <use xlink:href="#DejaVuSans-35"/>
       <use x="63.623047" xlink:href="#DejaVuSans-30"/>
       <use x="127.246094" xlink:href="#DejaVuSans-30"/>
       <use x="190.869141" xlink:href="#DejaVuSans-30"/>
      </g>
     </g>
    </g>
    <g id="ytick_17">
     <g id="line2d_64">
      <g>
       <use style="stroke:#000000;stroke-width:0.8;" x="74.7" xlink:href="#me0429d4d62" y="683.859933"/>
      </g>
     </g>
     <g id="text_51">
      <!-- 7500 -->
      <g transform="translate(42.25 687.659152)scale(0.1 -0.1)">
       <defs>
        <path d="M 525 4666 
L 3525 4666 
L 3525 4397 
L 1831 0 
L 1172 0 
L 2766 4134 
L 525 4134 
L 525 4666 
z
" id="DejaVuSans-37" transform="scale(0.015625)"/>
       </defs>
       <use xlink:href="#DejaVuSans-37"/>
       <use x="63.623047" xlink:href="#DejaVuSans-35"/>
       <use x="127.246094" xlink:href="#DejaVuSans-30"/>
       <use x="190.869141" xlink:href="#DejaVuSans-30"/>
      </g>
     </g>
    </g>
    <g id="ytick_18">
     <g id="line2d_65">
      <g>
       <use style="stroke:#000000;stroke-width:0.8;" x="74.7" xlink:href="#me0429d4d62" y="659.292851"/>
      </g>
     </g>
     <g id="text_52">
      <!-- 10000 -->
      <g transform="translate(35.8875 663.09207)scale(0.1 -0.1)">
       <use xlink:href="#DejaVuSans-31"/>
       <use x="63.623047" xlink:href="#DejaVuSans-30"/>
       <use x="127.246094" xlink:href="#DejaVuSans-30"/>
       <use x="190.869141" xlink:href="#DejaVuSans-30"/>
       <use x="254.492188" xlink:href="#DejaVuSans-30"/>
      </g>
     </g>
    </g>
    <g id="ytick_19">
     <g id="line2d_66">
      <g>
       <use style="stroke:#000000;stroke-width:0.8;" x="74.7" xlink:href="#me0429d4d62" y="634.725769"/>
      </g>
     </g>
     <g id="text_53">
      <!-- 12500 -->
      <g transform="translate(35.8875 638.524988)scale(0.1 -0.1)">
       <use xlink:href="#DejaVuSans-31"/>
       <use x="63.623047" xlink:href="#DejaVuSans-32"/>
       <use x="127.246094" xlink:href="#DejaVuSans-35"/>
       <use x="190.869141" xlink:href="#DejaVuSans-30"/>
       <use x="254.492188" xlink:href="#DejaVuSans-30"/>
      </g>
     </g>
    </g>
    <g id="ytick_20">
     <g id="line2d_67">
      <g>
       <use style="stroke:#000000;stroke-width:0.8;" x="74.7" xlink:href="#me0429d4d62" y="610.158687"/>
      </g>
     </g>
     <g id="text_54">
      <!-- 15000 -->
      <g transform="translate(35.8875 613.957906)scale(0.1 -0.1)">
       <use xlink:href="#DejaVuSans-31"/>
       <use x="63.623047" xlink:href="#DejaVuSans-35"/>
       <use x="127.246094" xlink:href="#DejaVuSans-30"/>
       <use x="190.869141" xlink:href="#DejaVuSans-30"/>
       <use x="254.492188" xlink:href="#DejaVuSans-30"/>
      </g>
     </g>
    </g>
    <g id="ytick_21">
     <g id="line2d_68">
      <g>
       <use style="stroke:#000000;stroke-width:0.8;" x="74.7" xlink:href="#me0429d4d62" y="585.591605"/>
      </g>
     </g>
     <g id="text_55">
      <!-- 17500 -->
      <g transform="translate(35.8875 589.390824)scale(0.1 -0.1)">
       <use xlink:href="#DejaVuSans-31"/>
       <use x="63.623047" xlink:href="#DejaVuSans-37"/>
       <use x="127.246094" xlink:href="#DejaVuSans-35"/>
       <use x="190.869141" xlink:href="#DejaVuSans-30"/>
       <use x="254.492188" xlink:href="#DejaVuSans-30"/>
      </g>
     </g>
    </g>
    <g id="ytick_22">
     <g id="line2d_69">
      <g>
       <use style="stroke:#000000;stroke-width:0.8;" x="74.7" xlink:href="#me0429d4d62" y="561.024523"/>
      </g>
     </g>
     <g id="text_56">
      <!-- 20000 -->
      <g transform="translate(35.8875 564.823742)scale(0.1 -0.1)">
       <use xlink:href="#DejaVuSans-32"/>
       <use x="63.623047" xlink:href="#DejaVuSans-30"/>
       <use x="127.246094" xlink:href="#DejaVuSans-30"/>
       <use x="190.869141" xlink:href="#DejaVuSans-30"/>
       <use x="254.492188" xlink:href="#DejaVuSans-30"/>
      </g>
     </g>
    </g>
   </g>
   <g id="line2d_70">
    <path clip-path="url(#pe04ae7ed6b)" d="M 95.751818 567.628941 
L 104.172545 691.535198 
L 112.593273 704.273155 
L 121.014 704.956313 
L 129.434727 705.716003 
L 137.855455 706.23858 
L 146.276182 707.114366 
L 154.696909 707.859245 
L 163.117636 708.661635 
L 171.538364 709.453316 
L 179.959091 710.203606 
L 188.379818 710.931501 
L 196.800545 711.633508 
L 205.221273 712.331611 
L 213.642 712.901156 
L 222.062727 713.507066 
L 230.483455 714.219214 
L 238.904182 714.941477 
L 247.324909 715.626014 
L 255.745636 716.216599 
L 264.166364 716.807273 
L 272.587091 717.396793 
L 281.007818 717.989744 
L 289.428545 718.712789 
L 297.849273 719.407276 
L 306.27 720.147044 
L 314.690727 720.968048 
L 323.111455 721.626609 
L 331.532182 722.286519 
L 339.952909 722.998478 
L 348.373636 723.671949 
L 356.794364 724.324714 
L 365.215091 724.967612 
L 373.635818 725.630228 
L 382.056545 726.473609 
L 390.477273 727.249792 
L 398.898 728.098775 
L 407.318727 728.923604 
L 415.739455 729.696567 
L 424.160182 730.320976 
L 432.580909 730.964165 
L 441.001636 731.471807 
L 449.422364 731.912688 
L 457.843091 732.200238 
L 466.263818 732.404398 
L 474.684545 732.772608 
L 483.105273 733.214213 
L 491.526 733.824581 
L 499.946727 734.10705 
L 508.367455 735.309709 
L 516.788182 741.064235 
" style="fill:none;stroke:#1f77b4;stroke-linecap:square;stroke-width:1.5;"/>
   </g>
   <g id="patch_15">
    <path d="M 74.7 749.736 
L 74.7 558.957176 
" style="fill:none;stroke:#000000;stroke-linecap:square;stroke-linejoin:miter;stroke-width:0.8;"/>
   </g>
   <g id="patch_16">
    <path d="M 537.84 749.736 
L 537.84 558.957176 
" style="fill:none;stroke:#000000;stroke-linecap:square;stroke-linejoin:miter;stroke-width:0.8;"/>
   </g>
   <g id="patch_17">
    <path d="M 74.7 749.736 
L 537.84 749.736 
" style="fill:none;stroke:#000000;stroke-linecap:square;stroke-linejoin:miter;stroke-width:0.8;"/>
   </g>
   <g id="patch_18">
    <path d="M 74.7 558.957176 
L 537.84 558.957176 
" style="fill:none;stroke:#000000;stroke-linecap:square;stroke-linejoin:miter;stroke-width:0.8;"/>
   </g>
   <g id="text_57">
    <!-- Cost to go against time -->
    <g transform="translate(247.823906 552.957176)scale(0.1 -0.1)">
     <use xlink:href="#DejaVuSans-43"/>
     <use x="69.824219" xlink:href="#DejaVuSans-6f"/>
     <use x="131.005859" xlink:href="#DejaVuSans-73"/>
     <use x="183.105469" xlink:href="#DejaVuSans-74"/>
     <use x="222.314453" xlink:href="#DejaVuSans-20"/>
     <use x="254.101562" xlink:href="#DejaVuSans-74"/>
     <use x="293.310547" xlink:href="#DejaVuSans-6f"/>
     <use x="354.492188" xlink:href="#DejaVuSans-20"/>
     <use x="386.279297" xlink:href="#DejaVuSans-67"/>
     <use x="449.755859" xlink:href="#DejaVuSans-6f"/>
     <use x="510.9375" xlink:href="#DejaVuSans-20"/>
     <use x="542.724609" xlink:href="#DejaVuSans-61"/>
     <use x="604.003906" xlink:href="#DejaVuSans-67"/>
     <use x="667.480469" xlink:href="#DejaVuSans-61"/>
     <use x="728.759766" xlink:href="#DejaVuSans-69"/>
     <use x="756.542969" xlink:href="#DejaVuSans-6e"/>
     <use x="819.921875" xlink:href="#DejaVuSans-73"/>
     <use x="872.021484" xlink:href="#DejaVuSans-74"/>
     <use x="911.230469" xlink:href="#DejaVuSans-20"/>
     <use x="943.017578" xlink:href="#DejaVuSans-74"/>
     <use x="982.226562" xlink:href="#DejaVuSans-69"/>
     <use x="1010.009766" xlink:href="#DejaVuSans-6d"/>
     <use x="1107.421875" xlink:href="#DejaVuSans-65"/>
    </g>
   </g>
   <g id="legend_3">
    <g id="patch_19">
     <path d="M 492.218933 577.848055 
L 532.009 577.848055 
Q 533.675 577.848055 533.675 576.182055 
L 533.675 564.788176 
Q 533.675 563.122176 532.009 563.122176 
L 492.218933 563.122176 
Q 490.552933 563.122176 490.552933 564.788176 
L 490.552933 576.182055 
Q 490.552933 577.848055 492.218933 577.848055 
z
" style="fill:#ffffff;opacity:0.8;stroke:#cccccc;stroke-linejoin:miter;"/>
    </g>
    <g id="line2d_71">
     <path d="M 493.884933 569.868175 
L 510.544933 569.868175 
" style="fill:none;stroke:#1f77b4;stroke-linecap:square;stroke-width:1.5;"/>
    </g>
    <g id="line2d_72"/>
    <g id="text_58">
     <!-- ctg -->
     <g transform="translate(517.208933 572.783675)scale(0.0833 -0.0833)">
      <use xlink:href="#DejaVuSans-63"/>
      <use x="54.980469" xlink:href="#DejaVuSans-74"/>
      <use x="94.189453" xlink:href="#DejaVuSans-67"/>
     </g>
    </g>
   </g>
  </g>
 </g>
 <defs>
  <clipPath id="pb46dcb4f6f">
   <rect height="190.778824" width="463.14" x="74.7" y="101.088"/>
  </clipPath>
  <clipPath id="p3313015eea">
   <rect height="190.778824" width="463.14" x="74.7" y="330.022588"/>
  </clipPath>
  <clipPath id="pe04ae7ed6b">
   <rect height="190.778824" width="463.14" x="74.7" y="558.957176"/>
  </clipPath>
 </defs>
</svg>
