<?xml version="1.0" encoding="utf-8" standalone="no"?>
<!DOCTYPE svg PUBLIC "-//W3C//DTD SVG 1.1//EN"
  "http://www.w3.org/Graphics/SVG/1.1/DTD/svg11.dtd">
<svg height="842.4pt" version="1.1" viewBox="0 0 597.6 842.4" width="597.6pt" xmlns="http://www.w3.org/2000/svg" xmlns:xlink="http://www.w3.org/1999/xlink">
 <metadata>
  <rdf:RDF xmlns:cc="http://creativecommons.org/ns#" xmlns:dc="http://purl.org/dc/elements/1.1/" xmlns:rdf="http://www.w3.org/1999/02/22-rdf-syntax-ns#">
   <cc:Work>
    <dc:type rdf:resource="http://purl.org/dc/dcmitype/StillImage"/>
    <dc:date>2021-08-02T05:37:41.248627</dc:date>
    <dc:format>image/svg+xml</dc:format>
    <dc:creator>
     <cc:Agent>
      <dc:title>Matplotlib v3.4.2, https://matplotlib.org/</dc:title>
     </cc:Agent>
    </dc:creator>
   </cc:Work>
  </rdf:RDF>
 </metadata>
 <defs>
  <style type="text/css">*{stroke-linecap:butt;stroke-linejoin:round;}</style>
 </defs>
 <g id="figure_1">
  <g id="patch_1">
   <path d="M 0 842.4 
L 597.6 842.4 
L 597.6 0 
L 0 0 
z
" style="fill:#ffffff;"/>
  </g>
  <g id="axes_1">
   <g id="patch_2">
    <path d="M 74.7 291.866824 
L 537.84 291.866824 
L 537.84 101.088 
L 74.7 101.088 
z
" style="fill:#ffffff;"/>
   </g>
   <g id="matplotlib.axis_1">
    <g id="xtick_1">
     <g id="line2d_1">
      <defs>
       <path d="M 0 0 
L 0 3.5 
" id="m941cbf60bc" style="stroke:#000000;stroke-width:0.8;"/>
      </defs>
      <g>
       <use style="stroke:#000000;stroke-width:0.8;" x="95.751818" xlink:href="#m941cbf60bc" y="291.866824"/>
      </g>
     </g>
     <g id="text_1">
      <!-- 0 -->
      <g transform="translate(92.570568 306.465261)scale(0.1 -0.1)">
       <defs>
        <path d="M 2034 4250 
Q 1547 4250 1301 3770 
Q 1056 3291 1056 2328 
Q 1056 1369 1301 889 
Q 1547 409 2034 409 
Q 2525 409 2770 889 
Q 3016 1369 3016 2328 
Q 3016 3291 2770 3770 
Q 2525 4250 2034 4250 
z
M 2034 4750 
Q 2819 4750 3233 4129 
Q 3647 3509 3647 2328 
Q 3647 1150 3233 529 
Q 2819 -91 2034 -91 
Q 1250 -91 836 529 
Q 422 1150 422 2328 
Q 422 3509 836 4129 
Q 1250 4750 2034 4750 
z
" id="DejaVuSans-30" transform="scale(0.015625)"/>
       </defs>
       <use xlink:href="#DejaVuSans-30"/>
      </g>
     </g>
    </g>
    <g id="xtick_2">
     <g id="line2d_2">
      <g>
       <use style="stroke:#000000;stroke-width:0.8;" x="179.959091" xlink:href="#m941cbf60bc" y="291.866824"/>
      </g>
     </g>
     <g id="text_2">
      <!-- 20 -->
      <g transform="translate(173.596591 306.465261)scale(0.1 -0.1)">
       <defs>
        <path d="M 1228 531 
L 3431 531 
L 3431 0 
L 469 0 
L 469 531 
Q 828 903 1448 1529 
Q 2069 2156 2228 2338 
Q 2531 2678 2651 2914 
Q 2772 3150 2772 3378 
Q 2772 3750 2511 3984 
Q 2250 4219 1831 4219 
Q 1534 4219 1204 4116 
Q 875 4013 500 3803 
L 500 4441 
Q 881 4594 1212 4672 
Q 1544 4750 1819 4750 
Q 2544 4750 2975 4387 
Q 3406 4025 3406 3419 
Q 3406 3131 3298 2873 
Q 3191 2616 2906 2266 
Q 2828 2175 2409 1742 
Q 1991 1309 1228 531 
z
" id="DejaVuSans-32" transform="scale(0.015625)"/>
       </defs>
       <use xlink:href="#DejaVuSans-32"/>
       <use x="63.623047" xlink:href="#DejaVuSans-30"/>
      </g>
     </g>
    </g>
    <g id="xtick_3">
     <g id="line2d_3">
      <g>
       <use style="stroke:#000000;stroke-width:0.8;" x="264.166364" xlink:href="#m941cbf60bc" y="291.866824"/>
      </g>
     </g>
     <g id="text_3">
      <!-- 40 -->
      <g transform="translate(257.803864 306.465261)scale(0.1 -0.1)">
       <defs>
        <path d="M 2419 4116 
L 825 1625 
L 2419 1625 
L 2419 4116 
z
M 2253 4666 
L 3047 4666 
L 3047 1625 
L 3713 1625 
L 3713 1100 
L 3047 1100 
L 3047 0 
L 2419 0 
L 2419 1100 
L 313 1100 
L 313 1709 
L 2253 4666 
z
" id="DejaVuSans-34" transform="scale(0.015625)"/>
       </defs>
       <use xlink:href="#DejaVuSans-34"/>
       <use x="63.623047" xlink:href="#DejaVuSans-30"/>
      </g>
     </g>
    </g>
    <g id="xtick_4">
     <g id="line2d_4">
      <g>
       <use style="stroke:#000000;stroke-width:0.8;" x="348.373636" xlink:href="#m941cbf60bc" y="291.866824"/>
      </g>
     </g>
     <g id="text_4">
      <!-- 60 -->
      <g transform="translate(342.011136 306.465261)scale(0.1 -0.1)">
       <defs>
        <path d="M 2113 2584 
Q 1688 2584 1439 2293 
Q 1191 2003 1191 1497 
Q 1191 994 1439 701 
Q 1688 409 2113 409 
Q 2538 409 2786 701 
Q 3034 994 3034 1497 
Q 3034 2003 2786 2293 
Q 2538 2584 2113 2584 
z
M 3366 4563 
L 3366 3988 
Q 3128 4100 2886 4159 
Q 2644 4219 2406 4219 
Q 1781 4219 1451 3797 
Q 1122 3375 1075 2522 
Q 1259 2794 1537 2939 
Q 1816 3084 2150 3084 
Q 2853 3084 3261 2657 
Q 3669 2231 3669 1497 
Q 3669 778 3244 343 
Q 2819 -91 2113 -91 
Q 1303 -91 875 529 
Q 447 1150 447 2328 
Q 447 3434 972 4092 
Q 1497 4750 2381 4750 
Q 2619 4750 2861 4703 
Q 3103 4656 3366 4563 
z
" id="DejaVuSans-36" transform="scale(0.015625)"/>
       </defs>
       <use xlink:href="#DejaVuSans-36"/>
       <use x="63.623047" xlink:href="#DejaVuSans-30"/>
      </g>
     </g>
    </g>
    <g id="xtick_5">
     <g id="line2d_5">
      <g>
       <use style="stroke:#000000;stroke-width:0.8;" x="432.580909" xlink:href="#m941cbf60bc" y="291.866824"/>
      </g>
     </g>
     <g id="text_5">
      <!-- 80 -->
      <g transform="translate(426.218409 306.465261)scale(0.1 -0.1)">
       <defs>
        <path d="M 2034 2216 
Q 1584 2216 1326 1975 
Q 1069 1734 1069 1313 
Q 1069 891 1326 650 
Q 1584 409 2034 409 
Q 2484 409 2743 651 
Q 3003 894 3003 1313 
Q 3003 1734 2745 1975 
Q 2488 2216 2034 2216 
z
M 1403 2484 
Q 997 2584 770 2862 
Q 544 3141 544 3541 
Q 544 4100 942 4425 
Q 1341 4750 2034 4750 
Q 2731 4750 3128 4425 
Q 3525 4100 3525 3541 
Q 3525 3141 3298 2862 
Q 3072 2584 2669 2484 
Q 3125 2378 3379 2068 
Q 3634 1759 3634 1313 
Q 3634 634 3220 271 
Q 2806 -91 2034 -91 
Q 1263 -91 848 271 
Q 434 634 434 1313 
Q 434 1759 690 2068 
Q 947 2378 1403 2484 
z
M 1172 3481 
Q 1172 3119 1398 2916 
Q 1625 2713 2034 2713 
Q 2441 2713 2670 2916 
Q 2900 3119 2900 3481 
Q 2900 3844 2670 4047 
Q 2441 4250 2034 4250 
Q 1625 4250 1398 4047 
Q 1172 3844 1172 3481 
z
" id="DejaVuSans-38" transform="scale(0.015625)"/>
       </defs>
       <use xlink:href="#DejaVuSans-38"/>
       <use x="63.623047" xlink:href="#DejaVuSans-30"/>
      </g>
     </g>
    </g>
    <g id="xtick_6">
     <g id="line2d_6">
      <g>
       <use style="stroke:#000000;stroke-width:0.8;" x="516.788182" xlink:href="#m941cbf60bc" y="291.866824"/>
      </g>
     </g>
     <g id="text_6">
      <!-- 100 -->
      <g transform="translate(507.244432 306.465261)scale(0.1 -0.1)">
       <defs>
        <path d="M 794 531 
L 1825 531 
L 1825 4091 
L 703 3866 
L 703 4441 
L 1819 4666 
L 2450 4666 
L 2450 531 
L 3481 531 
L 3481 0 
L 794 0 
L 794 531 
z
" id="DejaVuSans-31" transform="scale(0.015625)"/>
       </defs>
       <use xlink:href="#DejaVuSans-31"/>
       <use x="63.623047" xlink:href="#DejaVuSans-30"/>
       <use x="127.246094" xlink:href="#DejaVuSans-30"/>
      </g>
     </g>
    </g>
   </g>
   <g id="matplotlib.axis_2">
    <g id="ytick_1">
     <g id="line2d_7">
      <defs>
       <path d="M 0 0 
L -3.5 0 
" id="m09291068b5" style="stroke:#000000;stroke-width:0.8;"/>
      </defs>
      <g>
       <use style="stroke:#000000;stroke-width:0.8;" x="74.7" xlink:href="#m09291068b5" y="274.468887"/>
      </g>
     </g>
     <g id="text_7">
      <!-- −1 -->
      <g transform="translate(52.957813 278.268105)scale(0.1 -0.1)">
       <defs>
        <path d="M 678 2272 
L 4684 2272 
L 4684 1741 
L 678 1741 
L 678 2272 
z
" id="DejaVuSans-2212" transform="scale(0.015625)"/>
       </defs>
       <use xlink:href="#DejaVuSans-2212"/>
       <use x="83.789062" xlink:href="#DejaVuSans-31"/>
      </g>
     </g>
    </g>
    <g id="ytick_2">
     <g id="line2d_8">
      <g>
       <use style="stroke:#000000;stroke-width:0.8;" x="74.7" xlink:href="#m09291068b5" y="242.276562"/>
      </g>
     </g>
     <g id="text_8">
      <!-- 0 -->
      <g transform="translate(61.3375 246.075781)scale(0.1 -0.1)">
       <use xlink:href="#DejaVuSans-30"/>
      </g>
     </g>
    </g>
    <g id="ytick_3">
     <g id="line2d_9">
      <g>
       <use style="stroke:#000000;stroke-width:0.8;" x="74.7" xlink:href="#m09291068b5" y="210.084238"/>
      </g>
     </g>
     <g id="text_9">
      <!-- 1 -->
      <g transform="translate(61.3375 213.883457)scale(0.1 -0.1)">
       <use xlink:href="#DejaVuSans-31"/>
      </g>
     </g>
    </g>
    <g id="ytick_4">
     <g id="line2d_10">
      <g>
       <use style="stroke:#000000;stroke-width:0.8;" x="74.7" xlink:href="#m09291068b5" y="177.891913"/>
      </g>
     </g>
     <g id="text_10">
      <!-- 2 -->
      <g transform="translate(61.3375 181.691132)scale(0.1 -0.1)">
       <use xlink:href="#DejaVuSans-32"/>
      </g>
     </g>
    </g>
    <g id="ytick_5">
     <g id="line2d_11">
      <g>
       <use style="stroke:#000000;stroke-width:0.8;" x="74.7" xlink:href="#m09291068b5" y="145.699589"/>
      </g>
     </g>
     <g id="text_11">
      <!-- 3 -->
      <g transform="translate(61.3375 149.498808)scale(0.1 -0.1)">
       <defs>
        <path d="M 2597 2516 
Q 3050 2419 3304 2112 
Q 3559 1806 3559 1356 
Q 3559 666 3084 287 
Q 2609 -91 1734 -91 
Q 1441 -91 1130 -33 
Q 819 25 488 141 
L 488 750 
Q 750 597 1062 519 
Q 1375 441 1716 441 
Q 2309 441 2620 675 
Q 2931 909 2931 1356 
Q 2931 1769 2642 2001 
Q 2353 2234 1838 2234 
L 1294 2234 
L 1294 2753 
L 1863 2753 
Q 2328 2753 2575 2939 
Q 2822 3125 2822 3475 
Q 2822 3834 2567 4026 
Q 2313 4219 1838 4219 
Q 1578 4219 1281 4162 
Q 984 4106 628 3988 
L 628 4550 
Q 988 4650 1302 4700 
Q 1616 4750 1894 4750 
Q 2613 4750 3031 4423 
Q 3450 4097 3450 3541 
Q 3450 3153 3228 2886 
Q 3006 2619 2597 2516 
z
" id="DejaVuSans-33" transform="scale(0.015625)"/>
       </defs>
       <use xlink:href="#DejaVuSans-33"/>
      </g>
     </g>
    </g>
    <g id="ytick_6">
     <g id="line2d_12">
      <g>
       <use style="stroke:#000000;stroke-width:0.8;" x="74.7" xlink:href="#m09291068b5" y="113.507265"/>
      </g>
     </g>
     <g id="text_12">
      <!-- 4 -->
      <g transform="translate(61.3375 117.306483)scale(0.1 -0.1)">
       <use xlink:href="#DejaVuSans-34"/>
      </g>
     </g>
    </g>
    <g id="text_13">
     <!-- 1e7 -->
     <g transform="translate(74.7 98.088)scale(0.1 -0.1)">
      <defs>
       <path d="M 3597 1894 
L 3597 1613 
L 953 1613 
Q 991 1019 1311 708 
Q 1631 397 2203 397 
Q 2534 397 2845 478 
Q 3156 559 3463 722 
L 3463 178 
Q 3153 47 2828 -22 
Q 2503 -91 2169 -91 
Q 1331 -91 842 396 
Q 353 884 353 1716 
Q 353 2575 817 3079 
Q 1281 3584 2069 3584 
Q 2775 3584 3186 3129 
Q 3597 2675 3597 1894 
z
M 3022 2063 
Q 3016 2534 2758 2815 
Q 2500 3097 2075 3097 
Q 1594 3097 1305 2825 
Q 1016 2553 972 2059 
L 3022 2063 
z
" id="DejaVuSans-65" transform="scale(0.015625)"/>
       <path d="M 525 4666 
L 3525 4666 
L 3525 4397 
L 1831 0 
L 1172 0 
L 2766 4134 
L 525 4134 
L 525 4666 
z
" id="DejaVuSans-37" transform="scale(0.015625)"/>
      </defs>
      <use xlink:href="#DejaVuSans-31"/>
      <use x="63.623047" xlink:href="#DejaVuSans-65"/>
      <use x="125.146484" xlink:href="#DejaVuSans-37"/>
     </g>
    </g>
   </g>
   <g id="line2d_13">
    <path clip-path="url(#p8100366e96)" d="M 95.751818 242.306562 
L 99.962182 248.160635 
L 104.172545 242.276562 
L 108.382909 252.998626 
L 112.593273 249.021152 
L 116.803636 243.333105 
L 121.014 242.805584 
L 125.224364 245.383811 
L 129.434727 242.387469 
L 133.645091 244.882574 
L 137.855455 243.811864 
L 142.065818 242.992048 
L 146.276182 243.490102 
L 150.486545 241.94656 
L 154.696909 242.34238 
L 158.907273 243.096385 
L 163.117636 242.927089 
L 167.328 245.424706 
L 171.538364 243.632049 
L 175.748727 242.397446 
L 179.959091 242.609535 
L 184.169455 242.626011 
L 188.379818 242.718947 
L 192.590182 242.687725 
L 196.800545 242.8077 
L 201.010909 242.633084 
L 205.221273 242.419638 
L 209.431636 242.769842 
L 213.642 242.185888 
L 217.852364 242.477575 
L 222.062727 244.738179 
L 226.273091 242.27654 
L 230.483455 242.365777 
L 234.693818 244.040191 
L 238.904182 242.289066 
L 243.114545 243.368628 
L 247.324909 244.188076 
L 251.535273 243.668848 
L 255.745636 243.565097 
L 259.956 243.775011 
L 264.166364 243.339595 
L 268.376727 245.220686 
L 272.587091 243.912596 
L 276.797455 243.605986 
L 281.007818 244.59835 
L 285.218182 244.341767 
L 289.428545 244.257282 
L 293.638909 244.501261 
L 297.849273 244.353444 
L 302.059636 244.244945 
L 306.27 244.308013 
L 310.480364 244.323609 
L 314.690727 244.316228 
L 318.901091 244.323013 
L 323.111455 244.309571 
L 327.321818 244.32406 
L 331.532182 244.309493 
L 335.742545 244.315655 
L 339.952909 244.298953 
L 344.163273 244.281204 
L 348.373636 244.269303 
L 352.584 244.375752 
L 356.794364 244.220025 
L 361.004727 244.153352 
L 365.215091 243.583236 
L 369.425455 243.367716 
L 373.635818 244.689497 
L 377.846182 244.458689 
L 382.056545 244.309688 
L 386.266909 244.284897 
L 390.477273 245.802906 
L 394.687636 245.528144 
L 398.898 243.604325 
L 403.108364 241.636289 
L 407.318727 242.858511 
L 411.529091 245.759174 
L 415.739455 243.071079 
L 419.949818 243.716078 
L 424.160182 244.513787 
L 428.370545 242.477266 
L 432.580909 244.601385 
L 436.791273 244.215791 
L 441.001636 244.956229 
L 445.212 244.011654 
L 449.422364 243.405388 
L 453.632727 244.233039 
L 457.843091 244.639305 
L 462.053455 244.16825 
L 466.263818 244.815059 
L 470.474182 244.914427 
L 474.684545 246.842082 
L 478.894909 244.567248 
L 483.105273 245.930494 
L 487.315636 242.777389 
L 491.526 244.190249 
L 495.736364 244.339498 
L 499.946727 245.218919 
L 504.157091 239.647255 
L 508.367455 250.542635 
L 512.577818 242.395598 
L 516.788182 241.436975 
" style="fill:none;stroke:#1f77b4;stroke-linecap:square;stroke-width:1.5;"/>
   </g>
   <g id="line2d_14">
    <path clip-path="url(#p8100366e96)" d="M 95.751818 242.284659 
L 99.962182 209.509224 
L 104.172545 234.885778 
L 108.382909 164.26917 
L 112.593273 190.938126 
L 116.803636 232.346945 
L 121.014 242.072207 
L 125.224364 227.698775 
L 129.434727 220.635183 
L 133.645091 219.066596 
L 137.855455 226.450206 
L 142.065818 236.712613 
L 146.276182 233.283607 
L 150.486545 242.276562 
L 154.696909 242.369729 
L 158.907273 237.598501 
L 163.117636 237.21395 
L 167.328 225.954208 
L 171.538364 222.501029 
L 175.748727 235.35849 
L 179.959091 237.601291 
L 184.169455 236.65088 
L 188.379818 236.509917 
L 192.590182 237.009343 
L 196.800545 236.188232 
L 201.010909 237.675387 
L 205.221273 238.600697 
L 209.431636 237.395359 
L 213.642 241.050516 
L 217.852364 241.615359 
L 222.062727 227.727376 
L 226.273091 220.773933 
L 230.483455 224.876932 
L 234.693818 224.398669 
L 238.904182 222.565248 
L 243.114545 226.784107 
L 247.324909 222.666632 
L 251.535273 215.158161 
L 255.745636 220.971945 
L 259.956 222.73458 
L 264.166364 223.872816 
L 268.376727 215.116642 
L 272.587091 215.821376 
L 276.797455 218.625696 
L 281.007818 215.428371 
L 285.218182 215.855384 
L 289.428545 213.755595 
L 293.638909 215.068117 
L 297.849273 214.651903 
L 302.059636 216.96372 
L 306.27 216.77909 
L 310.480364 216.749458 
L 314.690727 216.820932 
L 318.901091 216.818117 
L 323.111455 216.739705 
L 327.321818 216.765932 
L 331.532182 216.710414 
L 335.742545 216.753695 
L 339.952909 216.693573 
L 344.163273 216.877327 
L 348.373636 216.7916 
L 352.584 216.222744 
L 356.794364 217.281723 
L 361.004727 212.314388 
L 365.215091 220.331692 
L 369.425455 223.012009 
L 373.635818 216.372251 
L 377.846182 214.852233 
L 382.056545 214.223976 
L 386.266909 216.551824 
L 390.477273 211.285226 
L 394.687636 216.0286 
L 398.898 235.34986 
L 403.108364 242.401825 
L 407.318727 237.697274 
L 411.529091 219.456614 
L 415.739455 227.734126 
L 419.949818 230.60089 
L 424.160182 221.270464 
L 428.370545 224.322108 
L 432.580909 220.129296 
L 436.791273 213.178892 
L 441.001636 216.629413 
L 445.212 212.401804 
L 449.422364 217.229526 
L 453.632727 219.71508 
L 457.843091 212.130756 
L 462.053455 214.009783 
L 466.263818 210.671994 
L 470.474182 216.986788 
L 474.684545 210.54033 
L 478.894909 217.631957 
L 483.105273 212.997338 
L 487.315636 206.900361 
L 491.526 213.095262 
L 495.736364 212.881692 
L 499.946727 211.567912 
L 504.157091 247.238962 
L 508.367455 220.178137 
L 512.577818 232.562635 
L 516.788182 244.438703 
" style="fill:none;stroke:#ff7f0e;stroke-linecap:square;stroke-width:1.5;"/>
   </g>
   <g id="line2d_15">
    <path clip-path="url(#p8100366e96)" d="M 95.751818 242.300993 
L 99.962182 259.325444 
L 104.172545 241.130146 
L 108.382909 283.195059 
L 112.593273 250.769001 
L 116.803636 241.651053 
L 121.014 242.337586 
L 125.224364 250.437563 
L 129.434727 247.841954 
L 133.645091 253.199066 
L 137.855455 246.840666 
L 142.065818 243.112383 
L 146.276182 246.22901 
L 150.486545 240.790956 
L 154.696909 242.520937 
L 158.907273 244.777415 
L 163.117636 244.250579 
L 167.328 250.446021 
L 171.538364 248.40747 
L 175.748727 242.328101 
L 179.959091 245.180031 
L 184.169455 244.61795 
L 188.379818 244.51203 
L 192.590182 244.164913 
L 196.800545 244.729432 
L 201.010909 243.77004 
L 205.221273 243.50516 
L 209.431636 244.341434 
L 213.642 242.226254 
L 217.852364 242.421461 
L 222.062727 249.571204 
L 226.273091 248.607364 
L 230.483455 247.15613 
L 234.693818 249.220472 
L 238.904182 247.718699 
L 243.114545 247.617134 
L 247.324909 249.77946 
L 251.535273 251.523438 
L 255.745636 248.85476 
L 259.956 249.341342 
L 264.166364 248.203095 
L 268.376727 253.467035 
L 272.587091 250.400173 
L 276.797455 250.609147 
L 281.007818 252.016722 
L 285.218182 251.344495 
L 289.428545 252.348679 
L 293.638909 251.801902 
L 297.849273 251.944092 
L 302.059636 250.955437 
L 306.27 251.315241 
L 310.480364 251.224052 
L 314.690727 251.193868 
L 318.901091 251.217233 
L 323.111455 251.217684 
L 327.321818 251.22385 
L 331.532182 251.231729 
L 335.742545 251.22295 
L 339.952909 251.228869 
L 344.163273 251.152923 
L 348.373636 251.184046 
L 352.584 251.541404 
L 356.794364 250.85976 
L 361.004727 253.114546 
L 365.215091 248.777348 
L 369.425455 249.033325 
L 373.635818 252.973924 
L 377.846182 251.933678 
L 382.056545 252.03836 
L 386.266909 251.16147 
L 390.477273 254.464379 
L 394.687636 251.075682 
L 398.898 242.105048 
L 403.108364 241.014241 
L 407.318727 244.569809 
L 411.529091 254.002475 
L 415.739455 244.216763 
L 419.949818 246.67623 
L 424.160182 251.051458 
L 428.370545 246.810168 
L 432.580909 251.630306 
L 436.791273 252.531396 
L 441.001636 251.077921 
L 445.212 252.655121 
L 449.422364 249.784963 
L 453.632727 250.495041 
L 457.843091 253.489654 
L 462.053455 251.496441 
L 466.263818 254.165071 
L 470.474182 250.20046 
L 474.684545 255.468655 
L 478.894909 248.260863 
L 483.105273 254.641484 
L 487.315636 251.931191 
L 491.526 252.433967 
L 495.736364 253.239369 
L 499.946727 253.176208 
L 504.157091 233.524914 
L 508.367455 261.229812 
L 512.577818 234.639601 
L 516.788182 242.761058 
" style="fill:none;stroke:#2ca02c;stroke-linecap:square;stroke-width:1.5;"/>
   </g>
   <g id="line2d_16">
    <path clip-path="url(#p8100366e96)" d="M 95.751818 242.308423 
L 99.962182 177.536348 
L 104.172545 220.729132 
L 108.382909 109.759765 
L 112.593273 136.412096 
L 116.803636 219.57487 
L 121.014 241.318179 
L 125.224364 217.507331 
L 129.434727 193.072863 
L 133.645091 196.983194 
L 137.855455 210.774906 
L 142.065818 230.625761 
L 146.276182 225.028445 
L 150.486545 241.445862 
L 154.696909 242.269355 
L 158.907273 232.87635 
L 163.117636 232.115396 
L 167.328 212.570433 
L 171.538364 204.141956 
L 175.748727 223.747568 
L 179.959091 232.110149 
L 184.169455 230.457733 
L 188.379818 230.408337 
L 192.590182 231.144727 
L 196.800545 229.929139 
L 201.010909 232.628104 
L 205.221273 234.489988 
L 209.431636 232.476142 
L 213.642 240.194026 
L 217.852364 241.483208 
L 222.062727 215.780435 
L 226.273091 199.422106 
L 230.483455 206.64732 
L 234.693818 208.450715 
L 238.904182 201.772769 
L 243.114545 211.564434 
L 247.324909 204.76699 
L 251.535273 188.047613 
L 255.745636 198.397375 
L 259.956 203.596527 
L 264.166364 204.990221 
L 268.376727 189.948496 
L 272.587091 187.396309 
L 276.797455 195.485974 
L 281.007818 188.853602 
L 285.218182 189.275429 
L 289.428545 184.974496 
L 293.638909 187.713838 
L 297.849273 186.720943 
L 302.059636 191.353461 
L 306.27 191.271268 
L 310.480364 191.171948 
L 314.690727 191.292423 
L 318.901091 191.350049 
L 323.111455 191.149113 
L 327.321818 191.222242 
L 331.532182 191.085867 
L 335.742545 191.204693 
L 339.952909 191.043218 
L 344.163273 191.440334 
L 348.373636 191.10314 
L 352.584 190.186007 
L 356.794364 191.944824 
L 361.004727 182.413567 
L 365.215091 196.48703 
L 369.425455 201.925906 
L 373.635818 190.879525 
L 377.846182 187.38135 
L 382.056545 185.721169 
L 386.266909 190.63494 
L 390.477273 182.036567 
L 394.687636 192.04168 
L 398.898 228.004879 
L 403.108364 242.242165 
L 407.318727 231.675949 
L 411.529091 202.316068 
L 415.739455 211.920016 
L 419.949818 218.838409 
L 424.160182 201.995775 
L 428.370545 204.316019 
L 432.580909 199.430178 
L 436.791273 184.723116 
L 441.001636 191.271404 
L 445.212 183.123956 
L 449.422364 190.863143 
L 453.632727 197.632107 
L 457.843091 182.663801 
L 462.053455 184.655472 
L 466.263818 180.881257 
L 470.474182 191.541815 
L 474.684545 184.145902 
L 478.894909 190.790133 
L 483.105273 189.067427 
L 487.315636 169.048235 
L 491.526 181.823884 
L 495.736364 184.895742 
L 499.946727 184.64498 
L 504.157091 242.276562 
L 508.367455 223.208689 
L 512.577818 212.874127 
L 516.788182 244.671864 
" style="fill:none;stroke:#d62728;stroke-linecap:square;stroke-width:1.5;"/>
   </g>
   <g id="patch_3">
    <path d="M 74.7 291.866824 
L 74.7 101.088 
" style="fill:none;stroke:#000000;stroke-linecap:square;stroke-linejoin:miter;stroke-width:0.8;"/>
   </g>
   <g id="patch_4">
    <path d="M 537.84 291.866824 
L 537.84 101.088 
" style="fill:none;stroke:#000000;stroke-linecap:square;stroke-linejoin:miter;stroke-width:0.8;"/>
   </g>
   <g id="patch_5">
    <path d="M 74.7 291.866824 
L 537.84 291.866824 
" style="fill:none;stroke:#000000;stroke-linecap:square;stroke-linejoin:miter;stroke-width:0.8;"/>
   </g>
   <g id="patch_6">
    <path d="M 74.7 101.088 
L 537.84 101.088 
" style="fill:none;stroke:#000000;stroke-linecap:square;stroke-linejoin:miter;stroke-width:0.8;"/>
   </g>
   <g id="text_14">
    <!-- MPC state variables (x) against time -->
    <g transform="translate(230.64206 95.088)scale(0.0833 -0.0833)">
     <defs>
      <path d="M 628 4666 
L 1569 4666 
L 2759 1491 
L 3956 4666 
L 4897 4666 
L 4897 0 
L 4281 0 
L 4281 4097 
L 3078 897 
L 2444 897 
L 1241 4097 
L 1241 0 
L 628 0 
L 628 4666 
z
" id="DejaVuSans-4d" transform="scale(0.015625)"/>
      <path d="M 1259 4147 
L 1259 2394 
L 2053 2394 
Q 2494 2394 2734 2622 
Q 2975 2850 2975 3272 
Q 2975 3691 2734 3919 
Q 2494 4147 2053 4147 
L 1259 4147 
z
M 628 4666 
L 2053 4666 
Q 2838 4666 3239 4311 
Q 3641 3956 3641 3272 
Q 3641 2581 3239 2228 
Q 2838 1875 2053 1875 
L 1259 1875 
L 1259 0 
L 628 0 
L 628 4666 
z
" id="DejaVuSans-50" transform="scale(0.015625)"/>
      <path d="M 4122 4306 
L 4122 3641 
Q 3803 3938 3442 4084 
Q 3081 4231 2675 4231 
Q 1875 4231 1450 3742 
Q 1025 3253 1025 2328 
Q 1025 1406 1450 917 
Q 1875 428 2675 428 
Q 3081 428 3442 575 
Q 3803 722 4122 1019 
L 4122 359 
Q 3791 134 3420 21 
Q 3050 -91 2638 -91 
Q 1578 -91 968 557 
Q 359 1206 359 2328 
Q 359 3453 968 4101 
Q 1578 4750 2638 4750 
Q 3056 4750 3426 4639 
Q 3797 4528 4122 4306 
z
" id="DejaVuSans-43" transform="scale(0.015625)"/>
      <path id="DejaVuSans-20" transform="scale(0.015625)"/>
      <path d="M 2834 3397 
L 2834 2853 
Q 2591 2978 2328 3040 
Q 2066 3103 1784 3103 
Q 1356 3103 1142 2972 
Q 928 2841 928 2578 
Q 928 2378 1081 2264 
Q 1234 2150 1697 2047 
L 1894 2003 
Q 2506 1872 2764 1633 
Q 3022 1394 3022 966 
Q 3022 478 2636 193 
Q 2250 -91 1575 -91 
Q 1294 -91 989 -36 
Q 684 19 347 128 
L 347 722 
Q 666 556 975 473 
Q 1284 391 1588 391 
Q 1994 391 2212 530 
Q 2431 669 2431 922 
Q 2431 1156 2273 1281 
Q 2116 1406 1581 1522 
L 1381 1569 
Q 847 1681 609 1914 
Q 372 2147 372 2553 
Q 372 3047 722 3315 
Q 1072 3584 1716 3584 
Q 2034 3584 2315 3537 
Q 2597 3491 2834 3397 
z
" id="DejaVuSans-73" transform="scale(0.015625)"/>
      <path d="M 1172 4494 
L 1172 3500 
L 2356 3500 
L 2356 3053 
L 1172 3053 
L 1172 1153 
Q 1172 725 1289 603 
Q 1406 481 1766 481 
L 2356 481 
L 2356 0 
L 1766 0 
Q 1100 0 847 248 
Q 594 497 594 1153 
L 594 3053 
L 172 3053 
L 172 3500 
L 594 3500 
L 594 4494 
L 1172 4494 
z
" id="DejaVuSans-74" transform="scale(0.015625)"/>
      <path d="M 2194 1759 
Q 1497 1759 1228 1600 
Q 959 1441 959 1056 
Q 959 750 1161 570 
Q 1363 391 1709 391 
Q 2188 391 2477 730 
Q 2766 1069 2766 1631 
L 2766 1759 
L 2194 1759 
z
M 3341 1997 
L 3341 0 
L 2766 0 
L 2766 531 
Q 2569 213 2275 61 
Q 1981 -91 1556 -91 
Q 1019 -91 701 211 
Q 384 513 384 1019 
Q 384 1609 779 1909 
Q 1175 2209 1959 2209 
L 2766 2209 
L 2766 2266 
Q 2766 2663 2505 2880 
Q 2244 3097 1772 3097 
Q 1472 3097 1187 3025 
Q 903 2953 641 2809 
L 641 3341 
Q 956 3463 1253 3523 
Q 1550 3584 1831 3584 
Q 2591 3584 2966 3190 
Q 3341 2797 3341 1997 
z
" id="DejaVuSans-61" transform="scale(0.015625)"/>
      <path d="M 191 3500 
L 800 3500 
L 1894 563 
L 2988 3500 
L 3597 3500 
L 2284 0 
L 1503 0 
L 191 3500 
z
" id="DejaVuSans-76" transform="scale(0.015625)"/>
      <path d="M 2631 2963 
Q 2534 3019 2420 3045 
Q 2306 3072 2169 3072 
Q 1681 3072 1420 2755 
Q 1159 2438 1159 1844 
L 1159 0 
L 581 0 
L 581 3500 
L 1159 3500 
L 1159 2956 
Q 1341 3275 1631 3429 
Q 1922 3584 2338 3584 
Q 2397 3584 2469 3576 
Q 2541 3569 2628 3553 
L 2631 2963 
z
" id="DejaVuSans-72" transform="scale(0.015625)"/>
      <path d="M 603 3500 
L 1178 3500 
L 1178 0 
L 603 0 
L 603 3500 
z
M 603 4863 
L 1178 4863 
L 1178 4134 
L 603 4134 
L 603 4863 
z
" id="DejaVuSans-69" transform="scale(0.015625)"/>
      <path d="M 3116 1747 
Q 3116 2381 2855 2742 
Q 2594 3103 2138 3103 
Q 1681 3103 1420 2742 
Q 1159 2381 1159 1747 
Q 1159 1113 1420 752 
Q 1681 391 2138 391 
Q 2594 391 2855 752 
Q 3116 1113 3116 1747 
z
M 1159 2969 
Q 1341 3281 1617 3432 
Q 1894 3584 2278 3584 
Q 2916 3584 3314 3078 
Q 3713 2572 3713 1747 
Q 3713 922 3314 415 
Q 2916 -91 2278 -91 
Q 1894 -91 1617 61 
Q 1341 213 1159 525 
L 1159 0 
L 581 0 
L 581 4863 
L 1159 4863 
L 1159 2969 
z
" id="DejaVuSans-62" transform="scale(0.015625)"/>
      <path d="M 603 4863 
L 1178 4863 
L 1178 0 
L 603 0 
L 603 4863 
z
" id="DejaVuSans-6c" transform="scale(0.015625)"/>
      <path d="M 1984 4856 
Q 1566 4138 1362 3434 
Q 1159 2731 1159 2009 
Q 1159 1288 1364 580 
Q 1569 -128 1984 -844 
L 1484 -844 
Q 1016 -109 783 600 
Q 550 1309 550 2009 
Q 550 2706 781 3412 
Q 1013 4119 1484 4856 
L 1984 4856 
z
" id="DejaVuSans-28" transform="scale(0.015625)"/>
      <path d="M 3513 3500 
L 2247 1797 
L 3578 0 
L 2900 0 
L 1881 1375 
L 863 0 
L 184 0 
L 1544 1831 
L 300 3500 
L 978 3500 
L 1906 2253 
L 2834 3500 
L 3513 3500 
z
" id="DejaVuSans-78" transform="scale(0.015625)"/>
      <path d="M 513 4856 
L 1013 4856 
Q 1481 4119 1714 3412 
Q 1947 2706 1947 2009 
Q 1947 1309 1714 600 
Q 1481 -109 1013 -844 
L 513 -844 
Q 928 -128 1133 580 
Q 1338 1288 1338 2009 
Q 1338 2731 1133 3434 
Q 928 4138 513 4856 
z
" id="DejaVuSans-29" transform="scale(0.015625)"/>
      <path d="M 2906 1791 
Q 2906 2416 2648 2759 
Q 2391 3103 1925 3103 
Q 1463 3103 1205 2759 
Q 947 2416 947 1791 
Q 947 1169 1205 825 
Q 1463 481 1925 481 
Q 2391 481 2648 825 
Q 2906 1169 2906 1791 
z
M 3481 434 
Q 3481 -459 3084 -895 
Q 2688 -1331 1869 -1331 
Q 1566 -1331 1297 -1286 
Q 1028 -1241 775 -1147 
L 775 -588 
Q 1028 -725 1275 -790 
Q 1522 -856 1778 -856 
Q 2344 -856 2625 -561 
Q 2906 -266 2906 331 
L 2906 616 
Q 2728 306 2450 153 
Q 2172 0 1784 0 
Q 1141 0 747 490 
Q 353 981 353 1791 
Q 353 2603 747 3093 
Q 1141 3584 1784 3584 
Q 2172 3584 2450 3431 
Q 2728 3278 2906 2969 
L 2906 3500 
L 3481 3500 
L 3481 434 
z
" id="DejaVuSans-67" transform="scale(0.015625)"/>
      <path d="M 3513 2113 
L 3513 0 
L 2938 0 
L 2938 2094 
Q 2938 2591 2744 2837 
Q 2550 3084 2163 3084 
Q 1697 3084 1428 2787 
Q 1159 2491 1159 1978 
L 1159 0 
L 581 0 
L 581 3500 
L 1159 3500 
L 1159 2956 
Q 1366 3272 1645 3428 
Q 1925 3584 2291 3584 
Q 2894 3584 3203 3211 
Q 3513 2838 3513 2113 
z
" id="DejaVuSans-6e" transform="scale(0.015625)"/>
      <path d="M 3328 2828 
Q 3544 3216 3844 3400 
Q 4144 3584 4550 3584 
Q 5097 3584 5394 3201 
Q 5691 2819 5691 2113 
L 5691 0 
L 5113 0 
L 5113 2094 
Q 5113 2597 4934 2840 
Q 4756 3084 4391 3084 
Q 3944 3084 3684 2787 
Q 3425 2491 3425 1978 
L 3425 0 
L 2847 0 
L 2847 2094 
Q 2847 2600 2669 2842 
Q 2491 3084 2119 3084 
Q 1678 3084 1418 2786 
Q 1159 2488 1159 1978 
L 1159 0 
L 581 0 
L 581 3500 
L 1159 3500 
L 1159 2956 
Q 1356 3278 1631 3431 
Q 1906 3584 2284 3584 
Q 2666 3584 2933 3390 
Q 3200 3197 3328 2828 
z
" id="DejaVuSans-6d" transform="scale(0.015625)"/>
     </defs>
     <use xlink:href="#DejaVuSans-4d"/>
     <use x="86.279297" xlink:href="#DejaVuSans-50"/>
     <use x="146.582031" xlink:href="#DejaVuSans-43"/>
     <use x="216.40625" xlink:href="#DejaVuSans-20"/>
     <use x="248.193359" xlink:href="#DejaVuSans-73"/>
     <use x="300.292969" xlink:href="#DejaVuSans-74"/>
     <use x="339.501953" xlink:href="#DejaVuSans-61"/>
     <use x="400.78125" xlink:href="#DejaVuSans-74"/>
     <use x="439.990234" xlink:href="#DejaVuSans-65"/>
     <use x="501.513672" xlink:href="#DejaVuSans-20"/>
     <use x="533.300781" xlink:href="#DejaVuSans-76"/>
     <use x="592.480469" xlink:href="#DejaVuSans-61"/>
     <use x="653.759766" xlink:href="#DejaVuSans-72"/>
     <use x="694.873047" xlink:href="#DejaVuSans-69"/>
     <use x="722.65625" xlink:href="#DejaVuSans-61"/>
     <use x="783.935547" xlink:href="#DejaVuSans-62"/>
     <use x="847.412109" xlink:href="#DejaVuSans-6c"/>
     <use x="875.195312" xlink:href="#DejaVuSans-65"/>
     <use x="936.71875" xlink:href="#DejaVuSans-73"/>
     <use x="988.818359" xlink:href="#DejaVuSans-20"/>
     <use x="1020.605469" xlink:href="#DejaVuSans-28"/>
     <use x="1059.619141" xlink:href="#DejaVuSans-78"/>
     <use x="1118.798828" xlink:href="#DejaVuSans-29"/>
     <use x="1157.8125" xlink:href="#DejaVuSans-20"/>
     <use x="1189.599609" xlink:href="#DejaVuSans-61"/>
     <use x="1250.878906" xlink:href="#DejaVuSans-67"/>
     <use x="1314.355469" xlink:href="#DejaVuSans-61"/>
     <use x="1375.634766" xlink:href="#DejaVuSans-69"/>
     <use x="1403.417969" xlink:href="#DejaVuSans-6e"/>
     <use x="1466.796875" xlink:href="#DejaVuSans-73"/>
     <use x="1518.896484" xlink:href="#DejaVuSans-74"/>
     <use x="1558.105469" xlink:href="#DejaVuSans-20"/>
     <use x="1589.892578" xlink:href="#DejaVuSans-74"/>
     <use x="1629.101562" xlink:href="#DejaVuSans-69"/>
     <use x="1656.884766" xlink:href="#DejaVuSans-6d"/>
     <use x="1754.296875" xlink:href="#DejaVuSans-65"/>
    </g>
   </g>
   <g id="legend_1">
    <g id="patch_7">
     <path d="M 468.810331 157.586225 
L 532.009 157.586225 
Q 533.675 157.586225 533.675 155.920225 
L 533.675 106.919 
Q 533.675 105.253 532.009 105.253 
L 468.810331 105.253 
Q 467.144331 105.253 467.144331 106.919 
L 467.144331 155.920225 
Q 467.144331 157.586225 468.810331 157.586225 
z
" style="fill:#ffffff;opacity:0.8;stroke:#cccccc;stroke-linejoin:miter;"/>
    </g>
    <g id="line2d_17">
     <path d="M 470.476331 111.998998 
L 487.136331 111.998998 
" style="fill:none;stroke:#1f77b4;stroke-linecap:square;stroke-width:1.5;"/>
    </g>
    <g id="line2d_18"/>
    <g id="text_15">
     <!-- mpc_x_0 -->
     <g transform="translate(493.800331 114.914498)scale(0.0833 -0.0833)">
      <defs>
       <path d="M 1159 525 
L 1159 -1331 
L 581 -1331 
L 581 3500 
L 1159 3500 
L 1159 2969 
Q 1341 3281 1617 3432 
Q 1894 3584 2278 3584 
Q 2916 3584 3314 3078 
Q 3713 2572 3713 1747 
Q 3713 922 3314 415 
Q 2916 -91 2278 -91 
Q 1894 -91 1617 61 
Q 1341 213 1159 525 
z
M 3116 1747 
Q 3116 2381 2855 2742 
Q 2594 3103 2138 3103 
Q 1681 3103 1420 2742 
Q 1159 2381 1159 1747 
Q 1159 1113 1420 752 
Q 1681 391 2138 391 
Q 2594 391 2855 752 
Q 3116 1113 3116 1747 
z
" id="DejaVuSans-70" transform="scale(0.015625)"/>
       <path d="M 3122 3366 
L 3122 2828 
Q 2878 2963 2633 3030 
Q 2388 3097 2138 3097 
Q 1578 3097 1268 2742 
Q 959 2388 959 1747 
Q 959 1106 1268 751 
Q 1578 397 2138 397 
Q 2388 397 2633 464 
Q 2878 531 3122 666 
L 3122 134 
Q 2881 22 2623 -34 
Q 2366 -91 2075 -91 
Q 1284 -91 818 406 
Q 353 903 353 1747 
Q 353 2603 823 3093 
Q 1294 3584 2113 3584 
Q 2378 3584 2631 3529 
Q 2884 3475 3122 3366 
z
" id="DejaVuSans-63" transform="scale(0.015625)"/>
       <path d="M 3263 -1063 
L 3263 -1509 
L -63 -1509 
L -63 -1063 
L 3263 -1063 
z
" id="DejaVuSans-5f" transform="scale(0.015625)"/>
      </defs>
      <use xlink:href="#DejaVuSans-6d"/>
      <use x="97.412109" xlink:href="#DejaVuSans-70"/>
      <use x="160.888672" xlink:href="#DejaVuSans-63"/>
      <use x="215.869141" xlink:href="#DejaVuSans-5f"/>
      <use x="265.869141" xlink:href="#DejaVuSans-78"/>
      <use x="325.048828" xlink:href="#DejaVuSans-5f"/>
      <use x="375.048828" xlink:href="#DejaVuSans-30"/>
     </g>
    </g>
    <g id="line2d_19">
     <path d="M 470.476331 124.457555 
L 487.136331 124.457555 
" style="fill:none;stroke:#ff7f0e;stroke-linecap:square;stroke-width:1.5;"/>
    </g>
    <g id="line2d_20"/>
    <g id="text_16">
     <!-- mpc_x_1 -->
     <g transform="translate(493.800331 127.373055)scale(0.0833 -0.0833)">
      <use xlink:href="#DejaVuSans-6d"/>
      <use x="97.412109" xlink:href="#DejaVuSans-70"/>
      <use x="160.888672" xlink:href="#DejaVuSans-63"/>
      <use x="215.869141" xlink:href="#DejaVuSans-5f"/>
      <use x="265.869141" xlink:href="#DejaVuSans-78"/>
      <use x="325.048828" xlink:href="#DejaVuSans-5f"/>
      <use x="375.048828" xlink:href="#DejaVuSans-31"/>
     </g>
    </g>
    <g id="line2d_21">
     <path d="M 470.476331 136.916111 
L 487.136331 136.916111 
" style="fill:none;stroke:#2ca02c;stroke-linecap:square;stroke-width:1.5;"/>
    </g>
    <g id="line2d_22"/>
    <g id="text_17">
     <!-- mpc_x_2 -->
     <g transform="translate(493.800331 139.831611)scale(0.0833 -0.0833)">
      <use xlink:href="#DejaVuSans-6d"/>
      <use x="97.412109" xlink:href="#DejaVuSans-70"/>
      <use x="160.888672" xlink:href="#DejaVuSans-63"/>
      <use x="215.869141" xlink:href="#DejaVuSans-5f"/>
      <use x="265.869141" xlink:href="#DejaVuSans-78"/>
      <use x="325.048828" xlink:href="#DejaVuSans-5f"/>
      <use x="375.048828" xlink:href="#DejaVuSans-32"/>
     </g>
    </g>
    <g id="line2d_23">
     <path d="M 470.476331 149.374667 
L 487.136331 149.374667 
" style="fill:none;stroke:#d62728;stroke-linecap:square;stroke-width:1.5;"/>
    </g>
    <g id="line2d_24"/>
    <g id="text_18">
     <!-- mpc_x_3 -->
     <g transform="translate(493.800331 152.290167)scale(0.0833 -0.0833)">
      <use xlink:href="#DejaVuSans-6d"/>
      <use x="97.412109" xlink:href="#DejaVuSans-70"/>
      <use x="160.888672" xlink:href="#DejaVuSans-63"/>
      <use x="215.869141" xlink:href="#DejaVuSans-5f"/>
      <use x="265.869141" xlink:href="#DejaVuSans-78"/>
      <use x="325.048828" xlink:href="#DejaVuSans-5f"/>
      <use x="375.048828" xlink:href="#DejaVuSans-33"/>
     </g>
    </g>
   </g>
  </g>
  <g id="axes_2">
   <g id="patch_8">
    <path d="M 74.7 520.801412 
L 537.84 520.801412 
L 537.84 330.022588 
L 74.7 330.022588 
z
" style="fill:#ffffff;"/>
   </g>
   <g id="matplotlib.axis_3">
    <g id="xtick_7">
     <g id="line2d_25">
      <g>
       <use style="stroke:#000000;stroke-width:0.8;" x="95.751818" xlink:href="#m941cbf60bc" y="520.801412"/>
      </g>
     </g>
     <g id="text_19">
      <!-- 0 -->
      <g transform="translate(92.570568 535.399849)scale(0.1 -0.1)">
       <use xlink:href="#DejaVuSans-30"/>
      </g>
     </g>
    </g>
    <g id="xtick_8">
     <g id="line2d_26">
      <g>
       <use style="stroke:#000000;stroke-width:0.8;" x="179.959091" xlink:href="#m941cbf60bc" y="520.801412"/>
      </g>
     </g>
     <g id="text_20">
      <!-- 20 -->
      <g transform="translate(173.596591 535.399849)scale(0.1 -0.1)">
       <use xlink:href="#DejaVuSans-32"/>
       <use x="63.623047" xlink:href="#DejaVuSans-30"/>
      </g>
     </g>
    </g>
    <g id="xtick_9">
     <g id="line2d_27">
      <g>
       <use style="stroke:#000000;stroke-width:0.8;" x="264.166364" xlink:href="#m941cbf60bc" y="520.801412"/>
      </g>
     </g>
     <g id="text_21">
      <!-- 40 -->
      <g transform="translate(257.803864 535.399849)scale(0.1 -0.1)">
       <use xlink:href="#DejaVuSans-34"/>
       <use x="63.623047" xlink:href="#DejaVuSans-30"/>
      </g>
     </g>
    </g>
    <g id="xtick_10">
     <g id="line2d_28">
      <g>
       <use style="stroke:#000000;stroke-width:0.8;" x="348.373636" xlink:href="#m941cbf60bc" y="520.801412"/>
      </g>
     </g>
     <g id="text_22">
      <!-- 60 -->
      <g transform="translate(342.011136 535.399849)scale(0.1 -0.1)">
       <use xlink:href="#DejaVuSans-36"/>
       <use x="63.623047" xlink:href="#DejaVuSans-30"/>
      </g>
     </g>
    </g>
    <g id="xtick_11">
     <g id="line2d_29">
      <g>
       <use style="stroke:#000000;stroke-width:0.8;" x="432.580909" xlink:href="#m941cbf60bc" y="520.801412"/>
      </g>
     </g>
     <g id="text_23">
      <!-- 80 -->
      <g transform="translate(426.218409 535.399849)scale(0.1 -0.1)">
       <use xlink:href="#DejaVuSans-38"/>
       <use x="63.623047" xlink:href="#DejaVuSans-30"/>
      </g>
     </g>
    </g>
    <g id="xtick_12">
     <g id="line2d_30">
      <g>
       <use style="stroke:#000000;stroke-width:0.8;" x="516.788182" xlink:href="#m941cbf60bc" y="520.801412"/>
      </g>
     </g>
     <g id="text_24">
      <!-- 100 -->
      <g transform="translate(507.244432 535.399849)scale(0.1 -0.1)">
       <use xlink:href="#DejaVuSans-31"/>
       <use x="63.623047" xlink:href="#DejaVuSans-30"/>
       <use x="127.246094" xlink:href="#DejaVuSans-30"/>
      </g>
     </g>
    </g>
   </g>
   <g id="matplotlib.axis_4">
    <g id="ytick_7">
     <g id="line2d_31">
      <g>
       <use style="stroke:#000000;stroke-width:0.8;" x="74.7" xlink:href="#m09291068b5" y="509.896037"/>
      </g>
     </g>
     <g id="text_25">
      <!-- −3 -->
      <g transform="translate(52.957813 513.695256)scale(0.1 -0.1)">
       <use xlink:href="#DejaVuSans-2212"/>
       <use x="83.789062" xlink:href="#DejaVuSans-33"/>
      </g>
     </g>
    </g>
    <g id="ytick_8">
     <g id="line2d_32">
      <g>
       <use style="stroke:#000000;stroke-width:0.8;" x="74.7" xlink:href="#m09291068b5" y="469.354692"/>
      </g>
     </g>
     <g id="text_26">
      <!-- −2 -->
      <g transform="translate(52.957813 473.15391)scale(0.1 -0.1)">
       <use xlink:href="#DejaVuSans-2212"/>
       <use x="83.789062" xlink:href="#DejaVuSans-32"/>
      </g>
     </g>
    </g>
    <g id="ytick_9">
     <g id="line2d_33">
      <g>
       <use style="stroke:#000000;stroke-width:0.8;" x="74.7" xlink:href="#m09291068b5" y="428.813347"/>
      </g>
     </g>
     <g id="text_27">
      <!-- −1 -->
      <g transform="translate(52.957813 432.612565)scale(0.1 -0.1)">
       <use xlink:href="#DejaVuSans-2212"/>
       <use x="83.789062" xlink:href="#DejaVuSans-31"/>
      </g>
     </g>
    </g>
    <g id="ytick_10">
     <g id="line2d_34">
      <g>
       <use style="stroke:#000000;stroke-width:0.8;" x="74.7" xlink:href="#m09291068b5" y="388.272001"/>
      </g>
     </g>
     <g id="text_28">
      <!-- 0 -->
      <g transform="translate(61.3375 392.07122)scale(0.1 -0.1)">
       <use xlink:href="#DejaVuSans-30"/>
      </g>
     </g>
    </g>
    <g id="ytick_11">
     <g id="line2d_35">
      <g>
       <use style="stroke:#000000;stroke-width:0.8;" x="74.7" xlink:href="#m09291068b5" y="347.730656"/>
      </g>
     </g>
     <g id="text_29">
      <!-- 1 -->
      <g transform="translate(61.3375 351.529875)scale(0.1 -0.1)">
       <use xlink:href="#DejaVuSans-31"/>
      </g>
     </g>
    </g>
    <g id="text_30">
     <!-- 1e6 -->
     <g transform="translate(74.7 327.022588)scale(0.1 -0.1)">
      <use xlink:href="#DejaVuSans-31"/>
      <use x="63.623047" xlink:href="#DejaVuSans-65"/>
      <use x="125.146484" xlink:href="#DejaVuSans-36"/>
     </g>
    </g>
   </g>
   <g id="line2d_36">
    <path clip-path="url(#pb0391efc1e)" d="M 95.751818 388.272001 
L 99.962182 388.272001 
L 104.172545 388.272001 
L 108.382909 388.272001 
L 112.593273 388.272001 
L 116.803636 388.272001 
L 121.014 388.272001 
L 125.224364 388.272001 
L 129.434727 388.272001 
L 133.645091 388.272001 
L 137.855455 388.272001 
L 142.065818 388.272001 
L 146.276182 388.272001 
L 150.486545 388.272001 
L 154.696909 388.272001 
L 158.907273 388.272001 
L 163.117636 388.272001 
L 167.328 388.272001 
L 171.538364 388.272001 
L 175.748727 388.272001 
L 179.959091 388.272001 
L 184.169455 388.272001 
L 188.379818 388.272001 
L 192.590182 388.272001 
L 196.800545 388.272001 
L 201.010909 388.272001 
L 205.221273 388.272001 
L 209.431636 388.272001 
L 213.642 388.272001 
L 217.852364 388.272001 
L 222.062727 388.272001 
L 226.273091 388.272001 
L 230.483455 388.272001 
L 234.693818 388.272001 
L 238.904182 388.272001 
L 243.114545 388.272001 
L 247.324909 388.272001 
L 251.535273 388.272001 
L 255.745636 388.272001 
L 259.956 388.272001 
L 264.166364 388.272001 
L 268.376727 388.272001 
L 272.587091 388.272001 
L 276.797455 388.272001 
L 281.007818 388.272001 
L 285.218182 388.272001 
L 289.428545 388.272001 
L 293.638909 388.272001 
L 297.849273 388.272001 
L 302.059636 388.272001 
L 306.27 388.272001 
L 310.480364 388.272001 
L 314.690727 388.272001 
L 318.901091 388.272001 
L 323.111455 388.272001 
L 327.321818 388.272001 
L 331.532182 388.272001 
L 335.742545 388.272001 
L 339.952909 388.272001 
L 344.163273 388.272001 
L 348.373636 388.272001 
L 352.584 388.272001 
L 356.794364 388.272001 
L 361.004727 388.272001 
L 365.215091 388.272001 
L 369.425455 388.272001 
L 373.635818 388.272001 
L 377.846182 388.272001 
L 382.056545 388.272001 
L 386.266909 388.272001 
L 390.477273 388.272001 
L 394.687636 388.272001 
L 398.898 388.272001 
L 403.108364 388.272001 
L 407.318727 388.272001 
L 411.529091 388.272001 
L 415.739455 388.272001 
L 419.949818 388.272001 
L 424.160182 388.272001 
L 428.370545 388.272001 
L 432.580909 388.272001 
L 436.791273 388.272001 
L 441.001636 388.272001 
L 445.212 388.272001 
L 449.422364 388.272001 
L 453.632727 388.272001 
L 457.843091 388.272001 
L 462.053455 388.272001 
L 466.263818 388.272001 
L 470.474182 388.272001 
L 474.684545 388.272001 
L 478.894909 388.272001 
L 483.105273 388.272001 
L 487.315636 388.272001 
L 491.526 388.272001 
L 495.736364 388.272001 
L 499.946727 388.272001 
L 504.157091 388.272001 
L 508.367455 388.272001 
L 512.577818 388.272001 
L 516.788182 388.272001 
" style="fill:none;stroke:#1f77b4;stroke-linecap:square;stroke-width:1.5;"/>
   </g>
   <g id="line2d_37">
    <path clip-path="url(#pb0391efc1e)" d="M 95.751818 388.272001 
L 99.962182 480.626305 
L 104.172545 357.270465 
L 108.382909 512.129647 
L 112.593273 381.68963 
L 116.803636 344.171848 
L 121.014 383.601142 
L 125.224364 421.219104 
L 129.434727 402.204237 
L 133.645091 414.448537 
L 137.855455 384.10502 
L 142.065818 380.304417 
L 146.276182 400.521374 
L 150.486545 372.589138 
L 154.696909 391.367995 
L 158.907273 401.590308 
L 163.117636 392.232253 
L 167.328 421.231725 
L 171.538364 389.797649 
L 175.748727 383.123294 
L 179.959091 393.824526 
L 184.169455 392.97506 
L 188.379818 392.548329 
L 192.590182 391.963467 
L 196.800545 393.762377 
L 201.010909 389.473813 
L 205.221273 388.940464 
L 209.431636 394.232695 
L 213.642 380.413417 
L 217.852364 388.335166 
L 222.062727 420.021588 
L 226.273091 386.844745 
L 230.483455 386.694961 
L 234.693818 400.490403 
L 238.904182 387.272607 
L 243.114545 393.617193 
L 247.324909 403.091674 
L 251.535273 403.698452 
L 255.745636 392.935959 
L 259.956 396.294649 
L 264.166364 393.576099 
L 268.376727 418.156476 
L 272.587091 398.20275 
L 276.797455 392.529789 
L 281.007818 408.949767 
L 285.218182 400.621742 
L 289.428545 404.270679 
L 293.638909 402.293038 
L 297.849273 402.762648 
L 302.059636 398.931202 
L 306.27 402.119088 
L 310.480364 401.743026 
L 314.690727 401.644629 
L 318.901091 401.652408 
L 323.111455 401.682218 
L 327.321818 401.704687 
L 331.532182 401.679527 
L 335.742545 401.584702 
L 339.952909 401.632715 
L 344.163273 401.160694 
L 348.373636 401.88125 
L 352.584 402.940947 
L 356.794364 400.067639 
L 361.004727 406.211618 
L 365.215091 390.554116 
L 369.425455 397.984591 
L 373.635818 415.250946 
L 377.846182 402.752234 
L 382.056545 403.044402 
L 386.266909 399.193141 
L 390.477273 417.185758 
L 394.687636 395.418269 
L 398.898 368.98768 
L 403.108364 372.449425 
L 407.318727 405.95108 
L 411.529091 425.480163 
L 415.739455 375.257109 
L 419.949818 398.511259 
L 424.160182 411.389952 
L 428.370545 384.335693 
L 432.580909 412.066944 
L 436.791273 404.853575 
L 441.001636 402.574353 
L 445.212 400.211268 
L 449.422364 391.406141 
L 453.632727 400.14385 
L 457.843091 411.597314 
L 462.053455 399.349992 
L 466.263818 406.260419 
L 470.474182 397.458402 
L 474.684545 417.006336 
L 478.894909 391.361416 
L 483.105273 408.917065 
L 487.315636 393.331139 
L 491.526 405.327965 
L 495.736364 399.195596 
L 499.946727 399.868276 
L 504.157091 338.694353 
L 508.367455 443.012731 
L 512.577818 363.440891 
L 516.788182 381.203899 
" style="fill:none;stroke:#ff7f0e;stroke-linecap:square;stroke-width:1.5;"/>
   </g>
   <g id="patch_9">
    <path d="M 74.7 520.801412 
L 74.7 330.022588 
" style="fill:none;stroke:#000000;stroke-linecap:square;stroke-linejoin:miter;stroke-width:0.8;"/>
   </g>
   <g id="patch_10">
    <path d="M 537.84 520.801412 
L 537.84 330.022588 
" style="fill:none;stroke:#000000;stroke-linecap:square;stroke-linejoin:miter;stroke-width:0.8;"/>
   </g>
   <g id="patch_11">
    <path d="M 74.7 520.801412 
L 537.84 520.801412 
" style="fill:none;stroke:#000000;stroke-linecap:square;stroke-linejoin:miter;stroke-width:0.8;"/>
   </g>
   <g id="patch_12">
    <path d="M 74.7 330.022588 
L 537.84 330.022588 
" style="fill:none;stroke:#000000;stroke-linecap:square;stroke-linejoin:miter;stroke-width:0.8;"/>
   </g>
   <g id="text_31">
    <!-- MPC control action (u) against time -->
    <g transform="translate(232.735623 324.022588)scale(0.0833 -0.0833)">
     <defs>
      <path d="M 1959 3097 
Q 1497 3097 1228 2736 
Q 959 2375 959 1747 
Q 959 1119 1226 758 
Q 1494 397 1959 397 
Q 2419 397 2687 759 
Q 2956 1122 2956 1747 
Q 2956 2369 2687 2733 
Q 2419 3097 1959 3097 
z
M 1959 3584 
Q 2709 3584 3137 3096 
Q 3566 2609 3566 1747 
Q 3566 888 3137 398 
Q 2709 -91 1959 -91 
Q 1206 -91 779 398 
Q 353 888 353 1747 
Q 353 2609 779 3096 
Q 1206 3584 1959 3584 
z
" id="DejaVuSans-6f" transform="scale(0.015625)"/>
      <path d="M 544 1381 
L 544 3500 
L 1119 3500 
L 1119 1403 
Q 1119 906 1312 657 
Q 1506 409 1894 409 
Q 2359 409 2629 706 
Q 2900 1003 2900 1516 
L 2900 3500 
L 3475 3500 
L 3475 0 
L 2900 0 
L 2900 538 
Q 2691 219 2414 64 
Q 2138 -91 1772 -91 
Q 1169 -91 856 284 
Q 544 659 544 1381 
z
M 1991 3584 
L 1991 3584 
z
" id="DejaVuSans-75" transform="scale(0.015625)"/>
     </defs>
     <use xlink:href="#DejaVuSans-4d"/>
     <use x="86.279297" xlink:href="#DejaVuSans-50"/>
     <use x="146.582031" xlink:href="#DejaVuSans-43"/>
     <use x="216.40625" xlink:href="#DejaVuSans-20"/>
     <use x="248.193359" xlink:href="#DejaVuSans-63"/>
     <use x="303.173828" xlink:href="#DejaVuSans-6f"/>
     <use x="364.355469" xlink:href="#DejaVuSans-6e"/>
     <use x="427.734375" xlink:href="#DejaVuSans-74"/>
     <use x="466.943359" xlink:href="#DejaVuSans-72"/>
     <use x="505.806641" xlink:href="#DejaVuSans-6f"/>
     <use x="566.988281" xlink:href="#DejaVuSans-6c"/>
     <use x="594.771484" xlink:href="#DejaVuSans-20"/>
     <use x="626.558594" xlink:href="#DejaVuSans-61"/>
     <use x="687.837891" xlink:href="#DejaVuSans-63"/>
     <use x="742.818359" xlink:href="#DejaVuSans-74"/>
     <use x="782.027344" xlink:href="#DejaVuSans-69"/>
     <use x="809.810547" xlink:href="#DejaVuSans-6f"/>
     <use x="870.992188" xlink:href="#DejaVuSans-6e"/>
     <use x="934.371094" xlink:href="#DejaVuSans-20"/>
     <use x="966.158203" xlink:href="#DejaVuSans-28"/>
     <use x="1005.171875" xlink:href="#DejaVuSans-75"/>
     <use x="1068.550781" xlink:href="#DejaVuSans-29"/>
     <use x="1107.564453" xlink:href="#DejaVuSans-20"/>
     <use x="1139.351562" xlink:href="#DejaVuSans-61"/>
     <use x="1200.630859" xlink:href="#DejaVuSans-67"/>
     <use x="1264.107422" xlink:href="#DejaVuSans-61"/>
     <use x="1325.386719" xlink:href="#DejaVuSans-69"/>
     <use x="1353.169922" xlink:href="#DejaVuSans-6e"/>
     <use x="1416.548828" xlink:href="#DejaVuSans-73"/>
     <use x="1468.648438" xlink:href="#DejaVuSans-74"/>
     <use x="1507.857422" xlink:href="#DejaVuSans-20"/>
     <use x="1539.644531" xlink:href="#DejaVuSans-74"/>
     <use x="1578.853516" xlink:href="#DejaVuSans-69"/>
     <use x="1606.636719" xlink:href="#DejaVuSans-6d"/>
     <use x="1704.048828" xlink:href="#DejaVuSans-65"/>
    </g>
   </g>
   <g id="legend_2">
    <g id="patch_13">
     <path d="M 490.6089 361.603701 
L 532.009 361.603701 
Q 533.675 361.603701 533.675 359.937701 
L 533.675 335.853588 
Q 533.675 334.187588 532.009 334.187588 
L 490.6089 334.187588 
Q 488.9429 334.187588 488.9429 335.853588 
L 488.9429 359.937701 
Q 488.9429 361.603701 490.6089 361.603701 
z
" style="fill:#ffffff;opacity:0.8;stroke:#cccccc;stroke-linejoin:miter;"/>
    </g>
    <g id="line2d_38">
     <path d="M 492.2749 340.933587 
L 508.9349 340.933587 
" style="fill:none;stroke:#1f77b4;stroke-linecap:square;stroke-width:1.5;"/>
    </g>
    <g id="line2d_39"/>
    <g id="text_32">
     <!-- u_0 -->
     <g transform="translate(515.5989 343.849087)scale(0.0833 -0.0833)">
      <use xlink:href="#DejaVuSans-75"/>
      <use x="63.378906" xlink:href="#DejaVuSans-5f"/>
      <use x="113.378906" xlink:href="#DejaVuSans-30"/>
     </g>
    </g>
    <g id="line2d_40">
     <path d="M 492.2749 353.392143 
L 508.9349 353.392143 
" style="fill:none;stroke:#ff7f0e;stroke-linecap:square;stroke-width:1.5;"/>
    </g>
    <g id="line2d_41"/>
    <g id="text_33">
     <!-- u_1 -->
     <g transform="translate(515.5989 356.307643)scale(0.0833 -0.0833)">
      <use xlink:href="#DejaVuSans-75"/>
      <use x="63.378906" xlink:href="#DejaVuSans-5f"/>
      <use x="113.378906" xlink:href="#DejaVuSans-31"/>
     </g>
    </g>
   </g>
  </g>
  <g id="axes_3">
   <g id="patch_14">
    <path d="M 74.7 749.736 
L 537.84 749.736 
L 537.84 558.957176 
L 74.7 558.957176 
z
" style="fill:#ffffff;"/>
   </g>
   <g id="matplotlib.axis_5">
    <g id="xtick_13">
     <g id="line2d_42">
      <g>
       <use style="stroke:#000000;stroke-width:0.8;" x="95.751818" xlink:href="#m941cbf60bc" y="749.736"/>
      </g>
     </g>
     <g id="text_34">
      <!-- 0 -->
      <g transform="translate(92.570568 764.334438)scale(0.1 -0.1)">
       <use xlink:href="#DejaVuSans-30"/>
      </g>
     </g>
    </g>
    <g id="xtick_14">
     <g id="line2d_43">
      <g>
       <use style="stroke:#000000;stroke-width:0.8;" x="116.803636" xlink:href="#m941cbf60bc" y="749.736"/>
      </g>
     </g>
     <g id="text_35">
      <!-- 5 -->
      <g transform="translate(113.622386 764.334438)scale(0.1 -0.1)">
       <defs>
        <path d="M 691 4666 
L 3169 4666 
L 3169 4134 
L 1269 4134 
L 1269 2991 
Q 1406 3038 1543 3061 
Q 1681 3084 1819 3084 
Q 2600 3084 3056 2656 
Q 3513 2228 3513 1497 
Q 3513 744 3044 326 
Q 2575 -91 1722 -91 
Q 1428 -91 1123 -41 
Q 819 9 494 109 
L 494 744 
Q 775 591 1075 516 
Q 1375 441 1709 441 
Q 2250 441 2565 725 
Q 2881 1009 2881 1497 
Q 2881 1984 2565 2268 
Q 2250 2553 1709 2553 
Q 1456 2553 1204 2497 
Q 953 2441 691 2322 
L 691 4666 
z
" id="DejaVuSans-35" transform="scale(0.015625)"/>
       </defs>
       <use xlink:href="#DejaVuSans-35"/>
      </g>
     </g>
    </g>
    <g id="xtick_15">
     <g id="line2d_44">
      <g>
       <use style="stroke:#000000;stroke-width:0.8;" x="137.855455" xlink:href="#m941cbf60bc" y="749.736"/>
      </g>
     </g>
     <g id="text_36">
      <!-- 10 -->
      <g transform="translate(131.492955 764.334438)scale(0.1 -0.1)">
       <use xlink:href="#DejaVuSans-31"/>
       <use x="63.623047" xlink:href="#DejaVuSans-30"/>
      </g>
     </g>
    </g>
    <g id="xtick_16">
     <g id="line2d_45">
      <g>
       <use style="stroke:#000000;stroke-width:0.8;" x="158.907273" xlink:href="#m941cbf60bc" y="749.736"/>
      </g>
     </g>
     <g id="text_37">
      <!-- 15 -->
      <g transform="translate(152.544773 764.334438)scale(0.1 -0.1)">
       <use xlink:href="#DejaVuSans-31"/>
       <use x="63.623047" xlink:href="#DejaVuSans-35"/>
      </g>
     </g>
    </g>
    <g id="xtick_17">
     <g id="line2d_46">
      <g>
       <use style="stroke:#000000;stroke-width:0.8;" x="179.959091" xlink:href="#m941cbf60bc" y="749.736"/>
      </g>
     </g>
     <g id="text_38">
      <!-- 20 -->
      <g transform="translate(173.596591 764.334438)scale(0.1 -0.1)">
       <use xlink:href="#DejaVuSans-32"/>
       <use x="63.623047" xlink:href="#DejaVuSans-30"/>
      </g>
     </g>
    </g>
    <g id="xtick_18">
     <g id="line2d_47">
      <g>
       <use style="stroke:#000000;stroke-width:0.8;" x="201.010909" xlink:href="#m941cbf60bc" y="749.736"/>
      </g>
     </g>
     <g id="text_39">
      <!-- 25 -->
      <g transform="translate(194.648409 764.334438)scale(0.1 -0.1)">
       <use xlink:href="#DejaVuSans-32"/>
       <use x="63.623047" xlink:href="#DejaVuSans-35"/>
      </g>
     </g>
    </g>
    <g id="xtick_19">
     <g id="line2d_48">
      <g>
       <use style="stroke:#000000;stroke-width:0.8;" x="222.062727" xlink:href="#m941cbf60bc" y="749.736"/>
      </g>
     </g>
     <g id="text_40">
      <!-- 30 -->
      <g transform="translate(215.700227 764.334438)scale(0.1 -0.1)">
       <use xlink:href="#DejaVuSans-33"/>
       <use x="63.623047" xlink:href="#DejaVuSans-30"/>
      </g>
     </g>
    </g>
    <g id="xtick_20">
     <g id="line2d_49">
      <g>
       <use style="stroke:#000000;stroke-width:0.8;" x="243.114545" xlink:href="#m941cbf60bc" y="749.736"/>
      </g>
     </g>
     <g id="text_41">
      <!-- 35 -->
      <g transform="translate(236.752045 764.334438)scale(0.1 -0.1)">
       <use xlink:href="#DejaVuSans-33"/>
       <use x="63.623047" xlink:href="#DejaVuSans-35"/>
      </g>
     </g>
    </g>
    <g id="xtick_21">
     <g id="line2d_50">
      <g>
       <use style="stroke:#000000;stroke-width:0.8;" x="264.166364" xlink:href="#m941cbf60bc" y="749.736"/>
      </g>
     </g>
     <g id="text_42">
      <!-- 40 -->
      <g transform="translate(257.803864 764.334438)scale(0.1 -0.1)">
       <use xlink:href="#DejaVuSans-34"/>
       <use x="63.623047" xlink:href="#DejaVuSans-30"/>
      </g>
     </g>
    </g>
    <g id="xtick_22">
     <g id="line2d_51">
      <g>
       <use style="stroke:#000000;stroke-width:0.8;" x="285.218182" xlink:href="#m941cbf60bc" y="749.736"/>
      </g>
     </g>
     <g id="text_43">
      <!-- 45 -->
      <g transform="translate(278.855682 764.334438)scale(0.1 -0.1)">
       <use xlink:href="#DejaVuSans-34"/>
       <use x="63.623047" xlink:href="#DejaVuSans-35"/>
      </g>
     </g>
    </g>
    <g id="xtick_23">
     <g id="line2d_52">
      <g>
       <use style="stroke:#000000;stroke-width:0.8;" x="306.27" xlink:href="#m941cbf60bc" y="749.736"/>
      </g>
     </g>
     <g id="text_44">
      <!-- 50 -->
      <g transform="translate(299.9075 764.334438)scale(0.1 -0.1)">
       <use xlink:href="#DejaVuSans-35"/>
       <use x="63.623047" xlink:href="#DejaVuSans-30"/>
      </g>
     </g>
    </g>
    <g id="xtick_24">
     <g id="line2d_53">
      <g>
       <use style="stroke:#000000;stroke-width:0.8;" x="327.321818" xlink:href="#m941cbf60bc" y="749.736"/>
      </g>
     </g>
     <g id="text_45">
      <!-- 55 -->
      <g transform="translate(320.959318 764.334438)scale(0.1 -0.1)">
       <use xlink:href="#DejaVuSans-35"/>
       <use x="63.623047" xlink:href="#DejaVuSans-35"/>
      </g>
     </g>
    </g>
    <g id="xtick_25">
     <g id="line2d_54">
      <g>
       <use style="stroke:#000000;stroke-width:0.8;" x="348.373636" xlink:href="#m941cbf60bc" y="749.736"/>
      </g>
     </g>
     <g id="text_46">
      <!-- 60 -->
      <g transform="translate(342.011136 764.334438)scale(0.1 -0.1)">
       <use xlink:href="#DejaVuSans-36"/>
       <use x="63.623047" xlink:href="#DejaVuSans-30"/>
      </g>
     </g>
    </g>
    <g id="xtick_26">
     <g id="line2d_55">
      <g>
       <use style="stroke:#000000;stroke-width:0.8;" x="369.425455" xlink:href="#m941cbf60bc" y="749.736"/>
      </g>
     </g>
     <g id="text_47">
      <!-- 65 -->
      <g transform="translate(363.062955 764.334438)scale(0.1 -0.1)">
       <use xlink:href="#DejaVuSans-36"/>
       <use x="63.623047" xlink:href="#DejaVuSans-35"/>
      </g>
     </g>
    </g>
    <g id="xtick_27">
     <g id="line2d_56">
      <g>
       <use style="stroke:#000000;stroke-width:0.8;" x="390.477273" xlink:href="#m941cbf60bc" y="749.736"/>
      </g>
     </g>
     <g id="text_48">
      <!-- 70 -->
      <g transform="translate(384.114773 764.334438)scale(0.1 -0.1)">
       <use xlink:href="#DejaVuSans-37"/>
       <use x="63.623047" xlink:href="#DejaVuSans-30"/>
      </g>
     </g>
    </g>
    <g id="xtick_28">
     <g id="line2d_57">
      <g>
       <use style="stroke:#000000;stroke-width:0.8;" x="411.529091" xlink:href="#m941cbf60bc" y="749.736"/>
      </g>
     </g>
     <g id="text_49">
      <!-- 75 -->
      <g transform="translate(405.166591 764.334438)scale(0.1 -0.1)">
       <use xlink:href="#DejaVuSans-37"/>
       <use x="63.623047" xlink:href="#DejaVuSans-35"/>
      </g>
     </g>
    </g>
    <g id="xtick_29">
     <g id="line2d_58">
      <g>
       <use style="stroke:#000000;stroke-width:0.8;" x="432.580909" xlink:href="#m941cbf60bc" y="749.736"/>
      </g>
     </g>
     <g id="text_50">
      <!-- 80 -->
      <g transform="translate(426.218409 764.334438)scale(0.1 -0.1)">
       <use xlink:href="#DejaVuSans-38"/>
       <use x="63.623047" xlink:href="#DejaVuSans-30"/>
      </g>
     </g>
    </g>
    <g id="xtick_30">
     <g id="line2d_59">
      <g>
       <use style="stroke:#000000;stroke-width:0.8;" x="453.632727" xlink:href="#m941cbf60bc" y="749.736"/>
      </g>
     </g>
     <g id="text_51">
      <!-- 85 -->
      <g transform="translate(447.270227 764.334438)scale(0.1 -0.1)">
       <use xlink:href="#DejaVuSans-38"/>
       <use x="63.623047" xlink:href="#DejaVuSans-35"/>
      </g>
     </g>
    </g>
    <g id="xtick_31">
     <g id="line2d_60">
      <g>
       <use style="stroke:#000000;stroke-width:0.8;" x="474.684545" xlink:href="#m941cbf60bc" y="749.736"/>
      </g>
     </g>
     <g id="text_52">
      <!-- 90 -->
      <g transform="translate(468.322045 764.334438)scale(0.1 -0.1)">
       <defs>
        <path d="M 703 97 
L 703 672 
Q 941 559 1184 500 
Q 1428 441 1663 441 
Q 2288 441 2617 861 
Q 2947 1281 2994 2138 
Q 2813 1869 2534 1725 
Q 2256 1581 1919 1581 
Q 1219 1581 811 2004 
Q 403 2428 403 3163 
Q 403 3881 828 4315 
Q 1253 4750 1959 4750 
Q 2769 4750 3195 4129 
Q 3622 3509 3622 2328 
Q 3622 1225 3098 567 
Q 2575 -91 1691 -91 
Q 1453 -91 1209 -44 
Q 966 3 703 97 
z
M 1959 2075 
Q 2384 2075 2632 2365 
Q 2881 2656 2881 3163 
Q 2881 3666 2632 3958 
Q 2384 4250 1959 4250 
Q 1534 4250 1286 3958 
Q 1038 3666 1038 3163 
Q 1038 2656 1286 2365 
Q 1534 2075 1959 2075 
z
" id="DejaVuSans-39" transform="scale(0.015625)"/>
       </defs>
       <use xlink:href="#DejaVuSans-39"/>
       <use x="63.623047" xlink:href="#DejaVuSans-30"/>
      </g>
     </g>
    </g>
    <g id="xtick_32">
     <g id="line2d_61">
      <g>
       <use style="stroke:#000000;stroke-width:0.8;" x="495.736364" xlink:href="#m941cbf60bc" y="749.736"/>
      </g>
     </g>
     <g id="text_53">
      <!-- 95 -->
      <g transform="translate(489.373864 764.334438)scale(0.1 -0.1)">
       <use xlink:href="#DejaVuSans-39"/>
       <use x="63.623047" xlink:href="#DejaVuSans-35"/>
      </g>
     </g>
    </g>
    <g id="xtick_33">
     <g id="line2d_62">
      <g>
       <use style="stroke:#000000;stroke-width:0.8;" x="516.788182" xlink:href="#m941cbf60bc" y="749.736"/>
      </g>
     </g>
     <g id="text_54">
      <!-- 100 -->
      <g transform="translate(507.244432 764.334438)scale(0.1 -0.1)">
       <use xlink:href="#DejaVuSans-31"/>
       <use x="63.623047" xlink:href="#DejaVuSans-30"/>
       <use x="127.246094" xlink:href="#DejaVuSans-30"/>
      </g>
     </g>
    </g>
    <g id="text_55">
     <!-- Time -->
     <g transform="translate(294.036406 778.012562)scale(0.1 -0.1)">
      <defs>
       <path d="M -19 4666 
L 3928 4666 
L 3928 4134 
L 2272 4134 
L 2272 0 
L 1638 0 
L 1638 4134 
L -19 4134 
L -19 4666 
z
" id="DejaVuSans-54" transform="scale(0.015625)"/>
      </defs>
      <use xlink:href="#DejaVuSans-54"/>
      <use x="57.958984" xlink:href="#DejaVuSans-69"/>
      <use x="85.742188" xlink:href="#DejaVuSans-6d"/>
      <use x="183.154297" xlink:href="#DejaVuSans-65"/>
     </g>
    </g>
   </g>
   <g id="matplotlib.axis_6">
    <g id="ytick_12">
     <g id="line2d_63">
      <g>
       <use style="stroke:#000000;stroke-width:0.8;" x="74.7" xlink:href="#m09291068b5" y="741.224038"/>
      </g>
     </g>
     <g id="text_56">
      <!-- 0.0 -->
      <g transform="translate(51.796875 745.023257)scale(0.1 -0.1)">
       <defs>
        <path d="M 684 794 
L 1344 794 
L 1344 0 
L 684 0 
L 684 794 
z
" id="DejaVuSans-2e" transform="scale(0.015625)"/>
       </defs>
       <use xlink:href="#DejaVuSans-30"/>
       <use x="63.623047" xlink:href="#DejaVuSans-2e"/>
       <use x="95.410156" xlink:href="#DejaVuSans-30"/>
      </g>
     </g>
    </g>
    <g id="ytick_13">
     <g id="line2d_64">
      <g>
       <use style="stroke:#000000;stroke-width:0.8;" x="74.7" xlink:href="#m09291068b5" y="709.28491"/>
      </g>
     </g>
     <g id="text_57">
      <!-- 0.2 -->
      <g transform="translate(51.796875 713.084129)scale(0.1 -0.1)">
       <use xlink:href="#DejaVuSans-30"/>
       <use x="63.623047" xlink:href="#DejaVuSans-2e"/>
       <use x="95.410156" xlink:href="#DejaVuSans-32"/>
      </g>
     </g>
    </g>
    <g id="ytick_14">
     <g id="line2d_65">
      <g>
       <use style="stroke:#000000;stroke-width:0.8;" x="74.7" xlink:href="#m09291068b5" y="677.345782"/>
      </g>
     </g>
     <g id="text_58">
      <!-- 0.4 -->
      <g transform="translate(51.796875 681.145001)scale(0.1 -0.1)">
       <use xlink:href="#DejaVuSans-30"/>
       <use x="63.623047" xlink:href="#DejaVuSans-2e"/>
       <use x="95.410156" xlink:href="#DejaVuSans-34"/>
      </g>
     </g>
    </g>
    <g id="ytick_15">
     <g id="line2d_66">
      <g>
       <use style="stroke:#000000;stroke-width:0.8;" x="74.7" xlink:href="#m09291068b5" y="645.406654"/>
      </g>
     </g>
     <g id="text_59">
      <!-- 0.6 -->
      <g transform="translate(51.796875 649.205873)scale(0.1 -0.1)">
       <use xlink:href="#DejaVuSans-30"/>
       <use x="63.623047" xlink:href="#DejaVuSans-2e"/>
       <use x="95.410156" xlink:href="#DejaVuSans-36"/>
      </g>
     </g>
    </g>
    <g id="ytick_16">
     <g id="line2d_67">
      <g>
       <use style="stroke:#000000;stroke-width:0.8;" x="74.7" xlink:href="#m09291068b5" y="613.467526"/>
      </g>
     </g>
     <g id="text_60">
      <!-- 0.8 -->
      <g transform="translate(51.796875 617.266745)scale(0.1 -0.1)">
       <use xlink:href="#DejaVuSans-30"/>
       <use x="63.623047" xlink:href="#DejaVuSans-2e"/>
       <use x="95.410156" xlink:href="#DejaVuSans-38"/>
      </g>
     </g>
    </g>
    <g id="ytick_17">
     <g id="line2d_68">
      <g>
       <use style="stroke:#000000;stroke-width:0.8;" x="74.7" xlink:href="#m09291068b5" y="581.528398"/>
      </g>
     </g>
     <g id="text_61">
      <!-- 1.0 -->
      <g transform="translate(51.796875 585.327617)scale(0.1 -0.1)">
       <use xlink:href="#DejaVuSans-31"/>
       <use x="63.623047" xlink:href="#DejaVuSans-2e"/>
       <use x="95.410156" xlink:href="#DejaVuSans-30"/>
      </g>
     </g>
    </g>
    <g id="text_62">
     <!-- 1e9 -->
     <g transform="translate(74.7 555.957176)scale(0.1 -0.1)">
      <use xlink:href="#DejaVuSans-31"/>
      <use x="63.623047" xlink:href="#DejaVuSans-65"/>
      <use x="125.146484" xlink:href="#DejaVuSans-39"/>
     </g>
    </g>
   </g>
   <g id="line2d_69">
    <path clip-path="url(#pcfaaedf9a1)" d="M 95.751818 567.628941 
L 99.962182 567.631282 
L 104.172545 570.800509 
L 108.382909 571.607768 
L 112.593273 578.35428 
L 116.803636 582.644336 
L 121.014 583.58228 
L 125.224364 583.634955 
L 129.434727 584.955275 
L 133.645091 586.880703 
L 137.855455 588.966925 
L 142.065818 590.300312 
L 146.276182 590.781466 
L 150.486545 591.584593 
L 154.696909 591.681118 
L 158.907273 591.697399 
L 163.117636 592.155183 
L 167.328 592.605681 
L 171.538364 594.092973 
L 175.748727 595.718032 
L 179.959091 596.363623 
L 184.169455 596.822957 
L 188.379818 597.331645 
L 192.590182 597.843891 
L 196.800545 598.314949 
L 201.010909 598.857045 
L 205.221273 599.258737 
L 209.431636 599.578383 
L 213.642 600.017727 
L 217.852364 600.118766 
L 222.062727 600.163548 
L 226.273091 601.48613 
L 230.483455 603.24224 
L 234.693818 604.683883 
L 238.904182 606.206351 
L 243.114545 607.837151 
L 247.324909 609.153259 
L 251.535273 610.832712 
L 255.745636 613.144671 
L 259.956 614.965757 
L 264.166364 616.638057 
L 268.376727 618.20317 
L 272.587091 620.584185 
L 276.797455 622.863209 
L 281.007818 624.858431 
L 285.218182 627.189329 
L 289.428545 629.459733 
L 293.638909 631.918894 
L 297.849273 634.266151 
L 302.059636 636.649143 
L 306.27 638.825133 
L 310.480364 641.024508 
L 314.690727 643.224467 
L 318.901091 645.418539 
L 323.111455 647.612014 
L 327.321818 649.812155 
L 331.532182 652.010388 
L 335.742545 654.213165 
L 339.952909 656.411669 
L 344.163273 658.615497 
L 348.373636 660.801664 
L 352.584 663.000217 
L 356.794364 665.249218 
L 361.004727 667.4019 
L 365.215091 669.980569 
L 369.425455 671.858757 
L 373.635818 673.551199 
L 377.846182 675.846849 
L 382.056545 678.210824 
L 386.266909 680.631036 
L 390.477273 682.841681 
L 394.687636 685.551237 
L 398.898 687.761242 
L 403.108364 688.362202 
L 407.318727 688.444516 
L 411.529091 688.927163 
L 415.739455 690.934835 
L 419.949818 692.141945 
L 424.160182 693.177884 
L 428.370545 695.016675 
L 432.580909 696.528735 
L 436.791273 698.47733 
L 441.001636 700.961682 
L 445.212 703.175855 
L 449.422364 705.708008 
L 453.632727 707.82489 
L 457.843091 709.767579 
L 462.053455 712.376561 
L 466.263818 714.804293 
L 470.474182 717.50427 
L 474.684545 719.669995 
L 478.894909 722.396039 
L 483.105273 724.495678 
L 487.315636 726.97965 
L 491.526 729.935262 
L 495.736364 732.491483 
L 499.946727 734.98841 
L 504.157091 737.545713 
L 508.367455 738.048729 
L 512.577818 739.852737 
L 516.788182 741.064235 
" style="fill:none;stroke:#1f77b4;stroke-linecap:square;stroke-width:1.5;"/>
   </g>
   <g id="patch_15">
    <path d="M 74.7 749.736 
L 74.7 558.957176 
" style="fill:none;stroke:#000000;stroke-linecap:square;stroke-linejoin:miter;stroke-width:0.8;"/>
   </g>
   <g id="patch_16">
    <path d="M 537.84 749.736 
L 537.84 558.957176 
" style="fill:none;stroke:#000000;stroke-linecap:square;stroke-linejoin:miter;stroke-width:0.8;"/>
   </g>
   <g id="patch_17">
    <path d="M 74.7 749.736 
L 537.84 749.736 
" style="fill:none;stroke:#000000;stroke-linecap:square;stroke-linejoin:miter;stroke-width:0.8;"/>
   </g>
   <g id="patch_18">
    <path d="M 74.7 558.957176 
L 537.84 558.957176 
" style="fill:none;stroke:#000000;stroke-linecap:square;stroke-linejoin:miter;stroke-width:0.8;"/>
   </g>
   <g id="text_63">
    <!-- Cost to go against time -->
    <g transform="translate(257.584404 552.957176)scale(0.0833 -0.0833)">
     <use xlink:href="#DejaVuSans-43"/>
     <use x="69.824219" xlink:href="#DejaVuSans-6f"/>
     <use x="131.005859" xlink:href="#DejaVuSans-73"/>
     <use x="183.105469" xlink:href="#DejaVuSans-74"/>
     <use x="222.314453" xlink:href="#DejaVuSans-20"/>
     <use x="254.101562" xlink:href="#DejaVuSans-74"/>
     <use x="293.310547" xlink:href="#DejaVuSans-6f"/>
     <use x="354.492188" xlink:href="#DejaVuSans-20"/>
     <use x="386.279297" xlink:href="#DejaVuSans-67"/>
     <use x="449.755859" xlink:href="#DejaVuSans-6f"/>
     <use x="510.9375" xlink:href="#DejaVuSans-20"/>
     <use x="542.724609" xlink:href="#DejaVuSans-61"/>
     <use x="604.003906" xlink:href="#DejaVuSans-67"/>
     <use x="667.480469" xlink:href="#DejaVuSans-61"/>
     <use x="728.759766" xlink:href="#DejaVuSans-69"/>
     <use x="756.542969" xlink:href="#DejaVuSans-6e"/>
     <use x="819.921875" xlink:href="#DejaVuSans-73"/>
     <use x="872.021484" xlink:href="#DejaVuSans-74"/>
     <use x="911.230469" xlink:href="#DejaVuSans-20"/>
     <use x="943.017578" xlink:href="#DejaVuSans-74"/>
     <use x="982.226562" xlink:href="#DejaVuSans-69"/>
     <use x="1010.009766" xlink:href="#DejaVuSans-6d"/>
     <use x="1107.421875" xlink:href="#DejaVuSans-65"/>
    </g>
   </g>
   <g id="legend_3">
    <g id="patch_19">
     <path d="M 492.218933 577.848055 
L 532.009 577.848055 
Q 533.675 577.848055 533.675 576.182055 
L 533.675 564.788176 
Q 533.675 563.122176 532.009 563.122176 
L 492.218933 563.122176 
Q 490.552933 563.122176 490.552933 564.788176 
L 490.552933 576.182055 
Q 490.552933 577.848055 492.218933 577.848055 
z
" style="fill:#ffffff;opacity:0.8;stroke:#cccccc;stroke-linejoin:miter;"/>
    </g>
    <g id="line2d_70">
     <path d="M 493.884933 569.868175 
L 510.544933 569.868175 
" style="fill:none;stroke:#1f77b4;stroke-linecap:square;stroke-width:1.5;"/>
    </g>
    <g id="line2d_71"/>
    <g id="text_64">
     <!-- ctg -->
     <g transform="translate(517.208933 572.783675)scale(0.0833 -0.0833)">
      <use xlink:href="#DejaVuSans-63"/>
      <use x="54.980469" xlink:href="#DejaVuSans-74"/>
      <use x="94.189453" xlink:href="#DejaVuSans-67"/>
     </g>
    </g>
   </g>
  </g>
 </g>
 <defs>
  <clipPath id="p8100366e96">
   <rect height="190.778824" width="463.14" x="74.7" y="101.088"/>
  </clipPath>
  <clipPath id="pb0391efc1e">
   <rect height="190.778824" width="463.14" x="74.7" y="330.022588"/>
  </clipPath>
  <clipPath id="pcfaaedf9a1">
   <rect height="190.778824" width="463.14" x="74.7" y="558.957176"/>
  </clipPath>
 </defs>
</svg>
